<svg xmlns="http://www.w3.org/2000/svg" xmlns:xlink="http://www.w3.org/1999/xlink" xmlns:inkscape="http://www.inkscape.org/namespaces/inkscape" xmlns:sodipodi="http://sodipodi.sourceforge.net/DTD/sodipodi-0.0.dtd" viewBox="806.52 843.97 33.94 25.14"><defs><filter id="gl" x="-30%" y="-30%" width="160%" height="160%"><feGaussianBlur stdDeviation="0.10" result="b"/><feMerge><feMergeNode in="b"/><feMergeNode in="b"/><feMergeNode in="SourceGraphic"/></feMerge></filter></defs><rect x="806.52" y="843.97" width="33.94" height="25.14" fill="#0a0e1a"/><g opacity="0.45" transform="rotate(75.84 825.669 854.605)"><g xmlns="http://www.w3.org/2000/svg" id="bgG"><defs id="defs40143"><clipPath id="clipPath24" clipPathUnits="userSpaceOnUse"/></defs><path id="rect1" fill="#0a0e1a" d="M0 0h2000v1380H0Z" style="display:inline;fill:#0a0e1a"/><g xmlns:inkscape="http://www.inkscape.org/namespaces/inkscape" inkscape:label="RUNWAY" id="layer-runways" style="display:inline"><path inkscape:label="RWY-15L-33R" id="polygon37507" d="m746.82 554.94 215.78 305.2-4.86 3.46-215.79-305.2Z" data-class="pavement-runway" data-length-m="3750" data-runway="15L/33R" data-threshold-dxf="2047.431,3780.238 5797.431,3780.238" data-threshold-wgs84="37.4839426,126.4401441 37.4563775,126.4646632" style="stroke:none;fill:#111927;fill-opacity:.51"/><path inkscape:label="RWY-15R-33L" id="polygon37508" d="m713.23 578.82 215.79 305.19-4.87 3.46-215.79-305.19z" data-class="pavement-runway" data-length-m="3750" data-runway="15R/33L" data-threshold-dxf="2047.431,3366.238 5797.431,3366.238" data-threshold-wgs84="37.4817860,126.4363272 37.4542217,126.4608470" style="stroke:none;fill:#111927;fill-opacity:.51"/></g><g xmlns:inkscape="http://www.inkscape.org/namespaces/inkscape" inkscape:label="GREEN-AREAS" id="layer-green" style="display:inline"><path inkscape:label="GREEN-34" id="path37256" d="m834.7 860.39-12.59 8.95-6.9 3.6a1.2 1.2 0 0 1-1.17-.04 1.2 1.2 0 0 1 .35-1.12l5.67-5.33 12.6-8.95 6.89-3.61a1.2 1.2 0 0 1 1.17.04 1.2 1.2 0 0 1-.35 1.13z" data-class="green-zone" data-dxf-bulges="0.0000 0.0000 -0.2627 -0.2627 0.0000 0.0000 0.0000 -0.2627 -0.2627 0.0000" data-dxf-pts="5055.93,2759.35 5055.93,2604.11 5045.32,2526.66 5038.18,2517.27 5031.04,2526.66 5020.43,2604.11 5020.43,2759.35 5031.04,2836.80 5038.18,2846.19 5045.32,2836.80" data-handle="7B10D" data-layer="계류장지역" style="fill:#13181e;stroke:#1a1f26;stroke-width:.1"/><path inkscape:label="GREEN-31" id="path37257" d="m840.39 868.44-12.59 8.96-6.89 3.6a1.2 1.2 0 0 1-1.42-.24l-.12-.12-.07-.15a1.2 1.2 0 0 1 .24-1.43l5.67-5.33 12.59-8.95 6.9-3.6a1.2 1.2 0 0 1 1.42.24l.11.12.08.15a1.2 1.2 0 0 1-.24 1.42z" data-class="green-zone" data-dxf-bulges="0.0000 0.0000 -0.3365 0.0000 0.0000 -0.3365 0.0000 0.0000 0.0000 -0.3365 0.0000 0.0000 -0.3365 0.0000" data-dxf-pts="5154.93,2759.35 5154.93,2604.11 5144.32,2526.66 5134.06,2516.40 5132.43,2516.18 5130.80,2516.40 5120.54,2526.66 5109.93,2604.11 5109.93,2759.35 5120.54,2836.80 5130.80,2847.06 5132.43,2847.28 5134.06,2847.06 5144.32,2836.80" data-handle="7B10E" data-layer="계류장지역" style="fill:#13181e;stroke:#1a1f26;stroke-width:.1"/><path inkscape:label="GREEN-106" id="path37374" d="m854.25 845.32.57-.54a1.35 1.35 0 0 0 .28-1.61l-2.65-5.08-.96-1.85-10.75-15.21-4.03-3.53a1.3 1.3 0 0 0-1.45-.16l-.57.31 7.06 9.99.16-.11 8.54 11.98-.2.14.74 1.06a.95.95 0 0 1 1.08 1.53l2.18 3.08" data-class="green-zone" data-dxf-bulges="0.0000 0.3366 0.0000 0.0000 0.0000 0.0000 0.3144 0.0000 0.0000 0.0000 0.0000 0.0000 0.0000 -0.8609 0.0000 0.0000" data-dxf-pts="5046.38,3007.15 5045.31,3014.99 5033.76,3026.54 4976.78,3034.34 4956.11,3037.16 4769.19,3037.16 4716.94,3024.61 4707.22,3013.65 4706.46,3007.15 4829.14,3007.15 4829.14,3009.06 4976.78,3009.71 4976.78,3007.15 4989.70,3007.15 5008.49,3007.15 5046.38,3007.15" data-handle="7BCBD" data-layer="기동지역" style="fill:#13181e;stroke:#1a1f26;stroke-width:.1"/><g inkscape:label="GREEN-8" id="g965"><path inkscape:label="GREEN-8-02" id="path37373" d="m854.25 845.32-2.18-3.08a.95.95 0 1 1-1.08-1.53l-.74-1.06-1.43 1.02-8.44-12.06.15-.11-1.39-1.97a2.3 2.3 0 0 0-3.18-.52l-.97.69 4.63 6.55.84.32.56.8 8.46 11.96-2.21 2.07a1.2 1.2 0 0 0-.35 1.13 1.2 1.2 0 0 0 1.18.04l3.68-1.93 1.19-1.12 1.28-1.2" data-class="green-zone" data-dxf-bulges="0.0000 -1.1616 0.0000 0.0000 0.0000 0.0000 0.0000 0.4081 0.0000 0.0000 0.0000 0.0000 0.0000 0.0000 0.0000 0.2627 0.2627 0.0000 0.0000 0.0000 0.0000" data-dxf-pts="5046.38,3007.15 5008.49,3007.15 4989.70,3007.15 4976.78,3007.15 4976.78,2989.62 4829.14,2990.26 4829.14,2992.15 4804.93,2992.15 4782.17,2969.05 4782.17,2957.16 4862.63,2957.16 4870.19,2962.16 4879.93,2962.16 4879.93,2962.16 5026.91,2962.16 5031.04,2932.03 5038.18,2922.64 5045.32,2932.03 5050.99,2973.44 5048.78,2989.64 5046.38,3007.15" data-handle="7BCBC" data-layer="계류장지역" style="fill:#13181e;stroke:#1a1f26;stroke-width:.1"/></g><path inkscape:label="GREEN-34-PAV" id="path1020" d="m821.55 865.39.61-.43 2.04 2.89-.6.43z" style="fill:#0a0e1a;stroke:#0a0e1a;stroke-width:.12;stroke-dasharray:none;paint-order:stroke fill markers"/></g><g xmlns:inkscape="http://www.inkscape.org/namespaces/inkscape" inkscape:label="SCHM" id="layer-schm" style="display:inline"><path id="path2025" d="m834.04 827.41 4.82 6.82.84.33 8.21 11.61-1.45 1.36a2.4 2.4 0 0 0-.63 2.5 1 1 0 0 0 .26.36 2.4 2.4 0 0 0 2.56.23l3.74-1.95.17-.12 1.29-1.22" data-class="schm" data-dxf-bulges="0.0000 0.0000 0.0000 0.0000 0.2932 0.1480 0.2932 0.0000 0.0681 0.0000 0.0000" data-dxf-pts="4782.43,2945.24 4866.24,2945.24 4873.80,2950.24 5016.45,2950.24 5019.15,2930.48 5035.98,2910.77 5040.38,2910.77 5057.21,2930.48 5062.96,2972.48 5062.96,2974.54 5060.54,2992.23" data-handle="71F6F" data-layer="SCHM" style="fill:none;stroke:#5a5f68;stroke-width:.1;stroke-opacity:.6"/><path inkscape:label="SHOULDER-34" id="path2115" d="m822.52 870.51-6.96 3.64a2.4 2.4 0 0 1-2.57-.23 1 1 0 0 1-.25-.36 2.4 2.4 0 0 1 .63-2.51l5.73-5.38 12.9-9.17 6.96-3.64a2.4 2.4 0 0 1 2.57.23 1 1 0 0 1 .25.36 2.4 2.4 0 0 1-.63 2.51l-5.73 5.38z" data-class="shoulder" data-dxf-bulges="0.0000 -0.2932 -0.1480 -0.2932 0.0000 0.0000 0.0000 -0.2932 -0.1480 -0.2932 0.0000 0.0000" data-dxf-pts="5067.93,2600.74 5057.21,2522.48 5040.38,2502.77 5035.98,2502.77 5019.15,2522.48 5008.43,2600.74 5008.43,2759.74 5019.15,2838.00 5035.98,2857.71 5040.38,2857.71 5057.21,2838.00 5067.93,2759.74" data-handle="71FF5" data-layer="SCHM" style="fill:none;stroke:#5a5f68;stroke-width:.1;stroke-opacity:.6"/><path inkscape:label="SHOULDER-31" id="path2116" d="m846.85 864.01-5.73 5.39-12.9 9.17-6.97 3.64a2.39 2.39 0 0 1-2.73-3.87l5.73-5.39 12.9-9.17 6.96-3.64a2.39 2.39 0 0 1 2.74 3.87z" data-class="shoulder" data-dxf-bulges="0.0000 0.0000 0.0000 -0.8723 0.0000 0.0000 0.0000 -0.8723" data-dxf-pts="5156.21,2838.00 5166.93,2759.74 5166.93,2600.74 5156.21,2522.48 5108.65,2522.48 5097.93,2600.74 5097.93,2759.74 5108.65,2838.00" data-handle="71FF6" data-layer="SCHM" style="fill:none;stroke:#5a5f68;stroke-width:.1;stroke-opacity:.6"/><path id="path30727" d="M823.87 843.59a2.56 2.56 0 0 0-2.95-4.18" data-class="schm" data-dxf-arc="4829.93,2767.94,25.66,0.00,180.00" data-handle="796C2" data-layer="SCHM" style="fill:none;stroke:#5a5f68;stroke-width:.1;stroke-opacity:.6"/><path id="line30728" d="m793.19 859.12 27.73-19.71" data-class="schm" data-dxf-p="4804.271,2426.138 4804.271,2767.938" data-handle="796C3" data-layer="SCHM" data-wgs="37.4566261,126.4456896 37.4584064,126.4488399" style="fill:none;stroke:#5a5f68;stroke-width:.1;stroke-opacity:.6"/><path id="line30729" d="m795.52 863.74 28.35-20.15" data-class="schm" data-dxf-p="4855.591,2418.438 4855.591,2767.938" data-handle="796C4" data-layer="SCHM" data-wgs="37.4562088,126.4459541 37.4580292,126.4491755" style="fill:none;stroke:#5a5f68;stroke-width:.1;stroke-opacity:.6;display:inline"/><path id="path31995" d="m834.99 826.7-4.41 3.14a1.5 1.5 0 0 0-.36 2.08l7.56 10.69a2.24 2.24 0 0 1-.53 3.13l-19.82 14.09a2.13 2.13 0 0 1-3.13-.54l-2.84-4.03a1.5 1.5 0 0 0-2.08-.35l-39.34 27.97a1.5 1.5 0 0 0-.35 2.08l2.84 4.03a2.02 2.02 0 0 1-.53 3.13l-20.98 14.92a2.24 2.24 0 0 1-3.12-.53l-6.18-8.75a1.5 1.5 0 0 0-2.08-.36l-5.07 3.61" data-class="schm" data-dxf-bulges="0.0000 0.4142 0.0000 -0.4142 0.0000 -0.4458 0.0000 0.4142 0.0000 0.4142 0.0000 -0.4844 0.0000 -0.4142 0.0000 0.4142 0.0000 0.0000" data-dxf-pts="4782.17,2957.16 4782.17,2902.74 4797.17,2887.74 4928.43,2887.74 4950.93,2865.24 4950.93,2620.90 4928.43,2598.38 4878.93,2598.38 4863.93,2583.38 4863.93,2098.40 4878.93,2083.40 4928.43,2083.40 4950.93,2060.90 4950.93,1802.24 4928.43,1779.74 4820.93,1779.74 4805.93,1764.74 4805.93,1702.24" data-handle="79C55" data-layer="SCHM" style="fill:none;stroke:#5a5f68;stroke-width:.1;stroke-opacity:.6;display:inline"/><path id="path31996" d="m733.99 900.19 5.07-3.6a1.5 1.5 0 0 0 .36-2.09l-3.31-4.68a2.24 2.24 0 0 1 .53-3.13l86.22-61.3a2.24 2.24 0 0 1 3.12.53l1.94 2.75a1.5 1.5 0 0 0 2.08.35l4.42-3.14" data-class="schm" data-dxf-bulges="0.0000 0.4142 0.0000 -0.4142 0.0000 -0.4142 0.0000 0.4142 0.0000 0.0000" data-dxf-pts="4795.93,1702.24 4795.93,1764.74 4780.93,1779.74 4723.43,1779.74 4700.93,1802.24 4700.93,2865.24 4723.43,2887.74 4757.17,2887.74 4772.17,2902.74 4772.17,2957.16" data-handle="79C56" data-layer="SCHM" style="fill:none;stroke:#5a5f68;stroke-width:.1;stroke-opacity:.6"/><path id="path31997" d="m824.35 844.27-11.93 8.48a1.5 1.5 0 0 0-.35 2.08l2.84 4.03a1.5 1.5 0 0 0 2.08.36l19.82-14.1a1.5 1.5 0 0 0 .36-2.08l-3.51-4.97a1.5 1.5 0 0 0-2.08-.35l-5.11 3.63a2.3 2.3 0 0 0-.86 1.18" data-class="schm" data-dxf-bulges="0.0000 0.4142 0.0000 0.4142 0.0000 0.4142 0.0000 0.4142 0.0000 0.1630 0.0000" data-dxf-pts="4863.93,2767.94 4863.93,2620.88 4878.93,2605.88 4928.43,2605.88 4943.43,2620.88 4943.43,2865.24 4928.43,2880.24 4867.43,2880.24 4852.43,2865.24 4852.43,2802.27 4857.07,2788.42" data-handle="79C57" data-layer="SCHM" style="fill:none;stroke:#5a5f68;stroke-width:.1;stroke-opacity:.6"/><path id="path31999" d="M824.35 844.27a3.4 3.4 0 0 0 1.26-1.74" data-class="schm" data-dxf-arc="4829.93,2767.94,34.00,0.00,37.04" data-handle="79C5A" data-layer="SCHM" style="fill:none;stroke:#5a5f68;stroke-width:.1;stroke-opacity:.6"/><path id="path32000" d="m774.03 871.73-31.93 22.69a1.5 1.5 0 0 1-2.07-.35l-3.31-4.68a1.5 1.5 0 0 1 .35-2.09l86.22-61.3a1.5 1.5 0 0 1 2.08.35l5.99 8.47a1.5 1.5 0 0 1-.36 2.08l-3.34 2.38a2.3 2.3 0 0 1-2.91-.21 3.4 3.4 0 0 0-4.31-.34l-5.6 3.98a2 2 0 0 1-.47.22l-1.28.35a3 3 0 0 0-.78.37l-2.88 2.05a3 3 0 0 0-.61.62l-.76 1.1a2 2 0 0 1-.36.37l-12.11 8.6a3 3 0 0 1-.79.4l-3.65 1.2a5 5 0 0 0-1.33.67l-1.36.97a77 77 0 0 0-9.03 6.42l-1.36.97a5 5 0 0 0-1.07 1.03l-2.33 3.06a3 3 0 0 1-.64.62" data-class="schm" data-dxf-bulges="0.0000 -0.4142 0.0000 -0.4142 0.0000 -0.4142 0.0000 -0.4142 0.0000 -0.3600 0.3616 0.0000 -0.0875 0.0000 0.0875 0.0000 0.0875 0.0000 -0.0875 0.0000 -0.0752 0.0000 0.0752 0.0000 0.0359 0.0000 0.0752 0.0000 -0.0752 0.0000" data-dxf-pts="4795.93,2195.79 4795.93,1802.24 4780.93,1787.24 4723.43,1787.24 4708.43,1802.24 4708.43,2865.24 4723.43,2880.24 4827.43,2880.24 4842.43,2865.24 4842.43,2823.96 4823.74,2801.37 4795.93,2767.94 4795.93,2698.99 4795.03,2693.86 4790.44,2681.26 4788.93,2672.71 4788.93,2637.17 4790.44,2628.62 4795.03,2616.02 4795.93,2610.89 4795.93,2461.69 4794.59,2452.81 4783.17,2415.96 4780.93,2401.16 4780.93,2384.44 4780.93,2273.04 4780.93,2256.32 4783.17,2241.52 4794.59,2204.67 4795.93,2195.79" data-handle="79C5B" data-layer="SCHM" style="fill:none;stroke:#5a5f68;stroke-width:.1;stroke-opacity:.6"/><path inkscape:label="SHOULDER-106" id="path34644" d="m855.11 846.15.54-.5a2.54 2.54 0 0 0 .51-3.03l-3.64-7.01-6.3-8.91-5.32-7.53-3.2-2.8a2.8 2.8 0 0 0-3.15-.35l-.73.4" data-class="shoulder" data-dxf-bulges="0.0000 0.3366 0.0000 0.0000 0.0000 0.0000 0.3144 0.0000 0.0000" data-dxf-pts="5058.19,3009.44 5057.20,3016.69 5035.39,3038.50 4956.93,3049.24 4847.43,3049.24 4754.93,3049.24 4713.44,3039.27 4692.32,3015.47 4691.35,3007.15" data-handle="7AB15" data-layer="SCHM" style="fill:none;stroke:#5a5f68;stroke-width:.1;stroke-opacity:.6;display:inline"/><path id="polyline35375" d="m814.49 796.22-103.32 73.45" data-class="schm" data-dxf-pts="4413.81,2965.74 4413.66,1692.09" data-handle="7AE89" data-layer="SCHM" style="fill:none;stroke:#5a5f68;stroke-width:.1;stroke-opacity:.6"/></g><g xmlns:inkscape="http://www.inkscape.org/namespaces/inkscape" inkscape:label="TWY" id="layer-centerlines" style="display:inline"><path inkscape:label="TWY-C" id="line37516" d="M732.61 573.11 940.8 867.57Z" style="baseline-shift:baseline;display:inline;overflow:visible;opacity:1;fill:none;stroke:#e6d24c;stroke-width:.1;stroke-dasharray:none;stroke-opacity:1;stop-color:#000;stop-opacity:1"/><path inkscape:label="TWY-A-01" id="line37520" d="m650.53 547.41 247.85 350.5Z" style="baseline-shift:baseline;display:inline;overflow:visible;opacity:1;fill:none;stroke:#e6d24c;stroke-width:.1;stroke-dasharray:none;stroke-opacity:1;stop-color:#000;stop-opacity:1"/><g inkscape:label="TWY-R8" id="g1053"><path inkscape:label="TWY-R8-04" id="path1031" d="m813.29 878.91 33.1-23.53" style="display:inline;stroke:#e6d24c;stroke-width:.1;stroke-dasharray:none"/></g><g inkscape:label="TWY-AS" id="g1059"><path inkscape:label="TWY-AS-01" id="line37611" d="m840.83 848.39-4.18 2.97m0 0-24.5 17.41" style="display:inline;stroke:#e6d24c;stroke-width:.1;stroke-dasharray:none"/></g><g inkscape:label="TWY-R7" id="g996"><path inkscape:label="TWY-R7-04" id="path42" d="m818.86 887.06 33.21-23.6" style="display:inline;stroke:#e6d24c;stroke-width:.1;stroke-dasharray:none"/></g><g inkscape:label="TWY-JCT-R1-R7" id="g14" style="display:inline"/><g inkscape:label="TWY-JCT-R1-AS" id="g12" style="display:inline"><path inkscape:label="TWY-JCT-R1-AS-01" id="path37681" d="M844.08 852.13a4.93 4.93 0 0 0-6.86-1.18" data-class="centerline-twy" data-dxf-arc="5042.93,2834.73,49.50,90.00,180.00" data-handle="70D9D" data-layer="항공기동선" style="fill:none;stroke:#e6d24c;stroke-width:.1;display:inline"/></g><g inkscape:label="TWY-R1" id="g108" style="display:inline"/><g inkscape:label="LEAD-STD103" id="g115" style="display:inline"><path inkscape:label="LEAD-STD103-01" id="path38138" d="M836.65 851.36a3.64 3.64 0 0 0-.26-5.26" data-class="centerline-twy" data-dxf-arc="4957.62,2820.61,36.50,11.18,103.76" data-handle="70FDC" data-layer="항공기동선" style="fill:none;stroke:#e6d24c;stroke-width:.1"/><path inkscape:label="LEAD-STD103-04" id="line38139" d="m831.12 841.52 8.92 7.75" data-class="centerline-twy" data-dxf-p="4880.828,2839.385 4996.087,2867.611" data-handle="70FDE" data-layer="항공기동선" data-wgs="37.4582158,126.4499990 37.4575156,126.4510127" style="fill:none;stroke:#e6d24c;stroke-width:.1"/><path inkscape:label="LEAD-STD103-02" id="path38140" d="M836.69 846.36a3.7 3.7 0 0 0 5.72-1.19" data-class="centerline-twy" data-dxf-arc="4943.99,2892.95,37.00,283.76,28.98" data-handle="70FDF" data-layer="항공기동선" style="fill:none;stroke:#e6d24c;stroke-width:.1"/></g><g inkscape:label="LEAD-STD107" id="g117" style="display:inline"><path inkscape:label="LEAD-STD107-01" id="path38135" d="M828.18 857.46a3.64 3.64 0 0 0-3.34-3.91" data-class="centerline-twy" data-dxf-arc="4970.78,2694.73,36.50,50.25,140.25" data-handle="70FD9" data-layer="항공기동선" style="fill:none;stroke:#e6d24c;stroke-width:.1"/><path inkscape:label="LEAD-STD107-02" id="path38141" d="M824.84 853.55a3.64 3.64 0 0 0 2.57 4.46" data-class="centerline-twy" data-dxf-arc="4970.78,2741.41,36.50,219.75,309.75" data-handle="70FE1" data-layer="항공기동선" style="fill:none;stroke:#e6d24c;stroke-width:.1"/><path inkscape:label="LEAD-STD107-03" id="line38141" d="m824.84 853.55-3.65-5.15" data-class="centerline-twy" data-dxf-p="4942.716,2718.069 4879.397,2718.069" data-handle="70FE2" data-layer="항공기동선" data-wgs="37.4571290,126.4492854 37.4575945,126.4488714" style="fill:none;stroke:#e6d24c;stroke-width:.1"/></g><g inkscape:label="LEAD-STD105" id="g116" style="display:inline"><path inkscape:label="LEAD-STD105-01" id="path38136" d="M834.06 853.28a3.64 3.64 0 0 0-3.34-3.91" data-class="centerline-twy" data-dxf-arc="4970.78,2767.23,36.50,50.25,140.25" data-handle="70FDA" data-layer="항공기동선" style="fill:none;stroke:#e6d24c;stroke-width:.1"/><path inkscape:label="LEAD-STD105-03" id="line38140" d="m830.72 849.37-3.09-4.36" data-class="centerline-twy" data-dxf-p="4942.716,2790.569 4889.085,2790.569" data-handle="70FE0" data-layer="항공기동선" data-wgs="37.4575066,126.4499536 37.4579008,126.4496030" style="fill:none;stroke:#e6d24c;stroke-width:.1"/><path inkscape:label="LEAD-STD105-02" id="path38142" d="M830.72 849.37a3.64 3.64 0 0 0 2.57 4.46" data-class="centerline-twy" data-dxf-arc="4970.78,2813.91,36.50,219.75,309.75" data-handle="70FE3" data-layer="항공기동선" style="fill:none;stroke:#e6d24c;stroke-width:.1"/></g><g inkscape:label="LEAD-STD111" id="g119" style="display:inline"><path inkscape:label="LEAD-STD111-01" id="path38148" d="M815.2 866.69a3.64 3.64 0 0 0-3.34-3.91" data-class="centerline-twy" data-dxf-arc="4970.78,2534.75,36.50,50.25,140.25" data-handle="70FE9" data-layer="항공기동선" style="fill:none;stroke:#e6d24c;stroke-width:.1"/><path inkscape:label="LEAD-STD111-02" id="path38153" d="M811.86 862.78a3.64 3.64 0 0 0 2.57 4.45" data-class="centerline-twy" data-dxf-arc="4970.78,2581.43,36.50,219.75,309.75" data-handle="70FF1" data-layer="항공기동선" style="fill:none;stroke:#e6d24c;stroke-width:.1"/></g><g inkscape:label="LEAD-STD109" id="g118" style="display:inline"><path inkscape:label="LEAD-STD109-02" id="path38151" d="M818.95 857.73a3.64 3.64 0 0 0 2.58 4.46" data-class="centerline-twy" data-dxf-arc="4970.78,2668.91,36.50,219.75,309.75" data-handle="70FEE" data-layer="항공기동선" style="fill:none;stroke:#e6d24c;stroke-width:.1"/><path inkscape:label="LEAD-STD109-03" id="line38151" d="m818.95 857.73-3.64-5.15" data-class="centerline-twy" data-dxf-p="4942.716,2645.569 4879.397,2645.569" data-handle="70FEF" data-layer="항공기동선" data-wgs="37.4567514,126.4486172 37.4572168,126.4482032" style="fill:none;stroke:#e6d24c;stroke-width:.1"/><path inkscape:label="LEAD-STD109-01" id="path38172" d="M822.3 861.65a3.64 3.64 0 0 0-3.35-3.92" data-class="centerline-twy" data-dxf-arc="4970.78,2622.23,36.50,50.25,140.25" data-handle="7100E" data-layer="항공기동선" style="fill:none;stroke:#e6d24c;stroke-width:.1"/></g><g inkscape:label="TWY-STD1-50" id="g877" style="display:inline"/><g inkscape:label="TWY-R9" id="g1062" style="display:inline"><path inkscape:label="TWY-R9-05" id="line38813" d="m822.19 820.06-41.77 29.7" style="display:inline;stroke:#e6d24c;stroke-width:.1;stroke-dasharray:none"/></g><g inkscape:label="TWY-R10" id="g1066" style="display:inline"><path inkscape:label="TWY-R10-05" id="path1064" d="m775.15 842.3 41.22-29.3" style="baseline-shift:baseline;display:inline;overflow:visible;opacity:1;fill:none;stroke:#e6d24c;stroke-width:.1;stroke-dasharray:none;stroke-opacity:1;stop-color:#000;stop-opacity:1"/></g><path inkscape:label="TWY-B-01" id="line38839" d="m698.93 596.87 224.76 317.89Z" style="baseline-shift:baseline;display:inline;overflow:visible;opacity:1;fill:none;stroke:#e6d24c;stroke-width:.1;stroke-dasharray:none;stroke-opacity:1;stop-color:#000;stop-opacity:1"/><path inkscape:label="TWY-D" id="line38986" d="m716.91 479.56 280.6 396.86Z" style="baseline-shift:baseline;display:inline;overflow:visible;opacity:1;fill:none;stroke:#e6d24c;stroke-width:.1;stroke-dasharray:none;stroke-opacity:1;stop-color:#000;stop-opacity:1"/><g inkscape:label="TWY-R4" id="g316" style="display:inline"/></g><g xmlns:inkscape="http://www.inkscape.org/namespaces/inkscape" inkscape:label="STOP" id="g1004"><path inkscape:label="STB-AS-HS-R1-01" id="path1151" d="m808.66 897.63-4.17-5.91" style="opacity:1;fill:none;fill-opacity:1;stroke:#ff1a00;stroke-width:.222193;stroke-miterlimit:4;stroke-dasharray:.444385,.222193;stroke-dashoffset:.0888772;stroke-opacity:1" transform="translate(291.951 247.446)scale(.67509)"/></g><g xmlns:inkscape="http://www.inkscape.org/namespaces/inkscape" inkscape:label="STD101-132" id="g961" style="display:inline;stroke:#5b5e67"><rect inkscape:label="STD103" id="rect340-7-9-0-7-2-8-66-2-8-1-8" width="2.879" height="4.025" x="87.71" y="-1183.112" ry=".462" style="display:inline;fill:none;stroke:#5b5e67;stroke-width:.1;stroke-linecap:round;stroke-linejoin:round;stroke-miterlimit:5;stroke-dasharray:none;stroke-dashoffset:0;paint-order:stroke fill markers" transform="rotate(131.033)"/><rect inkscape:label="STD109" id="rect340-5-9-6-8-9-3-8-2-7-8-5-4-7-0-8-5-9-2-6-7-1-1-2-7-9-4-4" width="3.636" height="5.082" x="167.588" y="1167.089" ry=".584" style="display:inline;fill:none;stroke:#5b5e67;stroke-width:.0886843;stroke-linecap:round;stroke-linejoin:round;stroke-miterlimit:5;stroke-dasharray:none;stroke-dashoffset:0;paint-order:stroke fill markers" transform="rotate(-35.463)"/><rect inkscape:label="STD107" id="rect340-5-9-6-8-9-3-8-2-7-8-5-4-7-0-8-5-9-2-6-7-1-1-2-7-9-4-4-9" width="3.636" height="5.082" x="174.808" y="1167.125" ry=".584" style="display:inline;fill:none;stroke:#5b5e67;stroke-width:.0886843;stroke-linecap:round;stroke-linejoin:round;stroke-miterlimit:5;stroke-dasharray:none;stroke-dashoffset:0;paint-order:stroke fill markers" transform="rotate(-35.463)"/><rect inkscape:label="STD105" id="rect340-5-9-6-8-9-3-8-2-7-8-5-4-7-0-8-5-9-2-6-7-1-1-2-7-9-4-4-9-6" width="3.636" height="5.082" x="182.021" y="1167.695" ry=".584" style="display:inline;fill:none;stroke:#5b5e67;stroke-width:.0886843;stroke-linecap:round;stroke-linejoin:round;stroke-miterlimit:5;stroke-dasharray:none;stroke-dashoffset:0;paint-order:stroke fill markers" transform="rotate(-35.463)"/></g><g xmlns:inkscape="http://www.inkscape.org/namespaces/inkscape" inkscape:label="S1-S7" id="g1052"/><g xmlns:inkscape="http://www.inkscape.org/namespaces/inkscape" id="layer-stand-labels" inkscape:label="STAND-LABELS" inkscape:groupmode="layer" style="font-family:Arial,Helvetica,sans-serif;font-weight:700;text-anchor:middle"><text x="831.14" y="850.69" style="fill:none;stroke:#0a0e1a;stroke-width:.8;stroke-linejoin:round;font-size:2.1px" id="lbl-105-h">105</text><text x="831.14" y="850.69" style="fill:#ffffff;stroke:none;font-size:2.1px" id="lbl-105">105</text><text x="817.95" y="841.59" style="fill:none;stroke:#0a0e1a;stroke-width:.8;stroke-linejoin:round;font-size:2.1px" id="lbl-106-h">106</text><text x="817.95" y="841.59" style="fill:#ffffff;stroke:none;font-size:2.1px" id="lbl-106">106</text><text x="824.93" y="854.41" style="fill:none;stroke:#0a0e1a;stroke-width:.8;stroke-linejoin:round;font-size:2.1px" id="lbl-107-h">107</text><text x="824.93" y="854.41" style="fill:#ffffff;stroke:none;font-size:2.1px" id="lbl-107">107</text><text x="819.03" y="858.57" style="fill:none;stroke:#0a0e1a;stroke-width:.8;stroke-linejoin:round;font-size:2.1px" id="lbl-109-h">109</text><text x="819.03" y="858.57" style="fill:#ffffff;stroke:none;font-size:2.1px" id="lbl-109">109</text></g><g xmlns:inkscape="http://www.inkscape.org/namespaces/inkscape" id="layer-points" inkscape:label="POINT-LABELS" inkscape:groupmode="layer"/></g></g><path d="M829.20 850.34L829.12 850.44L829.04 850.53L828.96 850.63L828.89 850.72L828.81 850.82L828.73 850.91L828.65 851.01L828.57 851.10L828.49 851.20L828.42 851.29L828.34 851.39L828.26 851.48L828.18 851.58L828.10 851.67L828.03 851.77L827.95 851.86L827.87 851.96L827.79 852.05L827.71 852.15L827.64 852.24L827.56 852.34L827.48 852.43L827.40 852.53L827.32 852.62L827.25 852.72L827.17 852.81L827.09 852.91L827.01 853.00L826.93 853.10L826.85 853.19L826.78 853.29L826.70 853.38L826.62 853.48L826.54 853.57L826.46 853.67L826.39 853.76L826.31 853.85L826.23 853.95L826.15 854.04L826.07 854.14L826.00 854.23L825.92 854.33L825.84 854.42L825.76 854.52L825.68 854.61L825.60 854.71L825.53 854.80L825.45 854.90L825.35 855.02L825.24 855.13L825.14 855.23L825.03 855.33L824.92 855.42L824.81 855.51L824.70 855.58L824.59 855.66L824.48 855.72L824.37 855.78L824.25 855.83L824.13 855.88L824.02 855.93L823.90 855.96L823.79 855.99L823.67 856.02L823.55 856.04L823.43 856.06L823.32 856.07L823.20 856.08L823.08 856.08L822.97 856.08L822.85 856.08L822.73 856.07L822.62 856.06L822.51 856.04L822.39 856.02L822.28 856.00L822.17 855.97L822.06 855.94L821.95 855.91L821.85 855.87L821.74 855.83L821.64 855.79L821.54 855.75L821.44 855.70L821.34 855.65L821.25 855.60L821.15 855.55L821.06 855.50L820.97 855.44L820.89 855.39L820.81 855.33L820.73 855.27L820.65 855.21L820.58 855.15L820.51 855.09L820.44 855.03" fill="none" stroke="#00a03f" stroke-width="0.55" opacity=".20" stroke-linecap="round"/><path d="M829.20 850.34L829.12 850.44L829.04 850.53L828.96 850.63L828.89 850.72L828.81 850.82L828.73 850.91L828.65 851.01L828.57 851.10L828.49 851.20L828.42 851.29L828.34 851.39L828.26 851.48L828.18 851.58L828.10 851.67L828.03 851.77L827.95 851.86L827.87 851.96L827.79 852.05L827.71 852.15L827.64 852.24L827.56 852.34L827.48 852.43L827.40 852.53L827.32 852.62L827.25 852.72L827.17 852.81L827.09 852.91L827.01 853.00L826.93 853.10L826.85 853.19L826.78 853.29L826.70 853.38L826.62 853.48L826.54 853.57L826.46 853.67L826.39 853.76L826.31 853.85L826.23 853.95L826.15 854.04L826.07 854.14L826.00 854.23L825.92 854.33L825.84 854.42L825.76 854.52L825.68 854.61L825.60 854.71L825.53 854.80L825.45 854.90L825.35 855.02L825.24 855.13L825.14 855.23L825.03 855.33L824.92 855.42L824.81 855.51L824.70 855.58L824.59 855.66L824.48 855.72L824.37 855.78L824.25 855.83L824.13 855.88L824.02 855.93L823.90 855.96L823.79 855.99L823.67 856.02L823.55 856.04L823.43 856.06L823.32 856.07L823.20 856.08L823.08 856.08L822.97 856.08L822.85 856.08L822.73 856.07L822.62 856.06L822.51 856.04L822.39 856.02L822.28 856.00L822.17 855.97L822.06 855.94L821.95 855.91L821.85 855.87L821.74 855.83L821.64 855.79L821.54 855.75L821.44 855.70L821.34 855.65L821.25 855.60L821.15 855.55L821.06 855.50L820.97 855.44L820.89 855.39L820.81 855.33L820.73 855.27L820.65 855.21L820.58 855.15L820.51 855.09L820.44 855.03" fill="none" stroke="#00a03f" stroke-width="0.28" stroke-linecap="round" stroke-dasharray="0.012 0.34" opacity="1" filter="url(#gl)"/></svg>