<svg xmlns="http://www.w3.org/2000/svg" xmlns:xlink="http://www.w3.org/1999/xlink" xmlns:inkscape="http://www.inkscape.org/namespaces/inkscape" xmlns:sodipodi="http://sodipodi.sourceforge.net/DTD/sodipodi-0.0.dtd" viewBox="849.94 895.59 32.77 24.27"><defs><filter id="gl" x="-30%" y="-30%" width="160%" height="160%"><feGaussianBlur stdDeviation="0.10" result="b"/><feMerge><feMergeNode in="b"/><feMergeNode in="b"/><feMergeNode in="SourceGraphic"/></feMerge></filter></defs><rect x="849.94" y="895.59" width="32.77" height="24.27" fill="#0a0e1a"/><g opacity="0.45" transform="rotate(25.84 863.989 910.159)"><g xmlns="http://www.w3.org/2000/svg" id="bgG"><defs id="defs40143"><clipPath id="clipPath24" clipPathUnits="userSpaceOnUse"/></defs><path id="rect1" fill="#0a0e1a" d="M0 0h2000v1380H0Z" style="display:inline;fill:#0a0e1a"/><g xmlns:inkscape="http://www.inkscape.org/namespaces/inkscape" inkscape:label="RUNWAY" id="layer-runways" style="display:inline"/><g xmlns:inkscape="http://www.inkscape.org/namespaces/inkscape" inkscape:label="GREEN-AREAS" id="layer-green" style="display:inline"/><g xmlns:inkscape="http://www.inkscape.org/namespaces/inkscape" inkscape:label="SCHM" id="layer-schm" style="display:inline"><path id="path2052" d="M879.35 940.16a12.61 12.61 0 1 0 8.19-23.86 66 66 0 0 0-25.71-3.35" data-class="schm" data-dxf-bulges="1.0064 0.0986 0.0986" data-dxf-pts="5967.85,2663.04 5820.38,2868.61 5643.56,2677.12" data-handle="71F9E" data-layer="SCHM" style="fill:none;stroke:#5a5f68;stroke-width:.1;stroke-opacity:.6"/><path id="path2053" d="m884.75 894.57-20.8 14.78a1.5 1.5 0 0 0 .9 2.72 67 67 0 0 1 22.93 3.53" data-class="schm" data-dxf-bulges="0.0000 0.7394 -0.0870 0.0000" data-dxf-pts="5626.43,2971.79 5626.43,2715.37 5653.85,2706.97 5815.97,2874.67" data-handle="71F9F" data-layer="SCHM" style="fill:none;stroke:#5a5f68;stroke-width:.1;stroke-opacity:.6"/><path id="path2054" d="m879.56 883.7 5.41 7.66a1.5 1.5 0 0 1-.35 2.08l-.44.31-22.06 15.69a1.5 1.5 0 0 1-2.3-.8l-5.77-19.62a1.5 1.5 0 0 1 .57-1.64l18.33-13.03" data-class="schm" data-dxf-bulges="0.0000 -0.4142 0.0000 0.0000 -0.5145 0.0000 -0.3206 0.0000 0.0000" data-dxf-pts="5507.33,2992.23 5601.43,2992.23 5616.43,2977.23 5616.43,2971.79 5616.43,2699.82 5596.57,2685.63 5402.57,2752.05 5392.43,2766.24 5392.43,2992.23" data-handle="71FA0" data-layer="SCHM" style="fill:none;stroke:#5a5f68;stroke-width:.1;stroke-opacity:.6"/><path id="path2120" d="M851.89 921.51a3 3 0 0 0 3.44 2.09" data-class="schm" data-dxf-arc="5665.49,2574.30,30.00,251.10,335.84" data-handle="71FFB" data-layer="SCHM" style="fill:none;stroke:#5a5f68;stroke-width:.1;stroke-opacity:.6"/><path id="path2121" d="M855.73 922.51a1.5 1.5 0 0 0 1.22-1.49" data-class="schm" data-dxf-arc="5672.62,2577.91,15.00,335.24,55.43" data-handle="71FFD" data-layer="SCHM" style="fill:none;stroke:#5a5f68;stroke-width:.1;stroke-opacity:.6"/><path id="line2121" d="m857.69 920.49-.06-4.29" data-class="schm" data-dxf-p="5681.052,2599.424 5645.635,2623.827" data-handle="71FFE" data-layer="SCHM" data-wgs="37.4510839,126.4530185 37.4514713,126.4530119" style="fill:none;stroke:#5a5f68;stroke-width:.1;stroke-opacity:.6"/><path id="path2122" d="M857.69 920.49a1.5 1.5 0 0 0 1.67 1.46" data-class="schm" data-dxf-arc="5689.56,2611.78,15.00,235.43,331.60" data-handle="71FFF" data-layer="SCHM" style="fill:none;stroke:#5a5f68;stroke-width:.1;stroke-opacity:.6"/><path id="line2122" d="m856.95 921.02-.06-4.81" data-class="schm" data-dxf-p="5681.129,2590.262 5641.380,2617.651" data-handle="72000" data-layer="SCHM" data-wgs="37.4510356,126.4529345 37.4514704,126.4529271" style="fill:none;stroke:#5a5f68;stroke-width:.1;stroke-opacity:.6"/><path id="path2123" d="M857.83 914.35a2.2 2.2 0 0 0-.94 1.86" data-class="schm" data-dxf-arc="5654.15,2636.18,22.50,180.00,235.43" data-handle="72001" data-layer="SCHM" style="fill:none;stroke:#5a5f68;stroke-width:.1;stroke-opacity:.6"/><path id="path2124" d="M858.26 914.96a1.5 1.5 0 0 0-.63 1.24" data-class="schm" data-dxf-arc="5654.15,2636.18,15.00,180.00,235.43" data-handle="72002" data-layer="SCHM" style="fill:none;stroke:#5a5f68;stroke-width:.1;stroke-opacity:.6"/><path id="line2124" d="m858.26 914.96 2.05-1.46" data-class="schm" data-dxf-p="5639.146,2636.179 5639.146,2661.460" data-handle="72003" data-layer="SCHM" data-wgs="37.4515833,126.4530833 37.4517150,126.4533163" style="fill:none;stroke:#5a5f68;stroke-width:.1;stroke-opacity:.6"/><path id="line2125" d="m857.83 914.35.65-.47" data-class="schm" data-dxf-p="5631.646,2636.179 5631.646,2644.255" data-handle="72004" data-layer="SCHM" data-wgs="37.4516385,126.4530343 37.4516805,126.4531087" style="fill:none;stroke:#5a5f68;stroke-width:.1;stroke-opacity:.6"/><path id="path2125" d="M861.83 912.95a3 3 0 0 0-1.52.55" data-class="schm" data-dxf-arc="5669.15,2661.46,30.00,148.54,180.00" data-handle="72005" data-layer="SCHM" style="fill:none;stroke:#5a5f68;stroke-width:.1;stroke-opacity:.6"/><path id="path2126" d="M858.48 913.88a3 3 0 0 0 1.14-3.29" data-class="schm" data-dxf-arc="5601.65,2644.25,30.00,0.00,71.10" data-handle="72006" data-layer="SCHM" style="fill:none;stroke:#5a5f68;stroke-width:.1;stroke-opacity:.6"/><path id="path2127" d="M852.85 921.23a2 2 0 0 0 2.29 1.39" data-class="schm" data-dxf-arc="5665.49,2574.30,20.00,251.10,335.84" data-handle="72007" data-layer="SCHM" style="fill:none;stroke:#5a5f68;stroke-width:.1;stroke-opacity:.6"/><path id="path2128" d="m855.73 922.51-.59.11" data-class="schm" data-dxf-arc="6212.93,2328.74,580.00,155.24,155.84" data-handle="72008" data-layer="SCHM" style="fill:none;stroke:#5a5f68;stroke-width:.1;stroke-opacity:.6"/><path id="line2128" d="m859.62 910.59-7.85-26.67" data-class="schm" data-dxf-p="5611.363,2672.637 5347.649,2762.927" data-handle="72009" data-layer="SCHM" data-wgs="37.4519774,126.4532377 37.4543861,126.4523460" style="fill:none;stroke:#5a5f68;stroke-width:.1;stroke-opacity:.6"/><path id="path2137" d="M884.76 924.57a58 58 0 0 0-25.4-2.62" data-class="schm" data-dxf-arc="6212.93,2328.74,580.00,126.02,151.60" data-handle="72013" data-layer="SCHM" style="fill:none;stroke:#5a5f68;stroke-width:.1;stroke-opacity:.6"/><path id="line12070" d="M863.95 922.61h-.09" data-class="schm" data-dxf-p="5734.809,2638.475 5734.310,2637.722" data-handle="74849" data-layer="SCHM" data-wgs="37.4508921,126.4537298 37.4508918,126.4537196" style="fill:none;stroke:#5a5f68;stroke-width:.1;stroke-opacity:.6"/><path id="path15453" d="M884.44 925.54a57 57 0 0 0-29.11-1.94" data-class="schm" data-dxf-arc="6213.29,2328.74,570.00,126.05,158.59" data-handle="755FE" data-layer="SCHM" style="fill:none;stroke:#5a5f68;stroke-width:.1;stroke-opacity:.6"/></g><g xmlns:inkscape="http://www.inkscape.org/namespaces/inkscape" inkscape:label="TWY" id="layer-centerlines" style="display:inline"><path inkscape:label="TWY-A-01" id="line37520" d="m650.53 547.41 247.85 350.5Z" style="baseline-shift:baseline;display:inline;overflow:visible;opacity:1;fill:none;stroke:#e6d24c;stroke-width:.1;stroke-dasharray:none;stroke-opacity:1;stop-color:#000;stop-opacity:1"/><g inkscape:label="TWY-A5" id="g103" style="display:inline"><path inkscape:label="TWY-A5-02" id="line37568" d="m878.49 905.99 11.24-8z" style="baseline-shift:baseline;display:inline;overflow:visible;fill:none;stroke:#e6d24c;stroke-width:.1;stroke-dasharray:none;stroke-opacity:1;stop-color:#000"/></g><path inkscape:label="TWY-JCT-R1-A5" id="path37569" d="M874.96 906.89a5 5 0 0 0 3.53-.9" data-class="centerline-twy" data-dxf-arc="5632.43,2854.19,51.00,317.85,0.00" data-handle="70D12" data-layer="항공기동선" style="fill:none;stroke:#e6d24c;stroke-width:.1;display:inline"/><g inkscape:label="TWY-R5" id="g104"><path inkscape:label="TWY-R5-01" id="line37528" d="m889.63 907.77-15.09-21.35" data-class="centerline-twy" data-dxf-p="5762.773,2935.230 5500.429,2935.230" data-handle="70CDF" data-layer="항공기동선" data-wgs="37.4522320,126.4566477 37.4541604,126.4549329" style="fill:none;stroke:#e6d24c;stroke-width:.1;display:inline"/></g><g inkscape:label="TWY-R7" id="g996"/><g inkscape:label="TWY-JCT-R1-A6" id="g34" style="display:inline"><path inkscape:label="TWY-JCT-R1-A6-02" id="path37690" d="M863.29 888.18a5.1 5.1 0 0 0-1.93 5.59" data-class="centerline-twy" data-dxf-arc="5500.43,2832.69,51.00,180.00,251.10" data-handle="70DA7" data-layer="항공기동선" style="fill:none;stroke:#e6d24c;stroke-width:.1"/></g><g inkscape:label="TWY-R1" id="g108" style="display:inline"><path inkscape:label="TWY-R1-05" id="line37529" d="M853.34 866.53 864 902.76Z" style="baseline-shift:baseline;display:inline;overflow:visible;opacity:1;fill:none;stroke:#e6d24c;stroke-width:.1;stroke-dasharray:none;stroke-opacity:1;stop-color:#000;stop-opacity:1"/><path inkscape:label="TWY-R1-04" id="path37583" d="M864 902.76a5.1 5.1 0 0 0 4.7 3.65" data-class="centerline-twy" data-dxf-arc="5589.34,2802.25,51.00,251.10,322.79" data-handle="70D25" data-layer="항공기동선" style="fill:none;stroke:#e6d24c;stroke-width:.1"/><path inkscape:label="TWY-R1-03" id="path37584" d="M889.59 910.21a73 73 0 0 0-20.89-3.8" data-class="centerline-twy" data-dxf-arc="6212.93,2328.73,732.00,126.02,142.79" data-handle="70D26" data-layer="항공기동선" style="fill:none;stroke:#e6d24c;stroke-width:.1"/></g><g inkscape:label="TWY-STD1-50" id="g877" style="display:inline"><g inkscape:label="TWY-STD11" id="g29" style="display:inline"><path inkscape:label="TWY-LEAD-STD11-01" id="path38196" d="M866.57 905.86a3.6 3.6 0 0 0-1.38 3.34" data-class="centerline-twy" data-dxf-arc="5649.57,2758.64,36.50,182.38,241.96" data-handle="7102D" data-layer="항공기동선" style="fill:none;stroke:#e6d24c;stroke-width:.1"/><path inkscape:label="TWY-STD11" id="line38196-1" d="M861.88 919.28v-2.66" style="baseline-shift:baseline;display:inline;overflow:visible;fill:none;stroke:#e6d24c;stroke-width:.1;stroke-dasharray:none;stroke-opacity:1;stop-color:#000"/><path inkscape:label="TWY-LEAD-STD11-02" id="line38196-1-2" d="M861.88 916.62a3.6 3.6 0 0 1-1.39-2.42l4.7-5" style="baseline-shift:baseline;display:inline;overflow:visible;fill:none;stroke:#e6d24c;stroke-width:.1;stroke-dasharray:none;stroke-opacity:1;stop-color:#000"/><path inkscape:label="TWY-LEAD-STD11-03" id="path38197" d="M863.88 910.61a3.64 3.64 0 0 0 3.76-4.35" data-class="centerline-twy" data-dxf-arc="5607.78,2730.24,36.50,321.48,66.04" data-handle="7102F" data-layer="항공기동선" style="fill:none;stroke:#e6d24c;stroke-width:.1"/></g><g inkscape:label="TWY-STD15" id="g32" style="display:inline"><path inkscape:label="TWY-STD15" id="line38179" d="m856.49 895.35-6.9 2.05" style="baseline-shift:baseline;display:inline;overflow:visible;opacity:1;fill:none;stroke:#e6d24c;stroke-width:.1;stroke-dasharray:none;stroke-opacity:1;stop-color:#000;stop-opacity:1"/><path inkscape:label="TWY-LEAD-STD15-02" id="path38202" d="M856.49 895.35a3.64 3.64 0 0 0 5.04-1" data-class="centerline-twy" data-dxf-arc="5455.56,2769.47,36.50,290.85,20.85" data-handle="71034" data-layer="항공기동선" style="fill:none;stroke:#e6d24c;stroke-width:.1"/><path inkscape:label="TWY-LEAD-STD15-01" id="path38203" d="M861.26 893.45a3.64 3.64 0 0 0-4.77 1.9" data-class="centerline-twy" data-dxf-arc="5499.72,2754.35,36.50,121.36,211.25" data-handle="71035" data-layer="항공기동선" style="fill:none;stroke:#e6d24c;stroke-width:.1"/></g><g inkscape:label="TWY-STD14" id="g31" style="display:inline"><path inkscape:label="TWY-LEAD-STD14-01" id="path38200" d="M863.32 900.38a3.64 3.64 0 0 0-4.77 1.9" data-class="centerline-twy" data-dxf-arc="5568.37,2731.02,36.50,121.36,211.25" data-handle="71032" data-layer="항공기동선" style="fill:none;stroke:#e6d24c;stroke-width:.1"/><path inkscape:label="TWY-LEAD-STD14-02" id="path38201" d="M858.55 902.28a3.64 3.64 0 0 0 5.03-.99" data-class="centerline-twy" data-dxf-arc="5524.20,2746.14,36.50,290.85,20.85" data-handle="71033" data-layer="항공기동선" style="fill:none;stroke:#e6d24c;stroke-width:.1"/><path inkscape:label="TWY-STD14" id="line38209" d="m858.55 902.28-7.18 2.26" style="baseline-shift:baseline;display:inline;overflow:visible;opacity:1;fill:none;stroke:#e6d24c;stroke-width:.1;stroke-dasharray:none;stroke-opacity:1;stop-color:#000;stop-opacity:1"/></g><g inkscape:label="TWY-STD12" id="g30" style="display:inline"><path inkscape:label="TWY-LEAD-STD12-01" id="path38198" d="M865.23 904.87a3.6 3.6 0 0 0-2.34 2.52" data-class="centerline-twy" data-dxf-arc="5632.15,2741.48,36.50,163.48,220.04" data-handle="71030" data-layer="항공기동선" style="fill:none;stroke:#e6d24c;stroke-width:.1"/><path inkscape:label="TWY-LEAD-STD12-02" id="path38199" d="M860.92 908.32a3.64 3.64 0 0 0 5.13-2.76" data-class="centerline-twy" data-dxf-arc="5582.34,2728.24,36.50,299.55,46.28" data-handle="71031" data-layer="항공기동선" style="fill:none;stroke:#e6d24c;stroke-width:.1"/><path inkscape:label="TWY-STD12" id="path886" d="m859.88 908.8-6.61 3.14" style="baseline-shift:baseline;display:inline;overflow:visible;opacity:1;fill:none;stroke:#e6d24c;stroke-width:.1;stroke-dasharray:none;stroke-opacity:1;stop-color:#000;stop-opacity:1"/><path inkscape:label="TWY-LEAD-STD12-03" id="line38210" d="m862.9 907.4-3.02 1.4" style="baseline-shift:baseline;display:inline;overflow:visible;opacity:1;fill:none;stroke:#e6d24c;stroke-width:.1;stroke-dasharray:none;stroke-opacity:1;stop-color:#000;stop-opacity:1"/></g><g inkscape:label="TWY-STD10" id="g28" style="display:inline"><path inkscape:label="LEAD-STD10-02" id="path38194" d="M869 911.61a3.64 3.64 0 0 0 .67-5.16" data-class="centerline-twy" data-dxf-arc="5637.72,2742.65,36.50,1.75,92.89" data-handle="7102B" data-layer="항공기동선" style="fill:none;stroke:#e6d24c;stroke-width:.1"/><path inkscape:label="LEAD-STD10-01" id="path38195" d="M868.79 906.41a3.64 3.64 0 0 0 .21 5.16" data-class="centerline-twy" data-dxf-arc="5666.22,2779.63,36.50,191.86,282.25" data-handle="7102C" data-layer="항공기동선" style="fill:none;stroke:#e6d24c;stroke-width:.1"/><path inkscape:label="TWY-STD10" id="line38211" d="m869 911.57-.36 7.63" style="baseline-shift:baseline;display:inline;overflow:visible;opacity:1;fill:none;stroke:#e6d24c;stroke-width:.1;stroke-dasharray:none;stroke-opacity:1;stop-color:#000;stop-opacity:1"/></g><g inkscape:label="TWY-STD9" id="g17" style="display:inline"><path inkscape:label="LEAD-STD9-04" id="path38182" d="M876.72 912.34a3.64 3.64 0 0 0 1.21-5.03" data-class="centerline-twy" data-dxf-arc="5688.63,2805.50,36.50,355.75,86.34" data-handle="7101B" data-layer="항공기동선" style="fill:none;stroke:#e6d24c;stroke-width:.1"/><path inkscape:label="LEAD-STD9-03" id="path38183" d="M877.06 907.17a3.64 3.64 0 0 0-.35 5.18" data-class="centerline-twy" data-dxf-arc="5721.16,2838.98,36.50,185.32,276.25" data-handle="7101C" data-layer="항공기동선" style="fill:none;stroke:#e6d24c;stroke-width:.1"/><path inkscape:label="LEAD-STD9-01" id="path884" d="M879.34 905.39a5 5 0 0 0-2.08 3.38" style="baseline-shift:baseline;display:inline;overflow:visible;opacity:1;fill:none;stroke:#e6d24c;stroke-width:.1;stroke-dasharray:none;stroke-opacity:1;stop-color:#000;stop-opacity:1"/><path inkscape:label="TWY-STD9" id="path883" d="m876.71 912.34-1.06 7.56" style="baseline-shift:baseline;display:inline;overflow:visible;opacity:1;fill:none;stroke:#e6d24c;stroke-width:.1;stroke-dasharray:none;stroke-opacity:1;stop-color:#000;stop-opacity:1"/><path inkscape:label="LEAD-STD9-02" id="line38233" d="m877.26 908.77-.55 3.57" style="baseline-shift:baseline;display:inline;overflow:visible;opacity:1;fill:none;stroke:#e6d24c;stroke-width:.1;stroke-dasharray:none;stroke-opacity:1;stop-color:#000;stop-opacity:1"/></g></g><path inkscape:label="TWY-B-01" id="line38839" d="m698.93 596.87 224.76 317.89Z" style="baseline-shift:baseline;display:inline;overflow:visible;opacity:1;fill:none;stroke:#e6d24c;stroke-width:.1;stroke-dasharray:none;stroke-opacity:1;stop-color:#000;stop-opacity:1"/></g><g xmlns:inkscape="http://www.inkscape.org/namespaces/inkscape" inkscape:label="STOP" id="g1004"/><g xmlns:inkscape="http://www.inkscape.org/namespaces/inkscape" inkscape:label="STD821-825" id="g993"><rect inkscape:label="STD825" id="rect340-5-9-6-8-9-3-8-2-7-8-5-4-7-0-8-7-0-9-8" width="5.253" height="7.343" x="195.873" y="1231.065" ry=".468" style="display:inline;fill:none;stroke:#5a5f68;stroke-width:.128123;stroke-linecap:round;stroke-linejoin:round;stroke-miterlimit:5;stroke-dasharray:none;stroke-dashoffset:0;paint-order:stroke fill markers" transform="rotate(-35.44)"/></g><g xmlns:inkscape="http://www.inkscape.org/namespaces/inkscape" inkscape:label="STD1-50" id="g927" style="display:inline;stroke:#5b5e67"><rect inkscape:label="STD9" id="rect340-5-9-6-8-9-3-8-2-7-8-5-4-7-0-8-5-9" width="3.636" height="5.082" x="-996.1" y="-790.554" ry=".584" style="display:inline;fill:none;stroke:#5b5e67;stroke-width:.0886843;stroke-linecap:round;stroke-linejoin:round;stroke-miterlimit:5;stroke-dasharray:none;stroke-dashoffset:0;paint-order:stroke fill markers" transform="rotate(-172.064)"/><rect inkscape:label="STD10" id="rect340-5-9-6-8-9-3-8-2-7-8-5-4-7-0-8-5-9-2" width="3.636" height="5.082" x="-912.458" y="-878.014" ry=".584" style="display:inline;fill:none;stroke:#5b5e67;stroke-width:.0886843;stroke-linecap:round;stroke-linejoin:round;stroke-miterlimit:5;stroke-dasharray:none;stroke-dashoffset:0;paint-order:stroke fill markers" transform="rotate(-177.322)"/><rect inkscape:label="STD12" id="rect340-5-9-6-8-9-3-8-2-7-8-5-4-7-0-8-5-9-2-6" width="3.636" height="5.082" x="-1191.724" y="378.757" ry=".584" style="display:inline;fill:none;stroke:#5b5e67;stroke-width:.0886843;stroke-linecap:round;stroke-linejoin:round;stroke-miterlimit:5;stroke-dasharray:none;stroke-dashoffset:0;paint-order:stroke fill markers" transform="rotate(-115.418)"/><rect inkscape:label="STD14" id="rect340-5-9-6-8-9-3-8-2-7-8-5-4-7-0-8-5-9-2-6-7" width="3.636" height="5.082" x="-1119.875" y="540.84" ry=".584" style="display:inline;fill:none;stroke:#5b5e67;stroke-width:.0886843;stroke-linecap:round;stroke-linejoin:round;stroke-miterlimit:5;stroke-dasharray:none;stroke-dashoffset:0;paint-order:stroke fill markers" transform="rotate(-107.434)"/><rect inkscape:label="STD15" id="rect340-5-9-6-8-9-3-8-2-7-8-5-4-7-0-8-5-9-2-6-7-1" width="3.636" height="5.082" x="-1104.267" y="557.664" ry=".584" style="display:inline;fill:none;stroke:#5b5e67;stroke-width:.0886843;stroke-linecap:round;stroke-linejoin:round;stroke-miterlimit:5;stroke-dasharray:none;stroke-dashoffset:0;paint-order:stroke fill markers" transform="rotate(-106.572)"/><rect inkscape:label="STD11" id="rect340-7-9-0-7-2-8-66-2" width="2.879" height="4.025" x="-863.202" y="-919.733" ry=".462" style="display:inline;fill:none;stroke:#5b5e67;stroke-width:.1;stroke-linecap:round;stroke-linejoin:round;stroke-miterlimit:5;stroke-dasharray:none;stroke-dashoffset:0;paint-order:stroke fill markers" transform="rotate(179.997)"/></g><g xmlns:inkscape="http://www.inkscape.org/namespaces/inkscape" inkscape:label="S1-S7" id="g1052"/><g xmlns:inkscape="http://www.inkscape.org/namespaces/inkscape" id="layer-stand-labels" inkscape:label="STAND-LABELS" inkscape:groupmode="layer" style="font-family:Arial,Helvetica,sans-serif;font-weight:700;text-anchor:middle"><text x="876.55" y="914.29" style="fill:none;stroke:#0a0e1a;stroke-width:.8;stroke-linejoin:round;font-size:2.1px" id="lbl-9-h">9</text><text x="876.55" y="914.29" style="fill:#ffffff;stroke:none;font-size:2.1px" id="lbl-9">9</text><text x="868.94" y="913.58" style="fill:none;stroke:#0a0e1a;stroke-width:.8;stroke-linejoin:round;font-size:2.1px" id="lbl-10-h">10</text><text x="868.94" y="913.58" style="fill:#ffffff;stroke:none;font-size:2.1px" id="lbl-10">10</text><text x="861.81" y="914.71" style="fill:none;stroke:#0a0e1a;stroke-width:.8;stroke-linejoin:round;font-size:2.1px" id="lbl-11-h">11</text><text x="861.81" y="914.71" style="fill:#ffffff;stroke:none;font-size:2.1px" id="lbl-11">11</text><text x="858.95" y="909.99" style="fill:none;stroke:#0a0e1a;stroke-width:.8;stroke-linejoin:round;font-size:2.1px" id="lbl-12-h">12</text><text x="858.95" y="909.99" style="fill:#ffffff;stroke:none;font-size:2.1px" id="lbl-12">12</text><text x="857.44" y="903.38" style="fill:none;stroke:#0a0e1a;stroke-width:.8;stroke-linejoin:round;font-size:2.1px" id="lbl-14-h">14</text><text x="857.44" y="903.38" style="fill:#ffffff;stroke:none;font-size:2.1px" id="lbl-14">14</text><text x="855.44" y="896.41" style="fill:none;stroke:#0a0e1a;stroke-width:.8;stroke-linejoin:round;font-size:2.1px" id="lbl-15-h">15</text><text x="855.44" y="896.41" style="fill:#ffffff;stroke:none;font-size:2.1px" id="lbl-15">15</text></g><g xmlns:inkscape="http://www.inkscape.org/namespaces/inkscape" id="layer-points" inkscape:label="POINT-LABELS" inkscape:groupmode="layer"/></g></g><path d="M858.96 915.58L859.01 915.50L859.05 915.42L859.09 915.34L859.13 915.26L859.17 915.18L859.21 915.10L859.25 915.02L859.30 914.94L859.34 914.86L859.38 914.78L859.42 914.69L859.46 914.61L859.50 914.53L859.54 914.45L859.58 914.37L859.63 914.29L859.67 914.21L859.71 914.13L859.75 914.05L859.79 913.97L859.83 913.89L859.87 913.81L859.92 913.73L859.96 913.65L860.00 913.57L860.04 913.49L860.08 913.40L860.12 913.32L860.16 913.24L860.21 913.16L860.25 913.08L860.29 913.00L860.33 912.92L860.37 912.84L860.41 912.76L860.45 912.68L860.49 912.60L860.54 912.52L860.58 912.44L860.62 912.36L860.66 912.28L860.70 912.19L860.74 912.11L860.78 912.03L860.83 911.95L860.87 911.87L860.91 911.79L860.95 911.71L860.98 911.66L861.01 911.60L861.03 911.55L861.06 911.50L861.09 911.45L861.12 911.40L861.15 911.36L861.18 911.31L861.21 911.27L861.24 911.22L861.28 911.18L861.32 911.13L861.36 911.09L861.40 911.05L861.44 911.01L861.49 910.97L861.53 910.93L861.59 910.89L861.64 910.85L861.70 910.82L861.76 910.78L861.82 910.74L861.89 910.71L861.97 910.67L862.04 910.63L862.13 910.60L862.21 910.56L862.30 910.53L862.40 910.49L862.50 910.46L862.61 910.43L862.72 910.39L862.84 910.36L862.96 910.32L863.09 910.29L863.23 910.25L863.37 910.22L863.52 910.19L863.68 910.15L863.85 910.12L864.02 910.08L864.20 910.05L864.38 910.01L864.58 909.98L864.78 909.94L864.99 909.90L865.21 909.87L865.44 909.83L865.56 909.81L865.68 909.78L865.80 909.75L865.91 909.71L866.02 909.67L866.12 909.63L866.22 909.58L866.32 909.53L866.41 909.48L866.50 909.42L866.58 909.36L866.66 909.30L866.74 909.24L866.81 909.17L866.88 909.10L866.95 909.02L867.01 908.95L867.07 908.87L867.12 908.79L867.18 908.71L867.22 908.62L867.27 908.54L867.31 908.45L867.35 908.36L867.39 908.27L867.42 908.18L867.45 908.09L867.48 907.99L867.50 907.90L867.52 907.81L867.54 907.71L867.56 907.61L867.57 907.52L867.58 907.42L867.59 907.33L867.60 907.23L867.60 907.14L867.60 907.04L867.60 906.95L867.59 906.85L867.59 906.76L867.58 906.67L867.57 906.58L867.55 906.49L867.54 906.40L867.52 906.31L867.50 906.22L867.48 906.14L867.46 906.07L867.45 906.00L867.43 905.93L867.41 905.86L867.39 905.79L867.38 905.72L867.36 905.65L867.35 905.57L867.33 905.50L867.32 905.42L867.30 905.34L867.29 905.26L867.28 905.18L867.27 905.10L867.25 905.02L867.24 904.94L867.23 904.85L867.23 904.77L867.22 904.68L867.21 904.59L867.21 904.50L867.20 904.41L867.20 904.32L867.20 904.22L867.19 904.13L867.19 904.03L867.20 903.93L867.20 903.83L867.20 903.73L867.21 903.63L867.21 903.53L867.22 903.42L867.23 903.32L867.24 903.21L867.26 903.10L867.27 902.99L867.29 902.88L867.31 902.76L867.33 902.65L867.35 902.53L867.37 902.41L867.40 902.29L867.42 902.17L867.45 902.04L867.48 901.92L867.52 901.79L867.55 901.66L867.59 901.53" fill="none" stroke="#d400d4" stroke-width="0.55" opacity=".20" stroke-linecap="round"/><path d="M858.96 915.58L859.01 915.50L859.05 915.42L859.09 915.34L859.13 915.26L859.17 915.18L859.21 915.10L859.25 915.02L859.30 914.94L859.34 914.86L859.38 914.78L859.42 914.69L859.46 914.61L859.50 914.53L859.54 914.45L859.58 914.37L859.63 914.29L859.67 914.21L859.71 914.13L859.75 914.05L859.79 913.97L859.83 913.89L859.87 913.81L859.92 913.73L859.96 913.65L860.00 913.57L860.04 913.49L860.08 913.40L860.12 913.32L860.16 913.24L860.21 913.16L860.25 913.08L860.29 913.00L860.33 912.92L860.37 912.84L860.41 912.76L860.45 912.68L860.49 912.60L860.54 912.52L860.58 912.44L860.62 912.36L860.66 912.28L860.70 912.19L860.74 912.11L860.78 912.03L860.83 911.95L860.87 911.87L860.91 911.79L860.95 911.71L860.98 911.66L861.01 911.60L861.03 911.55L861.06 911.50L861.09 911.45L861.12 911.40L861.15 911.36L861.18 911.31L861.21 911.27L861.24 911.22L861.28 911.18L861.32 911.13L861.36 911.09L861.40 911.05L861.44 911.01L861.49 910.97L861.53 910.93L861.59 910.89L861.64 910.85L861.70 910.82L861.76 910.78L861.82 910.74L861.89 910.71L861.97 910.67L862.04 910.63L862.13 910.60L862.21 910.56L862.30 910.53L862.40 910.49L862.50 910.46L862.61 910.43L862.72 910.39L862.84 910.36L862.96 910.32L863.09 910.29L863.23 910.25L863.37 910.22L863.52 910.19L863.68 910.15L863.85 910.12L864.02 910.08L864.20 910.05L864.38 910.01L864.58 909.98L864.78 909.94L864.99 909.90L865.21 909.87L865.44 909.83L865.56 909.81L865.68 909.78L865.80 909.75L865.91 909.71L866.02 909.67L866.12 909.63L866.22 909.58L866.32 909.53L866.41 909.48L866.50 909.42L866.58 909.36L866.66 909.30L866.74 909.24L866.81 909.17L866.88 909.10L866.95 909.02L867.01 908.95L867.07 908.87L867.12 908.79L867.18 908.71L867.22 908.62L867.27 908.54L867.31 908.45L867.35 908.36L867.39 908.27L867.42 908.18L867.45 908.09L867.48 907.99L867.50 907.90L867.52 907.81L867.54 907.71L867.56 907.61L867.57 907.52L867.58 907.42L867.59 907.33L867.60 907.23L867.60 907.14L867.60 907.04L867.60 906.95L867.59 906.85L867.59 906.76L867.58 906.67L867.57 906.58L867.55 906.49L867.54 906.40L867.52 906.31L867.50 906.22L867.48 906.14L867.46 906.07L867.45 906.00L867.43 905.93L867.41 905.86L867.39 905.79L867.38 905.72L867.36 905.65L867.35 905.57L867.33 905.50L867.32 905.42L867.30 905.34L867.29 905.26L867.28 905.18L867.27 905.10L867.25 905.02L867.24 904.94L867.23 904.85L867.23 904.77L867.22 904.68L867.21 904.59L867.21 904.50L867.20 904.41L867.20 904.32L867.20 904.22L867.19 904.13L867.19 904.03L867.20 903.93L867.20 903.83L867.20 903.73L867.21 903.63L867.21 903.53L867.22 903.42L867.23 903.32L867.24 903.21L867.26 903.10L867.27 902.99L867.29 902.88L867.31 902.76L867.33 902.65L867.35 902.53L867.37 902.41L867.40 902.29L867.42 902.17L867.45 902.04L867.48 901.92L867.52 901.79L867.55 901.66L867.59 901.53" fill="none" stroke="#d400d4" stroke-width="0.28" stroke-linecap="round" stroke-dasharray="0.012 0.34" opacity="1" filter="url(#gl)"/></svg>