<svg xmlns="http://www.w3.org/2000/svg" xmlns:xlink="http://www.w3.org/1999/xlink" xmlns:inkscape="http://www.inkscape.org/namespaces/inkscape" xmlns:sodipodi="http://sodipodi.sourceforge.net/DTD/sodipodi-0.0.dtd" viewBox="671.35 763.13 51.51 38.15"><defs><filter id="gl" x="-30%" y="-30%" width="160%" height="160%"><feGaussianBlur stdDeviation="0.10" result="b"/><feMerge><feMergeNode in="b"/><feMergeNode in="b"/><feMergeNode in="SourceGraphic"/></feMerge></filter></defs><rect x="671.35" y="763.13" width="51.51" height="38.15" fill="#0a0e1a"/><g opacity="0.45" transform="rotate(75.84 696.891 777.394)"><g xmlns="http://www.w3.org/2000/svg" id="bgG"><defs id="defs40143"><clipPath id="clipPath24" clipPathUnits="userSpaceOnUse"/></defs><path id="rect1" fill="#0a0e1a" d="M0 0h2000v1380H0Z" style="display:inline;fill:#0a0e1a"/><g xmlns:inkscape="http://www.inkscape.org/namespaces/inkscape" inkscape:label="RUNWAY" id="layer-runways" style="display:inline"><path inkscape:label="RWY-15R-33L" id="polygon37508" d="m713.23 578.82 215.79 305.19-4.87 3.46-215.79-305.19z" data-class="pavement-runway" data-length-m="3750" data-runway="15R/33L" data-threshold-dxf="2047.431,3366.238 5797.431,3366.238" data-threshold-wgs84="37.4817860,126.4363272 37.4542217,126.4608470" style="stroke:none;fill:#111927;fill-opacity:.51"/><path inkscape:label="RWY-16L-34R" id="polygon37509" d="m530.5 678.18 230.22 325.49-4.87 3.46-230.22-325.49z" data-class="pavement-runway" data-length-m="4000" data-runway="16L/34R" data-threshold-dxf="1797.420,1291.211 5797.432,1291.222" data-threshold-wgs84="37.4728122,126.4155642 37.4434147,126.4417232" style="stroke:none;fill:#111927;fill-opacity:.51"/><path inkscape:label="RWY-16R-34L" id="polygon37510" d="m511.31 722.4 215.83 305.15-4.86 3.46-215.83-305.14z" data-class="pavement-runway" data-length-m="3750" data-runway="16R/34L" data-threshold-dxf="2047.430,877.197 5797.429,877.230" data-threshold-wgs84="37.4688176,126.4133841 37.4412582,126.4379083" style="display:inline;fill:#111927;fill-opacity:.51;stroke:none;stroke-width:.1;stroke-dasharray:none;stroke-opacity:.6"/></g><g xmlns:inkscape="http://www.inkscape.org/namespaces/inkscape" inkscape:label="GREEN-AREAS" id="layer-green" style="display:inline"><g inkscape:label="GREEN-22" id="g923"/></g><g xmlns:inkscape="http://www.inkscape.org/namespaces/inkscape" inkscape:label="SCHM" id="layer-schm" style="display:inline"><path id="path34022" d="M693.82 777.52a2 2 0 0 0-2.32-.72" data-class="schm" data-dxf-bulges="0.3395 0.0000" data-dxf-pts="3559.28,2084.34 3539.89,2069.46" data-handle="7A731" data-layer="SCHM" style="fill:none;stroke:#5a5f68;stroke-width:.1;stroke-opacity:.6"/><path id="polyline34022" d="m693.82 777.52 8.39 11.86" data-class="schm" data-dxf-pts="3559.28,2084.34 3705.06,2084.34" data-handle="7A732" data-layer="SCHM" style="fill:none;stroke:#5a5f68;stroke-width:.1;stroke-opacity:.6"/><path id="path34023" d="M699.85 803.3a10 10 0 0 0 2.36-13.92" data-class="schm" data-dxf-bulges="0.4142 0.0000" data-dxf-pts="3805.13,1984.26 3705.06,2084.34" data-handle="7A733" data-layer="SCHM" style="fill:none;stroke:#5a5f68;stroke-width:.1;stroke-opacity:.6"/><path id="path34024" d="M704.12 791.3a10.76 10.76 0 0 1-3.82 12.63l-9.04 6.44" data-class="schm" data-dxf-bulges="-0.3425 0.0000 0.0000" data-dxf-pts="3731.87,2088.80 3812.98,1984.26 3812.98,1872.76" data-handle="7A734" data-layer="SCHM" style="fill:none;stroke:#5a5f68;stroke-width:.1;stroke-opacity:.6"/><path id="polyline34024" d="m693.56 775.8 8.36 11.81" data-class="schm" data-dxf-pts="3543.76,2092.19 3688.91,2092.19" data-handle="7A735" data-layer="SCHM" style="fill:none;stroke:#5a5f68;stroke-width:.1;stroke-opacity:.6"/><path id="path34025" d="M695.8 762.83a9.33 9.33 0 0 0-2.21 13.01" data-class="schm" data-dxf-bulges="0.4142 0.0000" data-dxf-pts="3450.68,2185.76 3544.26,2092.19" data-handle="7A736" data-layer="SCHM" style="fill:none;stroke:#5a5f68;stroke-width:.1;stroke-opacity:.6"/><path id="path34026" d="M690.48 776.34a2 2 0 0 0 1.19-2.54" data-class="schm" data-dxf-bulges="0.4093 0.0000" data-dxf-pts="3530.23,2063.75 3516.36,2088.25" data-handle="7A737" data-layer="SCHM" style="fill:none;stroke:#5a5f68;stroke-width:.1;stroke-opacity:.6"/><path id="polyline34033" d="m678.77 789 2.92 7.92" data-class="schm" data-dxf-pts="3565.68,1894.22 3647.39,1872.32" data-handle="7A741" data-layer="SCHM" style="fill:none;stroke:#5a5f68;stroke-width:.1;stroke-opacity:.6"/><path id="path34033" d="M681.69 796.92a3.8 3.8 0 0 0 4.09 2.43" data-class="schm" data-dxf-bulges="0.3541 0.0000" data-dxf-pts="3647.39,1872.32 3691.05,1891.76" data-handle="7A742" data-layer="SCHM" style="fill:none;stroke:#5a5f68;stroke-width:.1;stroke-opacity:.6"/><path id="path34034" d="M685.78 799.35a6.5 6.5 0 0 0 5.44-5.33" data-class="schm" data-dxf-bulges="0.3249 0.0000" data-dxf-pts="3691.05,1891.76 3679.10,1967.21" data-handle="7A743" data-layer="SCHM" style="fill:none;stroke:#5a5f68;stroke-width:.1;stroke-opacity:.6"/><path id="path34035" d="M691.22 794.02a4.2 4.2 0 0 0-2.03-4.32" data-class="schm" data-dxf-bulges="0.3134 0.0000" data-dxf-pts="3679.10,1967.21 3631.95,1975.69" data-handle="7A744" data-layer="SCHM" style="fill:none;stroke:#5a5f68;stroke-width:.1;stroke-opacity:.6"/><path id="path34036" d="M683.91 783.42a12 12 0 0 0 5.28 6.28" data-class="schm" data-dxf-bulges="0.1745 0.0000" data-dxf-pts="3549.87,1968.80 3631.95,1975.69" data-handle="7A745" data-layer="SCHM" style="fill:none;stroke:#5a5f68;stroke-width:.1;stroke-opacity:.6"/><path id="polyline34036" d="m677.59 783.01 5.02 13.56" data-class="schm" data-dxf-pts="3509.84,1919.38 3649.94,1881.84" data-handle="7A746" data-layer="SCHM" style="fill:none;stroke:#5a5f68;stroke-width:.1;stroke-opacity:.6"/><path id="path34037" d="M682.61 796.57a2.8 2.8 0 0 0 3.03 1.81" data-class="schm" data-dxf-bulges="0.3541 0.0000" data-dxf-pts="3649.94,1881.84 3682.27,1896.24" data-handle="7A747" data-layer="SCHM" style="fill:none;stroke:#5a5f68;stroke-width:.1;stroke-opacity:.6"/><path id="path34038" d="M685.64 798.38a5.5 5.5 0 0 0 4.61-4.52" data-class="schm" data-dxf-bulges="0.3249 0.0000" data-dxf-pts="3682.27,1896.24 3672.14,1960.24" data-handle="7A748" data-layer="SCHM" style="fill:none;stroke:#5a5f68;stroke-width:.1;stroke-opacity:.6"/><path id="path34039" d="M690.25 793.86a3.2 3.2 0 0 0-1.55-3.31" data-class="schm" data-dxf-bulges="0.3134 0.0000" data-dxf-pts="3672.14,1960.24 3636.05,1966.73" data-handle="7A749" data-layer="SCHM" style="fill:none;stroke:#5a5f68;stroke-width:.1;stroke-opacity:.6"/><path id="path34040" d="M682.99 783.76a13 13 0 0 0 5.71 6.79" data-class="schm" data-dxf-bulges="0.1745 0.0000" data-dxf-pts="3547.32,1959.28 3636.05,1966.73" data-handle="7A74A" data-layer="SCHM" style="fill:none;stroke:#5a5f68;stroke-width:.1;stroke-opacity:.6"/><path id="polyline34040" d="m682.99 783.76-.9-2.42" data-class="schm" data-dxf-pts="3547.32,1959.28 3522.33,1965.98" data-handle="7A74B" data-layer="SCHM" style="fill:none;stroke:#5a5f68;stroke-width:.1;stroke-opacity:.6"/><path id="path34041" d="M683.95 758.35a14.8 14.8 0 0 0-4.28 16.43" data-class="schm" data-dxf-bulges="0.3154 0.0000" data-dxf-pts="3345.18,2114.57 3454.60,1984.13" data-handle="7A74D" data-layer="SCHM" style="fill:none;stroke:#5a5f68;stroke-width:.1;stroke-opacity:.6"/><path id="polyline34042" d="m683.95 758.35.39-.33" data-class="schm" data-dxf-pts="3345.18,2114.57 3344.73,2119.72" data-handle="7A74E" data-layer="SCHM" style="fill:none;stroke:#5a5f68;stroke-width:.1;stroke-opacity:.6"/><path id="polyline34043" d="m684.34 758.02 1.22-1.05" data-class="schm" data-dxf-pts="3344.73,2119.72 3343.27,2135.72" data-handle="7A74F" data-layer="SCHM" style="fill:none;stroke:#5a5f68;stroke-width:.1;stroke-opacity:.6"/><path id="polyline34046" d="m683.91 783.42-.26-.7" data-class="schm" data-dxf-pts="3549.87,1968.80 3542.68,1970.72" data-handle="7A752" data-layer="SCHM" style="fill:none;stroke:#5a5f68;stroke-width:.1;stroke-opacity:.6"/><path id="polyline34047" d="m682.16 778.68-1.57-4.24" data-class="schm" data-dxf-pts="3501.02,1981.89 3457.14,1993.65" data-handle="7A753" data-layer="SCHM" style="fill:none;stroke:#5a5f68;stroke-width:.1;stroke-opacity:.6"/><path id="path34047" d="M684.59 759.1a13.8 13.8 0 0 0-4 15.34" data-class="schm" data-dxf-bulges="0.3154 0.0000" data-dxf-pts="3355.00,2115.43 3457.14,1993.65" data-handle="7A754" data-layer="SCHM" style="fill:none;stroke:#5a5f68;stroke-width:.1;stroke-opacity:.6"/><path id="polyline34048" d="m684.59 759.1.39-.34" data-class="schm" data-dxf-pts="3355.00,2115.43 3354.54,2120.60" data-handle="7A755" data-layer="SCHM" style="fill:none;stroke:#5a5f68;stroke-width:.1;stroke-opacity:.6"/><path id="polyline34049" d="m684.98 758.76 1.22-1.04" data-class="schm" data-dxf-pts="3354.54,2120.60 3353.08,2136.64" data-handle="7A756" data-layer="SCHM" style="fill:none;stroke:#5a5f68;stroke-width:.1;stroke-opacity:.6"/><path id="polyline34050" d="m686.2 757.72 1.21-1.05" data-class="schm" data-dxf-pts="3353.08,2136.64 3351.54,2152.68" data-handle="7A757" data-layer="SCHM" style="fill:none;stroke:#5a5f68;stroke-width:.1;stroke-opacity:.6"/><path id="polyline34060" d="m687.46 777.46 3.02-1.12" data-class="schm" data-dxf-pts="3521.86,2032.52 3530.23,2063.75" data-handle="7A766" data-layer="SCHM" style="fill:none;stroke:#5a5f68;stroke-width:.1;stroke-opacity:.6"/><path id="polyline34061" d="m687.74 778.19 3.76-1.39" data-class="schm" data-dxf-pts="3529.44,2030.48 3539.89,2069.46" data-handle="7A767" data-layer="SCHM" style="fill:none;stroke:#5a5f68;stroke-width:.1;stroke-opacity:.6"/><path id="path34061" d="M687.46 777.46a5 5 0 0 0-1.11.59" data-class="schm" data-dxf-bulges="0.0638 0.0000" data-dxf-pts="3521.86,2032.52 3520.16,2019.94" data-handle="7A768" data-layer="SCHM" style="fill:none;stroke:#5a5f68;stroke-width:.1;stroke-opacity:.6"/><path id="path34062" d="M687.74 778.19a4 4 0 0 0-.95.5" data-class="schm" data-dxf-bulges="0.0638 0.0000" data-dxf-pts="3529.44,2030.48 3528.01,2019.89" data-handle="7A769" data-layer="SCHM" style="fill:none;stroke:#5a5f68;stroke-width:.1;stroke-opacity:.6"/><path id="path34064" d="M682.16 778.68a1.5 1.5 0 0 0 2.26.72" data-class="schm" data-dxf-bulges="0.4910 0.0000" data-dxf-pts="3501.02,1981.89 3520.00,1996.35" data-handle="7A76B" data-layer="SCHM" style="fill:none;stroke:#5a5f68;stroke-width:.1;stroke-opacity:.6"/><path id="polyline34067" d="m686.35 778.05-1.93 1.35" data-class="schm" data-dxf-pts="3520.16,2019.94 3520.00,1996.35" data-handle="7A771" data-layer="SCHM" style="fill:none;stroke:#5a5f68;stroke-width:.1;stroke-opacity:.6"/><path id="polyline34068" d="m686.79 778.69-2.41 1.69" data-class="schm" data-dxf-pts="3528.01,2019.89 3527.81,1990.25" data-handle="7A772" data-layer="SCHM" style="fill:none;stroke:#5a5f68;stroke-width:.1;stroke-opacity:.6"/><path id="path34068" d="M684.38 780.38a2 2 0 0 0-.73 2.34" data-class="schm" data-dxf-bulges="0.3414 0.0000" data-dxf-pts="3527.81,1990.25 3542.68,1970.72" data-handle="7A773" data-layer="SCHM" style="fill:none;stroke:#5a5f68;stroke-width:.1;stroke-opacity:.6"/><path id="path34074" d="M701.92 787.61a2 2 0 0 0 2.81.48l6.28-4.46" data-class="schm" data-dxf-bulges="0.4142 0.0000 0.0000" data-dxf-pts="3688.91,2092.19 3709.21,2112.49 3709.21,2189.84" data-handle="7A77B" data-layer="SCHM" style="fill:none;stroke:#5a5f68;stroke-width:.1;stroke-opacity:.6"/><path id="path34075" d="M704.12 791.3a2 2 0 0 1 .71-2.37l6.6-4.7" data-class="schm" data-dxf-bulges="-0.3425 0.0000 0.0000" data-dxf-pts="3731.87,2088.80 3716.61,2108.47 3716.61,2189.84" data-handle="7A77C" data-layer="SCHM" style="fill:none;stroke:#5a5f68;stroke-width:.1;stroke-opacity:.6"/><path id="polygon34075" d="m711.48 784.3-.52-.73 7.74-5.5.52.72z" data-class="schm" data-dxf-pts="3708.46,2189.84 3708.46,2285.26 3717.36,2285.26 3717.36,2189.84" data-handle="7A77D" data-layer="SCHM" style="fill:none;stroke:#5a5f68;stroke-width:.1;stroke-opacity:.6"/><path id="polyline34118" d="m695.8 762.83 11.67-8.3" data-class="schm" data-dxf-pts="3450.68,2185.76 3450.68,2329.62" data-handle="7A7B7" data-layer="SCHM" style="fill:none;stroke:#5a5f68;stroke-width:.1;stroke-opacity:.6"/><path id="polyline34119" d="m695.35 762.19 11.67-8.3" data-class="schm" data-dxf-pts="3442.83,2185.76 3442.83,2329.62" data-handle="7A7B8" data-layer="SCHM" style="fill:none;stroke:#5a5f68;stroke-width:.1;stroke-opacity:.6"/><path id="path34163" d="M691.67 773.8a10.6 10.6 0 0 1 3.84-11.72" data-class="schm" data-dxf-bulges="-0.3211 0.0000" data-dxf-pts="3516.36,2088.25 3442.83,2187.73" data-handle="7A7EA" data-layer="SCHM" style="fill:none;stroke:#5a5f68;stroke-width:.1;stroke-opacity:.6"/><path id="path34172" d="M682.09 781.34a1 1 0 0 0-1.28-.6" data-class="schm" data-dxf-bulges="0.4142 0.0000" data-dxf-pts="3522.33,1965.98 3509.99,1958.86" data-handle="7A7F6" data-layer="SCHM" style="fill:none;stroke:#5a5f68;stroke-width:.1;stroke-opacity:.6"/><path id="polyline34172" d="m680.81 780.74-2.62.98" data-class="schm" data-dxf-pts="3509.99,1958.86 3502.72,1931.71" data-handle="7A7F7" data-layer="SCHM" style="fill:none;stroke:#5a5f68;stroke-width:.1;stroke-opacity:.6"/><path id="polyline34173" d="m677.93 781.03 2.62-.97" data-class="schm" data-dxf-pts="3495.62,1933.62 3502.89,1960.76" data-handle="7A7F9" data-layer="SCHM" style="fill:none;stroke:#5a5f68;stroke-width:.1;stroke-opacity:.6"/><path id="path34174" d="M680.55 780.06a1 1 0 0 0 .59-1.3l-1.47-3.98" data-class="schm" data-dxf-bulges="0.4142 0.0000 0.0000" data-dxf-pts="3502.89,1960.76 3495.77,1973.10 3454.60,1984.13" data-handle="7A7FA" data-layer="SCHM" style="fill:none;stroke:#5a5f68;stroke-width:.1;stroke-opacity:.6"/><path id="path34196" d="m658.25 800.1 75.96 107.46a24 24 0 0 0 1.47 1.88l.05.06" data-class="schm" data-dxf-bulges="0.0000 0.0247 0.0000 0.0000" data-dxf-pts="3537.13,1661.51 4857.41,1661.24 4881.36,1662.42 4882.08,1662.49" data-handle="7A868" data-layer="SCHM" style="fill:none;stroke:#5a5f68;stroke-width:.1;stroke-opacity:.6"/><path id="polyline35375" d="m814.49 796.22-103.32 73.45" data-class="schm" data-dxf-pts="4413.81,2965.74 4413.66,1692.09" data-handle="7AE89" data-layer="SCHM" style="fill:none;stroke:#5a5f68;stroke-width:.1;stroke-opacity:.6"/><path id="polyline35376" d="m813.81 795.49-103.09 73.28" data-class="schm" data-dxf-pts="4403.81,2964.43 4403.66,1693.59" data-handle="7AE8A" data-layer="SCHM" style="fill:none;stroke:#5a5f68;stroke-width:.1;stroke-opacity:.6"/><path id="polyline36915" d="m694.14 843.84 101.8-72.41" data-class="schm" data-dxf-pts="4103.43,1702.24 4103.21,2957.29" data-handle="7BBD7" data-layer="SCHM" style="fill:none;stroke:#5a5f68;stroke-width:.1;stroke-opacity:.6"/><path id="polyline36916" d="m795.44 770.62-101.87 72.4" data-class="schm" data-dxf-pts="4093.66,2957.94 4093.43,1702.24" data-handle="7BBD8" data-layer="SCHM" style="fill:none;stroke:#5a5f68;stroke-width:.1;stroke-opacity:.6"/><path id="path37136" d="m519.78 769.99 5.77-7.24a4.48 4.48 0 0 1 7.14.21l7.95 11.24a4.5 4.5 0 0 1-1.05 6.26l-6.99 4.96 2.99 4.24 6.99-4.97a4.5 4.5 0 0 1 6.24 1.06l26.65 37.67a4.5 4.5 0 0 1-1.06 6.26l-6.98 4.97 2.99 4.23 6.98-4.97a4.5 4.5 0 0 1 6.24 1.07l138.63 196.03" data-class="schm" data-dxf-bulges="0.0000 -0.4986 0.0000 -0.4142 0.0000 0.0000 0.0000 -0.4142 0.0000 -0.4142 0.0000 0.0000 0.0000 -0.4142 0.0000 0.0000" data-dxf-pts="2485.67,700.45 2460.04,789.79 2503.30,847.20 2641.43,847.20 2686.43,802.20 2686.43,716.07 2738.43,716.07 2738.43,802.20 2783.43,847.20 3246.43,847.20 3291.43,802.20 3291.43,716.07 3343.44,716.07 3343.43,802.20 3388.43,847.20 5797.43,847.20" data-handle="7BE1B" data-layer="SCHM" style="fill:none;stroke:#5a5f68;stroke-width:.1;stroke-opacity:.6"/></g><g xmlns:inkscape="http://www.inkscape.org/namespaces/inkscape" inkscape:label="TWY" id="layer-centerlines" style="display:inline"><path inkscape:label="TWY-A-01" id="line37520" d="m650.53 547.41 247.85 350.5Z" style="baseline-shift:baseline;display:inline;overflow:visible;opacity:1;fill:none;stroke:#e6d24c;stroke-width:.1;stroke-dasharray:none;stroke-opacity:1;stop-color:#000;stop-opacity:1"/><g inkscape:label="TWY-LEAD-STD247" id="g526" style="display:inline"><path inkscape:label="TWY-LEAD-STD247-02" id="path38250" d="M696.3 769.28a3.63 3.63 0 0 1-5.36-2.45" data-class="centerline-twy" data-dxf-bulges="-0.5117 0.0000" data-dxf-pts="3506.33,2152.50 3455.18,2122.67" data-handle="71072" data-layer="항공기동선" style="fill:none;stroke:#e6d24c;stroke-width:.1"/><path inkscape:label="TWY-LEAD-STD247-01" id="path38251" d="M692.11 767.42a3.6 3.6 0 0 1 4.44 1.05" data-class="centerline-twy" data-dxf-bulges="-0.3532 -0.3532" data-dxf-pts="3466.79,2128.90 3501.16,2159.26" data-handle="71073" data-layer="항공기동선" style="fill:none;stroke:#e6d24c;stroke-width:.1"/></g><g inkscape:label="TWY-LEAD-STD246" id="g527" style="display:inline"><path inkscape:label="TWY-LEAD-STD246-02" id="path38252" d="M691.28 772.4a3.63 3.63 0 0 1 4.93-1.46" data-class="centerline-twy" data-dxf-bulges="-0.4152 -0.4152" data-dxf-pts="3502.71,2093.19 3519.41,2142.12" data-handle="71074" data-layer="항공기동선" style="fill:none;stroke:#e6d24c;stroke-width:.1"/><path inkscape:label="TWY-LEAD-STD246-01" id="path38253" d="M696.39 771.83a3.63 3.63 0 0 1-5.13.58" data-class="centerline-twy" data-dxf-bulges="-0.4174 0.0000" data-dxf-pts="3527.74,2138.43 3502.63,2093.02" data-handle="71075" data-layer="항공기동선" style="fill:none;stroke:#e6d24c;stroke-width:.1"/></g><g inkscape:label="TWY-LEAD-STD248" id="g525" style="display:inline"><path inkscape:label="TWY-LEAD-STD248-02" id="path38255" d="M694.94 762.06a3.64 3.64 0 0 1 3.73 3.91" data-class="centerline-twy" data-dxf-bulges="-0.4464 -0.4464" data-dxf-pts="3439.36,2183.19 3493.13,2191.11" data-handle="71079" data-layer="항공기동선" style="fill:none;stroke:#e6d24c;stroke-width:.1"/><path inkscape:label="TWY-LEAD-STD248-01" id="path38256" d="M697.94 766.53a3.64 3.64 0 0 1-2.68-4.11" data-class="centerline-twy" data-dxf-bulges="-0.3876 0.0000" data-dxf-pts="3493.36,2181.85 3444.20,2183.70" data-handle="7107A" data-layer="항공기동선" style="fill:none;stroke:#e6d24c;stroke-width:.1"/></g><g inkscape:label="TWY-LEAD-STD241" id="g531" style="display:inline"><path inkscape:label="TWY-LEAD-STD241-02" id="path38267" d="M711.32 793.4a3.63 3.63 0 0 0-5.45 1.26" data-class="centerline-twy" data-dxf-bulges="0.4701 0.0000" data-dxf-pts="3790.85,2135.73 3769.52,2083.72" data-handle="7108D" data-layer="항공기동선" style="fill:none;stroke:#e6d24c;stroke-width:.1"/><path inkscape:label="TWY-LEAD-STD241-01" id="path38269" d="M704.95 794.57a3.63 3.63 0 0 0 6.83-.51" data-class="centerline-twy" data-dxf-bulges="0.7104 0.0000" data-dxf-pts="3763.44,2076.67 3798.98,2135.73" data-handle="71097" data-layer="항공기동선" style="fill:none;stroke:#e6d24c;stroke-width:.1"/></g><g inkscape:label="TWY-JCT-RC-R12" id="g484" style="display:inline"><path inkscape:label="TWY-JCT-RC-R12-02" id="path38320" d="M719.63 796.36a5.1 5.1 0 0 0-1.2 7.09" data-class="centerline-twy" data-dxf-arc="3914.43,2186.73,51.00,180.00,270.00" data-handle="710EB" data-layer="항공기동선" style="fill:none;stroke:#e6d24c;stroke-width:.1"/><path inkscape:label="TWY-JCT-RC-R12-01" id="path38321" d="M718.43 803.45a5.1 5.1 0 0 0-7.07-1.21" data-class="centerline-twy" data-dxf-arc="3914.43,2084.73,51.00,90.00,180.00" data-handle="710EC" data-layer="항공기동선" style="fill:none;stroke:#e6d24c;stroke-width:.1"/></g><g inkscape:label="TWY-RF" id="g482"><path inkscape:label="TWY-RF-02" id="path482" d="m714.44 764.55-11.52 8.19" style="baseline-shift:baseline;display:inline;overflow:visible;opacity:1;fill:none;stroke:#e6d24c;stroke-width:.1;stroke-dasharray:none;stroke-opacity:1;stop-color:#000;stop-opacity:1"/><path inkscape:label="TWY-RF-01" id="line38333" d="m725.96 756.36-11.52 8.19" style="baseline-shift:baseline;display:inline;overflow:visible;opacity:1;fill:none;stroke:#e6d24c;stroke-width:.1;stroke-dasharray:none;stroke-opacity:1;stop-color:#000;stop-opacity:1"/></g><g inkscape:label="TWY-JCT-RB-RA-RC" id="g474" style="display:inline"><path inkscape:label="TWY-JCT-RB-RC" id="path38335" d="M713.03 755.77c-2.11 1.58-2 3.99-.8 5.59" style="fill:none;stroke:#e6d24c;stroke-width:.1;stroke-dasharray:none;stroke-opacity:1"/><path inkscape:label="TWY-JCT-RB-RA" id="path472" d="M712.2 761.38c-1.11-1.65-3.34-2.56-5.53-1.1" style="fill:none;stroke:#e6d24c;stroke-width:.1;stroke-dasharray:none;stroke-opacity:1"/></g><g inkscape:label="TWY-JCT-RF-RB" id="g476" style="display:inline"><path inkscape:label="TWY-JCT-RF-RB-04" id="path38333" d="M718.6 761.59a5.1 5.1 0 0 0-1.2 7.09" data-class="centerline-twy" data-dxf-arc="3624.13,2379.73,51.00,180.00,270.00" data-handle="710F8" data-layer="항공기동선" style="fill:none;stroke:#e6d24c;stroke-width:.1"/><path inkscape:label="TWY-JCT-RF-RB-03" id="path473" d="M712.23 761.36a3.83 3.83 0 0 0 5.4.92" style="fill:none;stroke:#e6d24c;stroke-width:.1;stroke-dasharray:none;stroke-opacity:1"/><path inkscape:label="TWY-JCT-RF-RB-02" id="path38332" d="M717.4 768.68a5.1 5.1 0 0 0-7.06-1.21" data-class="centerline-twy" data-dxf-arc="3624.13,2277.73,51.00,90.00,180.00" data-handle="710F7" data-layer="항공기동선" style="fill:none;stroke:#e6d24c;stroke-width:.1"/><path inkscape:label="TWY-JCT-RF-RB-01" id="path38336" d="M711.28 766.8c2.03-1.53 2-3.82.92-5.42" style="fill:none;stroke:#e6d24c;stroke-width:.1;stroke-dasharray:none;stroke-opacity:1"/></g><g inkscape:label="TWY-R12" id="g1093"><path inkscape:label="TWY-R12-04" id="path1083" d="m715.5 799.3-4.14 2.94" style="display:inline;fill:none;stroke:#e6d24c;stroke-width:.1;stroke-dasharray:none"/><path inkscape:label="TWY-R12-05" id="path1084" d="m719.63 796.36-4.14 2.94" style="display:inline;fill:none;stroke:#e6d24c;stroke-width:.1;stroke-dasharray:none"/></g><g inkscape:label="TWY-LEAD-STD249" id="g524" style="display:inline"><path inkscape:label="TWY-LEAD-STD249-02" id="path38391" d="M700.94 758.08a3.64 3.64 0 0 1 3.34 3.91" data-class="centerline-twy" data-dxf-bulges="-0.4141 0.0000" data-dxf-pts="3441.73,2255.53 3493.13,2260.26" data-handle="71142" data-layer="항공기동선" style="fill:none;stroke:#e6d24c;stroke-width:.1"/><path inkscape:label="TWY-LEAD-STD249-01" id="path38392" d="M703.52 762.53a3.64 3.64 0 0 1-2.58-4.45" data-class="centerline-twy" data-dxf-bulges="-0.4141 0.0000" data-dxf-pts="3493.13,2250.80 3441.73,2255.53" data-handle="71143" data-layer="항공기동선" style="fill:none;stroke:#e6d24c;stroke-width:.1"/></g><g inkscape:label="TWY-LEAD-STD243" id="g529" style="display:inline"><path inkscape:label="TWY-LEAD-STD243-02" id="path38397" d="M695.72 780.21a3.63 3.63 0 0 1 3.9-3.35" data-class="centerline-twy" data-dxf-bulges="-0.4141 0.0000" data-dxf-pts="3592.34,2084.33 3587.61,2135.73" data-handle="71148" data-layer="항공기동선" style="fill:none;stroke:#e6d24c;stroke-width:.1"/><path inkscape:label="TWY-LEAD-STD243-01" id="path38398" d="M700.16 777.63a3.63 3.63 0 0 1-4.44 2.58" data-class="centerline-twy" data-dxf-bulges="-0.4142 -0.4142" data-dxf-pts="3597.06,2135.74 3592.34,2084.33" data-handle="71149" data-layer="항공기동선" style="fill:none;stroke:#e6d24c;stroke-width:.1"/></g><g inkscape:label="TWY-LEAD-STD245" id="g528" style="display:inline"><path inkscape:label="TWY-LEAD-STD246-02" id="path38399" d="M693.36 776.87a3.63 3.63 0 0 1 3.9-3.35" data-class="centerline-twy" data-dxf-bulges="-0.4141 -0.4141" data-dxf-pts="3551.34,2084.33 3546.61,2135.73" data-handle="7114A" data-layer="항공기동선" style="fill:none;stroke:#e6d24c;stroke-width:.1"/><path inkscape:label="TWY-LEAD-STD245-01" id="path38400" d="M697.8 774.29a3.63 3.63 0 0 1-4.44 2.58" data-class="centerline-twy" data-dxf-bulges="-0.4141 0.0000" data-dxf-pts="3556.07,2135.73 3551.34,2084.33" data-handle="7114B" data-layer="항공기동선" style="fill:none;stroke:#e6d24c;stroke-width:.1"/></g><g inkscape:label="TWY-LEAD-STD242" id="g530" style="display:inline"><path inkscape:label="TWY-LEAD-STD242-02" id="path38401" d="M699.09 784.97a3.63 3.63 0 0 1 3.9-3.35" data-class="centerline-twy" data-dxf-bulges="-0.4141 0.0000" data-dxf-pts="3650.84,2084.33 3646.11,2135.73" data-handle="7114C" data-layer="항공기동선" style="fill:none;stroke:#e6d24c;stroke-width:.1"/><path inkscape:label="TWY-LEAD-STD242-01" id="path38402" d="M703.53 782.39a3.63 3.63 0 0 1-4.44 2.58" data-class="centerline-twy" data-dxf-bulges="-0.4142 -0.4142" data-dxf-pts="3655.56,2135.74 3650.84,2084.33" data-handle="7114D" data-layer="항공기동선" style="fill:none;stroke:#e6d24c;stroke-width:.1"/></g><path inkscape:label="TWY-RB" id="line38428" d="m712.23 761.36 21.85 30.96" style="baseline-shift:baseline;display:inline;overflow:visible;opacity:1;fill:none;stroke:#e6d24c;stroke-width:.1;stroke-dasharray:none;stroke-opacity:1;stop-color:#000;stop-opacity:1"/><path inkscape:label="TWY-RC" id="path38429" d="m749.74 781.19-21.31-30.13a5.07 5.07 0 0 0-7.07-1.21l-11.52 8.19" data-class="centerline-twy" data-dxf-bulges="0.0000 0.4142 0.0000 0.0000" data-dxf-pts="3914.43,2521.73 3544.13,2521.73 3493.13,2470.73 3493.13,2328.73" data-handle="71169" data-layer="항공기동선" style="fill:none;stroke:#e6d24c;stroke-width:.1"/><path inkscape:label="TWY-RA" id="path38430" d="m709.84 758.04-11.52 8.19a5.1 5.1 0 0 0-1.2 7.09l5.84 8.26 15.47 21.87" data-class="centerline-twy" data-dxf-bulges="0.0000 0.4142 0.0000 0.0000 0.0000" data-dxf-pts="3493.13,2328.73 3493.13,2186.73 3544.13,2135.73 3645.62,2135.73 3914.43,2135.73" data-handle="7116A" data-layer="항공기동선" style="fill:none;stroke:#e6d24c;stroke-width:.1;display:inline"/><g inkscape:label="TWY-JCT-RC-PAD817" id="g468" style="display:inline"><path inkscape:label="TWY-JCT-RC-PAD817-02" id="path38432" d="M702 780.23a3.64 3.64 0 0 0 5.07.86" data-class="centerline-twy" data-dxf-arc="3629.03,2172.23,36.50,270.00,0.00" data-handle="7116D" data-layer="항공기동선" style="fill:none;stroke:#e6d24c;stroke-width:.1"/><path inkscape:label="TWY-JCT-RC-PAD817-01" id="path38433" d="M707.07 781.09a3.64 3.64 0 0 0-.86 5.08" data-class="centerline-twy" data-dxf-arc="3702.03,2172.23,36.50,180.00,270.00" data-handle="7116E" data-layer="항공기동선" style="fill:none;stroke:#e6d24c;stroke-width:.1"/></g><g inkscape:label="TWY-JCT-RC-PAD816" id="g469" style="display:inline"><path inkscape:label="TWY-JCT-RC-PAD816-02" id="path38434" d="M707.46 787.94a3.64 3.64 0 0 0 5.06.86" data-class="centerline-twy" data-dxf-arc="3723.78,2172.23,36.50,270.00,0.00" data-handle="7116F" data-layer="항공기동선" style="fill:none;stroke:#e6d24c;stroke-width:.1"/><path inkscape:label="TWY-JCT-RC-PAD816-01" id="path38435" d="M712.52 788.8a3.64 3.64 0 0 0-.86 5.08" data-class="centerline-twy" data-dxf-arc="3796.78,2172.23,36.50,180.00,270.00" data-handle="71170" data-layer="항공기동선" style="fill:none;stroke:#e6d24c;stroke-width:.1"/></g><g inkscape:label="TWY-STD250" id="g435" style="display:inline"><path inkscape:label="TWY-LEAD-STD250-02" id="path38393" d="M705.69 754.7a3.64 3.64 0 0 1 3.34 3.91" data-class="centerline-twy" data-dxf-bulges="-0.4141 0.0000" data-dxf-pts="3441.73,2314.03 3493.13,2318.76" data-handle="71144" data-layer="항공기동선" style="fill:none;stroke:#e6d24c;stroke-width:.1"/><path inkscape:label="TWY-LEAD-STD250-01" id="path38394" d="M708.26 759.16a3.64 3.64 0 0 1-2.57-4.46" data-class="centerline-twy" data-dxf-bulges="-0.4142 -0.4142" data-dxf-pts="3493.14,2309.31 3441.73,2314.03" data-handle="71145" data-layer="항공기동선" style="fill:none;stroke:#e6d24c;stroke-width:.1"/></g><g inkscape:label="TWY-R11" id="g1077" style="display:inline"/><path inkscape:label="TWY-STD817" id="path481" d="m719.77 772.07-12.7 9.02" style="baseline-shift:baseline;display:inline;overflow:visible;opacity:1;fill:none;stroke:#e6d24c;stroke-width:.1;stroke-dasharray:none;stroke-opacity:1;stop-color:#000;stop-opacity:1"/><path inkscape:label="TWY-STD816" id="path480" d="m725.21 779.78-12.7 9.02" style="baseline-shift:baseline;display:inline;overflow:visible;opacity:1;fill:none;stroke:#e6d24c;stroke-width:.1;stroke-dasharray:none;stroke-opacity:1;stop-color:#000;stop-opacity:1"/><g inkscape:label="TWY-JCT-RF-RC" id="g467" style="display:inline"><path inkscape:label="TWY-JCT-RF-RC-02" id="path38334" d="M702.92 772.74a5.1 5.1 0 0 0-1.2 7.09" data-class="centerline-twy" data-dxf-arc="3624.13,2186.73,51.00,180.00,270.00" data-handle="710FA" data-layer="항공기동선" style="fill:none;stroke:#e6d24c;stroke-width:.1"/><path inkscape:label="TWY-JCT-RF-RC-01" id="path38445-7" d="M696.32 771.54c1.52 2.39 4.12 2.56 6.6 1.2" data-class="centerline-twy" data-dxf-arc="3812.43,2186.73,51.00,270.00,0.00" data-handle="7117E" data-layer="항공기동선" style="display:inline;fill:none;stroke:#e6d24c;stroke-width:.1"/></g><g inkscape:label="TWY-JCT-R12-RC" id="g483" style="display:inline"><path inkscape:label="TWY-JCT-R12-RC-02" id="path38445" d="M712.56 795.15a5.1 5.1 0 0 0 7.07 1.21" data-class="centerline-twy" data-dxf-arc="3812.43,2186.73,51.00,270.00,0.00" data-handle="7117E" data-layer="항공기동선" style="fill:none;stroke:#e6d24c;stroke-width:.1"/><path inkscape:label="TWY-JCT-R12-RC-01" id="path38446" d="M711.36 802.24a5.1 5.1 0 0 0 1.2-7.09" data-class="centerline-twy" data-dxf-arc="3812.43,2084.73,51.00,0.00,90.00" data-handle="7117F" data-layer="항공기동선" style="fill:none;stroke:#e6d24c;stroke-width:.1"/></g><g inkscape:label="STD-361-376" id="g281" style="display:inline"/><g inkscape:label="TWY-LEAD-STD361-376" id="g298" style="display:inline"/><g inkscape:label="TWT-RG" id="g1069"><path inkscape:label="TWT-RG-02" id="path1067" d="m705.1 854.67 97.42-69.26" style="display:inline;fill:none;stroke:#e6d24c;stroke-width:.1;stroke-dasharray:none"/></g><g inkscape:label="TWY-P" id="g513"><path inkscape:label="TWY-P-01" id="line38588" d="m525.32 714.28 211.11 298.47Z" style="baseline-shift:baseline;display:inline;overflow:visible;opacity:1;fill:none;stroke:#e6d24c;stroke-width:.1;stroke-dasharray:none;stroke-opacity:1;stop-color:#000;stop-opacity:1"/></g><path inkscape:label="TWY-M" id="line38837" d="m549.25 657.8 229.81 324.93Z" style="baseline-shift:baseline;display:inline;overflow:visible;fill:none;stroke:#e6d24c;stroke-width:.1;stroke-dasharray:none;stroke-opacity:1;stop-color:#000"/><path inkscape:label="TWY-B-01" id="line38839" d="m698.93 596.87 224.76 317.89Z" style="baseline-shift:baseline;display:inline;overflow:visible;opacity:1;fill:none;stroke:#e6d24c;stroke-width:.1;stroke-dasharray:none;stroke-opacity:1;stop-color:#000;stop-opacity:1"/><g inkscape:label="STD-321-332" id="g278" style="display:inline"/><path inkscape:label="TWY-D" id="line38986" d="m716.91 479.56 280.6 396.86Z" style="baseline-shift:baseline;display:inline;overflow:visible;opacity:1;fill:none;stroke:#e6d24c;stroke-width:.1;stroke-dasharray:none;stroke-opacity:1;stop-color:#000;stop-opacity:1"/><g inkscape:label="TWY-STD501-517" id="g321" style="display:inline"/><g inkscape:label="TWY-R4" id="g316" style="display:inline"><path inkscape:label="TWY-R4-12" id="path39209" d="m688.13 830.68-18.29-25.86a37 37 0 0 1-3.58-6.26l-5.99-13.31" data-class="centerline-twy" data-dxf-bulges="0.0000 -0.0483 0.0000 0.0000" data-dxf-pts="3960.93,1729.24 3643.08,1729.24 3571.09,1736.21 3427.43,1764.31" data-handle="7152D" data-layer="항공기동선" style="fill:none;stroke:#e6d24c;stroke-width:.1"/></g><g inkscape:label="TWY-N" id="g519"><path inkscape:label="TWY-N-02" id="polyline39225" d="M775.93 997.26 547.36 674.08" style="baseline-shift:baseline;display:inline;overflow:visible;opacity:1;fill:none;stroke:#e6d24c;stroke-width:.1;stroke-dasharray:none;stroke-opacity:1;stop-color:#000;stop-opacity:1"/></g><g inkscape:label="TWY-STD208-224-275-291" id="g569" style="display:inline"/><g inkscape:label="TWY-STD225-268" id="g319" style="display:inline"><path inkscape:label="TWY-STD247" id="polyline38254" d="m683.78 763.26 8.33 4.16" data-class="centerline-twy" data-dxf-pts="3384.30,2084.65 3466.79,2128.90" data-handle="71077" data-layer="항공기동선" style="fill:none;stroke:#e6d24c;stroke-width:.1"/><path inkscape:label="TWY-STD246" id="polyline38255" d="m682.52 774.16 8.76-1.76" data-class="centerline-twy" data-dxf-pts="3466.16,2011.10 3502.71,2093.19" data-handle="71078" data-layer="항공기동선" style="fill:none;stroke:#e6d24c;stroke-width:.1"/><path inkscape:label="TWY-STD248" id="polyline38256" d="m689.9 756.31 5.36 6.11" data-class="centerline-twy" data-dxf-pts="3363.06,2175.20 3444.20,2183.70" data-handle="7107B" data-layer="항공기동선" style="fill:none;stroke:#e6d24c;stroke-width:.1"/><path id="polyline38259" d="m698.32 805.24-4.6-6.81" style="baseline-shift:baseline;display:inline;overflow:visible;opacity:1;fill:none;stroke:#e6d24c;stroke-width:.1;stroke-dasharray:.2,.2;stroke-dashoffset:0;stop-color:#000;stop-opacity:1"/><path inkscape:label="TWY-STD241" id="polyline38267" d="m695.6 793.68 10.27.98" data-class="centerline-twy" data-dxf-pts="3701.76,2005.16 3769.52,2083.72" data-handle="7108E" data-layer="항공기동선" style="fill:none;stroke:#e6d24c;stroke-width:.1"/><path inkscape:label="TWY-STD240" id="path38271" d="m694.23 797.74 7 4.53" style="fill:none;stroke:#e6d24c;stroke-width:.1;stroke-dasharray:none"/><path inkscape:label="TWY-STD243" id="line38378" d="m695.72 780.21-6.34 4.5" data-class="centerline-twy" data-dxf-p="3592.340,2084.335 3592.340,2006.190" data-handle="71134" data-layer="항공기동선" data-wgs="37.4637534,126.4346147 37.4633463,126.4338944" style="fill:none;stroke:#e6d24c;stroke-width:.1"/><path inkscape:label="TWY-STD245" id="line38379" d="m693.36 776.87-7.41 5.27" data-class="centerline-twy" data-dxf-p="3551.340,2084.335 3551.340,1992.927" data-handle="71135" data-layer="항공기동선" data-wgs="37.4640547,126.4343466 37.4635785,126.4335041" style="fill:none;stroke:#e6d24c;stroke-width:.1"/><path inkscape:label="TWY-STD242" id="line38380" d="m699.09 784.97-6.34 4.5" data-class="centerline-twy" data-dxf-p="3650.840,2084.335 3650.840,2006.190" data-handle="71136" data-layer="항공기동선" data-wgs="37.4633234,126.4349972 37.4629164,126.4342770" style="fill:none;stroke:#e6d24c;stroke-width:.1"/><path inkscape:label="TWY-STD249" id="line38440" d="m700.94 758.08-3.92-5.73" style="baseline-shift:baseline;display:inline;overflow:visible;opacity:1;fill:none;stroke:#e6d24c;stroke-width:.1;stroke-dasharray:none;stroke-opacity:1;stop-color:#000;stop-opacity:1"/><path inkscape:label="TWY-STD235" id="line39209" d="m674.79 802.96 5.87-4.02" style="baseline-shift:baseline;display:inline;overflow:visible;opacity:1;fill:none;stroke:#e6d24c;stroke-width:.1;stroke-dasharray:none;stop-color:#000;stop-opacity:1"/></g></g><g xmlns:inkscape="http://www.inkscape.org/namespaces/inkscape" inkscape:label="STOP" id="g1004"><path inkscape:label="STB-R12-HS-RC-02" id="path1245" d="m619.87 819.85 3.06 4.35" style="display:inline;opacity:1;fill:none;fill-opacity:1;stroke:#ff1a00;stroke-width:.222193;stroke-miterlimit:4;stroke-dasharray:.444385,.222193;stroke-dashoffset:.0888772;stroke-opacity:1" transform="translate(291.781 247.106)scale(.67509)"/><path inkscape:label="STB-R12-HS-RC-01" id="path1247" d="m632.07 811 3.5 5.04" style="display:inline;opacity:1;fill:none;fill-opacity:1;stroke:#ff1a00;stroke-width:.222193;stroke-miterlimit:4;stroke-dasharray:.444385,.222193;stroke-dashoffset:.0888772;stroke-opacity:1" transform="translate(291.781 247.106)scale(.67509)"/><path inkscape:label="STB-RC-HS-R12-01" id="path66" d="m1020.15 805.8 18.1-12.33" style="opacity:1;fill:none;stroke:#ff1a00;stroke-width:.74757;stroke-dasharray:1.49514,.74757;stroke-dashoffset:.299028" transform="translate(506.096 634.537)scale(.20065)"/><path inkscape:label="STB-RC-HS-RF-01" id="path67" d="m966.52 724.92 12.2-8.53" style="opacity:1;fill:none;stroke:#ff1a00;stroke-width:.74757;stroke-dasharray:1.49514,.74757;stroke-dashoffset:.299028" transform="translate(506.096 634.537)scale(.20065)"/><path inkscape:label="STB-RF-HS-RC-01" id="path68" d="m974.76 684.94 8.66 12.39" style="opacity:1;fill:none;stroke:#ff1a00;stroke-width:.74757;stroke-dasharray:1.49514,.74757;stroke-dashoffset:.299028" transform="translate(506.096 634.537)scale(.20065)"/><path inkscape:label="STB-RC-HS-RB-01" id="path69" d="m992.2 620.78 10.28 14.2" style="opacity:1;fill:none;stroke:#ff1a00;stroke-width:.74757;stroke-dasharray:1.49514,.74757;stroke-dashoffset:.299028" transform="translate(506.096 634.537)scale(.20065)"/><path inkscape:label="STB-RF-HS-RB-02" id="path71" d="m1015.22 653.13 9.93 14.43" style="opacity:1;fill:none;stroke:#ff1a00;stroke-width:.74757;stroke-dasharray:1.49514,.74757;stroke-dashoffset:.299028" transform="translate(506.096 634.537)scale(.20065)"/><path inkscape:label="STB-RF-HS-RB-01" id="path72" d="m1050.83 629.26 10.57 15.1" style="opacity:1;fill:none;stroke:#ff1a00;stroke-width:.74757;stroke-dasharray:1.49514,.74757;stroke-dashoffset:.299028" transform="translate(506.096 634.537)scale(.20065)"/><path inkscape:label="STB-RB-HS-RF-01" id="path75" d="m715.93 769.36 2.36-1.68" style="opacity:1;fill:none;stroke:#ff1a00;stroke-width:.15;stroke-dasharray:.3,.15;stroke-dashoffset:.0600001"/></g><g xmlns:inkscape="http://www.inkscape.org/namespaces/inkscape" inkscape:label="APRON3-TN" id="g436" style="display:inline;stroke:#5b5e67" transform="translate(.326 -.24)"/><g xmlns:inkscape="http://www.inkscape.org/namespaces/inkscape" inkscape:label="APRON3-TS" id="g437" style="display:inline;stroke:#5b5e67"><rect inkscape:label="STD235" id="rect340-5" width="4.1" height="5.731" x="1041.373" y="-114.155" ry=".658" style="display:inline;fill:none;stroke:#5b5e67;stroke-width:.1;stroke-linecap:round;stroke-linejoin:round;stroke-miterlimit:5;stroke-dasharray:none;stroke-dashoffset:0;paint-order:stroke fill markers" transform="rotate(55.785)"/><rect inkscape:label="STD239R" id="rect340-5-9-6" width="4.1" height="5.731" x="154.798" y="1045.458" ry=".658" style="display:inline;fill:none;stroke:#5b5e67;stroke-width:.1;stroke-linecap:round;stroke-linejoin:round;stroke-miterlimit:5;stroke-dasharray:none;stroke-dashoffset:0;paint-order:stroke fill markers" transform="rotate(-32.464)"/><rect inkscape:label="STD241" id="rect340-5-9-6-8" width="4.1" height="5.731" x="-727.504" y="765.881" ry=".658" style="display:inline;fill:none;stroke:#5b5e67;stroke-width:.1;stroke-linecap:round;stroke-linejoin:round;stroke-miterlimit:5;stroke-dasharray:none;stroke-dashoffset:0;paint-order:stroke fill markers" transform="rotate(-84.657)"/><rect inkscape:label="STD242" id="rect340-5-9-6-8-9" width="4.1" height="5.731" x="-1046.751" y="107.916" ry=".658" style="display:inline;fill:none;stroke:#5b5e67;stroke-width:.1;stroke-linecap:round;stroke-linejoin:round;stroke-miterlimit:5;stroke-dasharray:none;stroke-dashoffset:0;paint-order:stroke fill markers" transform="rotate(-125.336)"/><rect inkscape:label="STD246" id="rect340-5-9-6-8-9-3" width="4.1" height="5.731" x="-893.209" y="519.991" ry=".658" style="display:inline;fill:none;stroke:#5b5e67;stroke-width:.1;stroke-linecap:round;stroke-linejoin:round;stroke-miterlimit:5;stroke-dasharray:none;stroke-dashoffset:0;paint-order:stroke fill markers" transform="rotate(-101.11)"/><rect inkscape:label="STD247" id="rect340-5-9-6-8-9-3-8" width="4.1" height="5.731" x="-380.849" y="951.618" ry=".658" style="display:inline;fill:none;stroke:#5b5e67;stroke-width:.1;stroke-linecap:round;stroke-linejoin:round;stroke-miterlimit:5;stroke-dasharray:none;stroke-dashoffset:0;paint-order:stroke fill markers" transform="rotate(-63.55)"/><rect inkscape:label="STD248" id="rect340-5-9-6-8-9-3-8-2" width="4.1" height="5.731" x="15.448" y="1023.156" ry=".658" style="display:inline;fill:none;stroke:#5b5e67;stroke-width:.1;stroke-linecap:round;stroke-linejoin:round;stroke-miterlimit:5;stroke-dasharray:none;stroke-dashoffset:0;paint-order:stroke fill markers" transform="rotate(-41.391)"/><rect inkscape:label="STD249" id="rect340-5-9-6-8-9-3-8-2-7" width="4.1" height="5.731" x="145.098" y="1014.652" ry=".658" style="display:inline;fill:none;stroke:#5b5e67;stroke-width:.1;stroke-linecap:round;stroke-linejoin:round;stroke-miterlimit:5;stroke-dasharray:none;stroke-dashoffset:0;paint-order:stroke fill markers" transform="rotate(-34.564)"/><g inkscape:label="APRON3-TS-REMOTE-STD361-376" id="g925" style="display:inline;stroke:#5b5e67"/><rect inkscape:label="STD243" id="rect340-7-9-0-7" width="2.879" height="4.025" x="1037.923" y="-107.28" ry=".462" style="display:inline;fill:none;stroke:#5b5e67;stroke-width:.1;stroke-linecap:round;stroke-linejoin:round;stroke-miterlimit:5;stroke-dasharray:none;stroke-dashoffset:0;paint-order:stroke fill markers" transform="rotate(54.396)"/><rect inkscape:label="STD245" id="rect340-7-9-0-7-2" width="2.879" height="4.025" x="1033.838" y="-105.927" ry=".462" style="display:inline;fill:none;stroke:#5b5e67;stroke-width:.1;stroke-linecap:round;stroke-linejoin:round;stroke-miterlimit:5;stroke-dasharray:none;stroke-dashoffset:0;paint-order:stroke fill markers" transform="rotate(54.396)"/><rect inkscape:label="STD239" id="rect340-7-9-0-6" width="2.879" height="4.025" x="252.66" y="1028.703" ry=".462" style="display:inline;fill:none;stroke:#5b5e67;stroke-width:.1;stroke-linecap:round;stroke-linejoin:round;stroke-miterlimit:5;stroke-dasharray:none;stroke-dashoffset:0;paint-order:stroke fill markers" transform="rotate(-27.002)"/><rect inkscape:label="STD240" id="rect340-7-9-0-6-8" width="2.879" height="4.025" x="-322.745" y="1007.31" ry=".462" style="display:inline;fill:none;stroke:#5b5e67;stroke-width:.1;stroke-linecap:round;stroke-linejoin:round;stroke-miterlimit:5;stroke-dasharray:none;stroke-dashoffset:0;paint-order:stroke fill markers" transform="rotate(-58.718)"/></g><g xmlns:inkscape="http://www.inkscape.org/namespaces/inkscape" inkscape:label="APRON2-REMOTE-STD341-353" id="g1037" style="display:inline"/><g xmlns:inkscape="http://www.inkscape.org/namespaces/inkscape" inkscape:label="STD321-332" id="g209" style="fill:none;stroke:#5b5e67"/><g xmlns:inkscape="http://www.inkscape.org/namespaces/inkscape" inkscape:label="STD301-312" id="g198" style="fill:none;stroke:#5b5e67"/><g xmlns:inkscape="http://www.inkscape.org/namespaces/inkscape" inkscape:label="S1-S7" id="g1052"/><g xmlns:inkscape="http://www.inkscape.org/namespaces/inkscape" id="layer-stand-labels" inkscape:label="STAND-LABELS" inkscape:groupmode="layer" style="font-family:Arial,Helvetica,sans-serif;font-weight:700;text-anchor:middle"><text x="680.26" y="793.20" style="fill:none;stroke:#0a0e1a;stroke-width:.8;stroke-linejoin:round;font-size:2.1px" id="lbl-234-h">234</text><text x="680.26" y="793.20" style="fill:#ffffff;stroke:none;font-size:2.1px" id="lbl-234">234</text><text x="682.52" y="798.45" style="fill:none;stroke:#0a0e1a;stroke-width:.8;stroke-linejoin:round;font-size:2.1px" id="lbl-235-h">235</text><text x="682.52" y="798.45" style="fill:#ffffff;stroke:none;font-size:2.1px" id="lbl-235">235</text><text x="685.97" y="801.83" style="fill:none;stroke:#0a0e1a;stroke-width:.8;stroke-linejoin:round;font-size:2.1px" id="lbl-236R-h">236R</text><text x="685.97" y="801.83" style="fill:#ffffff;stroke:none;font-size:2.1px" id="lbl-236R">236R</text><text x="689.91" y="802.82" style="fill:none;stroke:#0a0e1a;stroke-width:.8;stroke-linejoin:round;font-size:2.1px" id="lbl-238-h">238</text><text x="689.91" y="802.82" style="fill:#ffffff;stroke:none;font-size:2.1px" id="lbl-238">238</text><text x="692.42" y="797.98" style="fill:none;stroke:#0a0e1a;stroke-width:.8;stroke-linejoin:round;font-size:2.1px" id="lbl-239R-h">239R</text><text x="692.42" y="797.98" style="fill:#ffffff;stroke:none;font-size:2.1px" id="lbl-239R">239R</text><text x="693.31" y="794.21" style="fill:none;stroke:#0a0e1a;stroke-width:.8;stroke-linejoin:round;font-size:2.1px" id="lbl-241-h">241</text><text x="693.31" y="794.21" style="fill:#ffffff;stroke:none;font-size:2.1px" id="lbl-241">241</text><text x="691.43" y="790.78" style="fill:none;stroke:#0a0e1a;stroke-width:.8;stroke-linejoin:round;font-size:2.1px" id="lbl-242-h">242</text><text x="691.43" y="790.78" style="fill:#ffffff;stroke:none;font-size:2.1px" id="lbl-242">242</text><text x="688.14" y="786.52" style="fill:none;stroke:#0a0e1a;stroke-width:.8;stroke-linejoin:round;font-size:2.1px" id="lbl-243-h">243</text><text x="688.14" y="786.52" style="fill:#ffffff;stroke:none;font-size:2.1px" id="lbl-243">243</text><text x="684.26" y="783.80" style="fill:none;stroke:#0a0e1a;stroke-width:.8;stroke-linejoin:round;font-size:2.1px" id="lbl-245-h">245</text><text x="684.26" y="783.80" style="fill:#ffffff;stroke:none;font-size:2.1px" id="lbl-245">245</text><text x="680.37" y="775.22" style="fill:none;stroke:#0a0e1a;stroke-width:.8;stroke-linejoin:round;font-size:2.1px" id="lbl-246-h">246</text><text x="680.37" y="775.22" style="fill:#ffffff;stroke:none;font-size:2.1px" id="lbl-246">246</text><text x="681.76" y="763.01" style="fill:none;stroke:#0a0e1a;stroke-width:.8;stroke-linejoin:round;font-size:2.1px" id="lbl-247-h">247</text><text x="681.76" y="763.01" style="fill:#ffffff;stroke:none;font-size:2.1px" id="lbl-247">247</text><text x="715.22" y="785.04" style="fill:none;stroke:#0a0e1a;stroke-width:.8;stroke-linejoin:round;font-size:2.1px" id="lbl-816-h">816</text><text x="715.22" y="785.04" style="fill:#ffffff;stroke:none;font-size:2.1px" id="lbl-816">816</text><text x="709.78" y="777.35" style="fill:none;stroke:#0a0e1a;stroke-width:.8;stroke-linejoin:round;font-size:2.1px" id="lbl-817-h">817</text><text x="709.78" y="777.35" style="fill:#ffffff;stroke:none;font-size:2.1px" id="lbl-817">817</text></g><g xmlns:inkscape="http://www.inkscape.org/namespaces/inkscape" id="layer-points" inkscape:label="POINT-LABELS" inkscape:groupmode="layer"><g id="pt-31" transform="translate(710.36,793.94)"><circle r="0.72" fill="#e01b0f" stroke="#ffffff" stroke-width=".08"/><text y="0.17" text-anchor="middle" font-family="Arial,Helvetica,sans-serif" font-weight="700" font-size="0.46px" letter-spacing=".03" fill="#ffffff">31</text></g><g id="pt-32" transform="translate(704.54,785.28)"><circle r="0.72" fill="#e01b0f" stroke="#ffffff" stroke-width=".08"/><text y="0.17" text-anchor="middle" font-family="Arial,Helvetica,sans-serif" font-weight="700" font-size="0.46px" letter-spacing=".03" fill="#ffffff">32</text></g><g id="pt-33" transform="translate(704.65,773.11)"><circle r="0.72" fill="#e01b0f" stroke="#ffffff" stroke-width=".08"/><text y="0.17" text-anchor="middle" font-family="Arial,Helvetica,sans-serif" font-weight="700" font-size="0.46px" letter-spacing=".03" fill="#ffffff">33</text></g><g id="pt-34" transform="translate(700.75,766.43)"><circle r="0.72" fill="#e01b0f" stroke="#ffffff" stroke-width=".08"/><text y="0.17" text-anchor="middle" font-family="Arial,Helvetica,sans-serif" font-weight="700" font-size="0.46px" letter-spacing=".03" fill="#ffffff">34</text></g><g id="pt-39" transform="translate(717.26,771.52)"><circle r="0.72" fill="#e01b0f" stroke="#ffffff" stroke-width=".08"/><text y="0.17" text-anchor="middle" font-family="Arial,Helvetica,sans-serif" font-weight="700" font-size="0.46px" letter-spacing=".03" fill="#ffffff">39</text></g></g></g></g><path d="M691.38 769.38L691.48 769.47L691.59 769.57L691.70 769.66L691.81 769.75L691.92 769.85L692.03 769.94L692.14 770.03L692.24 770.13L692.35 770.22L692.46 770.31L692.57 770.41L692.68 770.50L692.79 770.59L692.90 770.69L693.00 770.78L693.11 770.88L693.22 770.97L693.33 771.06L693.44 771.16L693.55 771.25L693.65 771.34L693.76 771.44L693.87 771.53L693.98 771.62L694.09 771.72L694.20 771.81L694.31 771.90L694.41 772.00L694.52 772.09L694.63 772.19L694.74 772.28L694.85 772.37L694.96 772.47L695.06 772.56L695.17 772.65L695.28 772.75L695.39 772.84L695.50 772.93L695.61 773.03L695.72 773.12L695.82 773.22L695.93 773.31L696.04 773.40L696.15 773.50L696.26 773.59L696.37 773.68L696.48 773.78L696.58 773.87L696.74 774.01L696.90 774.15L697.05 774.29L697.19 774.43L697.33 774.56L697.46 774.70L697.59 774.83L697.71 774.97L697.82 775.10L697.93 775.24L698.04 775.37L698.14 775.51L698.23 775.64L698.32 775.77L698.40 775.90L698.48 776.03L698.55 776.16L698.61 776.29L698.68 776.42L698.73 776.55L698.78 776.68L698.82 776.81L698.86 776.94L698.89 777.06L698.92 777.19L698.94 777.32L698.96 777.44L698.97 777.57L698.97 777.69L698.97 777.82L698.96 777.94L698.95 778.07L698.93 778.19L698.91 778.31L698.88 778.44L698.84 778.56L698.80 778.68L698.75 778.80L698.70 778.93L698.64 779.05L698.58 779.17L698.51 779.29L698.43 779.41L698.35 779.53L698.26 779.65L698.17 779.77L698.07 779.89L697.97 780.01" fill="none" stroke="#00a03f" stroke-width="0.55" opacity=".20" stroke-linecap="round"/><path d="M691.38 769.38L691.48 769.47L691.59 769.57L691.70 769.66L691.81 769.75L691.92 769.85L692.03 769.94L692.14 770.03L692.24 770.13L692.35 770.22L692.46 770.31L692.57 770.41L692.68 770.50L692.79 770.59L692.90 770.69L693.00 770.78L693.11 770.88L693.22 770.97L693.33 771.06L693.44 771.16L693.55 771.25L693.65 771.34L693.76 771.44L693.87 771.53L693.98 771.62L694.09 771.72L694.20 771.81L694.31 771.90L694.41 772.00L694.52 772.09L694.63 772.19L694.74 772.28L694.85 772.37L694.96 772.47L695.06 772.56L695.17 772.65L695.28 772.75L695.39 772.84L695.50 772.93L695.61 773.03L695.72 773.12L695.82 773.22L695.93 773.31L696.04 773.40L696.15 773.50L696.26 773.59L696.37 773.68L696.48 773.78L696.58 773.87L696.74 774.01L696.90 774.15L697.05 774.29L697.19 774.43L697.33 774.56L697.46 774.70L697.59 774.83L697.71 774.97L697.82 775.10L697.93 775.24L698.04 775.37L698.14 775.51L698.23 775.64L698.32 775.77L698.40 775.90L698.48 776.03L698.55 776.16L698.61 776.29L698.68 776.42L698.73 776.55L698.78 776.68L698.82 776.81L698.86 776.94L698.89 777.06L698.92 777.19L698.94 777.32L698.96 777.44L698.97 777.57L698.97 777.69L698.97 777.82L698.96 777.94L698.95 778.07L698.93 778.19L698.91 778.31L698.88 778.44L698.84 778.56L698.80 778.68L698.75 778.80L698.70 778.93L698.64 779.05L698.58 779.17L698.51 779.29L698.43 779.41L698.35 779.53L698.26 779.65L698.17 779.77L698.07 779.89L697.97 780.01" fill="none" stroke="#00a03f" stroke-width="0.28" stroke-linecap="round" stroke-dasharray="0.012 0.34" opacity="1" filter="url(#gl)"/></svg>