<svg xmlns="http://www.w3.org/2000/svg" xmlns:xlink="http://www.w3.org/1999/xlink" xmlns:inkscape="http://www.inkscape.org/namespaces/inkscape" xmlns:sodipodi="http://sodipodi.sourceforge.net/DTD/sodipodi-0.0.dtd" viewBox="694.34 731.26 61.11 45.27"><defs><filter id="gl" x="-30%" y="-30%" width="160%" height="160%"><feGaussianBlur stdDeviation="0.10" result="b"/><feMerge><feMergeNode in="b"/><feMergeNode in="b"/><feMergeNode in="SourceGraphic"/></feMerge></filter></defs><rect x="694.34" y="731.26" width="61.11" height="45.27" fill="#0a0e1a"/><g opacity="0.45" transform="rotate(75.84 729.628 749.013)"><g xmlns="http://www.w3.org/2000/svg" id="bgG"><defs id="defs40143"><clipPath id="clipPath24" clipPathUnits="userSpaceOnUse"/></defs><path id="rect1" fill="#0a0e1a" d="M0 0h2000v1380H0Z" style="display:inline;fill:#0a0e1a"/><g xmlns:inkscape="http://www.inkscape.org/namespaces/inkscape" inkscape:label="RUNWAY" id="layer-runways" style="display:inline"><path inkscape:label="RWY-15L-33R" id="polygon37507" d="m746.82 554.94 215.78 305.2-4.86 3.46-215.79-305.2Z" data-class="pavement-runway" data-length-m="3750" data-runway="15L/33R" data-threshold-dxf="2047.431,3780.238 5797.431,3780.238" data-threshold-wgs84="37.4839426,126.4401441 37.4563775,126.4646632" style="stroke:none;fill:#111927;fill-opacity:.51"/><path inkscape:label="RWY-15R-33L" id="polygon37508" d="m713.23 578.82 215.79 305.19-4.87 3.46-215.79-305.19z" data-class="pavement-runway" data-length-m="3750" data-runway="15R/33L" data-threshold-dxf="2047.431,3366.238 5797.431,3366.238" data-threshold-wgs84="37.4817860,126.4363272 37.4542217,126.4608470" style="stroke:none;fill:#111927;fill-opacity:.51"/><path inkscape:label="RWY-16L-34R" id="polygon37509" d="m530.5 678.18 230.22 325.49-4.87 3.46-230.22-325.49z" data-class="pavement-runway" data-length-m="4000" data-runway="16L/34R" data-threshold-dxf="1797.420,1291.211 5797.432,1291.222" data-threshold-wgs84="37.4728122,126.4155642 37.4434147,126.4417232" style="stroke:none;fill:#111927;fill-opacity:.51"/><path inkscape:label="RWY-16R-34L" id="polygon37510" d="m511.31 722.4 215.83 305.15-4.86 3.46-215.83-305.14z" data-class="pavement-runway" data-length-m="3750" data-runway="16R/34L" data-threshold-dxf="2047.430,877.197 5797.429,877.230" data-threshold-wgs84="37.4688176,126.4133841 37.4412582,126.4379083" style="display:inline;fill:#111927;fill-opacity:.51;stroke:none;stroke-width:.1;stroke-dasharray:none;stroke-opacity:.6"/></g><g xmlns:inkscape="http://www.inkscape.org/namespaces/inkscape" inkscape:label="GREEN-AREAS" id="layer-green" style="display:inline"/><g xmlns:inkscape="http://www.inkscape.org/namespaces/inkscape" inkscape:label="SCHM" id="layer-schm" style="display:inline"><path id="polygon34075" d="m711.48 784.3-.52-.73 7.74-5.5.52.72z" data-class="schm" data-dxf-pts="3708.46,2189.84 3708.46,2285.26 3717.36,2285.26 3717.36,2189.84" data-handle="7A77D" data-layer="SCHM" style="fill:none;stroke:#5a5f68;stroke-width:.1;stroke-opacity:.6"/><path id="path34079" d="M741.7 761.3a9.96 9.96 0 0 0 13.88 2.37" data-class="schm" data-dxf-bulges="0.4142 0.0000" data-dxf-pts="3705.06,2571.19 3805.13,2671.27" data-handle="7A782" data-layer="SCHM" style="fill:none;stroke:#5a5f68;stroke-width:.1;stroke-opacity:.6"/><path id="path34080" d="M742.86 763.72a10.7 10.7 0 0 0 13.17.59" data-class="schm" data-dxf-bulges="0.3431 0.0000" data-dxf-pts="3731.61,2566.66 3812.98,2671.27" data-handle="7A783" data-layer="SCHM" style="fill:none;stroke:#5a5f68;stroke-width:.1;stroke-opacity:.6"/><path id="polyline34080" d="m707.47 754.53 11.37-8.08" data-class="schm" data-dxf-pts="3450.68,2329.62 3450.68,2469.76" data-handle="7A784" data-layer="SCHM" style="fill:none;stroke:#5a5f68;stroke-width:.1;stroke-opacity:.6"/><path id="polyline34081" d="m707.02 753.89 11.36-8.08" data-class="schm" data-dxf-pts="3442.83,2329.62 3442.83,2469.76" data-handle="7A785" data-layer="SCHM" style="fill:none;stroke:#5a5f68;stroke-width:.1;stroke-opacity:.6"/><path id="polyline34082" d="m733.31 749.44 8.39 11.86" data-class="schm" data-dxf-pts="3559.28,2571.18 3705.06,2571.19" data-handle="7A786" data-layer="SCHM" style="fill:none;stroke:#5a5f68;stroke-width:.1;stroke-opacity:.6"/><path id="path34082" d="M731.81 748.67a9.3 9.3 0 0 0-12.97-2.22" data-class="schm" data-dxf-bulges="0.4142 0.0000" data-dxf-pts="3544.25,2563.33 3450.68,2469.76" data-handle="7A787" data-layer="SCHM" style="fill:none;stroke:#5a5f68;stroke-width:.1;stroke-opacity:.6"/><path id="path34083" d="M730.53 746.17a10.1 10.1 0 0 0-12.15-.36" data-class="schm" data-dxf-bulges="0.3348 0.0000" data-dxf-pts="3516.36,2567.27 3442.83,2469.76" data-handle="7A788" data-layer="SCHM" style="fill:none;stroke:#5a5f68;stroke-width:.1;stroke-opacity:.6"/><path id="path34084" d="M730.53 746.17a2 2 0 0 0 2.78-.28" data-class="schm" data-dxf-bulges="0.4093 0.0000" data-dxf-pts="3516.36,2567.27 3530.23,2591.77" data-handle="7A789" data-layer="SCHM" style="fill:none;stroke:#5a5f68;stroke-width:.1;stroke-opacity:.6"/><path id="path34085" d="M735.42 735.14a14.8 14.8 0 0 0-16.88-1.38" data-class="schm" data-dxf-bulges="0.3154 0.3154" data-dxf-pts="3454.60,2671.39 3345.18,2540.95" data-handle="7A78A" data-layer="SCHM" style="fill:none;stroke:#5a5f68;stroke-width:.1;stroke-opacity:.6"/><path id="path34086" d="M734.79 735.89a13.8 13.8 0 0 0-15.76-1.29" data-class="schm" data-dxf-bulges="0.3154 0.3154" data-dxf-pts="3457.14,2661.88 3354.99,2540.09" data-handle="7A78B" data-layer="SCHM" style="fill:none;stroke:#5a5f68;stroke-width:.1;stroke-opacity:.6"/><path id="path34087" d="M747.27 748.9a13 13 0 0 0-4.5-7.65" data-class="schm" data-dxf-bulges="0.1745 0.0000" data-dxf-pts="3636.05,2688.79 3547.32,2696.24" data-handle="7A78C" data-layer="SCHM" style="fill:none;stroke:#5a5f68;stroke-width:.1;stroke-opacity:.6"/><path id="path34088" d="M746.31 749.08a12 12 0 0 0-4.17-7.07" data-class="schm" data-dxf-bulges="0.1745 0.0000" data-dxf-pts="3631.95,2679.83 3549.87,2686.73" data-handle="7A78D" data-layer="SCHM" style="fill:none;stroke:#5a5f68;stroke-width:.1;stroke-opacity:.6"/><path id="polyline34088" d="m738.48 731.43 3.26 2.72" data-class="schm" data-dxf-pts="3442.11,2718.00 3483.28,2729.03" data-handle="7A78E" data-layer="SCHM" style="fill:none;stroke:#5a5f68;stroke-width:.1;stroke-opacity:.6"/><path id="polyline34089" d="m743.85 735.9 11.11 9.23" data-class="schm" data-dxf-pts="3509.84,2736.15 3649.94,2773.69" data-handle="7A78F" data-layer="SCHM" style="fill:none;stroke:#5a5f68;stroke-width:.1;stroke-opacity:.6"/><path id="polyline34090" d="m735.42 735.14 3.26 2.71" data-class="schm" data-dxf-pts="3454.60,2671.39 3495.77,2682.43" data-handle="7A790" data-layer="SCHM" style="fill:none;stroke:#5a5f68;stroke-width:.1;stroke-opacity:.6"/><path id="polyline34091" d="m740.79 739.6 1.98 1.65" data-class="schm" data-dxf-pts="3522.33,2689.54 3547.32,2696.24" data-handle="7A791" data-layer="SCHM" style="fill:none;stroke:#5a5f68;stroke-width:.1;stroke-opacity:.6"/><path id="polyline34092" d="m734.79 735.89 2.48 2.07" data-class="schm" data-dxf-pts="3457.14,2661.88 3488.42,2670.26" data-handle="7A792" data-layer="SCHM" style="fill:none;stroke:#5a5f68;stroke-width:.1;stroke-opacity:.6"/><path id="polyline34093" d="m740.95 741.01 1.19 1" data-class="schm" data-dxf-pts="3534.78,2682.68 3549.87,2686.73" data-handle="7A793" data-layer="SCHM" style="fill:none;stroke:#5a5f68;stroke-width:.1;stroke-opacity:.6"/><path id="polyline34094" d="m718.54 733.76-.45.26-1.38.8-1.38.8-1.39.79-.22.12" data-class="schm" data-dxf-pts="3345.18,2540.95 3344.73,2535.80 3343.27,2519.81 3341.73,2503.81 3340.12,2487.82 3339.85,2485.32" data-handle="7A794" data-layer="SCHM" style="fill:none;stroke:#5a5f68;stroke-width:.1;stroke-opacity:.6"/><path id="path34094" d="m713.72 736.53-2.16 1.21a10 10 0 0 0-1.72 1.21l-.76.67" data-class="schm" data-dxf-bulges="0.0000 0.0530 0.0000 0.0000" data-dxf-pts="3339.85,2485.32 3337.18,2460.62 3337.08,2439.52 3338.12,2429.37" data-handle="7A795" data-layer="SCHM" style="fill:none;stroke:#5a5f68;stroke-width:.1;stroke-opacity:.6"/><path id="polyline34095" d="m739.1 730.68 8.38 6.97" data-class="schm" data-dxf-pts="3439.56,2727.51 3545.26,2755.83" data-handle="7A796" data-layer="SCHM" style="fill:none;stroke:#5a5f68;stroke-width:.1;stroke-opacity:.6"/><path id="polyline34096" d="m750.77 740.38 4.81 4" data-class="schm" data-dxf-pts="3586.73,2766.95 3647.39,2783.20" data-handle="7A797" data-layer="SCHM" style="fill:none;stroke:#5a5f68;stroke-width:.1;stroke-opacity:.6"/><path id="path34098" d="M749.87 751.46a5.5 5.5 0 0 0 5.78-2.86" data-class="schm" data-dxf-bulges="0.3249 0.0000" data-dxf-pts="3672.14,2695.28 3682.27,2759.29" data-handle="7A79A" data-layer="SCHM" style="fill:none;stroke:#5a5f68;stroke-width:.1;stroke-opacity:.6"/><path id="path34099" d="M747.27 748.9a3.2 3.2 0 0 0 2.6 2.56" data-class="schm" data-dxf-bulges="0.3134 0.0000" data-dxf-pts="3636.05,2688.79 3672.14,2695.28" data-handle="7A79B" data-layer="SCHM" style="fill:none;stroke:#5a5f68;stroke-width:.1;stroke-opacity:.6"/><path id="path34100" d="M746.31 749.08a4.2 4.2 0 0 0 3.4 3.35" data-class="schm" data-dxf-bulges="0.3134 0.0000" data-dxf-pts="3631.95,2679.83 3679.10,2688.32" data-handle="7A79C" data-layer="SCHM" style="fill:none;stroke:#5a5f68;stroke-width:.1;stroke-opacity:.6"/><path id="path34101" d="M733.4 747a2 2 0 0 0-.09 2.44" data-class="schm" data-dxf-bulges="0.3395 0.0000" data-dxf-pts="3539.89,2586.06 3559.28,2571.18" data-handle="7A79D" data-layer="SCHM" style="fill:none;stroke:#5a5f68;stroke-width:.1;stroke-opacity:.6"/><path id="polyline34101" d="m737.54 740.77-4.23 5.12" data-class="schm" data-dxf-pts="3513.00,2656.06 3530.23,2591.77" data-handle="7A79E" data-layer="SCHM" style="fill:none;stroke:#5a5f68;stroke-width:.1;stroke-opacity:.6"/><path id="path34102" d="M737.54 740.77a2 2 0 0 0-.27-2.81" data-class="schm" data-dxf-bulges="0.4142 0.0000" data-dxf-pts="3513.00,2656.06 3488.42,2670.26" data-handle="7A79F" data-layer="SCHM" style="fill:none;stroke:#5a5f68;stroke-width:.1;stroke-opacity:.6"/><path id="path34103" d="M740.95 741.01a2 2 0 0 0-2.81.26" data-class="schm" data-dxf-bulges="0.4142 0.0000" data-dxf-pts="3534.78,2682.68 3520.59,2658.09" data-handle="7A7A0" data-layer="SCHM" style="fill:none;stroke:#5a5f68;stroke-width:.1;stroke-opacity:.6"/><path id="path34110" d="M747.48 737.65a1.5 1.5 0 0 0 2.3-.48" data-class="schm" data-dxf-bulges="0.4797 0.0000" data-dxf-pts="3545.25,2755.83 3554.72,2777.36" data-handle="7A7A9" data-layer="SCHM" style="fill:none;stroke:#5a5f68;stroke-width:.1;stroke-opacity:.6"/><path id="polyline34110" d="m751.43 733.93-1.65 3.24" data-class="schm" data-dxf-pts="3537.86,2809.74 3554.72,2777.36" data-handle="7A7AA" data-layer="SCHM" style="fill:none;stroke:#5a5f68;stroke-width:.1;stroke-opacity:.6"/><path id="polyline34111" d="m752.13 734.29-1.86 3.63" data-class="schm" data-dxf-pts="3544.83,2813.36 3563.73,2777.07" data-handle="7A7AB" data-layer="SCHM" style="fill:none;stroke:#5a5f68;stroke-width:.1;stroke-opacity:.6"/><path id="path34111" d="M750.27 737.92a2 2 0 0 0 .5 2.46" data-class="schm" data-dxf-bulges="0.3516 0.0000" data-dxf-pts="3563.73,2777.07 3586.73,2766.95" data-handle="7A7AC" data-layer="SCHM" style="fill:none;stroke:#5a5f68;stroke-width:.1;stroke-opacity:.6"/><path id="polygon34111" d="m733.85 768.39-.51-.73-7.74 5.5.51.73z" data-class="schm" data-dxf-pts="3708.46,2465.69 3708.46,2370.26 3717.36,2370.26 3717.36,2465.69" data-handle="7A7AD" data-layer="SCHM" style="fill:none;stroke:#5a5f68;stroke-width:.1;stroke-opacity:.6"/><path id="path34112" d="M742.86 763.72a2 2 0 0 0-2.45-.09l-6.6 4.69" data-class="schm" data-dxf-bulges="0.3389 0.0000 0.0000" data-dxf-pts="3731.61,2566.66 3716.61,2547.06 3716.61,2465.69" data-handle="7A7AE" data-layer="SCHM" style="fill:none;stroke:#5a5f68;stroke-width:.1;stroke-opacity:.6"/><path id="path34113" d="M740.14 760.44a2 2 0 0 1-.48 2.82l-6.28 4.46" data-class="schm" data-dxf-bulges="-0.4142 0.0000 0.0000" data-dxf-pts="3688.91,2563.34 3709.21,2543.04 3709.21,2465.69" data-handle="7A7AF" data-layer="SCHM" style="fill:none;stroke:#5a5f68;stroke-width:.1;stroke-opacity:.6"/><path id="polyline34113" d="m731.81 748.67 8.33 11.77" data-class="schm" data-dxf-pts="3544.25,2563.33 3688.91,2563.34" data-handle="7A7B0" data-layer="SCHM" style="fill:none;stroke:#5a5f68;stroke-width:.1;stroke-opacity:.6"/><path id="path34114" d="m719.03 734.61-.44.26-1.39.8-1.39.8-1.39.8-1.4.78-.98.55a9 9 0 0 0-1.55 1.09l-.76.67" data-class="schm" data-dxf-bulges="0.0000 0.0000 0.0000 0.0000 0.0000 0.0000 0.0530 0.0000 0.0000" data-dxf-pts="3354.99,2540.09 3354.54,2534.93 3353.08,2518.89 3351.54,2502.84 3349.92,2486.81 3348.22,2470.78 3346.97,2459.53 3346.88,2440.52 3347.92,2430.37" data-handle="7A7B1" data-layer="SCHM" style="fill:none;stroke:#5a5f68;stroke-width:.1;stroke-opacity:.6"/><path id="polyline34115" d="m733.4 747 4.74-5.73" data-class="schm" data-dxf-pts="3539.89,2586.06 3520.59,2658.09" data-handle="7A7B3" data-layer="SCHM" style="fill:none;stroke:#5a5f68;stroke-width:.1;stroke-opacity:.6"/><path id="path34116" d="M749.71 752.43a7.1 7.1 0 0 0 6.81-3.38" data-class="schm" data-dxf-bulges="0.2892 0.0000" data-dxf-pts="3679.10,2688.32 3691.05,2763.76" data-handle="7A7B4" data-layer="SCHM" style="fill:none;stroke:#5a5f68;stroke-width:.1;stroke-opacity:.6"/><path id="path34167" d="M741.88 735.56a1 1 0 0 0-.14-1.41" data-class="schm" data-dxf-bulges="0.4142 0.0000" data-dxf-pts="3495.62,2721.91 3483.28,2729.03" data-handle="7A7EF" data-layer="SCHM" style="fill:none;stroke:#5a5f68;stroke-width:.1;stroke-opacity:.6"/><path id="path34168" d="M743.85 735.9a1 1 0 0 0-1.41.13" data-class="schm" data-dxf-bulges="0.4142 0.0000" data-dxf-pts="3509.84,2736.15 3502.72,2723.81" data-handle="7A7F0" data-layer="SCHM" style="fill:none;stroke:#5a5f68;stroke-width:.1;stroke-opacity:.6"/><path id="path34169" d="M738.68 737.85a1 1 0 0 0 1.41-.13" data-class="schm" data-dxf-bulges="0.4142 0.0000" data-dxf-pts="3495.77,2682.43 3502.89,2694.76" data-handle="7A7F1" data-layer="SCHM" style="fill:none;stroke:#5a5f68;stroke-width:.1;stroke-opacity:.6"/><path id="path34170" d="M740.66 738.19a1 1 0 0 0 .13 1.41" data-class="schm" data-dxf-bulges="0.4142 0.0000" data-dxf-pts="3509.99,2696.67 3522.33,2689.54" data-handle="7A7F2" data-layer="SCHM" style="fill:none;stroke:#5a5f68;stroke-width:.1;stroke-opacity:.6"/><path id="polyline34170" d="m741.88 735.56-1.79 2.16" data-class="schm" data-dxf-pts="3495.62,2721.91 3502.89,2694.76" data-handle="7A7F3" data-layer="SCHM" style="fill:none;stroke:#5a5f68;stroke-width:.1;stroke-opacity:.6"/><path id="polyline34171" d="m742.44 736.03-1.78 2.16" data-class="schm" data-dxf-pts="3502.72,2723.81 3509.99,2696.67" data-handle="7A7F4" data-layer="SCHM" style="fill:none;stroke:#5a5f68;stroke-width:.1;stroke-opacity:.6"/><path id="polyline36915" d="m694.14 843.84 101.8-72.41" data-class="schm" data-dxf-pts="4103.43,1702.24 4103.21,2957.29" data-handle="7BBD7" data-layer="SCHM" style="fill:none;stroke:#5a5f68;stroke-width:.1;stroke-opacity:.6"/><path id="polyline36916" d="m795.44 770.62-101.87 72.4" data-class="schm" data-dxf-pts="4093.66,2957.94 4093.43,1702.24" data-handle="7BBD8" data-layer="SCHM" style="fill:none;stroke:#5a5f68;stroke-width:.1;stroke-opacity:.6"/><path id="path37136" d="m519.78 769.99 5.77-7.24a4.48 4.48 0 0 1 7.14.21l7.95 11.24a4.5 4.5 0 0 1-1.05 6.26l-6.99 4.96 2.99 4.24 6.99-4.97a4.5 4.5 0 0 1 6.24 1.06l26.65 37.67a4.5 4.5 0 0 1-1.06 6.26l-6.98 4.97 2.99 4.23 6.98-4.97a4.5 4.5 0 0 1 6.24 1.07l138.63 196.03" data-class="schm" data-dxf-bulges="0.0000 -0.4986 0.0000 -0.4142 0.0000 0.0000 0.0000 -0.4142 0.0000 -0.4142 0.0000 0.0000 0.0000 -0.4142 0.0000 0.0000" data-dxf-pts="2485.67,700.45 2460.04,789.79 2503.30,847.20 2641.43,847.20 2686.43,802.20 2686.43,716.07 2738.43,716.07 2738.43,802.20 2783.43,847.20 3246.43,847.20 3291.43,802.20 3291.43,716.07 3343.44,716.07 3343.43,802.20 3388.43,847.20 5797.43,847.20" data-handle="7BE1B" data-layer="SCHM" style="fill:none;stroke:#5a5f68;stroke-width:.1;stroke-opacity:.6"/></g><g xmlns:inkscape="http://www.inkscape.org/namespaces/inkscape" inkscape:label="TWY" id="layer-centerlines" style="display:inline"><path inkscape:label="TWY-C" id="line37516" d="M732.61 573.11 940.8 867.57Z" style="baseline-shift:baseline;display:inline;overflow:visible;opacity:1;fill:none;stroke:#e6d24c;stroke-width:.1;stroke-dasharray:none;stroke-opacity:1;stop-color:#000;stop-opacity:1"/><path inkscape:label="TWY-A-01" id="line37520" d="m650.53 547.41 247.85 350.5Z" style="baseline-shift:baseline;display:inline;overflow:visible;opacity:1;fill:none;stroke:#e6d24c;stroke-width:.1;stroke-dasharray:none;stroke-opacity:1;stop-color:#000;stop-opacity:1"/><g inkscape:label="TWY-LEAD-STD253" id="g603" style="display:inline"><path inkscape:label="TWY-LEAD-STD253-02" id="path38274" d="M724.35 742.85a3.64 3.64 0 0 1 .56 6.1" data-class="centerline-twy" data-dxf-bulges="-0.5463 -0.5463" data-dxf-pts="3453.29,2535.90 3506.42,2505.06" data-handle="710AD" data-layer="항공기동선" style="fill:none;stroke:#e6d24c;stroke-width:.1"/><path inkscape:label="TWY-LEAD-STD253-01" id="path38275" d="M724.11 748.91a3.64 3.64 0 0 1 .51-4.41" data-class="centerline-twy" data-dxf-bulges="-0.3405 0.0000" data-dxf-pts="3501.48,2498.69 3468.36,2528.48" data-handle="710AE" data-layer="항공기동선" style="fill:none;stroke:#e6d24c;stroke-width:.1"/></g><g inkscape:label="TWY-LEAD-STD252" id="g604" style="display:inline"><path inkscape:label="TWY-LEAD-STD252-02" id="path38276" d="M718.79 745.69a3.64 3.64 0 0 1 2.98 3.89" data-class="centerline-twy" data-dxf-bulges="-0.3876 -0.3876" data-dxf-pts="3444.20,2473.76 3493.36,2475.61" data-handle="710AF" data-layer="항공기동선" style="fill:none;stroke:#e6d24c;stroke-width:.1"/><path inkscape:label="TWY-LEAD-STD252-01" id="path38277" d="M721 750.1a3.64 3.64 0 0 1-2.45-4.83" data-class="centerline-twy" data-dxf-bulges="-0.4464 0.0000" data-dxf-pts="3493.13,2466.35 3439.36,2474.27" data-handle="710B0" data-layer="항공기동선" style="fill:none;stroke:#e6d24c;stroke-width:.1"/></g><g inkscape:label="TWY-LEAD-STD254" id="g602" style="display:inline"><path inkscape:label="TWY-LEAD-STD254-02" id="path38278" d="M729.61 745.15a3.64 3.64 0 0 1-2.31 4.75" data-class="centerline-twy" data-dxf-bulges="-0.4305 0.0000" data-dxf-pts="3502.69,2565.67 3528.17,2519.17" data-handle="710B1" data-layer="항공기동선" style="fill:none;stroke:#e6d24c;stroke-width:.1"/><path inkscape:label="TWY-LEAD-STD254-01" id="path38279" d="M726.53 749.43a3.64 3.64 0 0 1 2.96-4.08" data-class="centerline-twy" data-dxf-bulges="-0.4030 -0.3998" data-dxf-pts="3519.82,2515.56 3503.68,2563.54" data-handle="710B2" data-layer="항공기동선" style="fill:none;stroke:#e6d24c;stroke-width:.1"/></g><g inkscape:label="TWY-LEAD-STD257" id="g318" style="display:inline"><path inkscape:label="TWY-LEAD-STD257-02" id="path315" d="m744.61 764.84-1.64 3.68" style="fill:none;stroke:#e6d24c;stroke-width:.1;stroke-dasharray:none;stroke-opacity:1"/><path inkscape:label="TWY-LEAD-STD257-03" id="path38282" d="M744.94 764.1a3.64 3.64 0 0 1-3.34 5.58" data-class="centerline-twy" data-dxf-bulges="-0.6177 0.0000" data-dxf-pts="3746.81,2581.52 3773.02,2521.73" data-handle="710BA" data-layer="항공기동선" style="fill:none;stroke:#e6d24c;stroke-width:.1"/><path inkscape:label="TWY-LEAD-STD257-01" id="path38287" d="M742.97 768.52a3.6 3.6 0 0 0 .35 3.59" data-class="centerline-twy" data-dxf-bulges="0.2655 0.0000" data-dxf-pts="3771.46,2539.70 3802.90,2521.73" data-handle="710BF" data-layer="항공기동선" style="fill:none;stroke:#e6d24c;stroke-width:.1"/></g><g inkscape:label="TWY-LEAD-STD258" id="g599" style="display:inline"><path inkscape:label="TWY-LEAD-STD258-02" id="path314" d="m752.46 765.73-.14 5.6a3.4 3.4 0 0 1-1.53 2.88" style="fill:none;stroke:#e6d24c;stroke-width:.1;stroke-dasharray:none;stroke-opacity:1"/><path inkscape:label="TWY-LEAD-STD258-01" id="path38288" d="M753.31 772.42a3.64 3.64 0 0 1-.85-6.69" data-class="centerline-twy" data-dxf-bulges="-0.6729 -0.4142" data-dxf-pts="3863.43,2601.86 3803.79,2633.74" data-handle="710C1" data-layer="항공기동선" style="fill:none;stroke:#e6d24c;stroke-width:.1"/></g><g inkscape:label="TWY-JCT-R12-RA" id="g486" style="display:inline"><path inkscape:label="TWY-JCT-R12-RA-02" id="path38326" d="M743.87 772.89a5.1 5.1 0 0 0 7.07 1.21" data-class="centerline-twy" data-dxf-arc="3812.43,2572.73,51.00,270.00,0.00" data-handle="710F1" data-layer="항공기동선" style="fill:none;stroke:#e6d24c;stroke-width:.1"/><path inkscape:label="TWY-JCT-R12-RA-01" id="path38327" d="M742.67 779.98a5.1 5.1 0 0 0 1.2-7.09" data-class="centerline-twy" data-dxf-arc="3812.43,2470.73,51.00,0.00,90.00" data-handle="710F2" data-layer="항공기동선" style="fill:none;stroke:#e6d24c;stroke-width:.1"/></g><g inkscape:label="TWY-JCT-RA-R12" id="g485" style="display:inline"><path inkscape:label="TWY-JCT-RA-R12-02" id="path38328" d="M750.94 774.1a5.1 5.1 0 0 0-1.2 7.09" data-class="centerline-twy" data-dxf-arc="3914.43,2572.73,51.00,180.00,270.00" data-handle="710F3" data-layer="항공기동선" style="fill:none;stroke:#e6d24c;stroke-width:.1"/><path inkscape:label="TWY-JCT-RA-R12-01" id="path38329" d="M749.74 781.19a5.1 5.1 0 0 0-7.07-1.21" data-class="centerline-twy" data-dxf-arc="3914.43,2470.73,51.00,90.00,180.00" data-handle="710F4" data-layer="항공기동선" style="fill:none;stroke:#e6d24c;stroke-width:.1"/></g><g inkscape:label="TWY-RF" id="g482"><path inkscape:label="TWY-RF-02" id="path482" d="m714.44 764.55-11.52 8.19" style="baseline-shift:baseline;display:inline;overflow:visible;opacity:1;fill:none;stroke:#e6d24c;stroke-width:.1;stroke-dasharray:none;stroke-opacity:1;stop-color:#000;stop-opacity:1"/><path inkscape:label="TWY-RF-01" id="line38333" d="m725.96 756.36-11.52 8.19" style="baseline-shift:baseline;display:inline;overflow:visible;opacity:1;fill:none;stroke:#e6d24c;stroke-width:.1;stroke-dasharray:none;stroke-opacity:1;stop-color:#000;stop-opacity:1"/></g><g inkscape:label="TWY-JCT-RB-RA-RC" id="g474" style="display:inline"><path inkscape:label="TWY-JCT-RB-RC" id="path38335" d="M713.03 755.77c-2.11 1.58-2 3.99-.8 5.59" style="fill:none;stroke:#e6d24c;stroke-width:.1;stroke-dasharray:none;stroke-opacity:1"/><path inkscape:label="TWY-JCT-RB-RA" id="path472" d="M712.2 761.38c-1.11-1.65-3.34-2.56-5.53-1.1" style="fill:none;stroke:#e6d24c;stroke-width:.1;stroke-dasharray:none;stroke-opacity:1"/></g><g inkscape:label="TWY-JCT-RF-RB" id="g476" style="display:inline"><path inkscape:label="TWY-JCT-RF-RB-04" id="path38333" d="M718.6 761.59a5.1 5.1 0 0 0-1.2 7.09" data-class="centerline-twy" data-dxf-arc="3624.13,2379.73,51.00,180.00,270.00" data-handle="710F8" data-layer="항공기동선" style="fill:none;stroke:#e6d24c;stroke-width:.1"/><path inkscape:label="TWY-JCT-RF-RB-03" id="path473" d="M712.23 761.36a3.83 3.83 0 0 0 5.4.92" style="fill:none;stroke:#e6d24c;stroke-width:.1;stroke-dasharray:none;stroke-opacity:1"/><path inkscape:label="TWY-JCT-RF-RB-02" id="path38332" d="M717.4 768.68a5.1 5.1 0 0 0-7.06-1.21" data-class="centerline-twy" data-dxf-arc="3624.13,2277.73,51.00,90.00,180.00" data-handle="710F7" data-layer="항공기동선" style="fill:none;stroke:#e6d24c;stroke-width:.1"/><path inkscape:label="TWY-JCT-RF-RB-01" id="path38336" d="M711.28 766.8c2.03-1.53 2-3.82.92-5.42" style="fill:none;stroke:#e6d24c;stroke-width:.1;stroke-dasharray:none;stroke-opacity:1"/></g><g inkscape:label="TWY-R12" id="g1093"><path inkscape:label="TWY-R12-10" id="path1089" d="m746.8 777.04-4.13 2.94" style="display:inline;fill:none;stroke:#e6d24c;stroke-width:.1;stroke-dasharray:none"/><path inkscape:label="TWY-R12-11" id="path1090" d="m750.94 774.1-4.13 2.94" style="display:inline;fill:none;stroke:#e6d24c;stroke-width:.1;stroke-dasharray:none"/><path inkscape:label="TWY-R12-12" id="path1091" d="m775.81 756.42-24.87 17.68" style="display:inline;fill:none;stroke:#e6d24c;stroke-width:.1;stroke-dasharray:none"/></g><g inkscape:label="TWY-LEAD-STD251" id="g605" style="display:inline"><path inkscape:label="TWY-LEAD-STD251-02" id="path38395" d="M712.78 749.66a3.64 3.64 0 0 1 3.34 3.91" data-class="centerline-twy" data-dxf-bulges="-0.4141 0.0000" data-dxf-pts="3441.73,2401.43 3493.13,2406.16" data-handle="71146" data-layer="항공기동선" style="fill:none;stroke:#e6d24c;stroke-width:.1"/><path inkscape:label="TWY-LEAD-STD251-01" id="path38396" d="M715.35 754.12a3.64 3.64 0 0 1-2.57-4.46" data-class="centerline-twy" data-dxf-bulges="-0.4142 -0.4142" data-dxf-pts="3493.14,2396.71 3441.73,2401.43" data-handle="71147" data-layer="항공기동선" style="fill:none;stroke:#e6d24c;stroke-width:.1"/></g><g inkscape:label="TWY-LEAD-STD-256" id="g600" style="display:inline"><path inkscape:label="TWY-LEAD-STD-256-02" id="path38413" d="M738.88 756.98a3.63 3.63 0 0 0-4.44 2.58" data-class="centerline-twy" data-dxf-bulges="0.4141 0.4141" data-dxf-pts="3653.31,2573.12 3648.57,2521.73" data-handle="71158" data-layer="항공기동선" style="fill:none;stroke:#e6d24c;stroke-width:.1"/><path inkscape:label="TWY-LEAD-STD-256-01" id="path38414" d="M734.98 760.33a3.63 3.63 0 0 0 3.9-3.35" data-class="centerline-twy" data-dxf-bulges="0.4141 0.0000" data-dxf-pts="3658.04,2521.73 3653.31,2573.12" data-handle="71159" data-layer="항공기동선" style="fill:none;stroke:#e6d24c;stroke-width:.1"/></g><g inkscape:label="TWY-LEAD-STD255" id="g601" style="display:inline"><path inkscape:label="TWY-LEAD-STD255-02" id="path38415" d="M730.09 753.4a3.64 3.64 0 0 0 3.81-2.77" data-class="centerline-twy" data-dxf-arc="3544.93,2545.14,36.50,320.11,40.97" data-handle="7115A" data-layer="항공기동선" style="fill:none;stroke:#e6d24c;stroke-width:.1"/><path inkscape:label="TWY-LEAD-STD255-01" id="path38416" d="M734.63 750.29a3.64 3.64 0 0 0-5.08 2.35" data-class="centerline-twy" data-dxf-arc="3591.61,2545.14,36.50,119.03,219.89" data-handle="7115B" data-layer="항공기동선" style="fill:none;stroke:#e6d24c;stroke-width:.1"/></g><path inkscape:label="TWY-RB" id="line38428" d="m712.23 761.36 21.85 30.96" style="baseline-shift:baseline;display:inline;overflow:visible;opacity:1;fill:none;stroke:#e6d24c;stroke-width:.1;stroke-dasharray:none;stroke-opacity:1;stop-color:#000;stop-opacity:1"/><path inkscape:label="TWY-RC" id="path38429" d="m749.74 781.19-21.31-30.13a5.07 5.07 0 0 0-7.07-1.21l-11.52 8.19" data-class="centerline-twy" data-dxf-bulges="0.0000 0.4142 0.0000 0.0000" data-dxf-pts="3914.43,2521.73 3544.13,2521.73 3493.13,2470.73 3493.13,2328.73" data-handle="71169" data-layer="항공기동선" style="fill:none;stroke:#e6d24c;stroke-width:.1"/><path inkscape:label="TWY-RA" id="path38430" d="m709.84 758.04-11.52 8.19a5.1 5.1 0 0 0-1.2 7.09l5.84 8.26 15.47 21.87" data-class="centerline-twy" data-dxf-bulges="0.0000 0.4142 0.0000 0.0000 0.0000" data-dxf-pts="3493.13,2328.73 3493.13,2186.73 3544.13,2135.73 3645.62,2135.73 3914.43,2135.73" data-handle="7116A" data-layer="항공기동선" style="fill:none;stroke:#e6d24c;stroke-width:.1;display:inline"/><g inkscape:label="TWY-JCT-RA-RF" id="g472" style="display:inline"><path inkscape:label="TWY-JCT-RA-RF-02" id="path38431" d="M733.03 757.57a5.1 5.1 0 0 0-7.07-1.21" data-class="centerline-twy" data-dxf-arc="3624.13,2470.73,51.00,90.00,180.00" data-handle="7116C" data-layer="항공기동선" style="fill:none;stroke:#e6d24c;stroke-width:.1"/><path inkscape:label="TWY-JCT-RA-RF-01" id="path38436-8" d="M725.96 756.36c2.27-1.48 3.13-4.08 1.97-5.9" data-class="centerline-twy" data-dxf-arc="3629.03,2485.23,36.50,0.00,90.00" data-handle="71171" data-layer="항공기동선" style="display:inline;fill:none;stroke:#e6d24c;stroke-width:.1"/></g><g inkscape:label="TWY-JCT-RA-PAD815" id="g471" style="display:inline"><path inkscape:label="TWY-JCT-RA-PAD815-02" id="path38436" d="M732.46 763.04a3.64 3.64 0 0 0 .86-5.08" data-class="centerline-twy" data-dxf-arc="3629.03,2485.23,36.50,0.00,90.00" data-handle="71171" data-layer="항공기동선" style="fill:none;stroke:#e6d24c;stroke-width:.1"/><path inkscape:label="TWY-JCT-RA-PAD815-01" id="path38437" d="M737.52 763.91a3.64 3.64 0 0 0-5.06-.87" data-class="centerline-twy" data-dxf-arc="3702.03,2485.23,36.50,90.00,180.00" data-handle="71172" data-layer="항공기동선" style="fill:none;stroke:#e6d24c;stroke-width:.1"/></g><g inkscape:label="TWY-JCT-RA-PAD814" id="g470" style="display:inline"><path inkscape:label="TWY-JCT-RA-PAD814-02" id="path38438" d="M737.91 770.75a3.64 3.64 0 0 0 .86-5.07" data-class="centerline-twy" data-dxf-arc="3723.78,2485.23,36.50,0.00,90.00" data-handle="71173" data-layer="항공기동선" style="fill:none;stroke:#e6d24c;stroke-width:.1"/><path inkscape:label="TWY-JCT-RA-PAD814-01" id="path38439" d="M742.97 771.62a3.64 3.64 0 0 0-5.06-.87" data-class="centerline-twy" data-dxf-arc="3796.78,2485.23,36.50,90.00,180.00" data-handle="71174" data-layer="항공기동선" style="fill:none;stroke:#e6d24c;stroke-width:.1"/></g><g inkscape:label="TWY-R11" id="g1077" style="display:inline"/><path inkscape:label="TWY-STD817" id="path481" d="m719.77 772.07-12.7 9.02" style="baseline-shift:baseline;display:inline;overflow:visible;opacity:1;fill:none;stroke:#e6d24c;stroke-width:.1;stroke-dasharray:none;stroke-opacity:1;stop-color:#000;stop-opacity:1"/><path inkscape:label="TWY-STD815" id="line38444" d="m732.46 763.04-12.7 9.03" style="baseline-shift:baseline;display:inline;overflow:visible;opacity:1;fill:none;stroke:#e6d24c;stroke-width:.1;stroke-dasharray:none;stroke-opacity:1;stop-color:#000;stop-opacity:1"/><path inkscape:label="TWY-STD814" id="line38445" d="m737.91 770.75-12.7 9.03" style="baseline-shift:baseline;display:inline;overflow:visible;opacity:1;fill:none;stroke:#e6d24c;stroke-width:.1;stroke-dasharray:none;stroke-opacity:1;stop-color:#000;stop-opacity:1"/><g inkscape:label="STD-361-376" id="g281" style="display:inline"/><g inkscape:label="TWY-LEAD-STD361-376" id="g298" style="display:inline"/><g inkscape:label="TWY-P" id="g513"><path inkscape:label="TWY-P-01" id="line38588" d="m525.32 714.28 211.11 298.47Z" style="baseline-shift:baseline;display:inline;overflow:visible;opacity:1;fill:none;stroke:#e6d24c;stroke-width:.1;stroke-dasharray:none;stroke-opacity:1;stop-color:#000;stop-opacity:1"/></g><path inkscape:label="TWY-M" id="line38837" d="m549.25 657.8 229.81 324.93Z" style="baseline-shift:baseline;display:inline;overflow:visible;fill:none;stroke:#e6d24c;stroke-width:.1;stroke-dasharray:none;stroke-opacity:1;stop-color:#000"/><path inkscape:label="TWY-B-01" id="line38839" d="m698.93 596.87 224.76 317.89Z" style="baseline-shift:baseline;display:inline;overflow:visible;opacity:1;fill:none;stroke:#e6d24c;stroke-width:.1;stroke-dasharray:none;stroke-opacity:1;stop-color:#000;stop-opacity:1"/><path inkscape:label="TWY-D" id="line38986" d="m716.91 479.56 280.6 396.86Z" style="baseline-shift:baseline;display:inline;overflow:visible;opacity:1;fill:none;stroke:#e6d24c;stroke-width:.1;stroke-dasharray:none;stroke-opacity:1;stop-color:#000;stop-opacity:1"/><g inkscape:label="TWY-STD501-517" id="g321" style="display:inline"/><g inkscape:label="TWY-R4" id="g316" style="display:inline"/><path inkscape:label="TWY-R1-11" id="path39223" d="m779.93 753.49-12.68-17.93a37 37 0 0 0-4.71-5.46l-22.17-21.17a55 55 0 0 1-7.64-9.06l-7.38-10.98a299 299 0 0 1-2.74-4.14l-2.42-3.73a100 100 0 0 1-3.54-5.9l-1.94-3.49" data-class="centerline-twy" data-dxf-bulges="0.0000 0.0483 0.0000 -0.0542 0.0000 -0.0042 0.0000 -0.0173 0.0000 0.0000" data-dxf-pts="3863.43,2930.09 3643.08,2930.09 3571.09,2923.12 3269.15,2864.05 3150.63,2853.98 3017.95,2857.10 2968.16,2858.69 2923.59,2860.48 2854.77,2865.63 2814.93,2869.99" data-handle="71566" data-layer="항공기동선" style="fill:none;stroke:#e6d24c;stroke-width:.1"/><g inkscape:label="TWY-N" id="g519"><path inkscape:label="TWY-N-02" id="polyline39225" d="M775.93 997.26 547.36 674.08" style="baseline-shift:baseline;display:inline;overflow:visible;opacity:1;fill:none;stroke:#e6d24c;stroke-width:.1;stroke-dasharray:none;stroke-opacity:1;stop-color:#000;stop-opacity:1"/></g><g inkscape:label="TWY-STD208-224-275-291" id="g569" style="display:inline"/><g inkscape:label="TWY-STD225-268" id="g319" style="display:inline"><path inkscape:label="TWY-STD253" id="polyline38279" d="m723.11 735.15 1.51 9.35" data-class="centerline-twy" data-dxf-pts="3383.15,2570.42 3468.36,2528.48" data-handle="710B3" data-layer="항공기동선" style="fill:none;stroke:#e6d24c;stroke-width:.1"/><path inkscape:label="TWY-STD254" id="polyline38280" d="m733.97 737.47-4.47 7.88" data-class="centerline-twy" data-dxf-pts="3465.27,2645.98 3503.70,2563.55" data-handle="710B4" data-layer="항공기동선" style="fill:none;stroke:#e6d24c;stroke-width:.1"/><path inkscape:label="TWY-STD252" id="polyline38281" d="m714.81 738.6 3.98 7.09" data-class="centerline-twy" data-dxf-pts="3363.06,2482.26 3444.20,2473.76" data-handle="710B5" data-layer="항공기동선" style="fill:none;stroke:#e6d24c;stroke-width:.1"/><path inkscape:label="TWY-STD257" id="path38281" d="m748.49 756.16-3.88 8.68" style="display:inline;fill:none;stroke:#e6d24c;stroke-width:.1;stroke-dasharray:none;stroke-opacity:1"/><path inkscape:label="TWY-STD256" id="line38381" d="m738.88 756.98 6.34-4.51" data-class="centerline-twy" data-dxf-p="3653.306,2573.121 3653.306,2651.266" data-handle="71137" data-layer="항공기동선" data-wgs="37.4658515,126.4395186 37.4662586,126.4402389" style="fill:none;stroke:#e6d24c;stroke-width:.1"/><path inkscape:label="TWY-STD255" id="line38382" d="m733.9 750.63 7.96-3.88" style="baseline-shift:baseline;display:inline;overflow:visible;opacity:1;fill:none;stroke:#e6d24c;stroke-width:.1;stroke-dasharray:none;stroke-opacity:1;stop-color:#000;stop-opacity:1"/><path inkscape:label="TWY-STD265" id="line38388" d="m751.85 726.73-5.95 7.03" style="baseline-shift:baseline;display:inline;overflow:visible;opacity:1;fill:none;stroke:#e6d24c;stroke-width:.1;stroke-dasharray:none;stop-color:#000;stop-opacity:1"/><path inkscape:label="TWY-STD251" id="line38441" d="m712.78 749.66-4.16-6.02" style="baseline-shift:baseline;display:inline;overflow:visible;opacity:1;fill:none;stroke:#e6d24c;stroke-width:.1;stroke-dasharray:none;stop-color:#000;stop-opacity:1"/></g></g><g xmlns:inkscape="http://www.inkscape.org/namespaces/inkscape" inkscape:label="STOP" id="g1004"><path inkscape:label="STB-R12-HS-RA-02" id="path1254" d="m666.3 786.65 3.04 4.5" style="display:inline;opacity:1;fill:none;fill-opacity:1;stroke:#ff1a00;stroke-width:.222193;stroke-miterlimit:4;stroke-dasharray:.444385,.222193;stroke-dashoffset:.0888772;stroke-opacity:1" transform="translate(291.781 247.106)scale(.67509)"/><path inkscape:label="STB-R12-HS-RA-01" id="path1256" d="m678.92 778.32 2.97 4.4" style="display:inline;opacity:1;fill:none;fill-opacity:1;stroke:#ff1a00;stroke-width:.222193;stroke-miterlimit:4;stroke-dasharray:.444385,.222193;stroke-dashoffset:.0888772;stroke-opacity:1" transform="translate(291.781 247.106)scale(.67509)"/><path inkscape:label="STB-RA-HS-RB-01" id="path70" d="m1026.95 596.43 10.76 14.97" style="opacity:1;fill:none;stroke:#ff1a00;stroke-width:.74757;stroke-dasharray:1.49514,.74757;stroke-dashoffset:.299028" transform="translate(506.096 634.537)scale(.20065)"/><path inkscape:label="STB-RF-HS-RB-01" id="path72" d="m1050.83 629.26 10.57 15.1" style="opacity:1;fill:none;stroke:#ff1a00;stroke-width:.74757;stroke-dasharray:1.49514,.74757;stroke-dashoffset:.299028" transform="translate(506.096 634.537)scale(.20065)"/><path inkscape:label="STB-RF-HS-RA-01" id="path73" d="m1094.62 597.61 8.58 12.08" style="opacity:1;fill:none;stroke:#ff1a00;stroke-width:.74757;stroke-dasharray:1.49514,.74757;stroke-dashoffset:.299028" transform="translate(506.096 634.537)scale(.20065)"/><path inkscape:label="STB-RA-HS-R12-01" id="path74" d="m1177.47 694.05 14.97-10.23" style="opacity:1;fill:none;stroke:#ff1a00;stroke-width:.74757;stroke-dasharray:1.49514,.74757;stroke-dashoffset:.299028" transform="translate(506.096 634.537)scale(.20065)"/><path inkscape:label="STB-RB-HS-RF-01" id="path75" d="m715.93 769.36 2.36-1.68" style="opacity:1;fill:none;stroke:#ff1a00;stroke-width:.15;stroke-dasharray:.3,.15;stroke-dashoffset:.0600001"/></g><g xmlns:inkscape="http://www.inkscape.org/namespaces/inkscape" inkscape:label="APRON3-TN" id="g436" style="display:inline;stroke:#5b5e67" transform="translate(.326 -.24)"/><g xmlns:inkscape="http://www.inkscape.org/namespaces/inkscape" inkscape:label="APRON3-TS" id="g437" style="display:inline;stroke:#5b5e67"><rect inkscape:label="STD251" id="rect340-5-9-6-8-9-3-8-2-7-8" width="4.1" height="5.731" x="159.608" y="1013.846" ry=".658" style="display:inline;fill:none;stroke:#5b5e67;stroke-width:.1;stroke-linecap:round;stroke-linejoin:round;stroke-miterlimit:5;stroke-dasharray:none;stroke-dashoffset:0;paint-order:stroke fill markers" transform="rotate(-34.564)"/><rect inkscape:label="STD252" id="rect340-5-9-6-8-9-3-8-2-7-8-5" width="4.1" height="5.731" x="262.567" y="992.982" ry=".658" style="display:inline;fill:none;stroke:#5b5e67;stroke-width:.1;stroke-linecap:round;stroke-linejoin:round;stroke-miterlimit:5;stroke-dasharray:none;stroke-dashoffset:0;paint-order:stroke fill markers" transform="rotate(-29.144)"/><rect inkscape:label="STD253" id="rect340-5-9-6-8-9-3-8-2-7-8-5-8" width="4.1" height="5.731" x="597.159" y="838.946" ry=".658" style="display:inline;fill:none;stroke:#5b5e67;stroke-width:.1;stroke-linecap:round;stroke-linejoin:round;stroke-miterlimit:5;stroke-dasharray:none;stroke-dashoffset:0;paint-order:stroke fill markers" transform="rotate(-8.999)"/><rect inkscape:label="STD254" id="rect340-5-9-6-8-9-3-8-2-7-8-5-8-8" width="4.1" height="5.731" x="1000.297" y="278.681" ry=".658" style="display:inline;fill:none;stroke:#5b5e67;stroke-width:.1;stroke-linecap:round;stroke-linejoin:round;stroke-miterlimit:5;stroke-dasharray:none;stroke-dashoffset:0;paint-order:stroke fill markers" transform="rotate(29.578)"/><rect inkscape:label="STD255" id="rect340-5-9-6-8-9-3-8-2-7-8-5-8-8-6" width="4.1" height="5.731" x="994.753" y="-338.533" ry=".658" style="display:inline;fill:none;stroke:#5b5e67;stroke-width:.1;stroke-linecap:round;stroke-linejoin:round;stroke-miterlimit:5;stroke-dasharray:none;stroke-dashoffset:0;paint-order:stroke fill markers" transform="rotate(63.929)"/><rect inkscape:label="STD256" id="rect340-5-9-6-8-9-3-8-2-7-8-5-8-8-6-8" width="4.1" height="5.731" x="1042.875" y="-172.747" ry=".658" style="display:inline;fill:none;stroke:#5b5e67;stroke-width:.1;stroke-linecap:round;stroke-linejoin:round;stroke-miterlimit:5;stroke-dasharray:none;stroke-dashoffset:0;paint-order:stroke fill markers" transform="rotate(54.643)"/><rect inkscape:label="STD257" id="rect340-5-9-6-8-9-3-8-2-7-8-5-8-8-6-8-7" width="4.1" height="5.731" x="989.708" y="384.9" ry=".658" style="display:inline;fill:none;stroke:#5b5e67;stroke-width:.1;stroke-linecap:round;stroke-linejoin:round;stroke-miterlimit:5;stroke-dasharray:none;stroke-dashoffset:0;paint-order:stroke fill markers" transform="rotate(24.063)"/><rect inkscape:label="STD265" id="rect340-5-9-6-8-9-3-8-2-7-8-5-8-8-6-8-7-9-4-3-5-2" width="4.1" height="5.731" x="-1045.359" y="-79.904" ry=".658" style="display:inline;fill:none;stroke:#5b5e67;stroke-width:.1;stroke-linecap:round;stroke-linejoin:round;stroke-miterlimit:5;stroke-dasharray:none;stroke-dashoffset:0;paint-order:stroke fill markers" transform="rotate(-139.814)"/><g inkscape:label="APRON3-TS-REMOTE-STD361-376" id="g925" style="display:inline;stroke:#5b5e67"/></g><g xmlns:inkscape="http://www.inkscape.org/namespaces/inkscape" inkscape:label="S1-S7" id="g1052"/><g xmlns:inkscape="http://www.inkscape.org/namespaces/inkscape" id="layer-stand-labels" inkscape:label="STAND-LABELS" inkscape:groupmode="layer" style="font-family:Arial,Helvetica,sans-serif;font-weight:700;text-anchor:middle"><text x="713.88" y="737.66" style="fill:none;stroke:#0a0e1a;stroke-width:.8;stroke-linejoin:round;font-size:2.1px" id="lbl-252-h">252</text><text x="713.88" y="737.66" style="fill:#ffffff;stroke:none;font-size:2.1px" id="lbl-252">252</text><text x="723.46" y="734.44" style="fill:none;stroke:#0a0e1a;stroke-width:.8;stroke-linejoin:round;font-size:2.1px" id="lbl-253-h">253</text><text x="723.46" y="734.44" style="fill:#ffffff;stroke:none;font-size:2.1px" id="lbl-253">253</text><text x="734.59" y="737.26" style="fill:none;stroke:#0a0e1a;stroke-width:.8;stroke-linejoin:round;font-size:2.1px" id="lbl-254-h">254</text><text x="734.59" y="737.26" style="fill:#ffffff;stroke:none;font-size:2.1px" id="lbl-254">254</text><text x="743.44" y="746.52" style="fill:none;stroke:#0a0e1a;stroke-width:.8;stroke-linejoin:round;font-size:2.1px" id="lbl-255-h">255</text><text x="743.44" y="746.52" style="fill:#ffffff;stroke:none;font-size:2.1px" id="lbl-255">255</text><text x="746.94" y="752.00" style="fill:none;stroke:#0a0e1a;stroke-width:.8;stroke-linejoin:round;font-size:2.1px" id="lbl-256-h">256</text><text x="746.94" y="752.00" style="fill:#ffffff;stroke:none;font-size:2.1px" id="lbl-256">256</text><text x="748.87" y="755.19" style="fill:none;stroke:#0a0e1a;stroke-width:.8;stroke-linejoin:round;font-size:2.1px" id="lbl-257-h">257</text><text x="748.87" y="755.19" style="fill:#ffffff;stroke:none;font-size:2.1px" id="lbl-257">257</text><text x="752.29" y="741.40" style="fill:none;stroke:#0a0e1a;stroke-width:.8;stroke-linejoin:round;font-size:2.1px" id="lbl-264-h">264</text><text x="752.29" y="741.40" style="fill:#ffffff;stroke:none;font-size:2.1px" id="lbl-264">264</text><text x="744.99" y="735.99" style="fill:none;stroke:#0a0e1a;stroke-width:.8;stroke-linejoin:round;font-size:2.1px" id="lbl-265-h">265</text><text x="744.99" y="735.99" style="fill:#ffffff;stroke:none;font-size:2.1px" id="lbl-265">265</text><text x="735.15" y="770.86" style="fill:none;stroke:#0a0e1a;stroke-width:.8;stroke-linejoin:round;font-size:2.1px" id="lbl-814-h">814</text><text x="735.15" y="770.86" style="fill:#ffffff;stroke:none;font-size:2.1px" id="lbl-814">814</text><text x="729.70" y="763.18" style="fill:none;stroke:#0a0e1a;stroke-width:.8;stroke-linejoin:round;font-size:2.1px" id="lbl-815-h">815</text><text x="729.70" y="763.18" style="fill:#ffffff;stroke:none;font-size:2.1px" id="lbl-815">815</text></g><g xmlns:inkscape="http://www.inkscape.org/namespaces/inkscape" id="layer-points" inkscape:label="POINT-LABELS" inkscape:groupmode="layer"><g id="pt-35" transform="translate(720.79,751.96)"><circle r="0.72" fill="#e01b0f" stroke="#ffffff" stroke-width=".08"/><text y="0.17" text-anchor="middle" font-family="Arial,Helvetica,sans-serif" font-weight="700" font-size="0.46px" letter-spacing=".03" fill="#ffffff">35</text></g><g id="pt-36" transform="translate(725.91,758.30)"><circle r="0.72" fill="#e01b0f" stroke="#ffffff" stroke-width=".08"/><text y="0.17" text-anchor="middle" font-family="Arial,Helvetica,sans-serif" font-weight="700" font-size="0.46px" letter-spacing=".03" fill="#ffffff">36</text></g><g id="pt-37" transform="translate(738.45,762.18)"><circle r="0.72" fill="#e01b0f" stroke="#ffffff" stroke-width=".08"/><text y="0.17" text-anchor="middle" font-family="Arial,Helvetica,sans-serif" font-weight="700" font-size="0.46px" letter-spacing=".03" fill="#ffffff">37</text></g><g id="pt-38" transform="translate(744.25,770.52)"><circle r="0.72" fill="#e01b0f" stroke="#ffffff" stroke-width=".08"/><text y="0.17" text-anchor="middle" font-family="Arial,Helvetica,sans-serif" font-weight="700" font-size="0.46px" letter-spacing=".03" fill="#ffffff">38</text></g><g id="pt-39" transform="translate(717.47,770.72)"><circle r="0.72" fill="#e01b0f" stroke="#ffffff" stroke-width=".08"/><text y="0.17" text-anchor="middle" font-family="Arial,Helvetica,sans-serif" font-weight="700" font-size="0.46px" letter-spacing=".03" fill="#ffffff">39</text></g></g></g></g><path d="M738.36 749.41L738.29 749.39L738.22 749.37L738.15 749.35L738.07 749.33L738.00 749.31L737.93 749.29L737.86 749.26L737.79 749.24L737.71 749.22L737.64 749.20L737.57 749.18L737.50 749.16L737.42 749.14L737.35 749.12L737.28 749.10L737.21 749.08L737.13 749.06L737.06 749.04L736.99 749.01L736.92 748.99L736.85 748.97L736.77 748.95L736.70 748.93L736.63 748.91L736.56 748.89L736.48 748.87L736.41 748.85L736.34 748.83L736.27 748.81L736.19 748.78L736.12 748.76L736.05 748.74L735.98 748.72L735.91 748.70L735.83 748.68L735.76 748.66L735.69 748.64L735.62 748.62L735.54 748.60L735.47 748.58L735.40 748.56L735.33 748.53L735.25 748.51L735.18 748.49L735.11 748.47L735.04 748.45L734.97 748.43L734.89 748.41L734.82 748.39L734.75 748.36L734.67 748.34L734.59 748.30L734.50 748.27L734.41 748.23L734.31 748.18L734.21 748.13L734.10 748.08L733.99 748.02L733.88 747.96L733.76 747.89L733.63 747.81L733.50 747.73L733.37 747.64L733.23 747.55L733.08 747.45L732.93 747.35L732.77 747.24L732.61 747.12L732.44 746.99L732.27 746.86L732.09 746.72L731.91 746.57L731.72 746.41L731.53 746.25L731.33 746.08L731.12 745.90L730.91 745.71L730.69 745.51L730.47 745.31L730.24 745.09L730.00 744.86L729.76 744.63L729.51 744.39L729.26 744.13L729.00 743.87L728.73 743.59L728.46 743.31L728.18 743.01L727.89 742.71L727.60 742.39L727.30 742.06L727.00 741.72L726.69 741.37L726.37 741.01L726.04 740.64L725.71 740.25" fill="none" stroke="#e01b0f" stroke-width="0.55" opacity=".20" stroke-linecap="round"/><path d="M738.36 749.41L738.29 749.39L738.22 749.37L738.15 749.35L738.07 749.33L738.00 749.31L737.93 749.29L737.86 749.26L737.79 749.24L737.71 749.22L737.64 749.20L737.57 749.18L737.50 749.16L737.42 749.14L737.35 749.12L737.28 749.10L737.21 749.08L737.13 749.06L737.06 749.04L736.99 749.01L736.92 748.99L736.85 748.97L736.77 748.95L736.70 748.93L736.63 748.91L736.56 748.89L736.48 748.87L736.41 748.85L736.34 748.83L736.27 748.81L736.19 748.78L736.12 748.76L736.05 748.74L735.98 748.72L735.91 748.70L735.83 748.68L735.76 748.66L735.69 748.64L735.62 748.62L735.54 748.60L735.47 748.58L735.40 748.56L735.33 748.53L735.25 748.51L735.18 748.49L735.11 748.47L735.04 748.45L734.97 748.43L734.89 748.41L734.82 748.39L734.75 748.36L734.67 748.34L734.59 748.30L734.50 748.27L734.41 748.23L734.31 748.18L734.21 748.13L734.10 748.08L733.99 748.02L733.88 747.96L733.76 747.89L733.63 747.81L733.50 747.73L733.37 747.64L733.23 747.55L733.08 747.45L732.93 747.35L732.77 747.24L732.61 747.12L732.44 746.99L732.27 746.86L732.09 746.72L731.91 746.57L731.72 746.41L731.53 746.25L731.33 746.08L731.12 745.90L730.91 745.71L730.69 745.51L730.47 745.31L730.24 745.09L730.00 744.86L729.76 744.63L729.51 744.39L729.26 744.13L729.00 743.87L728.73 743.59L728.46 743.31L728.18 743.01L727.89 742.71L727.60 742.39L727.30 742.06L727.00 741.72L726.69 741.37L726.37 741.01L726.04 740.64L725.71 740.25" fill="none" stroke="#e01b0f" stroke-width="0.28" stroke-linecap="round" stroke-dasharray="0.012 0.34" opacity="1" filter="url(#gl)"/></svg>