<svg xmlns="http://www.w3.org/2000/svg" xmlns:xlink="http://www.w3.org/1999/xlink" xmlns:inkscape="http://www.inkscape.org/namespaces/inkscape" xmlns:sodipodi="http://sodipodi.sourceforge.net/DTD/sodipodi-0.0.dtd" viewBox="748.74 729.24 33.41 24.75"><defs><filter id="gl" x="-30%" y="-30%" width="160%" height="160%"><feGaussianBlur stdDeviation="0.10" result="b"/><feMerge><feMergeNode in="b"/><feMergeNode in="b"/><feMergeNode in="SourceGraphic"/></feMerge></filter></defs><rect x="748.74" y="729.24" width="33.41" height="24.75" fill="#0a0e1a"/><g opacity="0.45" transform="rotate(75.84 763.656 738.962)"><g xmlns="http://www.w3.org/2000/svg" id="bgG"><defs id="defs40143"><clipPath id="clipPath24" clipPathUnits="userSpaceOnUse"/></defs><path id="rect1" fill="#0a0e1a" d="M0 0h2000v1380H0Z" style="display:inline;fill:#0a0e1a"/><g xmlns:inkscape="http://www.inkscape.org/namespaces/inkscape" inkscape:label="RUNWAY" id="layer-runways" style="display:inline"><path inkscape:label="RWY-15L-33R" id="polygon37507" d="m746.82 554.94 215.78 305.2-4.86 3.46-215.79-305.2Z" data-class="pavement-runway" data-length-m="3750" data-runway="15L/33R" data-threshold-dxf="2047.431,3780.238 5797.431,3780.238" data-threshold-wgs84="37.4839426,126.4401441 37.4563775,126.4646632" style="stroke:none;fill:#111927;fill-opacity:.51"/><path inkscape:label="RWY-15R-33L" id="polygon37508" d="m713.23 578.82 215.79 305.19-4.87 3.46-215.79-305.19z" data-class="pavement-runway" data-length-m="3750" data-runway="15R/33L" data-threshold-dxf="2047.431,3366.238 5797.431,3366.238" data-threshold-wgs84="37.4817860,126.4363272 37.4542217,126.4608470" style="stroke:none;fill:#111927;fill-opacity:.51"/><path inkscape:label="RWY-16L-34R" id="polygon37509" d="m530.5 678.18 230.22 325.49-4.87 3.46-230.22-325.49z" data-class="pavement-runway" data-length-m="4000" data-runway="16L/34R" data-threshold-dxf="1797.420,1291.211 5797.432,1291.222" data-threshold-wgs84="37.4728122,126.4155642 37.4434147,126.4417232" style="stroke:none;fill:#111927;fill-opacity:.51"/></g><g xmlns:inkscape="http://www.inkscape.org/namespaces/inkscape" inkscape:label="GREEN-AREAS" id="layer-green" style="display:inline"><path inkscape:label="GREEN-112" id="path37206" d="m773.39 730.93-.68-.97a.95.95 0 0 0-1.05-1.49l-.68-.96.2-.14-9.27-12.99-.13.1-2.04-2.88.68-.36a1.34 1.34 0 0 1 1.6.28l5.33 5.7 14.52 20.54 3.61 6.93a1.35 1.35 0 0 1-.27 1.61l-.58.54-2.06-2.92.15-.11-9.13-13.03-.2.15" data-class="green-zone" data-dxf-bulges="0.0000 0.7516 0.0000 0.0000 0.0000 0.0000 0.0000 0.0000 -0.3366 0.0000 0.0000 0.0000 -0.3366 0.0000 0.0000 0.0000 0.0000 0.0000 0.0000" data-dxf-pts="3640.93,3007.32 3629.06,3007.33 3610.81,3007.34 3598.93,3007.35 3598.93,3009.81 3438.93,3009.14 3438.93,3007.45 3403.51,3007.45 3404.56,3015.07 3416.10,3026.61 3493.75,3037.24 3746.11,3037.24 3823.76,3026.61 3835.31,3015.07 3836.38,3007.23 3800.53,3007.23 3800.53,3009.14 3640.93,3009.81 3640.93,3007.32" data-handle="7A5CF" data-layer="기동지역" style="fill:#13181e;stroke:#1a1f26;stroke-width:.1"/><path inkscape:label="GREEN-124" id="path37252" d="m771.73 714.11-3.61-6.93a1.35 1.35 0 0 1 .28-1.61l.42-.4.52-.27a1.34 1.34 0 0 1 1.6.27l5.33 5.71 14.53 20.54 3.6 6.93a1.35 1.35 0 0 1-.27 1.61l-.43.4-.52.27a1.34 1.34 0 0 1-1.6-.28l-5.33-5.7z" data-class="green-zone" data-dxf-bulges="0.0000 -0.3366 0.0000 0.0000 -0.3366 0.0000 0.0000 0.0000 -0.3366 0.0000 0.0000 -0.3366 0.0000 0.0000" data-dxf-pts="3493.75,3091.24 3416.10,3101.86 3404.56,3113.41 3403.76,3119.24 3404.56,3125.07 3416.10,3136.61 3493.75,3147.24 3746.11,3147.24 3823.76,3136.61 3835.31,3125.07 3836.10,3119.24 3835.31,3113.41 3823.76,3101.86 3746.11,3091.24" data-handle="7B109" data-layer="기동지역" style="fill:#13181e;stroke:#1a1f26;stroke-width:.1"/><g inkscape:label="GREEN-14" id="g943"><path inkscape:label="GREEN-14-01" id="path37309" d="m776.28 739.51.74-.52 1.15 1.62 3.03 4.29.15-.11 1.66 2.33.45.64-1.16.6-.4.13-.27.04-.3-.04-.22-.09-.11-.07-.2-.16-.34-.38-2.55-2.72-2.53-2.69-1.04-1.48.28-.21-.28.21 1.04 1.48 2.53 2.69 2.55 2.72.34.38.2.16.11.07.22.09.3.04.27-.04.4-.13 1.16-.6-.45-.64-1.66-2.33-.15.11-3.03-4.29-1.15-1.62-.74.52-4.97-7.04a41 41 0 0 0-5.24-6.03l-4.19-4.01-1.31 1.58 4.1 3.91a40 40 0 0 1 4.97 5.74l4.98 7.03" data-class="green-zone" data-dxf-bulges="0.0000 0.0000 0.0000 0.0000 0.0000 0.0000 0.0000 0.0000 0.0000 0.0000 0.0000 0.0000 0.0000 0.0000 0.0000 0.0000 0.0000 0.0000 0.0000 0.0000 0.0000 0.0000 0.0000 0.0000 0.0000 0.0000 0.0000 0.0000 0.0000 0.0000 0.0000 0.0000 0.0000 0.0000 0.0000 0.0000 0.0000 0.0495 0.0000 0.0000 0.0000 -0.0471 0.0000 0.0000 0.0000" data-dxf-pts="3727.93,2981.24 3727.93,2990.34 3747.82,2990.34 3800.53,2990.34 3800.53,2992.24 3829.24,2992.24 3837.06,2992.24 3835.28,2979.24 3834.02,2975.24 3832.72,2972.79 3830.66,2970.57 3828.70,2969.27 3827.43,2968.74 3825.02,2968.10 3819.93,2967.49 3782.85,2962.30 3746.11,2957.24 3727.93,2957.24 3727.93,2960.74 3727.93,2957.24 3746.11,2957.24 3782.85,2962.30 3819.93,2967.49 3825.02,2968.10 3827.43,2968.74 3828.70,2969.27 3830.66,2970.57 3832.72,2972.79 3834.02,2975.24 3835.28,2979.24 3837.06,2992.24 3829.24,2992.24 3800.53,2992.24 3800.53,2990.34 3747.82,2990.34 3727.93,2990.34 3727.93,2981.24 3641.46,2981.24 3561.68,2973.33 3504.53,2962.15 3509.86,2942.29 3565.62,2953.20 3641.46,2960.74 3727.93,2960.74 3727.93,2960.74" data-handle="7B15A" data-layer="계류장지역" style="fill:#13181e;stroke:#1a1f26;stroke-width:.1"/></g><path inkscape:label="GREEN-140" id="path37341" d="m774.41 689.02-2.6 1.86a1.34 1.34 0 0 0-.49 1.54l1.46 4.21 25.25 35.7 5.33 5.71a1.3 1.3 0 0 0 1.54.3l5.55-3.95a3.3 3.3 0 0 0 .78-4.59l-18.48-26.13a47 47 0 0 0-16.99-14.76 1.4 1.4 0 0 0-1.35.11z" data-class="green-zone" data-dxf-bulges="0.0000 0.3351 0.0000 0.0000 0.0000 0.3225 0.0000 0.4142 0.0000 0.1208 0.2663" data-dxf-pts="3304.22,3258.76 3304.22,3226.66 3313.99,3213.73 3356.93,3201.24 3795.61,3201.24 3873.26,3211.86 3884.70,3222.73 3884.70,3291.24 3851.70,3324.24 3530.56,3324.24 3311.10,3270.46" data-handle="7BBC5" data-layer="기동지역" style="fill:#13181e;stroke:#1a1f26;stroke-width:.1"/><path inkscape:label="SWALE-124" id="polygon37230" d="m769.31 707.48.17-1.01.35-.25 1 .17 22.42 31.71-.19 1.13-.2.14-1.13-.19z" data-class="green-zone" data-dxf-pts="3425.42,3109.84 3418.17,3117.09 3418.17,3121.39 3425.42,3128.64 3814.99,3128.64 3823.14,3120.49 3823.14,3117.99 3814.99,3109.84" data-handle="7B0F0" data-layer="기동지역" style="stroke:#1a1f26;stroke-width:.1;fill:#0a0e1a"/></g><g xmlns:inkscape="http://www.inkscape.org/namespaces/inkscape" inkscape:label="SCHM" id="layer-schm" style="display:inline"><path id="line2083" d="m781.23 744.87-9.18-12.99" data-class="schm" data-dxf-p="3800.531,2990.738 3640.931,2990.738" data-handle="71FC7" data-layer="SCHM" data-wgs="37.4669447,126.4443308 37.4681178,126.4432872" style="fill:none;stroke:#5a5f68;stroke-width:.1;stroke-opacity:.6"/><path id="line2084" d="m769.6 728.49-9.21-13.02" data-class="schm" data-dxf-p="3598.931,2990.338 3438.931,2990.338" data-handle="71FC9" data-layer="SCHM" data-wgs="37.4684244,126.4430089 37.4696004,126.4419626" style="fill:none;stroke:#5a5f68;stroke-width:.1;stroke-opacity:.6"/><path inkscape:label="SHOULDER-124" id="path2084" d="m770.71 714.74-3.64-7.01a2.54 2.54 0 0 1 .51-3.03l.47-.44.17-.12.57-.3a2.54 2.54 0 0 1 3.02.52l5.39 5.76 14.62 20.67 3.64 7.01a2.54 2.54 0 0 1-.51 3.03l-.47.44-.17.12-.57.3a2.54 2.54 0 0 1-3.03-.52l-5.38-5.76z" data-class="shoulder" data-dxf-bulges="0.0000 -0.3366 0.0000 -0.0681 0.0000 -0.3366 0.0000 0.0000 0.0000 -0.3366 0.0000 -0.0681 0.0000 -0.3366 0.0000 0.0000" data-dxf-pts="3492.93,3079.24 3414.47,3089.97 3392.67,3111.78 3391.79,3118.21 3391.79,3120.27 3392.67,3126.69 3414.47,3148.50 3492.93,3159.24 3746.93,3159.24 3825.39,3148.50 3847.20,3126.69 3848.07,3120.27 3848.07,3118.21 3847.20,3111.78 3825.39,3089.97 3746.93,3079.24" data-handle="71FCA" data-layer="SCHM" style="fill:none;stroke:#5a5f68;stroke-width:.1;stroke-opacity:.6"/><path inkscape:label="SHOULDER-112" id="path2085" d="m758.78 710.75 1.09-.57a2.54 2.54 0 0 1 3.02.52l5.39 5.77 14.61 20.67 3.65 7a2.54 2.54 0 0 1-.52 3.03l-.69.65" data-class="shoulder" data-dxf-bulges="0.0000 -0.3366 0.0000 0.0000 0.0000 -0.3366 0.0000 0.0000" data-dxf-pts="3391.00,3004.49 3392.67,3016.69 3414.47,3038.50 3492.93,3049.24 3746.93,3049.24 3825.39,3038.50 3847.20,3016.69 3848.49,3007.23" data-handle="71FCB" data-layer="SCHM" style="fill:none;stroke:#5a5f68;stroke-width:.1;stroke-opacity:.6"/><path id="line33998" d="m769.6 728.49 1.38-.98" data-class="schm" data-dxf-p="3598.931,2990.338 3598.931,3007.350" data-handle="7A586" data-layer="SCHM" data-wgs="37.4684244,126.4430089 37.4685130,126.4431657" style="fill:none;stroke:#5a5f68;stroke-width:.1;stroke-opacity:.6"/><path id="line33999" d="m772.05 731.88 1.34-.95" data-class="schm" data-dxf-p="3640.931,2990.738 3640.941,3007.324" data-handle="7A587" data-layer="SCHM" data-wgs="37.4681178,126.4432872 37.4682041,126.4434402" style="fill:none;stroke:#5a5f68;stroke-width:.1;stroke-opacity:.6"/><path id="circle34006" d="M771.02 729.37a.95.95 0 1 0 1.9 0 .95.95 0 1 0-1.9 0Z" data-class="schm" data-dxf-circle="3619.93,3004.70,9.50" data-handle="7A592" data-layer="SCHM" style="fill:none;stroke:#5a5f68;stroke-width:.1;stroke-opacity:.6"/><path id="polyline34089" d="m743.85 735.9 11.11 9.23" data-class="schm" data-dxf-pts="3509.84,2736.15 3649.94,2773.69" data-handle="7A78F" data-layer="SCHM" style="fill:none;stroke:#5a5f68;stroke-width:.1;stroke-opacity:.6"/><path id="polyline34096" d="m750.77 740.38 4.81 4" data-class="schm" data-dxf-pts="3586.73,2766.95 3647.39,2783.20" data-handle="7A797" data-layer="SCHM" style="fill:none;stroke:#5a5f68;stroke-width:.1;stroke-opacity:.6"/><path id="path34096" d="M755.65 748.6a2.8 2.8 0 0 0-.69-3.47" data-class="schm" data-dxf-bulges="0.3541 0.0000" data-dxf-pts="3682.27,2759.29 3649.94,2773.69" data-handle="7A798" data-layer="SCHM" style="fill:none;stroke:#5a5f68;stroke-width:.1;stroke-opacity:.6"/><path id="path34097" d="M756.52 749.05a3.8 3.8 0 0 0-.94-4.67" data-class="schm" data-dxf-bulges="0.3541 0.0000" data-dxf-pts="3691.05,2763.76 3647.39,2783.20" data-handle="7A799" data-layer="SCHM" style="fill:none;stroke:#5a5f68;stroke-width:.1;stroke-opacity:.6"/><path id="path34098" d="M749.87 751.46a5.5 5.5 0 0 0 5.78-2.86" data-class="schm" data-dxf-bulges="0.3249 0.0000" data-dxf-pts="3672.14,2695.28 3682.27,2759.29" data-handle="7A79A" data-layer="SCHM" style="fill:none;stroke:#5a5f68;stroke-width:.1;stroke-opacity:.6"/><path id="polyline34103" d="m753.45 732.53-.82 1" data-class="schm" data-dxf-pts="3538.15,2834.43 3541.51,2821.90" data-handle="7A7A1" data-layer="SCHM" style="fill:none;stroke:#5a5f68;stroke-width:.1;stroke-opacity:.6"/><path id="polyline34104" d="m752.03 733.03 1.03-1.25" data-class="schm" data-dxf-pts="3533.92,2819.87 3529.71,2835.58" data-handle="7A7A2" data-layer="SCHM" style="fill:none;stroke:#5a5f68;stroke-width:.1;stroke-opacity:.6"/><path id="polyline34105" d="m756.37 732.36 2.11 2.02" data-class="schm" data-dxf-pts="3553.69,2859.33 3582.44,2864.95" data-handle="7A7A3" data-layer="SCHM" style="fill:none;stroke:#5a5f68;stroke-width:.1;stroke-opacity:.6"/><path id="path34105" d="M762.45 738.98a32 32 0 0 0-3.97-4.6" data-class="schm" data-dxf-bulges="0.0483 0.0000" data-dxf-pts="3643.21,2870.84 3582.44,2864.95" data-handle="7A7A4" data-layer="SCHM" style="fill:none;stroke:#5a5f68;stroke-width:.1;stroke-opacity:.6"/><path id="path34106" d="M753.06 731.78a2 2 0 0 0-.16-2.73" data-class="schm" data-dxf-bulges="0.3943 0.0000" data-dxf-pts="3529.71,2835.58 3506.47,2850.09" data-handle="7A7A5" data-layer="SCHM" style="fill:none;stroke:#5a5f68;stroke-width:.1;stroke-opacity:.6"/><path id="path34107" d="M756.37 732.36a2 2 0 0 0-2.92.17" data-class="schm" data-dxf-bulges="0.4345 0.0000" data-dxf-pts="3553.69,2859.33 3538.15,2834.43" data-handle="7A7A6" data-layer="SCHM" style="fill:none;stroke:#5a5f68;stroke-width:.1;stroke-opacity:.6"/><path id="path34108" d="M752.03 733.03a5 5 0 0 0-.6.9" data-class="schm" data-dxf-bulges="0.0546 0.0000" data-dxf-pts="3533.92,2819.87 3537.86,2809.74" data-handle="7A7A7" data-layer="SCHM" style="fill:none;stroke:#5a5f68;stroke-width:.1;stroke-opacity:.6"/><path id="path34109" d="M752.63 733.53a4 4 0 0 0-.5.76" data-class="schm" data-dxf-bulges="0.0546 0.0000" data-dxf-pts="3541.50,2821.90 3544.83,2813.36" data-handle="7A7A8" data-layer="SCHM" style="fill:none;stroke:#5a5f68;stroke-width:.1;stroke-opacity:.6"/><path id="polyline34110" d="m751.43 733.93-1.65 3.24" data-class="schm" data-dxf-pts="3537.86,2809.74 3554.72,2777.36" data-handle="7A7AA" data-layer="SCHM" style="fill:none;stroke:#5a5f68;stroke-width:.1;stroke-opacity:.6"/><path id="polyline34111" d="m752.13 734.29-1.86 3.63" data-class="schm" data-dxf-pts="3544.83,2813.36 3563.73,2777.07" data-handle="7A7AB" data-layer="SCHM" style="fill:none;stroke:#5a5f68;stroke-width:.1;stroke-opacity:.6"/><path id="path34115" d="M764.79 757.13a8.6 8.6 0 0 0 2.03-11.97" data-class="schm" data-dxf-bulges="0.4142 0.0000" data-dxf-pts="3805.13,2784.76 3719.06,2870.84" data-handle="7A7B2" data-layer="SCHM" style="fill:none;stroke:#5a5f68;stroke-width:.1;stroke-opacity:.6"/><path id="path34116" d="M749.71 752.43a7.1 7.1 0 0 0 6.81-3.38" data-class="schm" data-dxf-bulges="0.2892 0.0000" data-dxf-pts="3679.10,2688.32 3691.05,2763.76" data-handle="7A7B4" data-layer="SCHM" style="fill:none;stroke:#5a5f68;stroke-width:.1;stroke-opacity:.6"/><path id="path34117" d="m784.11 748.69-1.29.68a2.5 2.5 0 0 1-2.56-.16l-5.76-6.11-1.09-1.55-7.76-11-5.82-5.66" data-class="schm" data-dxf-bulges="0.0000 -0.2786 0.0000 0.0000 0.0000 0.0000 0.0000" data-dxf-pts="3848.49,2992.23 3846.61,2977.69 3830.39,2957.62 3746.92,2945.81 3727.92,2945.81 3592.84,2946.00 3512.74,2931.11" data-handle="7A7B5" data-layer="SCHM" style="fill:none;stroke:#5a5f68;stroke-width:.1;stroke-opacity:.6"/><path id="path34118" d="m759.26 724.33-.25-.24-5.02-6.34a2.24 2.24 0 0 1 .21-3.02l2.18-2.05 1.48-1.12" data-class="schm" data-dxf-bulges="0.0000 0.0000 -0.3898 0.0000 0.0000 0.0000" data-dxf-pts="3504.87,2929.65 3501.37,2928.99 3420.38,2924.58 3396.95,2943.87 3392.80,2973.60 3392.31,2992.24" data-handle="7A7B6" data-layer="SCHM" style="fill:none;stroke:#5a5f68;stroke-width:.1;stroke-opacity:.6"/><path id="polyline34164" d="m766.82 745.16-4.37-6.18" data-class="schm" data-dxf-pts="3719.06,2870.84 3643.21,2870.84" data-handle="7A7EC" data-layer="SCHM" style="fill:none;stroke:#5a5f68;stroke-width:.1;stroke-opacity:.6"/><path id="path34165" d="M762.45 738.98a32 32 0 0 0-3.97-4.6" data-class="schm" data-dxf-bulges="0.0483 0.0000" data-dxf-pts="3643.21,2870.84 3582.44,2864.95" data-handle="7A7ED" data-layer="SCHM" style="fill:none;stroke:#5a5f68;stroke-width:.1;stroke-opacity:.6"/><path id="path34166" d="m760.57 724.01-4.06 4.83a2 2 0 0 0-.07 2.48l.23.25 2.34 2.24a32 32 0 0 1 4.08 4.72l4.36 6.17a9.37 9.37 0 0 1-2.21 13.06l-9.21 6.55" data-class="schm" data-dxf-bulges="0.0000 0.3465 0.0421 0.0000 -0.0483 0.0000 -0.4142 0.0000 0.0000" data-dxf-pts="3509.86,2942.29 3525.70,2880.90 3545.59,2866.03 3548.94,2866.40 3580.93,2872.65 3643.21,2878.69 3719.06,2878.69 3812.98,2784.76 3812.98,2671.25" data-handle="7A7EE" data-layer="SCHM" style="fill:none;stroke:#5a5f68;stroke-width:.1;stroke-opacity:.6"/><path inkscape:label="SHOULDER-140" id="path36909" d="m773.72 688.05-2.6 1.85a2.54 2.54 0 0 0-.92 2.91l1.51 4.37 25.39 35.91 5.39 5.77a2.54 2.54 0 0 0 3.02.51l5.63-4a4.5 4.5 0 0 0 1.07-6.26l-18.48-26.13a48.4 48.4 0 0 0-17.44-15.15 2.6 2.6 0 0 0-2.56.21" data-class="shoulder" data-dxf-bulges="0.0000 0.3347 0.0000 0.0000 0.0000 0.3366 0.0000 0.4142 0.0000 0.1209 0.2691 0.0000" data-dxf-pts="3292.22,3258.76 3292.22,3226.66 3310.67,3202.20 3355.22,3189.24 3796.43,3189.24 3874.89,3199.97 3896.70,3221.78 3896.70,3291.24 3851.70,3336.24 3530.56,3336.24 3305.38,3281.01 3292.22,3258.88" data-handle="7BBC4" data-layer="SCHM" style="fill:none;stroke:#5a5f68;stroke-width:.1;stroke-opacity:.6"/><path id="polyline37045" d="m736.37 713.15 16.53 15.91" data-class="schm" data-dxf-pts="3280.38,2806.79 3506.55,2850.10" data-handle="7BD91" data-layer="SCHM" style="fill:none;stroke:#5a5f68;stroke-width:.1;stroke-opacity:.6"/><path id="path37046" d="m734.18 709.77 19.27 18.69a2 2 0 0 0 2.66-.37l3.89-4.63" data-class="schm" data-dxf-bulges="0.0000 0.3878 0.0000 0.0000" data-dxf-pts="3239.98,2808.35 3504.81,2858.02 3517.26,2882.06 3501.98,2940.75" data-handle="7BD92" data-layer="SCHM" style="fill:none;stroke:#5a5f68;stroke-width:.1;stroke-opacity:.6"/></g><g xmlns:inkscape="http://www.inkscape.org/namespaces/inkscape" inkscape:label="TWY" id="layer-centerlines" style="display:inline"><path inkscape:label="TWY-C" id="line37516" d="M732.61 573.11 940.8 867.57Z" style="baseline-shift:baseline;display:inline;overflow:visible;opacity:1;fill:none;stroke:#e6d24c;stroke-width:.1;stroke-dasharray:none;stroke-opacity:1;stop-color:#000;stop-opacity:1"/><path inkscape:label="TWY-A-01" id="line37520" d="m650.53 547.41 247.85 350.5Z" style="baseline-shift:baseline;display:inline;overflow:visible;opacity:1;fill:none;stroke:#e6d24c;stroke-width:.1;stroke-dasharray:none;stroke-opacity:1;stop-color:#000;stop-opacity:1"/><g inkscape:label="TWY-LAED-STD261R" id="g594" style="display:inline"><path inkscape:label="TWY-LEAD-STD261R-02" id="path38292" d="M768.49 749.79a1 1 0 0 0 .63-.08l3.3-1.61a3.6 3.6 0 0 1 4.54 1.17" data-class="centerline-twy" data-dxf-bulges="0.1631 0.0000 -0.3670 0.0000" data-dxf-pts="3766.68,2857.73 3769.66,2863.34 3775.67,2899.69 3811.68,2930.23" data-handle="710C5" data-layer="항공기동선" style="fill:none;stroke:#e6d24c;stroke-width:.1"/><path inkscape:label="TWY-LEAD-STD261R-01" id="path312" d="m768.49 749.8 1.36.26a3.64 3.64 0 0 0 3.83-5.41" style="fill:none;stroke:#e6d24c;stroke-width:.1;stroke-dasharray:none;stroke-opacity:1"/></g><g inkscape:label="TWY-JCT-R12-R1" id="g443" style="display:inline"><path inkscape:label="TWY-JCT-R12-R1-02" id="path38308" d="M775.81 756.42a5.1 5.1 0 0 0 1.2-7.09" data-class="centerline-twy" data-dxf-arc="3812.43,2879.23,51.00,0.00,90.00" data-handle="710DA" data-layer="항공기동선" style="fill:none;stroke:#e6d24c;stroke-width:.1"/></g><g inkscape:label="TWY-LEAD-STD263" id="g592" style="display:inline"><path inkscape:label="TWY-LEAD-STD263-02" id="path38417" d="M763.51 739.1a3.63 3.63 0 0 1 3.89-3.35" data-class="centerline-twy" data-dxf-bulges="-0.4141 0.0000" data-dxf-pts="3650.26,2878.83 3645.53,2930.23" data-handle="7115C" data-layer="항공기동선" style="fill:none;stroke:#e6d24c;stroke-width:.1"/><path inkscape:label="TWY-LEAD-STD263-01" id="path38418" d="M767.95 736.52a3.63 3.63 0 0 1-4.44 2.58" data-class="centerline-twy" data-dxf-bulges="-0.4142 -0.4142" data-dxf-pts="3654.98,2930.24 3650.26,2878.83" data-handle="7115D" data-layer="항공기동선" style="fill:none;stroke:#e6d24c;stroke-width:.1"/></g><g inkscape:label="TWY-LEAD-STD264" id="g591" style="display:inline"><path inkscape:label="TWY-LEAD-STD264-02" id="path38419" d="M758.46 733.04a3.64 3.64 0 0 0 3.62-3.4" data-class="centerline-twy" data-dxf-arc="3541.59,2893.71,36.50,324.64,50.80" data-handle="7115E" data-layer="항공기동선" style="fill:none;stroke:#e6d24c;stroke-width:.1"/><path inkscape:label="TWY-LEAD-STD264-01" id="path38420" d="M761.4 728.99a3.64 3.64 0 0 0-3.14 4.29" data-class="centerline-twy" data-dxf-arc="3587.40,2902.67,36.50,151.33,245.36" data-handle="7115F" data-layer="항공기동선" style="fill:none;stroke:#e6d24c;stroke-width:.1"/></g><g inkscape:label="TWY-LEAD-STD265" id="g590" style="display:inline"><path inkscape:label="TWY-LEAD-STD265-02" id="path38421" d="M754.79 722.68a3.64 3.64 0 0 0-3.14 4.29" data-class="centerline-twy" data-dxf-arc="3497.39,2885.06,36.50,151.33,245.36" data-handle="71160" data-layer="항공기동선" style="fill:none;stroke:#e6d24c;stroke-width:.1"/><path inkscape:label="TWY-LEAD-STD265-01" id="path38422" d="M751.85 726.73a3.64 3.64 0 0 0 3.62-3.4" data-class="centerline-twy" data-dxf-arc="3451.58,2876.10,36.50,324.64,50.80" data-handle="71161" data-layer="항공기동선" style="fill:none;stroke:#e6d24c;stroke-width:.1"/></g><path inkscape:label="TWY-M" id="line38837" d="m549.25 657.8 229.81 324.93Z" style="baseline-shift:baseline;display:inline;overflow:visible;fill:none;stroke:#e6d24c;stroke-width:.1;stroke-dasharray:none;stroke-opacity:1;stop-color:#000"/><path inkscape:label="TWY-B-01" id="line38839" d="m698.93 596.87 224.76 317.89Z" style="baseline-shift:baseline;display:inline;overflow:visible;opacity:1;fill:none;stroke:#e6d24c;stroke-width:.1;stroke-dasharray:none;stroke-opacity:1;stop-color:#000;stop-opacity:1"/><path inkscape:label="TWY-D" id="line38986" d="m716.91 479.56 280.6 396.86Z" style="baseline-shift:baseline;display:inline;overflow:visible;opacity:1;fill:none;stroke:#e6d24c;stroke-width:.1;stroke-dasharray:none;stroke-opacity:1;stop-color:#000;stop-opacity:1"/><g inkscape:label="TWY-R4" id="g316" style="display:inline"/><path inkscape:label="TWY-R1-11" id="path39223" d="m779.93 753.49-12.68-17.93a37 37 0 0 0-4.71-5.46l-22.17-21.17a55 55 0 0 1-7.64-9.06l-7.38-10.98a299 299 0 0 1-2.74-4.14l-2.42-3.73a100 100 0 0 1-3.54-5.9l-1.94-3.49" data-class="centerline-twy" data-dxf-bulges="0.0000 0.0483 0.0000 -0.0542 0.0000 -0.0042 0.0000 -0.0173 0.0000 0.0000" data-dxf-pts="3863.43,2930.09 3643.08,2930.09 3571.09,2923.12 3269.15,2864.05 3150.63,2853.98 3017.95,2857.10 2968.16,2858.69 2923.59,2860.48 2854.77,2865.63 2814.93,2869.99" data-handle="71566" data-layer="항공기동선" style="fill:none;stroke:#e6d24c;stroke-width:.1"/><g inkscape:label="TWY-N" id="g519"><path inkscape:label="TWY-N-02" id="polyline39225" d="M775.93 997.26 547.36 674.08" style="baseline-shift:baseline;display:inline;overflow:visible;opacity:1;fill:none;stroke:#e6d24c;stroke-width:.1;stroke-dasharray:none;stroke-opacity:1;stop-color:#000;stop-opacity:1"/></g><g inkscape:label="TWY-STD225-268" id="g319" style="display:inline"><path inkscape:label="TWY-STD261R" id="path38293" d="m759.52 748.02 8.97 1.77" style="fill:none;stroke:#e6d24c;stroke-width:.1;stroke-dasharray:.2,.2;stroke-dashoffset:0;stroke-opacity:1"/><path inkscape:label="TWY-STD263" id="line38383" d="m763.51 739.1-5.9 4.11" style="baseline-shift:baseline;display:inline;overflow:visible;opacity:1;fill:none;stroke:#e6d24c;stroke-width:.1;stroke-dasharray:none;stroke-opacity:1;stop-color:#000;stop-opacity:1"/><path inkscape:label="TWY-STD264" id="line38387" d="m758.46 733.04-5.05 6.2" style="baseline-shift:baseline;display:inline;overflow:visible;opacity:1;fill:none;stroke:#e6d24c;stroke-width:.1;stroke-dasharray:none;stroke-opacity:1;stop-color:#000;stop-opacity:1"/><path inkscape:label="TWY-STD265" id="line38388" d="m751.85 726.73-5.95 7.03" style="baseline-shift:baseline;display:inline;overflow:visible;opacity:1;fill:none;stroke:#e6d24c;stroke-width:.1;stroke-dasharray:none;stop-color:#000;stop-opacity:1"/><path inkscape:label="TWY-STD262" id="path311" d="m767.12 745.43-7.08 1.87" style="baseline-shift:baseline;display:inline;overflow:visible;opacity:1;fill:none;stroke:#e6d24c;stroke-width:.1;stroke-dasharray:none;stroke-opacity:1;stop-color:#000;stop-opacity:1"/></g><g inkscape:label="TWY-LEAD-STD262" id="g593" style="display:inline"><path inkscape:label="TWY-LEAD-STD262-02" id="path39222" d="M772.91 743.56a3.63 3.63 0 0 1-5.78 1.9" data-class="centerline-twy" data-dxf-bulges="-0.5421 -0.4142" data-dxf-pts="3741.44,2930.09 3723.38,2871.65" data-handle="71559" data-layer="항공기동선" style="fill:none;stroke:#e6d24c;stroke-width:.1"/><path inkscape:label="TWY-LEAD-STD262-01" id="path39258" d="M774.42 745.69c-.74-1.04-2.36-1.55-3.68-1.22l-3.62.96" style="baseline-shift:baseline;display:inline;overflow:visible;opacity:1;fill:none;stroke:#e6d24c;stroke-width:.1;stroke-dasharray:none;stroke-opacity:1;stop-color:#000;stop-opacity:1"/></g></g><g xmlns:inkscape="http://www.inkscape.org/namespaces/inkscape" inkscape:label="STOP" id="g1004"/><g xmlns:inkscape="http://www.inkscape.org/namespaces/inkscape" inkscape:label="APRON3-TS" id="g437" style="display:inline;stroke:#5b5e67"><rect inkscape:label="STD261R" id="rect340-5-9-6-8-9-3-8-2-7-8-5-8-8-6-8-7-9-4" width="4.1" height="5.731" x="-590.267" y="888.522" ry=".658" style="display:inline;fill:none;stroke:#5b5e67;stroke-width:.1;stroke-linecap:round;stroke-linejoin:round;stroke-miterlimit:5;stroke-dasharray:none;stroke-dashoffset:0;paint-order:stroke fill markers" transform="rotate(-78.926)"/><rect inkscape:label="STD263" id="rect340-5-9-6-8-9-3-8-2-7-8-5-8-8-6-8-7-9-4-3" width="4.1" height="5.731" x="-1044.823" y="196.817" ry=".658" style="display:inline;fill:none;stroke:#5b5e67;stroke-width:.1;stroke-linecap:round;stroke-linejoin:round;stroke-miterlimit:5;stroke-dasharray:none;stroke-dashoffset:0;paint-order:stroke fill markers" transform="rotate(-124.83)"/><rect inkscape:label="STD264" id="rect340-5-9-6-8-9-3-8-2-7-8-5-8-8-6-8-7-9-4-3-5" width="4.1" height="5.731" x="-1053.123" y="-97.352" ry=".658" style="display:inline;fill:none;stroke:#5b5e67;stroke-width:.1;stroke-linecap:round;stroke-linejoin:round;stroke-miterlimit:5;stroke-dasharray:none;stroke-dashoffset:0;paint-order:stroke fill markers" transform="rotate(-140.803)"/><rect inkscape:label="STD261" id="rect340-7-9-0-7-2-8-6-6-4" width="2.879" height="4.025" x="231.132" y="-1046.937" ry=".462" style="display:inline;fill:none;stroke:#5b5e67;stroke-width:.1;stroke-linecap:round;stroke-linejoin:round;stroke-miterlimit:5;stroke-dasharray:none;stroke-dashoffset:0;paint-order:stroke fill markers" transform="rotate(122.02)"/><rect inkscape:label="STD262" id="rect340-7-9-0-7-2-8-6-6-4-2" width="2.879" height="4.025" x="915.179" y="-547.71" ry=".462" style="display:inline;fill:none;stroke:#5b5e67;stroke-width:.1;stroke-linecap:round;stroke-linejoin:round;stroke-miterlimit:5;stroke-dasharray:none;stroke-dashoffset:0;paint-order:stroke fill markers" transform="rotate(75.204)"/></g><g xmlns:inkscape="http://www.inkscape.org/namespaces/inkscape" inkscape:label="S1-S7" id="g1052"/><g xmlns:inkscape="http://www.inkscape.org/namespaces/inkscape" id="layer-stand-labels" inkscape:label="STAND-LABELS" inkscape:groupmode="layer" style="font-family:Arial,Helvetica,sans-serif;font-weight:700;text-anchor:middle"><text x="757.28" y="748.49" style="fill:none;stroke:#0a0e1a;stroke-width:.8;stroke-linejoin:round;font-size:2.1px" id="lbl-261R-h">261R</text><text x="757.28" y="748.49" style="fill:#ffffff;stroke:none;font-size:2.1px" id="lbl-261R">261R</text><text x="755.73" y="745.27" style="fill:none;stroke:#0a0e1a;stroke-width:.8;stroke-linejoin:round;font-size:2.1px" id="lbl-263-h">263</text><text x="755.73" y="745.27" style="fill:#ffffff;stroke:none;font-size:2.1px" id="lbl-263">263</text><text x="752.29" y="741.40" style="fill:none;stroke:#0a0e1a;stroke-width:.8;stroke-linejoin:round;font-size:2.1px" id="lbl-264-h">264</text><text x="752.29" y="741.40" style="fill:#ffffff;stroke:none;font-size:2.1px" id="lbl-264">264</text></g><g xmlns:inkscape="http://www.inkscape.org/namespaces/inkscape" id="layer-points" inkscape:label="POINT-LABELS" inkscape:groupmode="layer"/><path d="M777.10 747.23L779.72 749.67" style="opacity:1;fill:none;fill-opacity:1;stroke:#ff1a00;stroke-width:.15;stroke-miterlimit:4;stroke-dasharray:.3,.15;stroke-dashoffset:.0600001;stroke-opacity:1"/></g></g><path d="M759.71 735.59L759.78 735.65L759.85 735.71L759.93 735.78L760.00 735.84L760.07 735.90L760.14 735.96L760.21 736.02L760.28 736.09L760.35 736.15L760.42 736.21L760.49 736.27L760.56 736.34L760.63 736.40L760.71 736.46L760.78 736.52L760.85 736.58L760.92 736.65L760.99 736.71L761.06 736.77L761.13 736.83L761.20 736.90L761.27 736.96L761.34 737.02L761.41 737.08L761.49 737.14L761.56 737.21L761.63 737.27L761.70 737.33L761.77 737.39L761.84 737.46L761.91 737.52L761.98 737.58L762.05 737.64L762.12 737.70L762.19 737.77L762.27 737.83L762.34 737.89L762.41 737.95L762.48 738.02L762.55 738.08L762.62 738.14L762.69 738.20L762.76 738.27L762.83 738.33L762.90 738.39L762.97 738.45L763.05 738.51L763.12 738.58L763.28 738.72L763.43 738.86L763.58 739.00L763.72 739.15L763.86 739.29L763.99 739.43L764.11 739.57L764.23 739.72L764.35 739.86L764.46 740.00L764.56 740.14L764.66 740.29L764.76 740.43L764.84 740.57L764.93 740.71L765.01 740.85L765.08 740.99L765.15 741.13L765.21 741.27L765.27 741.41L765.32 741.55L765.37 741.69L765.41 741.83L765.45 741.96L765.48 742.10L765.51 742.24L765.53 742.37L765.55 742.51L765.56 742.64L765.57 742.77L765.58 742.91L765.58 743.04L765.57 743.17L765.56 743.30L765.55 743.43L765.53 743.55L765.50 743.68L765.48 743.81L765.44 743.93L765.41 744.06L765.37 744.18L765.32 744.30L765.27 744.42L765.21 744.54L765.16 744.66L765.09 744.77L765.03 744.89L764.95 745.00" fill="none" stroke="#00a03f" stroke-width="0.55" opacity=".20" stroke-linecap="round"/><path d="M759.71 735.59L759.78 735.65L759.85 735.71L759.93 735.78L760.00 735.84L760.07 735.90L760.14 735.96L760.21 736.02L760.28 736.09L760.35 736.15L760.42 736.21L760.49 736.27L760.56 736.34L760.63 736.40L760.71 736.46L760.78 736.52L760.85 736.58L760.92 736.65L760.99 736.71L761.06 736.77L761.13 736.83L761.20 736.90L761.27 736.96L761.34 737.02L761.41 737.08L761.49 737.14L761.56 737.21L761.63 737.27L761.70 737.33L761.77 737.39L761.84 737.46L761.91 737.52L761.98 737.58L762.05 737.64L762.12 737.70L762.19 737.77L762.27 737.83L762.34 737.89L762.41 737.95L762.48 738.02L762.55 738.08L762.62 738.14L762.69 738.20L762.76 738.27L762.83 738.33L762.90 738.39L762.97 738.45L763.05 738.51L763.12 738.58L763.28 738.72L763.43 738.86L763.58 739.00L763.72 739.15L763.86 739.29L763.99 739.43L764.11 739.57L764.23 739.72L764.35 739.86L764.46 740.00L764.56 740.14L764.66 740.29L764.76 740.43L764.84 740.57L764.93 740.71L765.01 740.85L765.08 740.99L765.15 741.13L765.21 741.27L765.27 741.41L765.32 741.55L765.37 741.69L765.41 741.83L765.45 741.96L765.48 742.10L765.51 742.24L765.53 742.37L765.55 742.51L765.56 742.64L765.57 742.77L765.58 742.91L765.58 743.04L765.57 743.17L765.56 743.30L765.55 743.43L765.53 743.55L765.50 743.68L765.48 743.81L765.44 743.93L765.41 744.06L765.37 744.18L765.32 744.30L765.27 744.42L765.21 744.54L765.16 744.66L765.09 744.77L765.03 744.89L764.95 745.00" fill="none" stroke="#00a03f" stroke-width="0.28" stroke-linecap="round" stroke-dasharray="0.012 0.34" opacity="1" filter="url(#gl)"/></svg>