<svg xmlns="http://www.w3.org/2000/svg" xmlns:xlink="http://www.w3.org/1999/xlink" xmlns:inkscape="http://www.inkscape.org/namespaces/inkscape" xmlns:sodipodi="http://sodipodi.sourceforge.net/DTD/sodipodi-0.0.dtd" viewBox="723.10 820.92 36.90 27.33"><defs><filter id="gl" x="-30%" y="-30%" width="160%" height="160%"><feGaussianBlur stdDeviation="0.10" result="b"/><feMerge><feMergeNode in="b"/><feMergeNode in="b"/><feMergeNode in="SourceGraphic"/></feMerge></filter></defs><rect x="723.10" y="820.92" width="36.90" height="27.33" fill="#0a0e1a"/><g opacity="0.45" transform="rotate(75.84 738.223 837.617)"><g xmlns="http://www.w3.org/2000/svg" id="bgG"><defs id="defs40143"><clipPath id="clipPath24" clipPathUnits="userSpaceOnUse"/></defs><path id="rect1" fill="#0a0e1a" d="M0 0h2000v1380H0Z" style="display:inline;fill:#0a0e1a"/><g xmlns:inkscape="http://www.inkscape.org/namespaces/inkscape" inkscape:label="RUNWAY" id="layer-runways" style="display:inline"><path inkscape:label="RWY-15L-33R" id="polygon37507" d="m746.82 554.94 215.78 305.2-4.86 3.46-215.79-305.2Z" data-class="pavement-runway" data-length-m="3750" data-runway="15L/33R" data-threshold-dxf="2047.431,3780.238 5797.431,3780.238" data-threshold-wgs84="37.4839426,126.4401441 37.4563775,126.4646632" style="stroke:none;fill:#111927;fill-opacity:.51"/><path inkscape:label="RWY-15R-33L" id="polygon37508" d="m713.23 578.82 215.79 305.19-4.87 3.46-215.79-305.19z" data-class="pavement-runway" data-length-m="3750" data-runway="15R/33L" data-threshold-dxf="2047.431,3366.238 5797.431,3366.238" data-threshold-wgs84="37.4817860,126.4363272 37.4542217,126.4608470" style="stroke:none;fill:#111927;fill-opacity:.51"/><path inkscape:label="RWY-16L-34R" id="polygon37509" d="m530.5 678.18 230.22 325.49-4.87 3.46-230.22-325.49z" data-class="pavement-runway" data-length-m="4000" data-runway="16L/34R" data-threshold-dxf="1797.420,1291.211 5797.432,1291.222" data-threshold-wgs84="37.4728122,126.4155642 37.4434147,126.4417232" style="stroke:none;fill:#111927;fill-opacity:.51"/><path inkscape:label="RWY-16R-34L" id="polygon37510" d="m511.31 722.4 215.83 305.15-4.86 3.46-215.83-305.14z" data-class="pavement-runway" data-length-m="3750" data-runway="16R/34L" data-threshold-dxf="2047.430,877.197 5797.429,877.230" data-threshold-wgs84="37.4688176,126.4133841 37.4412582,126.4379083" style="display:inline;fill:#111927;fill-opacity:.51;stroke:none;stroke-width:.1;stroke-dasharray:none;stroke-opacity:.6"/></g><g xmlns:inkscape="http://www.inkscape.org/namespaces/inkscape" inkscape:label="GREEN-AREAS" id="layer-green" style="display:inline"/><g xmlns:inkscape="http://www.inkscape.org/namespaces/inkscape" inkscape:label="SCHM" id="layer-schm" style="display:inline"><path id="path31995" d="m834.99 826.7-4.41 3.14a1.5 1.5 0 0 0-.36 2.08l7.56 10.69a2.24 2.24 0 0 1-.53 3.13l-19.82 14.09a2.13 2.13 0 0 1-3.13-.54l-2.84-4.03a1.5 1.5 0 0 0-2.08-.35l-39.34 27.97a1.5 1.5 0 0 0-.35 2.08l2.84 4.03a2.02 2.02 0 0 1-.53 3.13l-20.98 14.92a2.24 2.24 0 0 1-3.12-.53l-6.18-8.75a1.5 1.5 0 0 0-2.08-.36l-5.07 3.61" data-class="schm" data-dxf-bulges="0.0000 0.4142 0.0000 -0.4142 0.0000 -0.4458 0.0000 0.4142 0.0000 0.4142 0.0000 -0.4844 0.0000 -0.4142 0.0000 0.4142 0.0000 0.0000" data-dxf-pts="4782.17,2957.16 4782.17,2902.74 4797.17,2887.74 4928.43,2887.74 4950.93,2865.24 4950.93,2620.90 4928.43,2598.38 4878.93,2598.38 4863.93,2583.38 4863.93,2098.40 4878.93,2083.40 4928.43,2083.40 4950.93,2060.90 4950.93,1802.24 4928.43,1779.74 4820.93,1779.74 4805.93,1764.74 4805.93,1702.24" data-handle="79C55" data-layer="SCHM" style="fill:none;stroke:#5a5f68;stroke-width:.1;stroke-opacity:.6;display:inline"/><path id="path31996" d="m733.99 900.19 5.07-3.6a1.5 1.5 0 0 0 .36-2.09l-3.31-4.68a2.24 2.24 0 0 1 .53-3.13l86.22-61.3a2.24 2.24 0 0 1 3.12.53l1.94 2.75a1.5 1.5 0 0 0 2.08.35l4.42-3.14" data-class="schm" data-dxf-bulges="0.0000 0.4142 0.0000 -0.4142 0.0000 -0.4142 0.0000 0.4142 0.0000 0.0000" data-dxf-pts="4795.93,1702.24 4795.93,1764.74 4780.93,1779.74 4723.43,1779.74 4700.93,1802.24 4700.93,2865.24 4723.43,2887.74 4757.17,2887.74 4772.17,2902.74 4772.17,2957.16" data-handle="79C56" data-layer="SCHM" style="fill:none;stroke:#5a5f68;stroke-width:.1;stroke-opacity:.6"/><path id="path32000" d="m774.03 871.73-31.93 22.69a1.5 1.5 0 0 1-2.07-.35l-3.31-4.68a1.5 1.5 0 0 1 .35-2.09l86.22-61.3a1.5 1.5 0 0 1 2.08.35l5.99 8.47a1.5 1.5 0 0 1-.36 2.08l-3.34 2.38a2.3 2.3 0 0 1-2.91-.21 3.4 3.4 0 0 0-4.31-.34l-5.6 3.98a2 2 0 0 1-.47.22l-1.28.35a3 3 0 0 0-.78.37l-2.88 2.05a3 3 0 0 0-.61.62l-.76 1.1a2 2 0 0 1-.36.37l-12.11 8.6a3 3 0 0 1-.79.4l-3.65 1.2a5 5 0 0 0-1.33.67l-1.36.97a77 77 0 0 0-9.03 6.42l-1.36.97a5 5 0 0 0-1.07 1.03l-2.33 3.06a3 3 0 0 1-.64.62" data-class="schm" data-dxf-bulges="0.0000 -0.4142 0.0000 -0.4142 0.0000 -0.4142 0.0000 -0.4142 0.0000 -0.3600 0.3616 0.0000 -0.0875 0.0000 0.0875 0.0000 0.0875 0.0000 -0.0875 0.0000 -0.0752 0.0000 0.0752 0.0000 0.0359 0.0000 0.0752 0.0000 -0.0752 0.0000" data-dxf-pts="4795.93,2195.79 4795.93,1802.24 4780.93,1787.24 4723.43,1787.24 4708.43,1802.24 4708.43,2865.24 4723.43,2880.24 4827.43,2880.24 4842.43,2865.24 4842.43,2823.96 4823.74,2801.37 4795.93,2767.94 4795.93,2698.99 4795.03,2693.86 4790.44,2681.26 4788.93,2672.71 4788.93,2637.17 4790.44,2628.62 4795.03,2616.02 4795.93,2610.89 4795.93,2461.69 4794.59,2452.81 4783.17,2415.96 4780.93,2401.16 4780.93,2384.44 4780.93,2273.04 4780.93,2256.32 4783.17,2241.52 4794.59,2204.67 4795.93,2195.79" data-handle="79C5B" data-layer="SCHM" style="fill:none;stroke:#5a5f68;stroke-width:.1;stroke-opacity:.6"/><path id="path34196" d="m658.25 800.1 75.96 107.46a24 24 0 0 0 1.47 1.88l.05.06" data-class="schm" data-dxf-bulges="0.0000 0.0247 0.0000 0.0000" data-dxf-pts="3537.13,1661.51 4857.41,1661.24 4881.36,1662.42 4882.08,1662.49" data-handle="7A868" data-layer="SCHM" style="fill:none;stroke:#5a5f68;stroke-width:.1;stroke-opacity:.6"/><path id="polygon35375" d="m747.12 818.59-5.76-8.14-16.06 11.42 5.76 8.14z" data-class="schm" data-dxf-pts="4104.95,2283.27 4104.95,2085.27 4204.95,2085.27 4204.95,2283.27" data-handle="7AE86" data-layer="SCHM" style="fill:none;stroke:#5a5f68;stroke-width:.1;stroke-opacity:.6"/><path id="polyline35375" d="m814.49 796.22-103.32 73.45" data-class="schm" data-dxf-pts="4413.81,2965.74 4413.66,1692.09" data-handle="7AE89" data-layer="SCHM" style="fill:none;stroke:#5a5f68;stroke-width:.1;stroke-opacity:.6"/><path id="polyline35376" d="m813.81 795.49-103.09 73.28" data-class="schm" data-dxf-pts="4403.81,2964.43 4403.66,1693.59" data-handle="7AE8A" data-layer="SCHM" style="fill:none;stroke:#5a5f68;stroke-width:.1;stroke-opacity:.6"/><path id="polyline36915" d="m694.14 843.84 101.8-72.41" data-class="schm" data-dxf-pts="4103.43,1702.24 4103.21,2957.29" data-handle="7BBD7" data-layer="SCHM" style="fill:none;stroke:#5a5f68;stroke-width:.1;stroke-opacity:.6"/><path id="polyline36916" d="m795.44 770.62-101.87 72.4" data-class="schm" data-dxf-pts="4093.66,2957.94 4093.43,1702.24" data-handle="7BBD8" data-layer="SCHM" style="fill:none;stroke:#5a5f68;stroke-width:.1;stroke-opacity:.6"/><path id="polyline37097" d="M674.84 825.22 754.3 937.4" data-class="schm" data-dxf-pts="3844.75,1652.99 5218.30,1652.99" data-handle="7BDE3" data-layer="SCHM" style="fill:none;stroke:#5a5f68;stroke-width:.1;stroke-opacity:.6"/></g><g xmlns:inkscape="http://www.inkscape.org/namespaces/inkscape" inkscape:label="TWY" id="layer-centerlines" style="display:inline"><path inkscape:label="TWY-C" id="line37516" d="M732.61 573.11 940.8 867.57Z" style="baseline-shift:baseline;display:inline;overflow:visible;opacity:1;fill:none;stroke:#e6d24c;stroke-width:.1;stroke-dasharray:none;stroke-opacity:1;stop-color:#000;stop-opacity:1"/><path inkscape:label="TWY-A-01" id="line37520" d="m650.53 547.41 247.85 350.5Z" style="baseline-shift:baseline;display:inline;overflow:visible;opacity:1;fill:none;stroke:#e6d24c;stroke-width:.1;stroke-dasharray:none;stroke-opacity:1;stop-color:#000;stop-opacity:1"/><g inkscape:label="TWY-R12" id="g1093"/><g inkscape:label="TWY-R11" id="g1077" style="display:inline"/><g inkscape:label="STD-361-376" id="g281" style="display:inline"/><g inkscape:label="TWY-LEAD-STD361-376" id="g298" style="display:inline"/><g inkscape:label="TWT-RG" id="g1069"><path inkscape:label="TWT-RG-02" id="path1067" d="m705.1 854.67 97.42-69.26" style="display:inline;fill:none;stroke:#e6d24c;stroke-width:.1;stroke-dasharray:none"/></g><g inkscape:label="TWY-P" id="g513"><path inkscape:label="TWY-P-01" id="line38588" d="m525.32 714.28 211.11 298.47Z" style="baseline-shift:baseline;display:inline;overflow:visible;opacity:1;fill:none;stroke:#e6d24c;stroke-width:.1;stroke-dasharray:none;stroke-opacity:1;stop-color:#000;stop-opacity:1"/></g><g inkscape:label="TWY-JCT-RG-STD329" id="g166" style="display:inline"><path inkscape:label="TWY-JCT-RG-STD329-01" id="path38771" d="M739.35 830.32a5.2 5.2 0 0 0-1.23 7.23" data-class="centerline-twy" data-dxf-bulges="0.4142 0.0000" data-dxf-pts="4255.71,2151.51 4307.71,2099.51" data-handle="71318" data-layer="항공기동선" style="fill:none;stroke:#e6d24c;stroke-width:.1"/><path inkscape:label="TWY-JCT-RG-STD329-01" id="path38772" d="M738.12 837.55a5.17 5.17 0 0 0-7.21-1.24" data-class="centerline-twy" data-dxf-bulges="0.4142 0.0000" data-dxf-pts="4307.71,2099.51 4255.71,2047.51" data-handle="71319" data-layer="항공기동선" style="fill:none;stroke:#e6d24c;stroke-width:.1"/></g><g inkscape:label="TWY-JCT-RG-STD327" id="g164" style="display:inline"><path inkscape:label="TWY-JCT-RG-STD327-02" id="path38794" d="M752.88 826.32a4.6 4.6 0 0 0-6.38-1.09" data-class="centerline-twy" data-dxf-bulges="0.4142 0.0000" data-dxf-pts="4301.71,2285.71 4255.71,2239.71" data-handle="71334" data-layer="항공기동선" style="fill:none;stroke:#e6d24c;stroke-width:.1"/></g><g inkscape:label="TWY-JCT-RG-STD328" id="g165" style="display:inline"><path inkscape:label="TWY-JCT-RG-STD328-02" id="path38800" d="M745.69 831.44a4.6 4.6 0 0 0-6.38-1.09" data-class="centerline-twy" data-dxf-bulges="0.4142 0.0000" data-dxf-pts="4301.71,2197.01 4255.71,2151.01" data-handle="7133B" data-layer="항공기동선" style="fill:none;stroke:#e6d24c;stroke-width:.1"/><path inkscape:label="TWY-JCT-RG-STD328-01" id="path38801" d="M746.77 825.04a4.6 4.6 0 0 0-1.08 6.4" data-class="centerline-twy" data-dxf-bulges="0.4142 0.0000" data-dxf-pts="4255.71,2243.01 4301.71,2197.01" data-handle="7133C" data-layer="항공기동선" style="fill:none;stroke:#e6d24c;stroke-width:.1"/></g><g inkscape:label="TWY-JCT-RG-STD330" id="g167" style="display:inline"><path inkscape:label="TWY-JCT-RG-STD330-01" id="path38806" d="M730.73 836.45a5.2 5.2 0 0 0-1.23 7.23" data-class="centerline-twy" data-dxf-bulges="0.4142 0.0000" data-dxf-pts="4255.71,2045.21 4307.71,1993.21" data-handle="71342" data-layer="항공기동선" style="fill:none;stroke:#e6d24c;stroke-width:.1"/><path inkscape:label="TWY-JCT-RG-STD330-01" id="path38807" d="M729.5 843.68a5.17 5.17 0 0 0-7.21-1.23" data-class="centerline-twy" data-dxf-bulges="0.4142 0.0000" data-dxf-pts="4307.71,1993.21 4255.71,1941.21" data-handle="71343" data-layer="항공기동선" style="fill:none;stroke:#e6d24c;stroke-width:.1"/></g><g inkscape:label="TWY-R9" id="g1062" style="display:inline"/><g inkscape:label="TWY-R10" id="g1066" style="display:inline"><path inkscape:label="TWY-R10-03" id="line37904" d="m726.97 876.57 40.74-28.97" style="baseline-shift:baseline;display:inline;overflow:visible;opacity:1;fill:none;stroke:#e6d24c;stroke-width:.1;stroke-dasharray:none;stroke-opacity:1;stop-color:#000;stop-opacity:1"/></g><path inkscape:label="TWY-M" id="line38837" d="m549.25 657.8 229.81 324.93Z" style="baseline-shift:baseline;display:inline;overflow:visible;fill:none;stroke:#e6d24c;stroke-width:.1;stroke-dasharray:none;stroke-opacity:1;stop-color:#000"/><path inkscape:label="TWY-B-01" id="line38839" d="m698.93 596.87 224.76 317.89Z" style="baseline-shift:baseline;display:inline;overflow:visible;opacity:1;fill:none;stroke:#e6d24c;stroke-width:.1;stroke-dasharray:none;stroke-opacity:1;stop-color:#000;stop-opacity:1"/><g inkscape:label="DZONE-CD" id="g275" style="display:inline"><path inkscape:label="TWY-PAD309" id="path166" d="m744.22 846.17 5.54 7.83" style="baseline-shift:baseline;display:inline;overflow:visible;opacity:1;fill:none;stroke:#e6d24c;stroke-width:.1;stroke-dasharray:none;stroke-opacity:1;stop-color:#000;stop-opacity:1"/></g><g inkscape:label="STD-321-332" id="g278" style="display:inline"><path inkscape:label="TWY-STD330" id="line38807" d="m729.5 843.68 6.1 8.62" style="baseline-shift:baseline;display:inline;overflow:visible;opacity:1;fill:none;stroke:#e6d24c;stroke-width:.1;stroke-dasharray:none;stroke-opacity:1;stop-color:#000;stop-opacity:1"/><path inkscape:label="TWY-STD329" id="line38803" d="m738.12 837.55 6.1 8.62" style="baseline-shift:baseline;display:inline;overflow:visible;opacity:1;fill:none;stroke:#e6d24c;stroke-width:.1;stroke-dasharray:none;stroke-opacity:1;stop-color:#000;stop-opacity:1"/><path inkscape:label="TWY-STD328" id="line38856" d="m745.69 831.44 6.44 9.12" style="baseline-shift:baseline;display:inline;overflow:visible;opacity:1;fill:none;stroke:#e6d24c;stroke-width:.1;stroke-dasharray:none;stroke-opacity:1;stop-color:#000;stop-opacity:1"/></g><path inkscape:label="TWY-STD351" id="line38861" d="m719.73 829.86 3.82 5.4" data-class="centerline-twy" data-dxf-p="4137.897,1993.254 4204.304,1993.254" data-handle="7138B" data-layer="항공기동선" data-wgs="37.4592692,126.4373428 37.4587811,126.4377770" style="fill:none;stroke:#e6d24c;stroke-width:.1"/><g inkscape:label="TWY-LEAD-STD351" id="g263" style="display:inline"><path inkscape:label="TWY-LEAD-STD351-02" id="path38862" d="M723.55 835.26a3.64 3.64 0 0 0 2.58 4.46" data-class="centerline-twy" data-dxf-arc="4232.37,2016.59,36.50,219.75,309.75" data-handle="7138C" data-layer="항공기동선" style="fill:none;stroke:#e6d24c;stroke-width:.1"/><path inkscape:label="TWY-LEAD-STD351-01" id="path38863" d="M726.89 839.17a3.64 3.64 0 0 0-3.34-3.91" data-class="centerline-twy" data-dxf-arc="4232.37,1969.91,36.50,50.25,140.25" data-handle="7138D" data-layer="항공기동선" style="fill:none;stroke:#e6d24c;stroke-width:.1"/></g><path inkscape:label="TWY-STD350" id="line38863" d="m724.65 826.36 3.82 5.4" data-class="centerline-twy" data-dxf-p="4137.897,2053.885 4204.304,2053.885" data-handle="7138E" data-layer="항공기동선" data-wgs="37.4595850,126.4379016 37.4590970,126.4383358" style="fill:none;stroke:#e6d24c;stroke-width:.1"/><g inkscape:label="TWY-LEAD-STD350" id="g262" style="display:inline"><path inkscape:label="TWY-LEAD-STD350-02" id="path38864" d="M728.47 831.76a3.64 3.64 0 0 0 2.58 4.46" data-class="centerline-twy" data-dxf-arc="4232.37,2077.23,36.50,219.75,309.75" data-handle="7138F" data-layer="항공기동선" style="fill:none;stroke:#e6d24c;stroke-width:.1"/><path inkscape:label="TWY-LEAD-STD350-01" id="path38865" d="M731.81 835.67a3.64 3.64 0 0 0-3.34-3.91" data-class="centerline-twy" data-dxf-arc="4232.37,2030.55,36.50,50.25,140.25" data-handle="71390" data-layer="항공기동선" style="fill:none;stroke:#e6d24c;stroke-width:.1"/></g><path inkscape:label="TWY-D" id="line38986" d="m716.91 479.56 280.6 396.86Z" style="baseline-shift:baseline;display:inline;overflow:visible;opacity:1;fill:none;stroke:#e6d24c;stroke-width:.1;stroke-dasharray:none;stroke-opacity:1;stop-color:#000;stop-opacity:1"/><g inkscape:label="TWY-R4" id="g316" style="display:inline"><path inkscape:label="TWY-R4-11" id="line37908" d="m744.61 910.55-56.48-79.87" data-class="centerline-twy" data-dxf-p="4942.386,1729.230 3960.929,1729.238" data-handle="70EBC" data-layer="항공기동선" data-wgs="37.4519809,126.4401696 37.4591945,126.4337523" style="fill:none;stroke:#e6d24c;stroke-width:.1"/></g><g inkscape:label="TWY-N" id="g519"><path inkscape:label="TWY-N-02" id="polyline39225" d="M775.93 997.26 547.36 674.08" style="baseline-shift:baseline;display:inline;overflow:visible;opacity:1;fill:none;stroke:#e6d24c;stroke-width:.1;stroke-dasharray:none;stroke-opacity:1;stop-color:#000;stop-opacity:1"/></g></g><g xmlns:inkscape="http://www.inkscape.org/namespaces/inkscape" inkscape:label="STOP" id="g1004"/><g xmlns:inkscape="http://www.inkscape.org/namespaces/inkscape" inkscape:label="APRON3-TS" id="g437" style="display:inline;stroke:#5b5e67"><g inkscape:label="APRON3-TS-REMOTE-STD361-376" id="g925" style="display:inline;stroke:#5b5e67"/></g><g xmlns:inkscape="http://www.inkscape.org/namespaces/inkscape" inkscape:label="APRON2-REMOTE-STD341-353" id="g1037" style="display:inline"><rect inkscape:label="STD350" id="rect340-5-9-6-8-9-3-8-2-7-8-5-8-8-6-8-7-8-0-0-9-8-0-4" width="4.1" height="5.731" x="110.337" y="1093.324" ry=".658" style="display:inline;fill:none;stroke:#5a5f68;stroke-width:.1;stroke-linecap:round;stroke-linejoin:round;stroke-miterlimit:5;stroke-dasharray:none;stroke-dashoffset:0;paint-order:stroke fill markers" transform="rotate(-35.38)"/><rect inkscape:label="STD351" id="rect340-5-9-6-8-9-3-8-2-7-8-5-8-8-6-8-7-8-0-0-9-8-0-4-9" width="4.1" height="5.731" x="104.299" y="1093.329" ry=".658" style="display:inline;fill:none;stroke:#5a5f68;stroke-width:.1;stroke-linecap:round;stroke-linejoin:round;stroke-miterlimit:5;stroke-dasharray:none;stroke-dashoffset:0;paint-order:stroke fill markers" transform="rotate(-35.38)"/></g><g xmlns:inkscape="http://www.inkscape.org/namespaces/inkscape" inkscape:label="STD101-132" id="g961" style="display:inline;stroke:#5b5e67"/><g xmlns:inkscape="http://www.inkscape.org/namespaces/inkscape" inkscape:label="STD321-332" id="g209" style="fill:none;stroke:#5b5e67"><path inkscape:label="STD330" id="path1038" d="m731.1 854.28-5.52-7.8 7.84-5.6 5.53 7.82z" style="fill:none;stroke:#5b5e67;stroke-width:.1;stroke-dasharray:none;paint-order:stroke fill markers"/><path inkscape:label="STD331" id="path1038-0" d="m722.72 860.24-5.52-7.81 7.6-5.41 5.53 7.8z" style="fill:none;stroke:#5b5e67;stroke-width:.1;stroke-dasharray:none;paint-order:stroke fill markers"/><path inkscape:label="STD329" id="path1038-1" d="m739.72 848.15-5.52-7.8 7.84-5.6 5.53 7.82z" style="fill:none;stroke:#5b5e67;stroke-width:.1;stroke-dasharray:none;paint-order:stroke fill markers"/><path inkscape:label="STD328" id="path1038-1-4" d="m748.2 842.13-5.53-7.81 6.87-4.88 5.53 7.8z" style="fill:none;stroke:#5b5e67;stroke-width:.1;stroke-dasharray:none;paint-order:stroke fill markers"/></g><g xmlns:inkscape="http://www.inkscape.org/namespaces/inkscape" inkscape:label="STD301-312" id="g198" style="fill:none;stroke:#5b5e67"><path inkscape:label="STD310" id="path1038-7" d="m737.2 862.9-5.52-7.8 7.85-5.59 5.52 7.81z" style="fill:none;stroke:#5b5e67;stroke-width:.1;stroke-dasharray:none;paint-order:stroke fill markers"/><path inkscape:label="STD309" id="path1038-1-1" d="m745.82 856.78-5.52-7.82 7.85-5.58 5.52 7.81z" style="fill:none;stroke:#5b5e67;stroke-width:.1;stroke-dasharray:none;paint-order:stroke fill markers"/><path inkscape:label="STD308" id="path1038-1-4-2" d="m754.28 850.76-5.52-7.81 6.86-4.88 5.53 7.8z" style="fill:none;stroke:#5b5e67;stroke-width:.1;stroke-dasharray:none;paint-order:stroke fill markers"/></g><g xmlns:inkscape="http://www.inkscape.org/namespaces/inkscape" inkscape:label="S1-S7" id="g1052"/><g xmlns:inkscape="http://www.inkscape.org/namespaces/inkscape" id="layer-stand-labels" inkscape:label="STAND-LABELS" inkscape:groupmode="layer" style="font-family:Arial,Helvetica,sans-serif;font-weight:700;text-anchor:middle"><text x="744.57" y="847.53" style="fill:none;stroke:#0a0e1a;stroke-width:.8;stroke-linejoin:round;font-size:2.1px" id="lbl-309-h">309</text><text x="744.57" y="847.53" style="fill:#ffffff;stroke:none;font-size:2.1px" id="lbl-309">309</text><text x="750.44" y="839.79" style="fill:none;stroke:#0a0e1a;stroke-width:.8;stroke-linejoin:round;font-size:2.1px" id="lbl-328-h">328</text><text x="750.44" y="839.79" style="fill:#ffffff;stroke:none;font-size:2.1px" id="lbl-328">328</text><text x="743.39" y="845.09" style="fill:none;stroke:#0a0e1a;stroke-width:.8;stroke-linejoin:round;font-size:2.1px" id="lbl-329-h">329</text><text x="743.39" y="845.09" style="fill:#ffffff;stroke:none;font-size:2.1px" id="lbl-329">329</text><text x="724.15" y="826.39" style="fill:none;stroke:#0a0e1a;stroke-width:.8;stroke-linejoin:round;font-size:2.1px" id="lbl-350-h">350</text><text x="724.15" y="826.39" style="fill:#ffffff;stroke:none;font-size:2.1px" id="lbl-350">350</text></g><g xmlns:inkscape="http://www.inkscape.org/namespaces/inkscape" id="layer-points" inkscape:label="POINT-LABELS" inkscape:groupmode="layer"/></g></g><path d="M734.99 841.44L735.04 841.38L735.09 841.31L735.14 841.25L735.19 841.19L735.24 841.13L735.30 841.06L735.35 841.00L735.40 840.94L735.45 840.87L735.50 840.81L735.55 840.75L735.60 840.68L735.65 840.62L735.71 840.56L735.76 840.49L735.81 840.43L735.86 840.37L735.91 840.30L735.96 840.24L736.01 840.18L736.06 840.11L736.12 840.05L736.17 839.99L736.22 839.92L736.27 839.86L736.32 839.80L736.37 839.73L736.42 839.67L736.48 839.61L736.53 839.54L736.58 839.48L736.63 839.42L736.68 839.35L736.73 839.29L736.78 839.23L736.83 839.17L736.89 839.10L736.94 839.04L736.99 838.98L737.04 838.91L737.09 838.85L737.14 838.79L737.19 838.72L737.24 838.66L737.30 838.60L737.35 838.53L737.40 838.47L737.45 838.41L737.60 838.22L737.75 838.03L737.89 837.84L738.03 837.66L738.17 837.47L738.29 837.29L738.42 837.12L738.53 836.94L738.64 836.76L738.75 836.59L738.85 836.42L738.94 836.25L739.03 836.08L739.11 835.91L739.18 835.74L739.25 835.57L739.31 835.40L739.36 835.23L739.41 835.07L739.45 834.90L739.49 834.74L739.51 834.57L739.53 834.40L739.54 834.24L739.55 834.07L739.55 833.91L739.53 833.74L739.52 833.57L739.49 833.40L739.46 833.23L739.41 833.06L739.36 832.89L739.30 832.72L739.24 832.54L739.16 832.37L739.08 832.19L738.98 832.01L738.88 831.83L738.77 831.65L738.65 831.46L738.52 831.28L738.38 831.09L738.23 830.90L738.07 830.70L737.91 830.51L737.73 830.31L737.54 830.11L737.35 829.90" fill="none" stroke="#00a03f" stroke-width="0.55" opacity=".20" stroke-linecap="round"/><path d="M734.99 841.44L735.04 841.38L735.09 841.31L735.14 841.25L735.19 841.19L735.24 841.13L735.30 841.06L735.35 841.00L735.40 840.94L735.45 840.87L735.50 840.81L735.55 840.75L735.60 840.68L735.65 840.62L735.71 840.56L735.76 840.49L735.81 840.43L735.86 840.37L735.91 840.30L735.96 840.24L736.01 840.18L736.06 840.11L736.12 840.05L736.17 839.99L736.22 839.92L736.27 839.86L736.32 839.80L736.37 839.73L736.42 839.67L736.48 839.61L736.53 839.54L736.58 839.48L736.63 839.42L736.68 839.35L736.73 839.29L736.78 839.23L736.83 839.17L736.89 839.10L736.94 839.04L736.99 838.98L737.04 838.91L737.09 838.85L737.14 838.79L737.19 838.72L737.24 838.66L737.30 838.60L737.35 838.53L737.40 838.47L737.45 838.41L737.60 838.22L737.75 838.03L737.89 837.84L738.03 837.66L738.17 837.47L738.29 837.29L738.42 837.12L738.53 836.94L738.64 836.76L738.75 836.59L738.85 836.42L738.94 836.25L739.03 836.08L739.11 835.91L739.18 835.74L739.25 835.57L739.31 835.40L739.36 835.23L739.41 835.07L739.45 834.90L739.49 834.74L739.51 834.57L739.53 834.40L739.54 834.24L739.55 834.07L739.55 833.91L739.53 833.74L739.52 833.57L739.49 833.40L739.46 833.23L739.41 833.06L739.36 832.89L739.30 832.72L739.24 832.54L739.16 832.37L739.08 832.19L738.98 832.01L738.88 831.83L738.77 831.65L738.65 831.46L738.52 831.28L738.38 831.09L738.23 830.90L738.07 830.70L737.91 830.51L737.73 830.31L737.54 830.11L737.35 829.90" fill="none" stroke="#00a03f" stroke-width="0.28" stroke-linecap="round" stroke-dasharray="0.012 0.34" opacity="1" filter="url(#gl)"/></svg>