<svg xmlns="http://www.w3.org/2000/svg" xmlns:xlink="http://www.w3.org/1999/xlink" xmlns:inkscape="http://www.inkscape.org/namespaces/inkscape" xmlns:sodipodi="http://sodipodi.sourceforge.net/DTD/sodipodi-0.0.dtd" viewBox="757.83 901.58 55.84 32.85"><defs><filter id="gl" x="-30%" y="-30%" width="160%" height="160%"><feGaussianBlur stdDeviation="0.10" result="b"/><feMerge><feMergeNode in="b"/><feMergeNode in="b"/><feMergeNode in="SourceGraphic"/></feMerge></filter></defs><rect x="757.83" y="901.58" width="55.84" height="32.85" fill="#0a0e1a"/><g opacity="0.45" transform="rotate(25.84 785.205 916.475)"><g xmlns="http://www.w3.org/2000/svg" id="bgG"><defs id="defs40143"><clipPath id="clipPath24" clipPathUnits="userSpaceOnUse"/></defs><path id="rect1" fill="#0a0e1a" d="M0 0h2000v1380H0Z" style="display:inline;fill:#0a0e1a"/><g xmlns:inkscape="http://www.inkscape.org/namespaces/inkscape" inkscape:label="RUNWAY" id="layer-runways" style="display:inline"/><g xmlns:inkscape="http://www.inkscape.org/namespaces/inkscape" inkscape:label="GREEN-AREAS" id="layer-green" style="display:inline"><path inkscape:label="GREEN-33" id="path37254" d="m783.13 909.16 5.67-5.33a1.2 1.2 0 0 0 .24-1.43l-.07-.15-.11-.12a1.2 1.2 0 0 0-1.43-.24l-6.89 3.6-12.59 8.96-5.67 5.33a1.2 1.2 0 0 0-.24 1.42l.07.15.11.12a1.2 1.2 0 0 0 1.43.24l6.89-3.6z" data-class="green-zone" data-dxf-bulges="0.0000 0.3365 0.0000 0.0000 0.3365 0.0000 0.0000 0.0000 0.3365 0.0000 0.0000 0.3365 0.0000 0.0000" data-dxf-pts="5154.93,2053.37 5144.32,2130.82 5134.06,2141.08 5132.43,2141.30 5130.80,2141.08 5120.54,2130.82 5109.93,2053.37 5109.93,1898.13 5120.54,1820.68 5130.80,1810.42 5132.43,1810.20 5134.06,1810.42 5144.32,1820.68 5154.93,1898.13" data-handle="7B10B" data-layer="계류장지역" style="fill:#13181e;stroke:#1a1f26;stroke-width:.1"/><path inkscape:label="GREEN-36" id="path37255" d="m764.84 910.05 12.59-8.95 5.68-5.33a1.2 1.2 0 0 0 .35-1.12 1.2 1.2 0 0 0-1.18-.04l-6.89 3.6-12.59 8.95-5.67 5.33a1.2 1.2 0 0 0-.35 1.13 1.2 1.2 0 0 0 1.17.04z" data-class="green-zone" data-dxf-bulges="0.0000 0.0000 0.2627 0.2627 0.0000 0.0000 0.0000 0.2627 0.2627 0.0000" data-dxf-pts="5055.93,1898.13 5055.93,2053.37 5045.32,2130.82 5038.18,2140.21 5031.04,2130.82 5020.43,2053.37 5020.43,1898.13 5031.04,1820.68 5038.18,1811.29 5045.32,1820.68" data-handle="7B10C" data-layer="계류장지역" style="fill:#13181e;stroke:#1a1f26;stroke-width:.1;display:inline"/><path inkscape:label="GREEN-36-PAV" id="path1040" d="m773.29 899.7 2.04 2.89.6-.43-2.03-2.9z" style="baseline-shift:baseline;display:inline;overflow:visible;opacity:1;fill:#0a0e1a;stroke:#0a0e1a;stroke-width:.12;stroke-dasharray:none;stop-color:#000;stop-opacity:1"/><g inkscape:label="GREEN-28" id="g924"><path inkscape:label="GREEN-28-01" id="path37502" d="m771.67 954.68-8.74-12.36-5.33-5.71a1.34 1.34 0 0 0-1.6-.27l-.63.33 13.62 19.26a1.5 1.5 0 0 0 1.24-.22z" data-class="green-zone" data-dxf-bulges="0.0000 0.0000 0.3366 0.0000 0.0000 0.2219 0.0000" data-dxf-pts="5460.57,1695.24 5308.61,1695.24 5230.96,1684.61 5219.42,1673.07 5218.45,1665.99 5455.20,1665.99 5460.57,1677.49" data-handle="13CE82" data-layer="계류장지역" style="fill:#13181e;stroke:#1a1f26;stroke-width:.1"/></g><path inkscape:label="GREEN-33-PAV" id="path1023" d="m778.44 906.99.61-.44 2.59 3.67-.61.43z" style="display:inline;fill:#0a0e1a;stroke:#0a0e1a;stroke-width:.12;stroke-dasharray:none;stroke-opacity:1;paint-order:stroke fill markers"/><path inkscape:label="GREEN-302" id="path37210" d="m754.3 937.4-.21.18.17.25-.54.51a1.05 1.05 0 0 0-.21 1.24l3.6 6.92 14.23 20.14 5.32 5.69a1.04 1.04 0 0 0 1.24.21l.66-.34.18.24.24-.13zm.53 1.6 22.93 32.43-.13.09-22.93-32.43z" data-class="green-zone" style="fill:#13181e;stroke:#1a1f26;stroke-width:.1;display:inline"/></g><g xmlns:inkscape="http://www.inkscape.org/namespaces/inkscape" inkscape:label="SCHM" id="layer-schm" style="display:inline"><path id="path2" d="M802.2 937.34a1.7 1.7 0 0 0-1.13-.33" data-class="schm" data-dxf-arc="5501.92,2029.81,17.50,108.90,148.42" data-handle="7156B" data-layer="SCHM" style="fill:none;stroke:#5a5f68;stroke-width:.1;stroke-opacity:.6"/><path id="path3" d="M799.94 936.69a1.7 1.7 0 0 0 1.13.32" data-class="schm" data-dxf-arc="5472.11,2048.14,17.50,288.90,328.42" data-handle="7156C" data-layer="SCHM" style="fill:none;stroke:#5a5f68;stroke-width:.1;stroke-opacity:.6"/><path id="line1679" d="m791.65 913.44.09-.06" data-class="schm" data-dxf-p="5239.531,2098.403 5239.531,2099.528" data-handle="71D6C" data-layer="SCHM" data-wgs="37.4517198,126.4455146 37.4517257,126.4455250" style="fill:none;stroke:#5a5f68;stroke-width:.1;stroke-opacity:.6"/><path id="path1679" d="M793.76 923.8a.75.75 0 0 0 .5-.88l-.04-.14a3 3 0 0 0-.57-1.17l-1.07-1.34a3 3 0 0 1-.53-1.03 3 3 0 0 0-.54-1.03l-1.47-1.84a.75.75 0 0 0-1.02-.14l-7.64 5.44" data-class="schm" data-dxf-bulges="0.3925 0.0000 0.1102 0.0000 -0.0980 0.0980 0.0000 0.3969 0.0000 0.0000" data-dxf-pts="5336.51,2055.63 5332.14,2064.84 5330.78,2065.38 5317.88,2067.47 5300.80,2066.45 5289.27,2068.03 5277.73,2069.60 5254.09,2068.19 5247.03,2060.71 5247.03,1966.45" data-handle="71D6D" data-layer="SCHM" style="fill:none;stroke:#5a5f68;stroke-width:.1;stroke-opacity:.6"/><path id="path1680" d="M793.76 923.8a4.3 4.3 0 0 0-2.94 3.63 4 4 0 0 0 .16 1.68 4.3 4.3 0 0 0 1.59 2.26" data-class="schm" data-dxf-bulges="0.2964 0.0995 0.1655 0.0000" data-dxf-pts="5336.51,2055.63 5349.08,2010.48 5363.75,2001.99 5391.46,2002.04" data-handle="71D6E" data-layer="SCHM" style="fill:none;stroke:#5a5f68;stroke-width:.1;stroke-opacity:.6"/><path id="path1681" d="m797.57 924.41-.44-.28a4 4 0 0 0-1.45-.49.8.8 0 0 1-.62-.56l-.15-.64a3 3 0 0 0-.58-1.17l-1.09-1.37a3 3 0 0 1-.54-1.03 3 3 0 0 0-.53-1.03l-1.47-1.83a.75.75 0 0 1 .15-1.08" data-class="schm" data-dxf-bulges="0.0306 0.0900 -0.3068 0.0000 0.1102 0.0000 -0.0980 0.0980 0.0000 -0.4317 0.0000" data-dxf-pts="5363.60,2083.40 5358.74,2081.39 5346.35,2072.33 5338.13,2070.53 5332.01,2072.97 5319.11,2075.05 5301.53,2074.00 5289.99,2075.58 5278.45,2077.16 5254.98,2075.76 5247.03,2083.25" data-handle="71D6F" data-layer="SCHM" style="fill:none;stroke:#5a5f68;stroke-width:.1;stroke-opacity:.6"/><path id="path1682" d="M781.38 921.67a7.6 7.6 0 0 0-3.18 5.83 7.6 7.6 0 0 0 3.14 6.5" data-class="schm" data-dxf-bulges="0.2310 0.2533 0.0000" data-dxf-pts="5247.03,1966.45 5276.28,1906.53 5347.65,1894.55" data-handle="71D70" data-layer="SCHM" style="fill:none;stroke:#5a5f68;stroke-width:.1;stroke-opacity:.6"/><path inkscape:label="SHOULDER-32" id="path2110" d="m797.33 899.22 6.96-3.64 3.73-2.65 5.73-5.39a2.39 2.39 0 0 0-2.73-3.87l-6.97 3.64-3.73 2.65-5.73 5.39a2.39 2.39 0 0 0 2.74 3.87z" data-class="shoulder" data-dxf-bulges="0.0000 0.0000 0.0000 0.8723 0.0000 0.0000 0.0000 0.8723" data-dxf-pts="5156.21,2227.48 5166.93,2305.74 5166.93,2351.74 5156.21,2430.00 5108.65,2430.00 5097.93,2351.74 5097.93,2305.74 5108.65,2227.48" data-handle="71FEF" data-layer="SCHM" style="fill:none;stroke:#5a5f68;stroke-width:.1;stroke-opacity:.6"/><path inkscape:label="SHOULDER-36" id="path2111" d="m778.4 901.88 5.73-5.38a2.4 2.4 0 0 0 .63-2.51 1 1 0 0 0-.25-.36 2.4 2.4 0 0 0-2.57-.23l-6.97 3.64-12.89 9.17-5.73 5.39a2.4 2.4 0 0 0-.63 2.5 1 1 0 0 0 .25.36 2.4 2.4 0 0 0 2.57.23l6.96-3.64z" data-class="shoulder" data-dxf-bulges="0.0000 0.2932 0.1480 0.2932 0.0000 0.0000 0.0000 0.2932 0.1480 0.2932 0.0000 0.0000" data-dxf-pts="5067.93,2056.74 5057.21,2135.00 5040.38,2154.71 5035.98,2154.71 5019.15,2135.00 5008.43,2056.74 5008.43,1897.74 5019.15,1819.48 5035.98,1799.77 5040.38,1799.77 5057.21,1819.48 5067.93,1897.74" data-handle="71FF0" data-layer="SCHM" style="fill:none;stroke:#5a5f68;stroke-width:.1;stroke-opacity:.6"/><path inkscape:label="SHOULDER-33" id="path2112" d="m764.23 922.75 6.97-3.64 12.89-9.17 5.73-5.39a2.39 2.39 0 0 0-2.73-3.87l-6.97 3.64-12.89 9.17-5.73 5.39a2.39 2.39 0 0 0 2.73 3.87z" data-class="shoulder" data-dxf-bulges="0.0000 0.0000 0.0000 0.8723 0.0000 0.0000 0.0000 0.8723" data-dxf-pts="5156.21,1819.48 5166.93,1897.74 5166.93,2056.74 5156.21,2135.00 5108.65,2135.00 5097.93,2056.74 5097.93,1897.74 5108.65,1819.48" data-handle="71FF1" data-layer="SCHM" style="fill:none;stroke:#5a5f68;stroke-width:.1;stroke-opacity:.6"/><path id="path2114" d="m780.45 972.75.89-.84a2.54 2.54 0 0 0 .52-3.03l-3.65-7-14.35-20.31-5.39-5.77a2.54 2.54 0 0 0-3.02-.51l-1.08.57" data-class="schm" data-dxf-bulges="0.0000 0.3366 0.0000 0.0000 0.0000 0.3366 0.0000 0.0000" data-dxf-pts="5659.37,1662.49 5657.70,1674.69 5635.89,1696.50 5557.43,1707.24 5307.93,1707.24 5229.47,1696.50 5207.67,1674.69 5206.00,1662.49" data-handle="71FF4" data-layer="SCHM" style="fill:none;stroke:#5a5f68;stroke-width:.1;stroke-opacity:.6"/><path id="path2138" d="M798.51 913.41a5.8 5.8 0 0 0-6.77-.03" data-class="schm" data-dxf-arc="5298.03,2099.53,58.50,108.90,180.00" data-handle="72015" data-layer="SCHM" style="fill:none;stroke:#5a5f68;stroke-width:.1;stroke-opacity:.6"/><path id="path2139" d="M798.07 914.01a5.1 5.1 0 0 0-5.9-.02" data-class="schm" data-dxf-arc="5298.03,2099.53,51.00,108.90,180.00" data-handle="72016" data-layer="SCHM" style="fill:none;stroke:#5a5f68;stroke-width:.1;stroke-opacity:.6"/><path id="line2139" d="m791.74 913.38-.09.06" data-class="schm" data-dxf-p="5239.531,2099.528 5239.531,2098.403" data-handle="72017" data-layer="SCHM" data-wgs="37.4517257,126.4455250 37.4517198,126.4455146" style="fill:none;stroke:#5a5f68;stroke-width:.1;stroke-opacity:.6"/><path id="path2140" d="M780.95 921.05a8.32 8.32 0 0 0-.05 13.56" data-class="schm" data-dxf-arc="5323.03,1966.45,83.50,180.00,288.90" data-handle="72018" data-layer="SCHM" style="fill:none;stroke:#5a5f68;stroke-width:.1;stroke-opacity:.6"/><path id="line2140" d="m791.74 913.38-10.79 7.67" data-class="schm" data-dxf-p="5239.531,2099.528 5239.531,1966.451" data-handle="72019" data-layer="SCHM" data-wgs="37.4517257,126.4455250 37.4510325,126.4442985" style="fill:none;stroke:#5a5f68;stroke-width:.1;stroke-opacity:.6"/><path id="line2141" d="m792.17 913.99-1.32.94" data-class="schm" data-dxf-p="5247.031,2099.528 5247.031,2083.247" data-handle="7201A" data-layer="SCHM" data-wgs="37.4516705,126.4455740 37.4515857,126.4454239" style="fill:none;stroke:#5a5f68;stroke-width:.1;stroke-opacity:.6"/><path id="line2142" d="m802.2 937.34 13.88 10.03" data-class="schm" data-dxf-p="5496.253,2046.370 5659.007,2102.093" data-handle="7201B" data-layer="SCHM" data-wgs="37.4495618,126.4467133 37.4486557,126.4482908" style="fill:none;stroke:#5a5f68;stroke-width:.1;stroke-opacity:.6"/><path id="line2143" d="m820.15 941.71-13.88-10.04" data-class="schm" data-dxf-p="5636.333,2168.319 5473.579,2112.596" data-handle="7201D" data-layer="SCHM" data-wgs="37.4491673,126.4487529 37.4500734,126.4471754" style="fill:none;stroke:#5a5f68;stroke-width:.1;stroke-opacity:.6"/><path id="path2143" d="M805.6 930.7a1.7 1.7 0 0 0-.67-.97" data-class="schm" data-dxf-arc="5455.59,2096.39,17.50,69.38,108.90" data-handle="7201E" data-layer="SCHM" style="fill:none;stroke:#5a5f68;stroke-width:.1;stroke-opacity:.6"/><path id="path2144" d="M805.6 930.7a1.7 1.7 0 0 0 .67.97" data-class="schm" data-dxf-arc="5467.91,2129.15,17.50,249.38,288.90" data-handle="7201F" data-layer="SCHM" style="fill:none;stroke:#5a5f68;stroke-width:.1;stroke-opacity:.6"/><path id="line2162" d="m780.89 948.05 5.92-8.25" data-class="schm" data-dxf-p="5459.952,1809.391 5426.930,1905.838" data-handle="72039" data-layer="SCHM" data-wgs="37.4485943,126.4442920 37.4493394,126.4449650" style="fill:none;stroke:#5a5f68;stroke-width:.1;stroke-opacity:.6"/><path id="path2163" d="M786.81 939.8a.75.75 0 0 0-.17-1.04" data-class="schm" data-dxf-arc="5419.83,1903.41,7.50,18.90,108.90" data-handle="7203A" data-layer="SCHM" style="fill:none;stroke:#5a5f68;stroke-width:.1;stroke-opacity:.6"/><path id="line2167" d="m804.93 929.73-7.36-5.32" data-class="schm" data-dxf-p="5449.918,2112.951 5363.603,2083.398" data-handle="7203F" data-layer="SCHM" data-wgs="37.4502492,126.4470240 37.4507297,126.4461874" style="fill:none;stroke:#5a5f68;stroke-width:.1;stroke-opacity:.6"/><path id="line2168" d="m792.57 931.37 7.37 5.32" data-class="schm" data-dxf-p="5391.460,2002.035 5477.774,2031.587" data-handle="72040" data-layer="SCHM" data-wgs="37.4501011,126.4456197 37.4496206,126.4464563" style="fill:none;stroke:#5a5f68;stroke-width:.1;stroke-opacity:.6"/><path id="line2169" d="m786.64 938.76-5.74-4.15" data-class="schm" data-dxf-p="5417.405,1910.504 5350.078,1887.453" data-handle="72041" data-layer="SCHM" data-wgs="37.4494337,126.4449458 37.4498085,126.4442932" style="fill:none;stroke:#5a5f68;stroke-width:.1;stroke-opacity:.6"/><path id="line2170" d="M803.2 949.8 781.34 934" data-class="schm" data-dxf-p="5603.957,1982.303 5347.649,1894.549" data-handle="72042" data-layer="SCHM" data-wgs="37.4484364,126.4468270 37.4498633,126.4443427" style="fill:none;stroke:#5a5f68;stroke-width:.1;stroke-opacity:.6"/><path id="line2171" d="m798.07 914.01 20.7 14.96" data-class="schm" data-dxf-p="5281.512,2147.779 5524.171,2230.859" data-handle="72043" data-layer="SCHM" data-wgs="37.4516684,126.4462441 37.4503175,126.4485961" style="fill:none;stroke:#5a5f68;stroke-width:.1;stroke-opacity:.6"/><path id="line17780" d="m801.25 936.42-8.07-5.83" data-class="schm" data-dxf-p="5483.198,2043.882 5388.589,2011.490" data-handle="75F87" data-layer="SCHM" data-wgs="37.4496448,126.4466051 37.4501715,126.4456881" style="fill:none;stroke:#5a5f68;stroke-width:.1;stroke-opacity:.6"/><path id="line17781" d="m805.08 931.08-8.07-5.83" data-class="schm" data-dxf-p="5461.821,2106.324 5367.211,2073.932" data-handle="75F88" data-layer="SCHM" data-wgs="37.4501272,126.4470408 37.4506539,126.4461238" style="fill:none;stroke:#5a5f68;stroke-width:.1;stroke-opacity:.6"/><path id="line17782" d="m802.36 936.24 14.3 10.33" data-class="schm" data-dxf-p="5488.174,2054.042 5655.832,2111.444" data-handle="75F89" data-layer="SCHM" data-wgs="37.4496611,126.4467312 37.4487278,126.4483562" style="fill:none;stroke:#5a5f68;stroke-width:.1;stroke-opacity:.6"/><path id="line17783" d="m819.57 942.52-14.31-10.33" style="baseline-shift:baseline;display:inline;overflow:visible;opacity:1;fill:none;fill-opacity:.6;stroke:#5a5f68;stroke-width:.1;stroke-dasharray:none;stroke-opacity:.6;stop-color:#000;stop-opacity:1"/><path id="line17784" d="m801.25 936.42 1.11-.18" data-class="schm" data-dxf-p="5483.198,2043.882 5488.174,2054.042" data-handle="75F8B" data-layer="SCHM" data-wgs="37.4496448,126.4466051 37.4496611,126.4467312" style="fill:none;stroke:#5a5f68;stroke-width:.1;stroke-opacity:.6"/><path id="line17785" d="m805.08 931.08.18 1.11" data-class="schm" data-dxf-p="5461.821,2106.324 5471.980,2101.347" data-handle="75F8C" data-layer="SCHM" data-wgs="37.4501272,126.4470408 37.4500266,126.4470613" style="fill:none;stroke:#5a5f68;stroke-width:.1;stroke-opacity:.6"/><path id="path17785" d="M797.01 925.25a3.29 3.29 0 0 0-3.83 5.34" data-class="schm" data-dxf-arc="5377.90,2042.71,33.00,108.90,288.90" data-handle="75F8D" data-layer="SCHM" style="fill:none;stroke:#5a5f68;stroke-width:.1;stroke-opacity:.6"/><path inkscape:label="SHOULDER-302" id="path31221" d="m753.59 936.4-.89.84a2.54 2.54 0 0 0-.51 3.04l3.64 7 14.35 20.31 4.12 4.4 1.27 1.36a2.54 2.54 0 0 0 3.02.52l1.09-.57" data-class="shoulder" data-dxf-bulges="0.0000 0.3366 0.0000 0.0000 0.0000 0.0000 0.3366 0.0000 0.0000" data-dxf-pts="5206.00,1652.99 5207.67,1640.78 5229.47,1618.98 5307.93,1608.24 5557.43,1608.24 5617.43,1616.45 5635.89,1618.98 5657.70,1640.78 5659.37,1652.99" data-handle="798EA" data-layer="SCHM" style="fill:none;stroke:#5a5f68;stroke-width:.1;stroke-opacity:.6"/><path id="path31995" d="m834.99 826.7-4.41 3.14a1.5 1.5 0 0 0-.36 2.08l7.56 10.69a2.24 2.24 0 0 1-.53 3.13l-19.82 14.09a2.13 2.13 0 0 1-3.13-.54l-2.84-4.03a1.5 1.5 0 0 0-2.08-.35l-39.34 27.97a1.5 1.5 0 0 0-.35 2.08l2.84 4.03a2.02 2.02 0 0 1-.53 3.13l-20.98 14.92a2.24 2.24 0 0 1-3.12-.53l-6.18-8.75a1.5 1.5 0 0 0-2.08-.36l-5.07 3.61" data-class="schm" data-dxf-bulges="0.0000 0.4142 0.0000 -0.4142 0.0000 -0.4458 0.0000 0.4142 0.0000 0.4142 0.0000 -0.4844 0.0000 -0.4142 0.0000 0.4142 0.0000 0.0000" data-dxf-pts="4782.17,2957.16 4782.17,2902.74 4797.17,2887.74 4928.43,2887.74 4950.93,2865.24 4950.93,2620.90 4928.43,2598.38 4878.93,2598.38 4863.93,2583.38 4863.93,2098.40 4878.93,2083.40 4928.43,2083.40 4950.93,2060.90 4950.93,1802.24 4928.43,1779.74 4820.93,1779.74 4805.93,1764.74 4805.93,1702.24" data-handle="79C55" data-layer="SCHM" style="fill:none;stroke:#5a5f68;stroke-width:.1;stroke-opacity:.6;display:inline"/><path id="path31996" d="m733.99 900.19 5.07-3.6a1.5 1.5 0 0 0 .36-2.09l-3.31-4.68a2.24 2.24 0 0 1 .53-3.13l86.22-61.3a2.24 2.24 0 0 1 3.12.53l1.94 2.75a1.5 1.5 0 0 0 2.08.35l4.42-3.14" data-class="schm" data-dxf-bulges="0.0000 0.4142 0.0000 -0.4142 0.0000 -0.4142 0.0000 0.4142 0.0000 0.0000" data-dxf-pts="4795.93,1702.24 4795.93,1764.74 4780.93,1779.74 4723.43,1779.74 4700.93,1802.24 4700.93,2865.24 4723.43,2887.74 4757.17,2887.74 4772.17,2902.74 4772.17,2957.16" data-handle="79C56" data-layer="SCHM" style="fill:none;stroke:#5a5f68;stroke-width:.1;stroke-opacity:.6"/><path id="path31998" d="m767 885.04-3.62 2.57a3 3 0 0 0-.6.62l-.66.95a3 3 0 0 1-.61.62l-2.88 2.05a3 3 0 0 1-.78.37l-1.12.3a3 3 0 0 0-.78.37l-2.85 2.03a3.4 3.4 0 0 1-4.72-.8l-.51-.74a1.5 1.5 0 0 0-2.08-.35l-3.11 2.21a1.5 1.5 0 0 0-.35 2.08l6.18 8.75a1.5 1.5 0 0 0 2.08.36l20.98-14.92a1.5 1.5 0 0 0 .36-2.09l-2.85-4.02a1.5 1.5 0 0 0-2.08-.36Z" data-class="schm" data-dxf-bulges="0.0000 0.0875 0.0000 -0.0875 0.0000 -0.0875 0.0000 0.0875 0.0000 -0.4142 0.0000 0.4142 0.0000 0.4142 0.0000 0.4142 0.0000 0.4142 0.0000 0.4142" data-dxf-pts="4863.93,2060.90 4863.93,2016.35 4865.44,2007.80 4869.42,1996.86 4870.93,1988.31 4870.93,1952.77 4869.42,1944.22 4865.44,1933.27 4863.93,1924.72 4863.93,1889.54 4829.93,1855.54 4820.93,1855.54 4805.93,1840.54 4805.93,1802.24 4820.93,1787.24 4928.43,1787.24 4943.43,1802.24 4943.43,2060.90 4928.43,2075.90 4878.93,2075.90" data-handle="79C58" data-layer="SCHM" style="fill:none;stroke:#5a5f68;stroke-width:.1;stroke-opacity:.6"/><path id="line37154" d="m798.51 913.41 22 15.87c.33.24.93.08 1.22-.18a56 56 0 0 1 5.76-4.68 59 59 0 0 1 6.44-4.03c.48-.24.52-.79.4-1.22l-7.62-25.82" style="baseline-shift:baseline;display:inline;overflow:visible;opacity:1;fill:none;fill-opacity:.6;stroke:#5a5f68;stroke-width:.1;stroke-dasharray:none;stop-color:#000;stop-opacity:1"/></g><g xmlns:inkscape="http://www.inkscape.org/namespaces/inkscape" inkscape:label="TWY" id="layer-centerlines" style="display:inline"><g inkscape:label="TWY-R8" id="g1053"><path inkscape:label="TWY-R8-02" id="path996" d="m756.26 919.46 33.1-23.53" style="display:inline;stroke:#e6d24c;stroke-width:.1;stroke-dasharray:none"/></g><g inkscape:label="TWY-AS" id="g1059"><path id="path1054" d="m780.19 891.49-28.5 20.27" style="display:inline;stroke:#e6d24c;stroke-width:.1;stroke-dasharray:none"/></g><g inkscape:label="TWY-R7" id="g996"><path inkscape:label="TWY-R7-03" id="path41" d="m795.17 903.9 23.7-16.84" style="display:inline;stroke:#e6d24c;stroke-width:.1;stroke-dasharray:none"/><path inkscape:label="TWY-R7-02" id="path5" d="m762.06 927.44 33.1-23.54" style="display:inline;stroke:#e6d24c;stroke-width:.1;stroke-dasharray:none"/></g><g inkscape:label="TWY-JCT-R4-M7" id="g148" style="display:inline"><path inkscape:label="TWY-JCT-R4-M7-02" id="path37632" d="M764.61 929.84a5.1 5.1 0 0 0-5.9-.02" data-class="centerline-twy" data-dxf-arc="5232.93,1733.18,51.00,108.90,180.00" data-handle="70D63" data-layer="항공기동선" style="fill:none;stroke:#e6d24c;stroke-width:.1"/></g><g inkscape:label="TWY-JCT-R4-R7" id="g70" style="display:inline"><path inkscape:label="TWY-JCT-R4-R7-02" id="path37634" d="M759.11 923.48a4.93 4.93 0 0 0 6.87 1.18" data-class="centerline-twy" data-dxf-arc="5132.43,1822.73,49.50,270.00,0.00" data-handle="70D65" data-layer="항공기동선" style="fill:none;stroke:#e6d24c;stroke-width:.1"/><path inkscape:label="TWY-JCT-R4-R7-01" id="path37638" d="M777.62 916.38a14 14 0 0 0-.08 22.8" data-class="centerline-twy" data-dxf-arc="5322.43,1966.24,140.50,180.00,288.90" data-handle="70D6A" data-layer="항공기동선" style="fill:none;stroke:#e6d24c;stroke-width:.1"/></g><g inkscape:label="TWY-JCT-R3-R8" id="g10" style="display:inline"><path inkscape:label="TWY-JCT-R3-R8-04" id="path37622" d="M792.21 899.95a4.93 4.93 0 0 0-6.87-1.17" data-class="centerline-twy" data-dxf-arc="5132.43,2131.73,49.50,90.00,180.00" data-handle="70D57" data-layer="항공기동선" style="fill:none;stroke:#e6d24c;stroke-width:.1"/><path inkscape:label="TWY-JCT-R3-R8-01" id="path37625" d="M785.34 898.78a4.93 4.93 0 0 0 1.17-6.89" data-class="centerline-twy" data-dxf-arc="5033.43,2131.73,49.50,0.00,90.00" data-handle="70D5A" data-layer="항공기동선" style="fill:none;stroke:#e6d24c;stroke-width:.1"/><path inkscape:label="TWY-JCT-R3-R8-03" id="path37650" d="M793.37 893.07a4.93 4.93 0 0 0-1.16 6.88" data-class="centerline-twy" data-dxf-arc="5132.43,2230.73,49.50,180.00,270.00" data-handle="70D78" data-layer="항공기동선" style="fill:none;stroke:#e6d24c;stroke-width:.1"/></g><g inkscape:label="TWY-JCT-R7-R3" id="g9" style="display:inline"><path inkscape:label="TWY-JCT-R7-R3-03" id="path37623" d="M801.77 908.76a11.5 11.5 0 0 0-13.36-.06" data-class="centerline-twy" data-dxf-arc="5297.43,2099.31,115.50,108.90,180.00" data-handle="70D58" data-layer="항공기동선" style="fill:none;stroke:#e6d24c;stroke-width:.1"/><path inkscape:label="TWY-JCT-R7-R3-02" id="path37624" d="M791.04 906.84a4.93 4.93 0 0 0 1.17-6.89" data-class="centerline-twy" data-dxf-arc="5132.43,2131.73,49.50,0.00,90.00" data-handle="70D59" data-layer="항공기동선" style="fill:none;stroke:#e6d24c;stroke-width:.1;display:inline"/><path inkscape:label="TWY-JCT-R7-R3-01" id="path37652" d="M792.21 899.95a4.93 4.93 0 0 0 6.86 1.18" data-class="centerline-twy" data-dxf-arc="5132.43,2230.73,49.50,270.00,0.00" data-handle="70D7A" data-layer="항공기동선" style="fill:none;stroke:#e6d24c;stroke-width:.1;display:inline"/><path inkscape:label="TWY-JCT-R7-R3-04" id="path37655" d="M803.73 897.81a7.57 7.57 0 0 0-.04 12.34" data-class="centerline-twy" data-dxf-arc="5257.93,2288.20,76.00,180.00,288.90" data-handle="70D7D" data-layer="항공기동선" style="fill:none;stroke:#e6d24c;stroke-width:.1"/></g><g inkscape:label="TWY-R2" id="g7" style="display:inline"/><g inkscape:label="TWY-R3" id="g8" style="display:inline"><path inkscape:label="TWY-R3-05" id="line37649" d="m794.22 902.8-7.16-10.13" data-class="centerline-twy" data-dxf-p="5167.462,2181.230 5042.929,2181.230" data-handle="70D77" data-layer="항공기동선" data-wgs="37.4526810,126.4458068 37.4535963,126.4449926" style="fill:none;stroke:#e6d24c;stroke-width:.1"/><path inkscape:label="TWY-R3-04" id="path37651" d="M794.22 902.8a8 8 0 0 0 1.75 1.77" data-class="centerline-twy" data-dxf-arc="5167.46,2257.23,76.00,270.00,288.90" data-handle="70D79" data-layer="항공기동선" style="fill:none;stroke:#e6d24c;stroke-width:.1"/><path inkscape:label="TWY-R3-03" id="line37659" d="m795.97 904.57 21.7 15.68" data-class="centerline-twy" data-dxf-p="5192.080,2185.328 5446.491,2272.432" data-handle="70D82" data-layer="항공기동선" data-wgs="37.4525213,126.4460055 37.4511050,126.4484714" style="fill:none;stroke:#e6d24c;stroke-width:.1"/></g><g inkscape:label="TWY-R1" id="g108" style="display:inline"/><g inkscape:label="TWY-R6" id="g72" style="display:inline"><path inkscape:label="TWY-R6-04" id="line37531" d="m791.24 977.72-30.48-43.12" data-class="centerline-twy" data-dxf-p="5762.773,1722.230 5232.929,1722.230" data-handle="70CE2" data-layer="항공기동선" data-wgs="37.4459145,126.4454684 37.4498089,126.4420046" style="fill:none;stroke:#e6d24c;stroke-width:.1"/></g><g inkscape:label="LEAD-STD127" id="g127" style="display:inline"><path inkscape:label="LEAD-STD127-01" id="path38162" d="M767.02 900.94a3.64 3.64 0 0 0-3.34-3.91" data-class="centerline-twy" data-dxf-arc="4970.78,1940.79,36.50,50.25,140.25" data-handle="70FFE" data-layer="항공기동선" style="fill:none;stroke:#e6d24c;stroke-width:.1"/><path inkscape:label="LEAD-STD127-02" id="path38167" d="M763.68 897.03a3.64 3.64 0 0 0 2.58 4.46" data-class="centerline-twy" data-dxf-arc="4970.78,1987.47,36.50,219.75,309.75" data-handle="71005" data-layer="항공기동선" style="fill:none;stroke:#e6d24c;stroke-width:.1"/></g><g inkscape:label="TWY-STD1-50" id="g877" style="display:inline"><g inkscape:label="TWY-STD33" id="g51" style="display:inline"><path inkscape:label="TWY-LEAD-STD33-02" id="path38086" d="M801.1 913.79a3.64 3.64 0 0 0 2.48-3.72" data-class="centerline-twy" data-dxf-arc="5262.43,2184.62,36.50,343.02,58.90" data-handle="70F93" data-layer="항공기동선" style="fill:none;stroke:#e6d24c;stroke-width:.1"/><path inkscape:label="TWY-LEAD-STD33-01" id="path38100" d="M801.8 912.02a5 5 0 0 0-.3-4.33" data-class="centerline-twy" data-dxf-arc="5244.22,2161.95,51.00,33.27,83.80" data-handle="70FA5" data-layer="항공기동선" style="fill:none;stroke:#e6d24c;stroke-width:.1"/><path inkscape:label="TWY-STD33" id="path908" d="m800.68 914.9-2.36 6.53" style="baseline-shift:baseline;display:inline;overflow:visible;opacity:1;fill:none;stroke:#e6d24c;stroke-width:.1;stroke-dasharray:none;stroke-opacity:1;stop-color:#000;stop-opacity:1"/><path inkscape:label="TWY-LEAD-STD33-03" id="line38100" d="m801.8 912.02-1.12 2.87" style="baseline-shift:baseline;display:inline;overflow:visible;opacity:1;fill:none;stroke:#e6d24c;stroke-width:.1;stroke-dasharray:none;stroke-opacity:1;stop-color:#000;stop-opacity:1"/><path inkscape:label="TWY-LEAD-STD33-04" id="path38101" d="M802.94 909.61a3.64 3.64 0 0 0-2.27 5.28" data-class="centerline-twy" data-dxf-arc="5307.95,2200.33,36.50,159.15,263.52" data-handle="70FA7" data-layer="항공기동선" style="fill:none;stroke:#e6d24c;stroke-width:.1"/></g><g inkscape:label="TWY-STD36" id="g54" style="display:inline"><path inkscape:label="TWY-LEAD-STD36-01" id="path38103" d="M776.19 920.84a5.2 5.2 0 0 0-5.31.33" data-class="centerline-twy" data-dxf-arc="5233.62,1883.40,51.00,117.50,180.00" data-handle="70FAA" data-layer="항공기동선" style="fill:none;stroke:#e6d24c;stroke-width:.1"/><path inkscape:label="TWY-LEAD-STD36-03" id="path38104" d="M774.43 919.62a3.64 3.64 0 0 0 5.02 2.9" data-class="centerline-twy" data-dxf-arc="5207.16,1953.44,36.50,241.80,347.75" data-handle="70FAB" data-layer="항공기동선" style="fill:none;stroke:#e6d24c;stroke-width:.1"/><path inkscape:label="TWY-LEAD-STD36-04" id="path38105" d="M778.95 922.26a3.64 3.64 0 0 0-4.45-2.73" data-class="centerline-twy" data-dxf-arc="5223.63,1909.39,36.50,67.25,159.09" data-handle="70FAC" data-layer="항공기동선" style="fill:none;stroke:#e6d24c;stroke-width:.1"/><path inkscape:label="TWY-LEAD-STD36-02" id="path930" d="m778.95 922.26-2.76-1.42" style="baseline-shift:baseline;display:inline;overflow:visible;opacity:1;fill:none;stroke:#e6d24c;stroke-width:.1;stroke-dasharray:none;stroke-opacity:1;stop-color:#000;stop-opacity:1"/><path inkscape:label="TWY-STD36" id="line38112" d="m786.55 926.4-7.6-4.14" style="baseline-shift:baseline;display:inline;overflow:visible;opacity:1;fill:none;stroke:#e6d24c;stroke-width:.1;stroke-dasharray:none;stroke-opacity:1;stop-color:#000;stop-opacity:1"/></g><g inkscape:label="TWY-STD34" id="g52" style="display:inline"><path inkscape:label="TWY-LEAD-STD34-05" id="line38101" d="m793.12 903.09-.2 5.08" style="baseline-shift:baseline;display:inline;overflow:visible;opacity:1;fill:none;stroke:#e6d24c;stroke-width:.1;stroke-dasharray:none;stroke-opacity:1;stop-color:#000;stop-opacity:1"/><path inkscape:label="TWY-LEAD-STD34-01" id="path38102" d="M795.03 904a5.2 5.2 0 0 0-2.09 4.76" data-class="centerline-twy" data-dxf-arc="5233.62,2180.68,51.00,180.00,240.81" data-handle="70FA9" data-layer="항공기동선" style="fill:none;stroke:#e6d24c;stroke-width:.1"/><path inkscape:label="TWY-LEAD-STD34-02" id="path909" d="m793.34 912.44-.4-3.68" style="baseline-shift:baseline;display:inline;overflow:visible;opacity:1;fill:none;stroke:#e6d24c;stroke-width:.1;stroke-dasharray:none;stroke-opacity:1;stop-color:#000;stop-opacity:1"/><path inkscape:label="TWY-STD34" id="line38115" d="m794.04 918.5-.7-6.06" style="baseline-shift:baseline;display:inline;overflow:visible;opacity:1;fill:none;stroke:#e6d24c;stroke-width:.1;stroke-dasharray:none;stroke-opacity:1;stop-color:#000;stop-opacity:1"/><path inkscape:label="TWY-LEAD-STD34-03" id="path38176" d="M792.74 906.83a3.7 3.7 0 0 0 .6 5.61" data-class="centerline-twy" data-dxf-arc="5228.01,2152.13,36.50,191.13,291.05" data-handle="71012" data-layer="항공기동선" style="fill:none;stroke:#e6d24c;stroke-width:.1"/><path inkscape:label="TWY-LEAD-STD34-04" id="path38177" d="M793.39 912.83a3.7 3.7 0 0 0-1.19-5.88" data-class="centerline-twy" data-dxf-arc="5208.78,2109.40,36.50,10.72,120.02" data-handle="71013" data-layer="항공기동선" style="fill:none;stroke:#e6d24c;stroke-width:.1"/></g><g inkscape:label="TWY-STD37" id="g55" style="display:inline"><path inkscape:label="TWY-LEAD-STD37-02" id="path37631-5" d="M763.1 928.73a5 5 0 0 0 2.6.88" data-class="centerline-twy" data-dxf-arc="5179.80,1849.23,76.00,270.00,288.90" data-handle="70D62" data-layer="항공기동선" style="fill:none;stroke:#e6d24c;stroke-width:.1"/><path inkscape:label="TWY-LEAD-STD37-01" id="path37631-5-0" d="M762.84 929.03c1.02.11 1.77.57 2.86.58" data-class="centerline-twy" data-dxf-arc="5179.80,1849.23,76.00,270.00,288.90" data-handle="70D62" data-layer="항공기동선" style="fill:none;stroke:#e6d24c;stroke-width:.1"/><path inkscape:label="TWY-LEAD-STD37-04" id="path38098" d="M778.35 930.55a3.64 3.64 0 0 0-6.23.55" data-class="centerline-twy" data-dxf-arc="5302.19,1853.60,36.50,90.18,209.28" data-handle="70FA3" data-layer="항공기동선" style="fill:none;stroke:#e6d24c;stroke-width:.1"/><path inkscape:label="TWY-LEAD-STD37-05" id="path38099" d="M772.04 930.74a3.64 3.64 0 0 0 4.89-.3" data-class="centerline-twy" data-dxf-arc="5257.08,1872.29,36.50,285.71,10.68" data-handle="70FA4" data-layer="항공기동선" style="fill:none;stroke:#e6d24c;stroke-width:.1"/><path inkscape:label="TWY-LEAD-STD37-03" id="path912" d="m777.85 930.5-12.15-.89" style="baseline-shift:baseline;display:inline;overflow:visible;opacity:1;fill:none;stroke:#e6d24c;stroke-width:.1;stroke-dasharray:none;stroke-opacity:1;stop-color:#000;stop-opacity:1"/><path inkscape:label="TWY-STD37" id="line38178" d="m786.83 931.2-8.98-.7" style="baseline-shift:baseline;display:inline;overflow:visible;opacity:1;fill:none;stroke:#e6d24c;stroke-width:.1;stroke-dasharray:none;stroke-opacity:1;stop-color:#000;stop-opacity:1"/></g><g inkscape:label="TWY-STD35" id="g53" style="display:inline"><path inkscape:label="TWY-LEAD-STD34-02" id="path38174" d="M785.61 916.91a3.64 3.64 0 0 0-2.63-4.25" data-class="centerline-twy" data-dxf-arc="5206.08,2003.79,36.50,43.16,129.75" data-handle="71010" data-layer="항공기동선" style="fill:none;stroke:#e6d24c;stroke-width:.1"/><path inkscape:label="TWY-LEAD-STD34-01" id="path38175" d="M782.22 913.2a3.64 3.64 0 0 0 3.56 3.92" data-class="centerline-twy" data-dxf-arc="5206.08,2050.55,36.50,230.25,323.66" data-handle="71011" data-layer="항공기동선" style="fill:none;stroke:#e6d24c;stroke-width:.1"/><path inkscape:label="TWY-STD35" id="line38186" d="m789.93 922.35-4.34-5.52" style="baseline-shift:baseline;display:inline;overflow:visible;opacity:1;fill:none;stroke:#e6d24c;stroke-width:.1;stroke-dasharray:none;stroke-opacity:1;stop-color:#000;stop-opacity:1"/></g><g inkscape:label="TWY-STD39" id="g57" style="display:inline"><path inkscape:label="TWY-STD39" id="line38082" d="m794.5 935.36-4.49 6.52" style="baseline-shift:baseline;display:inline;overflow:visible;opacity:1;fill:none;stroke:#e6d24c;stroke-width:.1;stroke-dasharray:none;stroke-opacity:1;stop-color:#000;stop-opacity:1"/></g><g inkscape:label="TWY-STD40" id="g58" style="display:inline"><path inkscape:label="TWY-STD40" id="line38081" d="m800.48 939.56-4.54 6.61" style="baseline-shift:baseline;display:inline;overflow:visible;opacity:1;fill:none;stroke:#e6d24c;stroke-width:.1;stroke-dasharray:none;stroke-opacity:1;stop-color:#000;stop-opacity:1"/></g><g inkscape:label="TWY-STD31" id="g49" style="display:inline"><path inkscape:label="TWY-STD31" id="line38078" d="m813.3 923.4-4.49 6.41" style="baseline-shift:baseline;display:inline;overflow:visible;opacity:1;fill:none;stroke:#e6d24c;stroke-width:.1;stroke-dasharray:none;stroke-opacity:1;stop-color:#000;stop-opacity:1"/></g><g inkscape:label="TWY-STD38" id="g56" style="display:inline"><path inkscape:label="TWY-LEAD-STD38-03" id="path38082" d="M784.36 936.92a3.64 3.64 0 0 0-4.87 3.67" data-class="centerline-twy" data-dxf-arc="5409.79,1872.31,36.50,124.43,238.65" data-handle="70F8B" data-layer="항공기동선" style="fill:none;stroke:#e6d24c;stroke-width:.1"/><path inkscape:label="TWY-LEAD-STD38-02" id="path38083" d="M779.89 940.88a3.6 3.6 0 0 0 2.66-2.91" data-class="centerline-twy" data-dxf-arc="5361.36,1855.73,36.50,339.15,44.93" data-handle="70F8C" data-layer="항공기동선" style="fill:none;stroke:#e6d24c;stroke-width:.1"/><path inkscape:label="TWY-LEAD-STD38-01" id="path913" d="m784.36 936.93-1.81 1.04" style="baseline-shift:baseline;display:inline;overflow:visible;opacity:1;fill:none;stroke:#e6d24c;stroke-width:.1;stroke-dasharray:none;stroke-opacity:1;stop-color:#000;stop-opacity:1"/><path inkscape:label="TWY-STD38" id="line38228" d="m789.62 933.96-5.26 2.97" style="baseline-shift:baseline;display:inline;overflow:visible;opacity:1;fill:none;stroke:#e6d24c;stroke-width:.1;stroke-dasharray:none;stroke-opacity:1;stop-color:#000;stop-opacity:1"/></g><g inkscape:label="TWY-STD32" id="g50" style="display:inline"><path inkscape:label="TWY-STD32" id="line38083" d="m807.42 919.16-4.5 6.1" style="baseline-shift:baseline;display:inline;overflow:visible;opacity:1;fill:none;stroke:#e6d24c;stroke-width:.1;stroke-dasharray:none;stroke-opacity:1;stop-color:#000;stop-opacity:1"/><path inkscape:label="TWY-LEAD-STD32-02" id="path38212" d="M807.43 919.16a3.64 3.64 0 0 0 3.36-3.89" data-class="centerline-twy" data-dxf-arc="5346.81,2213.60,36.50,328.75,58.75" data-handle="71040" data-layer="항공기동선" style="fill:none;stroke:#e6d24c;stroke-width:.1"/><path inkscape:label="TWY-LEAD-STD32-01" id="path38233" d="M810.02 914.72a3.64 3.64 0 0 0-2.6 4.44" data-class="centerline-twy" data-dxf-arc="5390.95,2228.80,36.50,159.26,249.15" data-handle="7105A" data-layer="항공기동선" style="fill:none;stroke:#e6d24c;stroke-width:.1"/></g></g><path inkscape:label="TWY-M" id="line38837" d="m549.25 657.8 229.81 324.93Z" style="baseline-shift:baseline;display:inline;overflow:visible;fill:none;stroke:#e6d24c;stroke-width:.1;stroke-dasharray:none;stroke-opacity:1;stop-color:#000"/><path inkscape:label="TWY-B-01" id="line38839" d="m698.93 596.87 224.76 317.89Z" style="baseline-shift:baseline;display:inline;overflow:visible;opacity:1;fill:none;stroke:#e6d24c;stroke-width:.1;stroke-dasharray:none;stroke-opacity:1;stop-color:#000;stop-opacity:1"/><g inkscape:label="TWY-R4" id="g316" style="display:inline"><path inkscape:label="TWY-R4-05" id="line37530" d="m763.59 929.1 31.42 22.71" data-class="centerline-twy" data-dxf-p="5204.420,1777.328 5572.818,1903.459" data-handle="70CE1" data-layer="항공기동선" data-wgs="37.4503055,126.4423260 37.4482546,126.4458968" style="fill:none;stroke:#e6d24c;stroke-width:.1;display:inline"/></g><g inkscape:label="TWY-N" id="g519"><path inkscape:label="TWY-N-02" id="polyline39225" d="M775.93 997.26 547.36 674.08" style="baseline-shift:baseline;display:inline;overflow:visible;opacity:1;fill:none;stroke:#e6d24c;stroke-width:.1;stroke-dasharray:none;stroke-opacity:1;stop-color:#000;stop-opacity:1"/></g></g><g xmlns:inkscape="http://www.inkscape.org/namespaces/inkscape" inkscape:label="STOP" id="g1004"><path inkscape:label="STB-R7-HS-R4-01" id="path1141" d="m701.16 999.5 3.85 5.67" style="opacity:1;fill:none;fill-opacity:1;stroke:#ff1a00;stroke-width:.222193;stroke-miterlimit:4;stroke-dasharray:.444385,.222193;stroke-dashoffset:.0888772;stroke-opacity:1" transform="translate(291.951 247.446)scale(.67509)"/><path inkscape:label="STB-R7-HS-R3-02" id="path1142" d="m750.16 964.65 4.1 5.96" style="opacity:1;fill:none;fill-opacity:1;stroke:#ff1a00;stroke-width:.222193;stroke-miterlimit:4;stroke-dasharray:.444385,.222193;stroke-dashoffset:.0888772;stroke-opacity:1" transform="translate(291.951 247.446)scale(.67509)"/><path inkscape:label="STB-R7-HS-R3-01" id="path1136" d="m789.02 905.3 2.54 3.87" style="opacity:1;fill:none;fill-opacity:1;stroke:#ff1a00;stroke-width:.15;stroke-miterlimit:4;stroke-dasharray:.3,.15;stroke-dashoffset:.0600001;stroke-opacity:1"/><path inkscape:label="STB-R8-HS-R3-02" id="path1137" d="m786 901.25-2.67-4" style="opacity:1;fill:none;fill-opacity:1;stroke:#ff1a00;stroke-width:.15;stroke-miterlimit:4;stroke-dasharray:.3,.15;stroke-dashoffset:.0600001;stroke-opacity:1"/></g><g xmlns:inkscape="http://www.inkscape.org/namespaces/inkscape" inkscape:label="STD1-50" id="g927" style="display:inline;stroke:#5b5e67"><rect inkscape:label="STD31" id="rect340-5-9-6-8-9-3-8-2-7-8-5-4-7-0-8-5-9-2-6-7-1-1-2-7-9-8-4-2-9-0-7-5-9" width="3.636" height="5.082" x="1194.055" y="293.147" ry=".584" style="display:inline;fill:none;stroke:#5b5e67;stroke-width:.0886843;stroke-linecap:round;stroke-linejoin:round;stroke-miterlimit:5;stroke-dasharray:none;stroke-dashoffset:0;paint-order:stroke fill markers" transform="rotate(35.003)"/><rect inkscape:label="STD32" id="rect340-5-9-6-8-9-3-8-2-7-8-5-4-7-0-8-5-9-2-6-7-1-1-2-7-9-8-4-2-9-0-7-5-9-2" width="3.636" height="5.082" x="1194.984" y="256.928" ry=".584" style="display:inline;fill:none;stroke:#5b5e67;stroke-width:.0886843;stroke-linecap:round;stroke-linejoin:round;stroke-miterlimit:5;stroke-dasharray:none;stroke-dashoffset:0;paint-order:stroke fill markers" transform="rotate(36.723)"/><rect inkscape:label="STD33" id="rect340-5-9-6-8-9-3-8-2-7-8-5-4-7-0-8-5-9-2-6-7-1-1-2-7-9-8-4-2-9-0-7-5-9-2-9" width="3.636" height="5.082" x="1061.412" y="591.991" ry=".584" style="display:inline;fill:none;stroke:#5b5e67;stroke-width:.0886843;stroke-linecap:round;stroke-linejoin:round;stroke-miterlimit:5;stroke-dasharray:none;stroke-dashoffset:0;paint-order:stroke fill markers" transform="rotate(19.798)"/><rect inkscape:label="STD35" id="rect340-5-9-6-8-9-3-8-2-7-8-5-4-7-0-8-5-9-2-6-7-1-1-2-7-9-8-4-2-9-0-7-5-9-2-9-8" width="3.636" height="5.082" x="50.001" y="1208.821" ry=".584" style="display:inline;fill:none;stroke:#5b5e67;stroke-width:.0886843;stroke-linecap:round;stroke-linejoin:round;stroke-miterlimit:5;stroke-dasharray:none;stroke-dashoffset:0;paint-order:stroke fill markers" transform="rotate(-38.132)"/><rect inkscape:label="STD36" id="rect340-5-9-6-8-9-3-8-2-7-8-5-4-7-0-8-5-9-2-6-7-1-1-2-7-9-8-4-2-9-0-7-5-9-2-9-8-7" width="3.636" height="5.082" x="-441.79" y="1128.285" ry=".584" style="display:inline;fill:none;stroke:#5b5e67;stroke-width:.0886843;stroke-linecap:round;stroke-linejoin:round;stroke-miterlimit:5;stroke-dasharray:none;stroke-dashoffset:0;paint-order:stroke fill markers" transform="rotate(-61.559)"/><rect inkscape:label="STD37" id="rect340-5-9-6-8-9-3-8-2-7-8-5-4-7-0-8-5-9-2-6-7-1-1-2-7-9-8-4-2-9-0-7-5-9-2-9-8-7-5" width="3.636" height="5.082" x="-870.236" y="850.951" ry=".584" style="display:inline;fill:none;stroke:#5b5e67;stroke-width:.0886843;stroke-linecap:round;stroke-linejoin:round;stroke-miterlimit:5;stroke-dasharray:none;stroke-dashoffset:0;paint-order:stroke fill markers" transform="rotate(-85.622)"/><rect inkscape:label="STD38" id="rect340-5-9-6-8-9-3-8-2-7-8-5-4-7-0-8-5-9-2-6-7-1-1-2-7-9-8-4-2-9-0-7-5-9-2-9-8-7-5-7" width="3.636" height="5.082" x="-1203.105" y="225.3" ry=".584" style="display:inline;fill:none;stroke:#5b5e67;stroke-width:.0886843;stroke-linecap:round;stroke-linejoin:round;stroke-miterlimit:5;stroke-dasharray:none;stroke-dashoffset:0;paint-order:stroke fill markers" transform="rotate(-119.395)"/><rect inkscape:label="STD39" id="rect340-5-9-6-8-9-3-8-2-7-8-5-4-7-0-8-5-9-2-6-7-1-1-2-7-9-8-4-2-9-0-7-5-9-2-9-8-7-5-7-7" width="3.636" height="5.082" x="-1187.484" y="-321.488" ry=".584" style="display:inline;fill:none;stroke:#5b5e67;stroke-width:.0886843;stroke-linecap:round;stroke-linejoin:round;stroke-miterlimit:5;stroke-dasharray:none;stroke-dashoffset:0;paint-order:stroke fill markers" transform="rotate(-145.304)"/><rect inkscape:label="STD40" id="rect340-5-9-6-8-9-3-8-2-7-8-5-4-7-0-8-5-9-2-6-7-1-1-2-7-9-8-4-2-9-0-7-5-9-2-9-8-7-5-7-7-7" width="3.636" height="5.082" x="-1194.865" y="-321.38" ry=".584" style="display:inline;fill:none;stroke:#5b5e67;stroke-width:.0886843;stroke-linecap:round;stroke-linejoin:round;stroke-miterlimit:5;stroke-dasharray:none;stroke-dashoffset:0;paint-order:stroke fill markers" transform="rotate(-145.304)"/><rect inkscape:label="STD34" id="rect340-7-9-0-7-2-8-66-2-8-1-4" width="2.879" height="4.025" x="-697.55" y="-994.94" ry=".462" style="display:inline;fill:none;stroke:#5b5e67;stroke-width:.1;stroke-linecap:round;stroke-linejoin:round;stroke-miterlimit:5;stroke-dasharray:none;stroke-dashoffset:0;paint-order:stroke fill markers" transform="rotate(174.142)"/></g><g xmlns:inkscape="http://www.inkscape.org/namespaces/inkscape" inkscape:label="STD101-132" id="g961" style="display:inline;stroke:#5b5e67"/><g xmlns:inkscape="http://www.inkscape.org/namespaces/inkscape" inkscape:label="S1-S7" id="g1052"/><g xmlns:inkscape="http://www.inkscape.org/namespaces/inkscape" id="layer-stand-labels" inkscape:label="STAND-LABELS" inkscape:groupmode="layer" style="font-family:Arial,Helvetica,sans-serif;font-weight:700;text-anchor:middle"><text x="808.75" y="932.20" style="fill:none;stroke:#0a0e1a;stroke-width:.8;stroke-linejoin:round;font-size:2.1px" id="lbl-31-h">31</text><text x="808.75" y="932.20" style="fill:#ffffff;stroke:none;font-size:2.1px" id="lbl-31">31</text><text x="802.48" y="927.44" style="fill:none;stroke:#0a0e1a;stroke-width:.8;stroke-linejoin:round;font-size:2.1px" id="lbl-32-h">32</text><text x="802.48" y="927.44" style="fill:#ffffff;stroke:none;font-size:2.1px" id="lbl-32">32</text><text x="798.15" y="923.47" style="fill:none;stroke:#0a0e1a;stroke-width:.8;stroke-linejoin:round;font-size:2.1px" id="lbl-33-h">33</text><text x="798.15" y="923.47" style="fill:#ffffff;stroke:none;font-size:2.1px" id="lbl-33">33</text><text x="794.33" y="920.32" style="fill:none;stroke:#0a0e1a;stroke-width:.8;stroke-linejoin:round;font-size:2.1px" id="lbl-34-h">34</text><text x="794.33" y="920.32" style="fill:#ffffff;stroke:none;font-size:2.1px" id="lbl-34">34</text><text x="791.22" y="923.75" style="fill:none;stroke:#0a0e1a;stroke-width:.8;stroke-linejoin:round;font-size:2.1px" id="lbl-35-h">35</text><text x="791.22" y="923.75" style="fill:#ffffff;stroke:none;font-size:2.1px" id="lbl-35">35</text><text x="787.43" y="927.41" style="fill:none;stroke:#0a0e1a;stroke-width:.8;stroke-linejoin:round;font-size:2.1px" id="lbl-36-h">36</text><text x="787.43" y="927.41" style="fill:#ffffff;stroke:none;font-size:2.1px" id="lbl-36">36</text><text x="787.79" y="931.29" style="fill:none;stroke:#0a0e1a;stroke-width:.8;stroke-linejoin:round;font-size:2.1px" id="lbl-37-h">37</text><text x="787.79" y="931.29" style="fill:#ffffff;stroke:none;font-size:2.1px" id="lbl-37">37</text><text x="790.92" y="933.94" style="fill:none;stroke:#0a0e1a;stroke-width:.8;stroke-linejoin:round;font-size:2.1px" id="lbl-38-h">38</text><text x="790.92" y="933.94" style="fill:#ffffff;stroke:none;font-size:2.1px" id="lbl-38">38</text><text x="795.10" y="935.34" style="fill:none;stroke:#0a0e1a;stroke-width:.8;stroke-linejoin:round;font-size:2.1px" id="lbl-39-h">39</text><text x="795.10" y="935.34" style="fill:#ffffff;stroke:none;font-size:2.1px" id="lbl-39">39</text><text x="801.00" y="939.83" style="fill:none;stroke:#0a0e1a;stroke-width:.8;stroke-linejoin:round;font-size:2.1px" id="lbl-40-h">40</text><text x="801.00" y="939.83" style="fill:#ffffff;stroke:none;font-size:2.1px" id="lbl-40">40</text></g><g xmlns:inkscape="http://www.inkscape.org/namespaces/inkscape" id="layer-points" inkscape:label="POINT-LABELS" inkscape:groupmode="layer"><g id="pt-4" transform="translate(804.50,909.43)"><circle r="0.58" fill="#e01b0f" stroke="#ffffff" stroke-width=".08"/><text y="0.22" text-anchor="middle" font-family="Arial,Helvetica,sans-serif" font-weight="700" font-size="0.62px" letter-spacing=".03" fill="#ffffff">4</text></g></g></g></g><path d="M786.47 922.32L786.45 922.22L786.43 922.12L786.41 922.02L786.39 921.92L786.37 921.82L786.35 921.72L786.33 921.62L786.31 921.52L786.29 921.42L786.27 921.32L786.25 921.22L786.23 921.12L786.21 921.02L786.19 920.92L786.16 920.82L786.14 920.72L786.12 920.62L786.10 920.52L786.08 920.42L786.06 920.32L786.04 920.22L786.02 920.12L786.00 920.02L785.98 919.92L785.96 919.82L785.94 919.72L785.92 919.62L785.90 919.52L785.88 919.42L785.86 919.32L785.84 919.22L785.82 919.12L785.80 919.02L785.78 918.92L785.76 918.82L785.74 918.72L785.72 918.62L785.70 918.52L785.68 918.42L785.66 918.32L785.64 918.22L785.62 918.12L785.60 918.02L785.58 917.92L785.56 917.82L785.54 917.72L785.52 917.62L785.50 917.52L785.46 917.32L785.43 917.12L785.40 916.93L785.37 916.74L785.35 916.55L785.34 916.36L785.32 916.18L785.32 916.00L785.32 915.82L785.32 915.65L785.33 915.48L785.34 915.31L785.35 915.15L785.38 914.99L785.40 914.83L785.44 914.67L785.47 914.52L785.51 914.37L785.56 914.23L785.61 914.08L785.67 913.94L785.73 913.81L785.80 913.67L785.88 913.54L785.96 913.41L786.04 913.29L786.13 913.17L786.23 913.05L786.33 912.93L786.43 912.82L786.55 912.71L786.67 912.60L786.79 912.50L786.92 912.40L787.06 912.30L787.20 912.20L787.35 912.11L787.50 912.02L787.66 911.93L787.82 911.85L788.00 911.76L788.17 911.68L788.36 911.61L788.55 911.53L788.75 911.46L788.95 911.40L789.16 911.33L789.38 911.27L789.66 911.19L789.94 911.12L790.22 911.06L790.49 911.00L790.76 910.95L791.03 910.90L791.29 910.86L791.55 910.83L791.80 910.80L792.05 910.78L792.30 910.76L792.55 910.74L792.79 910.73L793.03 910.73L793.26 910.73L793.49 910.73L793.71 910.74L793.93 910.75L794.15 910.76L794.37 910.78L794.58 910.80L794.78 910.83L794.98 910.86L795.18 910.89L795.38 910.92L795.57 910.96L795.75 911.00L795.93 911.04L796.11 911.08L796.28 911.13L796.45 911.17L796.62 911.22L796.78 911.27L796.93 911.32L797.09 911.37L797.23 911.43L797.38 911.48L797.51 911.53L797.65 911.59L797.78 911.64L797.90 911.70L798.03 911.75L798.14 911.81L798.25 911.86L798.36 911.92L798.46 911.97L798.56 912.02L798.65 912.07L798.99 912.27L799.32 912.46L799.64 912.66L799.94 912.86L800.23 913.07L800.51 913.27L800.77 913.48L801.02 913.68L801.27 913.89L801.50 914.10L801.72 914.30L801.92 914.51L802.12 914.72L802.31 914.92L802.49 915.12L802.66 915.32L802.82 915.52L802.97 915.72L803.11 915.91L803.25 916.10L803.37 916.28L803.49 916.47L803.60 916.65L803.70 916.82L803.80 916.99L803.89 917.15L803.97 917.31L804.05 917.46L804.12 917.61L804.18 917.75L804.24 917.89L804.29 918.01L804.34 918.13L804.39 918.24L804.43 918.35L804.46 918.44L804.50 918.53L804.53 918.61L804.55 918.68L804.58 918.74L804.60 918.79L804.62 918.83L804.63 918.85L804.65 918.87L804.66 918.88L804.67 918.87L804.68 918.86L804.69 918.83" fill="none" stroke="#d400d4" stroke-width="0.55" opacity=".20" stroke-linecap="round"/><path d="M786.47 922.32L786.45 922.22L786.43 922.12L786.41 922.02L786.39 921.92L786.37 921.82L786.35 921.72L786.33 921.62L786.31 921.52L786.29 921.42L786.27 921.32L786.25 921.22L786.23 921.12L786.21 921.02L786.19 920.92L786.16 920.82L786.14 920.72L786.12 920.62L786.10 920.52L786.08 920.42L786.06 920.32L786.04 920.22L786.02 920.12L786.00 920.02L785.98 919.92L785.96 919.82L785.94 919.72L785.92 919.62L785.90 919.52L785.88 919.42L785.86 919.32L785.84 919.22L785.82 919.12L785.80 919.02L785.78 918.92L785.76 918.82L785.74 918.72L785.72 918.62L785.70 918.52L785.68 918.42L785.66 918.32L785.64 918.22L785.62 918.12L785.60 918.02L785.58 917.92L785.56 917.82L785.54 917.72L785.52 917.62L785.50 917.52L785.46 917.32L785.43 917.12L785.40 916.93L785.37 916.74L785.35 916.55L785.34 916.36L785.32 916.18L785.32 916.00L785.32 915.82L785.32 915.65L785.33 915.48L785.34 915.31L785.35 915.15L785.38 914.99L785.40 914.83L785.44 914.67L785.47 914.52L785.51 914.37L785.56 914.23L785.61 914.08L785.67 913.94L785.73 913.81L785.80 913.67L785.88 913.54L785.96 913.41L786.04 913.29L786.13 913.17L786.23 913.05L786.33 912.93L786.43 912.82L786.55 912.71L786.67 912.60L786.79 912.50L786.92 912.40L787.06 912.30L787.20 912.20L787.35 912.11L787.50 912.02L787.66 911.93L787.82 911.85L788.00 911.76L788.17 911.68L788.36 911.61L788.55 911.53L788.75 911.46L788.95 911.40L789.16 911.33L789.38 911.27L789.66 911.19L789.94 911.12L790.22 911.06L790.49 911.00L790.76 910.95L791.03 910.90L791.29 910.86L791.55 910.83L791.80 910.80L792.05 910.78L792.30 910.76L792.55 910.74L792.79 910.73L793.03 910.73L793.26 910.73L793.49 910.73L793.71 910.74L793.93 910.75L794.15 910.76L794.37 910.78L794.58 910.80L794.78 910.83L794.98 910.86L795.18 910.89L795.38 910.92L795.57 910.96L795.75 911.00L795.93 911.04L796.11 911.08L796.28 911.13L796.45 911.17L796.62 911.22L796.78 911.27L796.93 911.32L797.09 911.37L797.23 911.43L797.38 911.48L797.51 911.53L797.65 911.59L797.78 911.64L797.90 911.70L798.03 911.75L798.14 911.81L798.25 911.86L798.36 911.92L798.46 911.97L798.56 912.02L798.65 912.07L798.99 912.27L799.32 912.46L799.64 912.66L799.94 912.86L800.23 913.07L800.51 913.27L800.77 913.48L801.02 913.68L801.27 913.89L801.50 914.10L801.72 914.30L801.92 914.51L802.12 914.72L802.31 914.92L802.49 915.12L802.66 915.32L802.82 915.52L802.97 915.72L803.11 915.91L803.25 916.10L803.37 916.28L803.49 916.47L803.60 916.65L803.70 916.82L803.80 916.99L803.89 917.15L803.97 917.31L804.05 917.46L804.12 917.61L804.18 917.75L804.24 917.89L804.29 918.01L804.34 918.13L804.39 918.24L804.43 918.35L804.46 918.44L804.50 918.53L804.53 918.61L804.55 918.68L804.58 918.74L804.60 918.79L804.62 918.83L804.63 918.85L804.65 918.87L804.66 918.88L804.67 918.87L804.68 918.86L804.69 918.83" fill="none" stroke="#d400d4" stroke-width="0.28" stroke-linecap="round" stroke-dasharray="0.012 0.34" opacity="1" filter="url(#gl)"/></svg>