<svg xmlns="http://www.w3.org/2000/svg" xmlns:xlink="http://www.w3.org/1999/xlink" xmlns:inkscape="http://www.inkscape.org/namespaces/inkscape" xmlns:sodipodi="http://sodipodi.sourceforge.net/DTD/sodipodi-0.0.dtd" viewBox="750.16 766.86 33.46 24.79"><defs><filter id="gl" x="-30%" y="-30%" width="160%" height="160%"><feGaussianBlur stdDeviation="0.10" result="b"/><feMerge><feMergeNode in="b"/><feMergeNode in="b"/><feMergeNode in="SourceGraphic"/></feMerge></filter></defs><rect x="750.16" y="766.86" width="33.46" height="24.79" fill="#0a0e1a"/><g opacity="0.45" transform="rotate(75.84 764.655 781.791)"><g xmlns="http://www.w3.org/2000/svg" id="bgG"><defs id="defs40143"><clipPath id="clipPath24" clipPathUnits="userSpaceOnUse"/></defs><path id="rect1" fill="#0a0e1a" d="M0 0h2000v1380H0Z" style="display:inline;fill:#0a0e1a"/><g xmlns:inkscape="http://www.inkscape.org/namespaces/inkscape" inkscape:label="RUNWAY" id="layer-runways" style="display:inline"><path inkscape:label="RWY-15L-33R" id="polygon37507" d="m746.82 554.94 215.78 305.2-4.86 3.46-215.79-305.2Z" data-class="pavement-runway" data-length-m="3750" data-runway="15L/33R" data-threshold-dxf="2047.431,3780.238 5797.431,3780.238" data-threshold-wgs84="37.4839426,126.4401441 37.4563775,126.4646632" style="stroke:none;fill:#111927;fill-opacity:.51"/><path inkscape:label="RWY-15R-33L" id="polygon37508" d="m713.23 578.82 215.79 305.19-4.87 3.46-215.79-305.19z" data-class="pavement-runway" data-length-m="3750" data-runway="15R/33L" data-threshold-dxf="2047.431,3366.238 5797.431,3366.238" data-threshold-wgs84="37.4817860,126.4363272 37.4542217,126.4608470" style="stroke:none;fill:#111927;fill-opacity:.51"/><path inkscape:label="RWY-16L-34R" id="polygon37509" d="m530.5 678.18 230.22 325.49-4.87 3.46-230.22-325.49z" data-class="pavement-runway" data-length-m="4000" data-runway="16L/34R" data-threshold-dxf="1797.420,1291.211 5797.432,1291.222" data-threshold-wgs84="37.4728122,126.4155642 37.4434147,126.4417232" style="stroke:none;fill:#111927;fill-opacity:.51"/></g><g xmlns:inkscape="http://www.inkscape.org/namespaces/inkscape" inkscape:label="GREEN-AREAS" id="layer-green" style="display:inline"/><g xmlns:inkscape="http://www.inkscape.org/namespaces/inkscape" inkscape:label="SCHM" id="layer-schm" style="display:inline"><path id="polyline36915" d="m694.14 843.84 101.8-72.41" data-class="schm" data-dxf-pts="4103.43,1702.24 4103.21,2957.29" data-handle="7BBD7" data-layer="SCHM" style="fill:none;stroke:#5a5f68;stroke-width:.1;stroke-opacity:.6"/><path id="polyline36916" d="m795.44 770.62-101.87 72.4" data-class="schm" data-dxf-pts="4093.66,2957.94 4093.43,1702.24" data-handle="7BBD8" data-layer="SCHM" style="fill:none;stroke:#5a5f68;stroke-width:.1;stroke-opacity:.6"/></g><g xmlns:inkscape="http://www.inkscape.org/namespaces/inkscape" inkscape:label="TWY" id="layer-centerlines" style="display:inline"><path inkscape:label="TWY-C" id="line37516" d="M732.61 573.11 940.8 867.57Z" style="baseline-shift:baseline;display:inline;overflow:visible;opacity:1;fill:none;stroke:#e6d24c;stroke-width:.1;stroke-dasharray:none;stroke-opacity:1;stop-color:#000;stop-opacity:1"/><path inkscape:label="TWY-A-01" id="line37520" d="m650.53 547.41 247.85 350.5Z" style="baseline-shift:baseline;display:inline;overflow:visible;opacity:1;fill:none;stroke:#e6d24c;stroke-width:.1;stroke-dasharray:none;stroke-opacity:1;stop-color:#000;stop-opacity:1"/><g inkscape:label="TWY-LEAD-STD258R" id="g598" style="display:inline"><path inkscape:label="TWY-LEAD-STD258R-02" id="path38283" d="M756.88 764.41a3.64 3.64 0 0 1 2.45 3.73" data-class="centerline-twy" data-dxf-bulges="-0.3420 0.0000" data-dxf-pts="3818.76,2677.64 3863.43,2676.10" data-handle="710BB" data-layer="항공기동선" style="fill:none;stroke:#e6d24c;stroke-width:.1;stroke-dasharray:.2,.2;stroke-dashoffset:0"/><path inkscape:label="TWY-LEAD-STD258R-01" id="path38284" d="M758.56 768.68a3.64 3.64 0 0 1-2.1-5.51" data-class="centerline-twy" data-dxf-bulges="-0.5110 0.0000" data-dxf-pts="3863.43,2666.64 3806.13,2681.35" data-handle="710BC" data-layer="항공기동선" style="fill:none;stroke:#e6d24c;stroke-width:.1;stroke-dasharray:.2,.2;stroke-dashoffset:0"/></g><g inkscape:label="TWY-LEAD-STD258" id="g599" style="display:inline"><path inkscape:label="TWY-LEAD-STD258-02" id="path314" d="m752.46 765.73-.14 5.6a3.4 3.4 0 0 1-1.53 2.88" style="fill:none;stroke:#e6d24c;stroke-width:.1;stroke-dasharray:none;stroke-opacity:1"/><path inkscape:label="TWY-LEAD-STD258-01" id="path38288" d="M753.31 772.42a3.64 3.64 0 0 1-.85-6.69" data-class="centerline-twy" data-dxf-bulges="-0.6729 -0.4142" data-dxf-pts="3863.43,2601.86 3803.79,2633.74" data-handle="710C1" data-layer="항공기동선" style="fill:none;stroke:#e6d24c;stroke-width:.1"/></g><g inkscape:label="TWY-JCT-R12-RA" id="g486" style="display:inline"><path inkscape:label="TWY-JCT-R12-RA-02" id="path38326" d="M743.87 772.89a5.1 5.1 0 0 0 7.07 1.21" data-class="centerline-twy" data-dxf-arc="3812.43,2572.73,51.00,270.00,0.00" data-handle="710F1" data-layer="항공기동선" style="fill:none;stroke:#e6d24c;stroke-width:.1"/></g><g inkscape:label="TWY-JCT-RA-R12" id="g485" style="display:inline"><path inkscape:label="TWY-JCT-RA-R12-02" id="path38328" d="M750.94 774.1a5.1 5.1 0 0 0-1.2 7.09" data-class="centerline-twy" data-dxf-arc="3914.43,2572.73,51.00,180.00,270.00" data-handle="710F3" data-layer="항공기동선" style="fill:none;stroke:#e6d24c;stroke-width:.1"/></g><g inkscape:label="TWY-R12" id="g1093"><path inkscape:label="TWY-R12-11" id="path1090" d="m750.94 774.1-4.13 2.94" style="display:inline;fill:none;stroke:#e6d24c;stroke-width:.1;stroke-dasharray:none"/><path inkscape:label="TWY-R12-12" id="path1091" d="m775.81 756.42-24.87 17.68" style="display:inline;fill:none;stroke:#e6d24c;stroke-width:.1;stroke-dasharray:none"/></g><g inkscape:label="TWY-R11" id="g1077" style="display:inline"><path inkscape:label="TWY-R11-08" id="path1075" d="m756.55 782.03 24.87-17.67" style="display:inline;fill:none;stroke:#e6d24c;stroke-width:.1;stroke-dasharray:none"/><path inkscape:label="TWY-R11-07" id="path1074" d="m748.28 787.92 8.27-5.89" style="display:inline;fill:none;stroke:#e6d24c;stroke-width:.1;stroke-dasharray:none"/></g><g inkscape:label="STD-361-376" id="g281" style="display:inline"><path inkscape:label="TWY-STD366" id="line38485" d="m757.04 796.09-3.82-5.41" data-class="centerline-twy" data-dxf-p="4078.714,2495.230 4012.306,2495.225" data-handle="711AF" data-layer="항공기동선" data-wgs="37.4623190,126.4415824 37.4628071,126.4411482" style="fill:none;stroke:#e6d24c;stroke-width:.1"/><path inkscape:label="TWY-STD365" id="line38481" d="m762.93 791.91-3.83-5.41" data-class="centerline-twy" data-dxf-p="4078.708,2567.730 4012.301,2567.725" data-handle="711AA" data-layer="항공기동선" data-wgs="37.4626967,126.4422507 37.4631848,126.4418164" style="fill:none;stroke:#e6d24c;stroke-width:.1"/><path inkscape:label="TWY-STD364" id="line38480" d="m768.81 787.73-3.83-5.41" data-class="centerline-twy" data-dxf-p="4078.703,2640.230 4012.295,2640.225" data-handle="711A8" data-layer="항공기동선" data-wgs="37.4630744,126.4429189 37.4635625,126.4424846" style="fill:none;stroke:#e6d24c;stroke-width:.1"/><path inkscape:label="TWY-STD363" id="line38479" d="m774.69 783.54-3.83-5.4" data-class="centerline-twy" data-dxf-p="4078.697,2712.730 4012.290,2712.725" data-handle="711A6" data-layer="항공기동선" data-wgs="37.4634521,126.4435871 37.4639401,126.4431528" style="fill:none;stroke:#e6d24c;stroke-width:.1"/></g><g inkscape:label="TWY-JCT-R11-RA" id="g487" style="display:inline"><path inkscape:label="TWY-JCT-R11-RA-01" id="path38514" d="M749.48 780.82a5.1 5.1 0 0 0 7.07 1.21" data-class="centerline-twy" data-dxf-arc="3909.93,2572.73,51.00,270.00,0.00" data-handle="711D5" data-layer="항공기동선" style="fill:none;stroke:#e6d24c;stroke-width:.1"/></g><g inkscape:label="TWY-LEAD-STD361-376" id="g298" style="display:inline"><g inkscape:label="TWY-LEAD-STD364" id="g285" style="display:inline"><path inkscape:label="TWY-LEAD-STD364-02" id="path38519" d="M764.99 782.32a3.64 3.64 0 0 0-2.58-4.45" data-class="centerline-twy" data-dxf-arc="3984.27,2616.89,36.50,39.75,129.75" data-handle="711DC" data-layer="항공기동선" style="fill:none;stroke:#e6d24c;stroke-width:.1;display:inline"/><path inkscape:label="TWY-LEAD-STD364-01" id="path38530" d="M761.65 778.41a3.64 3.64 0 0 0 3.34 3.91" data-class="centerline-twy" data-dxf-arc="3984.27,2663.57,36.50,230.25,320.25" data-handle="7110000000" data-layer="항공기동선" style="fill:none;stroke:#e6d24c;stroke-width:.1"/></g><g inkscape:label="TWY-LEAD-STD365" id="g286" style="display:inline"><path inkscape:label="TWY-LEAD-STD365-02" id="path38520" d="M755.76 782.59a3.64 3.64 0 0 0 3.35 3.92" data-class="centerline-twy" data-dxf-arc="3984.27,2591.07,36.50,230.25,320.25" data-handle="711DD" data-layer="항공기동선" style="fill:none;stroke:#e6d24c;stroke-width:.1"/><path inkscape:label="TWY-LEAD-STD365-01" id="path38541" d="M759.11 786.51a3.64 3.64 0 0 0-2.58-4.46" data-class="centerline-twy" data-dxf-arc="3984.27,2544.39,36.50,39.75,129.75" data-handle="711F3" data-layer="항공기동선" style="fill:none;stroke:#e6d24c;stroke-width:.1"/></g><g inkscape:label="TWY-LEAD-STD363" id="g284" style="display:inline"><path inkscape:label="TWY-LEAD-STD363-02" id="path38518" d="M767.53 774.23a3.64 3.64 0 0 0 3.34 3.91" data-class="centerline-twy" data-dxf-arc="3984.27,2736.07,36.50,230.25,320.25" data-handle="711DB" data-layer="항공기동선" style="fill:none;stroke:#e6d24c;stroke-width:.1"/><path inkscape:label="TWY-LEAD-STD363-01" id="path38542" d="M770.87 778.14a3.64 3.64 0 0 0-2.58-4.45" data-class="centerline-twy" data-dxf-arc="3984.27,2689.39,36.50,39.75,129.75" data-handle="711F4" data-layer="항공기동선" style="fill:none;stroke:#e6d24c;stroke-width:.1"/></g><g inkscape:label="TWY-LEAD-STD362" id="g283" style="display:inline"><path inkscape:label="TWY-LEAD-STD362-02" id="path38526" d="M773.41 770.05a3.64 3.64 0 0 0 3.34 3.91" data-class="centerline-twy" data-dxf-arc="3984.27,2808.57,36.50,230.25,320.25" data-handle="711000" data-layer="항공기동선" style="fill:none;stroke:#e6d24c;stroke-width:.1"/><path inkscape:label="TWY-LEAD-STD362-01" id="path38544" d="M776.75 773.96a3.64 3.64 0 0 0-2.58-4.45" data-class="centerline-twy" data-dxf-arc="3984.27,2761.89,36.50,39.75,129.75" data-handle="711F6" data-layer="항공기동선" style="fill:none;stroke:#e6d24c;stroke-width:.1"/></g><g inkscape:label="TWY-LEAD-STD366" id="g287" style="display:inline"><path inkscape:label="TWY-LEAD-STD366-02" id="path38546" d="M753.22 790.69a3.64 3.64 0 0 0-2.57-4.46" data-class="centerline-twy" data-dxf-arc="3984.27,2471.89,36.50,39.75,129.75" data-handle="711F8" data-layer="항공기동선" style="fill:none;stroke:#e6d24c;stroke-width:.1"/><path inkscape:label="TWY-LEAD-STD366-01" id="path38548" d="M749.88 786.78a3.64 3.64 0 0 0 3.34 3.91" data-class="centerline-twy" data-dxf-arc="3984.27,2518.57,36.50,230.25,320.25" data-handle="711FA" data-layer="항공기동선" style="fill:none;stroke:#e6d24c;stroke-width:.1"/></g></g><g inkscape:label="TWT-RG" id="g1069"><path inkscape:label="TWT-RG-02" id="path1067" d="m705.1 854.67 97.42-69.26" style="display:inline;fill:none;stroke:#e6d24c;stroke-width:.1;stroke-dasharray:none"/></g><path inkscape:label="TWY-M" id="line38837" d="m549.25 657.8 229.81 324.93Z" style="baseline-shift:baseline;display:inline;overflow:visible;fill:none;stroke:#e6d24c;stroke-width:.1;stroke-dasharray:none;stroke-opacity:1;stop-color:#000"/><path inkscape:label="TWY-B-01" id="line38839" d="m698.93 596.87 224.76 317.89Z" style="baseline-shift:baseline;display:inline;overflow:visible;opacity:1;fill:none;stroke:#e6d24c;stroke-width:.1;stroke-dasharray:none;stroke-opacity:1;stop-color:#000;stop-opacity:1"/><g inkscape:label="STD-321-332" id="g278" style="display:inline"/><g inkscape:label="TWY-STD343-LR" id="g270" style="display:inline"><path inkscape:label="TWY-STD343" id="line38871" d="m773.64 791.53 3.82 5.4" data-class="centerline-twy" data-dxf-p="4137.897,2657.815 4204.304,2657.815" data-handle="7139A" data-layer="항공기동선" data-wgs="37.4627309,126.4434680 37.4622428,126.4439022" style="fill:none;stroke:#e6d24c;stroke-width:.1"/></g><path inkscape:label="TWY-D" id="line38986" d="m716.91 479.56 280.6 396.86Z" style="baseline-shift:baseline;display:inline;overflow:visible;opacity:1;fill:none;stroke:#e6d24c;stroke-width:.1;stroke-dasharray:none;stroke-opacity:1;stop-color:#000;stop-opacity:1"/><g inkscape:label="TWY-R4" id="g316" style="display:inline"/><g inkscape:label="TWY-N" id="g519"><path inkscape:label="TWY-N-02" id="polyline39225" d="M775.93 997.26 547.36 674.08" style="baseline-shift:baseline;display:inline;overflow:visible;opacity:1;fill:none;stroke:#e6d24c;stroke-width:.1;stroke-dasharray:none;stroke-opacity:1;stop-color:#000;stop-opacity:1"/></g><g inkscape:label="TWY-STD225-268" id="g319" style="display:inline"/></g><g xmlns:inkscape="http://www.inkscape.org/namespaces/inkscape" inkscape:label="STOP" id="g1004"><path inkscape:label="STB-R11-HS-RA-01" id="path1255" d="m688.08 789.35 3 4.16" style="display:inline;opacity:1;fill:none;fill-opacity:1;stroke:#ff1a00;stroke-width:.222193;stroke-miterlimit:4;stroke-dasharray:.444385,.222193;stroke-dashoffset:.0888772;stroke-opacity:1" transform="translate(291.781 247.106)scale(.67509)"/><path inkscape:label="STB-R12-HS-RA-01" id="path1256" d="m678.92 778.32 2.97 4.4" style="display:inline;opacity:1;fill:none;fill-opacity:1;stroke:#ff1a00;stroke-width:.222193;stroke-miterlimit:4;stroke-dasharray:.444385,.222193;stroke-dashoffset:.0888772;stroke-opacity:1" transform="translate(291.781 247.106)scale(.67509)"/></g><g xmlns:inkscape="http://www.inkscape.org/namespaces/inkscape" inkscape:label="APRON3-TS" id="g437" style="display:inline;stroke:#5b5e67"><g inkscape:label="APRON3-TS-REMOTE-STD361-376" id="g925" style="display:inline;stroke:#5b5e67"><rect inkscape:label="STD366" id="rect340-5-9-6-8-9-3-8-2-7-8-5-8-8-6-8-7-8-2-3-0-9-9" width="4.1" height="5.731" x="154.272" y="1081.666" ry=".658" style="display:inline;fill:none;stroke:#5b5e67;stroke-width:.1;stroke-linecap:round;stroke-linejoin:round;stroke-miterlimit:5;stroke-dasharray:none;stroke-dashoffset:0;paint-order:stroke fill markers" transform="rotate(-35.38)"/><rect inkscape:label="STD365" id="rect340-5-9-6-8-9-3-8-2-7-8-5-8-8-6-8-7-8-2-3-0-9" width="4.1" height="5.731" x="161.494" y="1081.668" ry=".658" style="display:inline;fill:none;stroke:#5b5e67;stroke-width:.1;stroke-linecap:round;stroke-linejoin:round;stroke-miterlimit:5;stroke-dasharray:none;stroke-dashoffset:0;paint-order:stroke fill markers" transform="rotate(-35.38)"/><rect inkscape:label="STD364" id="rect340-5-9-6-8-9-3-8-2-7-8-5-8-8-6-8-7-8-2-3" width="4.1" height="5.731" x="168.709" y="1081.665" ry=".658" style="display:inline;fill:none;stroke:#5b5e67;stroke-width:.1;stroke-linecap:round;stroke-linejoin:round;stroke-miterlimit:5;stroke-dasharray:none;stroke-dashoffset:0;paint-order:stroke fill markers" transform="rotate(-35.38)"/><rect inkscape:label="STD363" id="rect340-5-9-6-8-9-3-8-2-7-8-5-8-8-6-8-7-8-2" width="4.1" height="5.731" x="175.929" y="1081.653" ry=".658" style="display:inline;fill:none;stroke:#5b5e67;stroke-width:.1;stroke-linecap:round;stroke-linejoin:round;stroke-miterlimit:5;stroke-dasharray:none;stroke-dashoffset:0;paint-order:stroke fill markers" transform="rotate(-35.38)"/></g></g><g xmlns:inkscape="http://www.inkscape.org/namespaces/inkscape" inkscape:label="APRON2-REMOTE-STD341-353" id="g1037" style="display:inline"><g inkscape:label="STD343" id="g988"><rect inkscape:label="STD343" id="rect340-5-9-6-8-9-3-8-2-7-8-5-8-8-6-8-7-8-0-0-9" width="4.1" height="5.731" x="170.446" y="1093.29" ry=".658" style="display:inline;fill:none;stroke:#5a5f68;stroke-width:.1;stroke-linecap:round;stroke-linejoin:round;stroke-miterlimit:5;stroke-dasharray:none;stroke-dashoffset:0;paint-order:stroke fill markers" transform="rotate(-35.38)"/></g></g><g xmlns:inkscape="http://www.inkscape.org/namespaces/inkscape" inkscape:label="STD321-332" id="g209" style="fill:none;stroke:#5b5e67"/><g xmlns:inkscape="http://www.inkscape.org/namespaces/inkscape" inkscape:label="S1-S7" id="g1052"/><g xmlns:inkscape="http://www.inkscape.org/namespaces/inkscape" id="layer-stand-labels" inkscape:label="STAND-LABELS" inkscape:groupmode="layer" style="font-family:Arial,Helvetica,sans-serif;font-weight:700;text-anchor:middle"><text x="773.36" y="791.24" style="fill:none;stroke:#0a0e1a;stroke-width:.8;stroke-linejoin:round;font-size:2.1px" id="lbl-343-h">343</text><text x="773.36" y="791.24" style="fill:#ffffff;stroke:none;font-size:2.1px" id="lbl-343">343</text><text x="775.08" y="785.19" style="fill:none;stroke:#0a0e1a;stroke-width:.8;stroke-linejoin:round;font-size:2.1px" id="lbl-363-h">363</text><text x="775.08" y="785.19" style="fill:#ffffff;stroke:none;font-size:2.1px" id="lbl-363">363</text><text x="769.54" y="789.57" style="fill:none;stroke:#0a0e1a;stroke-width:.8;stroke-linejoin:round;font-size:2.1px" id="lbl-364-h">364</text><text x="769.54" y="789.57" style="fill:#ffffff;stroke:none;font-size:2.1px" id="lbl-364">364</text><text x="763.36" y="793.90" style="fill:none;stroke:#0a0e1a;stroke-width:.8;stroke-linejoin:round;font-size:2.1px" id="lbl-365-h">365</text><text x="763.36" y="793.90" style="fill:#ffffff;stroke:none;font-size:2.1px" id="lbl-365">365</text></g><g xmlns:inkscape="http://www.inkscape.org/namespaces/inkscape" id="layer-points" inkscape:label="POINT-LABELS" inkscape:groupmode="layer"/></g></g><path d="M762.22 784.65L762.26 784.60L762.29 784.56L762.33 784.51L762.37 784.47L762.40 784.43L762.44 784.38L762.48 784.34L762.51 784.29L762.55 784.25L762.59 784.20L762.62 784.16L762.66 784.11L762.69 784.07L762.73 784.02L762.77 783.98L762.80 783.93L762.84 783.89L762.88 783.84L762.91 783.80L762.95 783.76L762.99 783.71L763.02 783.67L763.06 783.62L763.10 783.58L763.13 783.53L763.17 783.49L763.20 783.44L763.24 783.40L763.28 783.35L763.31 783.31L763.35 783.26L763.39 783.22L763.42 783.18L763.46 783.13L763.50 783.09L763.53 783.04L763.57 783.00L763.61 782.95L763.64 782.91L763.68 782.86L763.71 782.82L763.75 782.77L763.79 782.73L763.82 782.68L763.86 782.64L763.90 782.59L763.93 782.55L763.97 782.51L764.09 782.35L764.21 782.21L764.33 782.06L764.45 781.91L764.56 781.77L764.66 781.63L764.77 781.50L764.87 781.36L764.97 781.23L765.06 781.09L765.15 780.96L765.23 780.83L765.31 780.70L765.39 780.58L765.46 780.45L765.53 780.32L765.59 780.20L765.65 780.07L765.71 779.95L765.75 779.82L765.80 779.70L765.83 779.58L765.87 779.45L765.89 779.33L765.91 779.20L765.93 779.07L765.94 778.95L765.94 778.82L765.94 778.69L765.93 778.56L765.92 778.43L765.90 778.29L765.87 778.16L765.83 778.02L765.79 777.88L765.74 777.74L765.69 777.60L765.63 777.45L765.56 777.31L765.48 777.16L765.39 777.00L765.30 776.85L765.20 776.69L765.09 776.53L764.98 776.36L764.85 776.19L764.72 776.02L764.58 775.84" fill="none" stroke="#e07a10" stroke-width="0.55" opacity=".20" stroke-linecap="round"/><path d="M762.22 784.65L762.26 784.60L762.29 784.56L762.33 784.51L762.37 784.47L762.40 784.43L762.44 784.38L762.48 784.34L762.51 784.29L762.55 784.25L762.59 784.20L762.62 784.16L762.66 784.11L762.69 784.07L762.73 784.02L762.77 783.98L762.80 783.93L762.84 783.89L762.88 783.84L762.91 783.80L762.95 783.76L762.99 783.71L763.02 783.67L763.06 783.62L763.10 783.58L763.13 783.53L763.17 783.49L763.20 783.44L763.24 783.40L763.28 783.35L763.31 783.31L763.35 783.26L763.39 783.22L763.42 783.18L763.46 783.13L763.50 783.09L763.53 783.04L763.57 783.00L763.61 782.95L763.64 782.91L763.68 782.86L763.71 782.82L763.75 782.77L763.79 782.73L763.82 782.68L763.86 782.64L763.90 782.59L763.93 782.55L763.97 782.51L764.09 782.35L764.21 782.21L764.33 782.06L764.45 781.91L764.56 781.77L764.66 781.63L764.77 781.50L764.87 781.36L764.97 781.23L765.06 781.09L765.15 780.96L765.23 780.83L765.31 780.70L765.39 780.58L765.46 780.45L765.53 780.32L765.59 780.20L765.65 780.07L765.71 779.95L765.75 779.82L765.80 779.70L765.83 779.58L765.87 779.45L765.89 779.33L765.91 779.20L765.93 779.07L765.94 778.95L765.94 778.82L765.94 778.69L765.93 778.56L765.92 778.43L765.90 778.29L765.87 778.16L765.83 778.02L765.79 777.88L765.74 777.74L765.69 777.60L765.63 777.45L765.56 777.31L765.48 777.16L765.39 777.00L765.30 776.85L765.20 776.69L765.09 776.53L764.98 776.36L764.85 776.19L764.72 776.02L764.58 775.84" fill="none" stroke="#e07a10" stroke-width="0.28" stroke-linecap="round" stroke-dasharray="0.012 0.34" opacity="1" filter="url(#gl)"/></svg>