<svg xmlns="http://www.w3.org/2000/svg" xmlns:xlink="http://www.w3.org/1999/xlink" xmlns:inkscape="http://www.inkscape.org/namespaces/inkscape" xmlns:sodipodi="http://sodipodi.sourceforge.net/DTD/sodipodi-0.0.dtd" viewBox="586.21 624.77 33.96 25.16"><defs><filter id="gl" x="-30%" y="-30%" width="160%" height="160%"><feGaussianBlur stdDeviation="0.10" result="b"/><feMerge><feMergeNode in="b"/><feMergeNode in="b"/><feMergeNode in="SourceGraphic"/></feMerge></filter></defs><rect x="586.21" y="624.77" width="33.96" height="25.16" fill="#0a0e1a"/><g opacity="0.45" transform="rotate(75.84 603.608 640.574)"><g xmlns="http://www.w3.org/2000/svg" id="bgG"><defs id="defs40143"><clipPath id="clipPath24" clipPathUnits="userSpaceOnUse"/></defs><path id="rect1" fill="#0a0e1a" d="M0 0h2000v1380H0Z" style="display:inline;fill:#0a0e1a"/><g xmlns:inkscape="http://www.inkscape.org/namespaces/inkscape" inkscape:label="RUNWAY" id="layer-runways" style="display:inline"/><g xmlns:inkscape="http://www.inkscape.org/namespaces/inkscape" inkscape:label="GREEN-AREAS" id="layer-green" style="display:inline"><path inkscape:label="GREEN-54" id="polygon37392" d="m615.87 673.59-5.62-7.97 16.52-11.76-1.44-2.16-30.37-42.92-5.49-3.82-39.12 27.81-8.04.07.71 1 5.18-.03.75 1.06 40.52-28.82 4.85 3.38 30.28 42.79 1.34 2.02-16.35 11.63 5.74 8.11z" data-class="green-zone" data-dxf-pts="1495.48,1681.16 1507.76,1681.16 1537.66,1723.86 1550.68,1723.86 1550.68,2223.33 1606.50,2243.49 2132.35,2243.49 2156.68,2242.86 2156.68,2041.24 2256.33,2041.24 2256.33,2047.96 2158.49,2048.05 2158.35,2251.82 2132.35,2252.49 1604.92,2252.49 1541.68,2229.65 1541.68,1747.45" data-handle="7BD12" data-layer="기타지역" style="fill:#13181e;stroke:#1a1f26;stroke-width:.1;display:inline"/></g><g xmlns:inkscape="http://www.inkscape.org/namespaces/inkscape" inkscape:label="SCHM" id="layer-schm" style="display:inline"><path id="polyline36926" d="m700.12 629.45-4.15 3.89-79.87 56.79-2.36-3.32-13.73 9.77" data-class="schm" data-dxf-pts="2385.18,2994.99 2392.93,2938.36 2392.93,1953.82 2352.03,1953.82 2352.03,1784.45" data-handle="7BC72" data-layer="SCHM" style="fill:none;stroke:#5a5f68;stroke-width:.1;stroke-opacity:.6"/><path id="path36927" d="m602.45 667.15-31.32-44.26a2 2 0 0 1 .47-2.78l16.65-11.85a2 2 0 0 1 2.29-.01l2.64 1.85.49.48 29.57 41.79a2 2 0 0 1-.47 2.78l-17.55 12.48a2 2 0 0 1-2.77-.48z" data-class="schm" data-dxf-bulges="0.0000 -0.4142 0.0000 -0.3160 0.0000 0.0000 0.0000 -0.4142 0.0000 -0.4142" data-dxf-pts="2125.68,1975.24 1581.68,1975.24 1561.68,1995.24 1561.68,2200.51 1574.89,2219.32 1605.31,2230.30 1612.10,2231.49 2125.68,2231.49 2145.68,2211.49 2145.68,1995.24" data-handle="7BC73" data-layer="SCHM" style="fill:none;stroke:#5a5f68;stroke-width:.1;stroke-opacity:.6"/><path id="path36928" d="m612.86 683.59-42.54-60.13a2 2 0 0 0-2.77-.47l-22.94 16.31" data-class="schm" data-dxf-bulges="0.0000 0.4142 0.0000 0.0000" data-dxf-pts="2320.58,1965.24 1581.68,1965.24 1561.68,1945.24 1561.68,1662.50" data-handle="7BC74" data-layer="SCHM" style="fill:none;stroke:#5a5f68;stroke-width:.1;stroke-opacity:.6"/><path id="path37090" d="m541.5 634.9 46.91 66.26a2 2 0 0 0 2.77.47" data-class="schm" data-dxf-bulges="0.0000 0.4142 0.0000" data-dxf-pts="1507.60,1662.49 2322.03,1662.74 2342.03,1682.74" data-handle="7BDD9" data-layer="SCHM" style="fill:none;stroke:#5a5f68;stroke-width:.1;stroke-opacity:.6"/><path id="path37151" d="m543.98 638.41 43.64-31.04a3.1 3.1 0 0 1 3.54-.02l2.65 1.84a3 3 0 0 1 .75.76l29.57 41.79a3.1 3.1 0 0 1-.73 4.31l-17.46 12.41a2 2 0 0 0-.47 2.78l8.52 12.05 6.24-4.44.24-1.39-3.36-4.75-1.78 1.27" data-class="schm" data-dxf-bulges="0.0000 -0.3160 0.0000 -0.0869 0.0000 -0.4142 0.0000 0.4142 0.0000 0.0000 0.0000 0.0000 0.0000 0.0000" data-dxf-pts="1550.68,1662.50 1550.68,2200.51 1571.15,2229.66 1601.57,2240.65 1612.10,2242.49 2125.68,2242.49 2156.68,2211.49 2156.68,1996.24 2176.68,1976.24 2324.68,1976.24 2324.68,2053.24 2314.68,2063.24 2256.33,2063.24 2256.33,2041.24" data-handle="7BE42" data-layer="SCHM" style="fill:none;stroke:#5a5f68;stroke-width:.1;stroke-opacity:.6;display:inline"/></g><g xmlns:inkscape="http://www.inkscape.org/namespaces/inkscape" inkscape:label="TWY" id="layer-centerlines" style="display:inline"><g inkscape:label="TWY-R17" id="g1054"/><path inkscape:label="TWY-M19" id="polyline38710" d="m591.49 636.63-38.06 27.07" style="baseline-shift:baseline;display:inline;overflow:visible;opacity:1;fill:none;stroke:#e6d24c;stroke-width:.1;stroke-dasharray:none;stroke-opacity:1;stop-color:#000;stop-opacity:1"/><g inkscape:label="TWY-JCT-M19-R26" id="g731" style="display:inline"><path inkscape:label="TWY-JCT-M19-R26-02" id="path38711" d="M597.04 637.58a4 4 0 0 0-5.55-.95" data-class="centerline-twy" data-dxf-bulges="0.4142 0.0000" data-dxf-pts="1852.43,2102.48 1812.43,2062.48" data-handle="712CA" data-layer="항공기동선" style="fill:none;stroke:#e6d24c;stroke-width:.1"/><path inkscape:label="TWY-JCT-M19-R26-01" id="path38712" d="M591.49 636.63a4 4 0 0 0 .95-5.56" data-class="centerline-twy" data-dxf-bulges="0.4142 0.0000" data-dxf-pts="1812.43,2062.48 1772.43,2102.48" data-handle="712CB" data-layer="항공기동선" style="fill:none;stroke:#e6d24c;stroke-width:.1"/></g><path inkscape:label="TWY-R26" id="polyline38718" d="m580.99 614.89 32.12 45.4" data-class="centerline-twy" data-dxf-pts="1573.64,2102.48 2131.60,2102.48" data-handle="712D3" data-layer="항공기동선" style="fill:none;stroke:#e6d24c;stroke-width:.1;display:inline"/><g inkscape:label="TWY-JCT-M18-R26" id="g732" style="display:inline"><path inkscape:label="TWY-JCT-M18-R26-02" id="path38734" d="M602.08 644.7a4 4 0 0 0-5.55-.95" data-class="centerline-twy" data-dxf-bulges="0.4142 0.0000" data-dxf-pts="1939.93,2102.48 1899.93,2062.48" data-handle="712EA" data-layer="항공기동선" style="fill:none;stroke:#e6d24c;stroke-width:.1"/><path inkscape:label="TWY-JCT-M18-R26-01" id="path38735" d="M596.53 643.75a4 4 0 0 0 .94-5.56" data-class="centerline-twy" data-dxf-bulges="0.4142 0.0000" data-dxf-pts="1899.93,2062.48 1859.93,2102.48" data-handle="712EB" data-layer="항공기동선" style="fill:none;stroke:#e6d24c;stroke-width:.1"/></g><path inkscape:label="TWY-M18" id="polyline38737" d="m596.53 643.75-33.93 24.13" data-class="centerline-twy" data-dxf-pts="1899.93,2062.48 1899.93,1644.23" data-handle="712EE" data-layer="항공기동선" style="fill:none;stroke:#e6d24c;stroke-width:.1"/><g inkscape:label="TWY-STD501-517" id="g321" style="display:inline"/><g inkscape:label="TWY-R4" id="g316" style="display:inline"><path inkscape:label="TWY-R4-18" id="polyline38656" d="m603.35 694.8-45.09-63.74" style="baseline-shift:baseline;display:inline;overflow:visible;opacity:1;fill:none;stroke:#e6d24c;stroke-width:.1;stroke-dasharray:none;stroke-opacity:1;stop-color:#000;stop-opacity:1"/></g><g inkscape:label="TWY-STD208-224-275-291" id="g569" style="display:inline"/><g inkscape:label="TWY-STD520-558" id="g317"><g inkscape:label="TWY-STD541-547" id="g791" style="display:inline"/><g inkscape:label="TWY-STD531-536" id="g792" style="display:inline"><g inkscape:label="TWY-STD534" id="g772"><g inkscape:label="TWY-LEAD-R26-STD534" id="g719"><path inkscape:label="TWY-LEAD-R26-STD534-01" id="path38696" d="M589.48 626.89a3.63 3.63 0 0 1-4.44 2.59" data-class="centerline-twy" data-dxf-bulges="-0.4148 0.0000" data-dxf-pts="1721.10,2102.48 1716.43,2051.02" data-handle="712B4" data-layer="항공기동선" style="fill:none;stroke:#e6d24c;stroke-width:.1"/></g></g><g inkscape:label="TWY-STD533" id="g771"><path inkscape:label="TWY-STD533" id="polyline38696" d="m595.98 655.08 4.77-3.39" data-class="centerline-twy" data-dxf-pts="1989.33,1992.23 1989.33,2051.02" data-handle="712B5" data-layer="항공기동선" style="fill:none;stroke:#e6d24c;stroke-width:.1"/><g inkscape:label="TWY-LEAD-R26-STD533" id="g718"><path inkscape:label="TWY-LEAD-R26-STD533-02" id="path38697" d="M604.65 648.34a3.63 3.63 0 0 0-3.9 3.35" data-class="centerline-twy" data-dxf-bulges="0.4148 0.0000" data-dxf-pts="1984.66,2102.48 1989.33,2051.02" data-handle="712B6" data-layer="항공기동선" style="fill:none;stroke:#e6d24c;stroke-width:.1"/><path inkscape:label="TWY-LEAD-R26-STD533-01" id="path38698" d="M605.19 649.1a3.63 3.63 0 0 1-4.44 2.59" data-class="centerline-twy" data-dxf-bulges="-0.4148 0.0000" data-dxf-pts="1994.00,2102.48 1989.33,2051.02" data-handle="712B7" data-layer="항공기동선" style="fill:none;stroke:#e6d24c;stroke-width:.1"/></g></g><g inkscape:label="TWY-STD532" id="g770"><g inkscape:label="TWY-LEAD-R26-STD532" id="g717"><path inkscape:label="TWY-LEAD-R26-STD532-02" id="path38699" d="M608.83 654.24a3.63 3.63 0 0 0-3.91 3.35" data-class="centerline-twy" data-dxf-bulges="0.4148 0.0000" data-dxf-pts="2057.16,2102.48 2061.83,2051.02" data-handle="712B9" data-layer="항공기동선" style="fill:none;stroke:#e6d24c;stroke-width:.1"/><path inkscape:label="TWY-LEAD-R26-STD532-01" id="path38700" d="M609.37 655a3.63 3.63 0 0 1-4.45 2.59" data-class="centerline-twy" data-dxf-bulges="-0.4148 0.0000" data-dxf-pts="2066.50,2102.48 2061.83,2051.02" data-handle="712BA" data-layer="항공기동선" style="fill:none;stroke:#e6d24c;stroke-width:.1"/></g></g></g><g inkscape:label="TWY-STD520-530" id="g793" style="display:inline"><g inkscape:label="TWY-STD526" id="g783"><g inkscape:label="TWY-LEAD-R26-STD526" id="g727"><path inkscape:label="TWY-LEAD-R26-STD526-02" id="path38691" d="M596.16 627.37a3.63 3.63 0 0 0-4.46 2.66" data-class="centerline-twy" data-dxf-bulges="0.4210 0.4210" data-dxf-pts="1763.83,2154.53 1759.64,2102.48" data-handle="712AC" data-layer="항공기동선" style="fill:none;stroke:#e6d24c;stroke-width:.1"/><path inkscape:label="TWY-LEAD-R26-STD526-01" id="path38692" d="M592.18 630.71a3.63 3.63 0 0 0 3.98-3.34" data-class="centerline-twy" data-dxf-bulges="0.4210 0.0000" data-dxf-pts="1768.01,2102.48 1763.83,2154.53" data-handle="712AD" data-layer="항공기동선" style="fill:none;stroke:#e6d24c;stroke-width:.1"/></g></g><g inkscape:label="TWY-STD523" id="g780"><g inkscape:label="TWY-LEAD-R26-STD523" id="g724"><path inkscape:label="TWY-LEAD-R26-STD523-02" id="path38721" d="M608.68 645.06a3.63 3.63 0 0 0-4.46 2.67" data-class="centerline-twy" data-dxf-bulges="0.4210 0.4210" data-dxf-pts="1981.33,2154.53 1977.14,2102.48" data-handle="712D6" data-layer="항공기동선" style="fill:none;stroke:#e6d24c;stroke-width:.1"/><path inkscape:label="TWY-LEAD-R26-STD523-01" id="path38722" d="M604.7 648.41a3.63 3.63 0 0 0 3.98-3.35" data-class="centerline-twy" data-dxf-bulges="0.4210 0.0000" data-dxf-pts="1985.51,2102.48 1981.33,2154.53" data-handle="712D7" data-layer="항공기동선" style="fill:none;stroke:#e6d24c;stroke-width:.1"/></g><path inkscape:label="TWY-STD523" id="polyline38722" d="m608.68 645.06 4.65-3.3" data-class="centerline-twy" data-dxf-pts="1981.33,2154.53 1981.33,2211.73" data-handle="712D8" data-layer="항공기동선" style="fill:none;stroke:#e6d24c;stroke-width:.1"/></g><g inkscape:label="TWY-STD522-LR" id="g779"><g inkscape:label="TWY-STD521" id="g776"><path inkscape:label="TWY-LEAD-R26-STD521" id="path413" d="m614.45 653.01-4.32 3.07" style="baseline-shift:baseline;display:inline;overflow:visible;opacity:1;fill:none;stroke:#e6d24c;stroke-width:.1;stroke-dasharray:none;stroke-opacity:1;stop-color:#000;stop-opacity:1"/><path inkscape:label="TWY-STD521" id="polyline38693" d="m617.01 651.19-2.56 1.82" style="baseline-shift:baseline;display:inline;overflow:visible;opacity:1;fill:none;stroke:#e6d24c;stroke-width:.1;stroke-dasharray:none;stroke-opacity:1;stop-color:#000;stop-opacity:1"/></g><g inkscape:label="TWY-STD522" id="g778"><path inkscape:label="TWY-LEAD-R26-STD522" id="path421" d="m612.02 649.8-4.22 2.99" style="baseline-shift:baseline;display:inline;overflow:visible;opacity:1;fill:none;stroke:#e6d24c;stroke-width:.1;stroke-dasharray:none;stroke-opacity:1;stop-color:#000;stop-opacity:1"/><path inkscape:label="TWY-STD522" id="polyline38694" d="m614.68 647.9-2.66 1.9" style="baseline-shift:baseline;display:inline;overflow:visible;opacity:1;fill:none;stroke:#e6d24c;stroke-width:.1;stroke-dasharray:none;stroke-opacity:1;stop-color:#000;stop-opacity:1"/></g><g inkscape:label="TWY-STD522R" id="g777"><g inkscape:label="TWY-LEAD-R26-STD522R" id="g723"><path inkscape:label="TWY-LEAD-R26-STD522R-02" id="path38723" d="M613.19 651.43a3.63 3.63 0 0 0-4.46 2.66" data-class="centerline-twy" data-dxf-bulges="0.4210 0.4210" data-dxf-pts="2059.58,2154.53 2055.39,2102.48" data-handle="712D9" data-layer="항공기동선" style="fill:none;stroke:#e6d24c;stroke-width:.1"/><path inkscape:label="TWY-LEAD-R26-STD522R-01" id="path38724" d="M609.21 654.77a3.63 3.63 0 0 0 3.98-3.34" data-class="centerline-twy" data-dxf-bulges="0.4210 0.0000" data-dxf-pts="2063.76,2102.48 2059.58,2154.53" data-handle="712DA" data-layer="항공기동선" style="fill:none;stroke:#e6d24c;stroke-width:.1"/></g><path inkscape:label="TWY-STD522R" id="polyline38724" d="m613.19 651.43 4.64-3.3" data-class="centerline-twy" data-dxf-pts="2059.58,2154.53 2059.58,2211.73" data-handle="712DB" data-layer="항공기동선" style="fill:none;stroke:#e6d24c;stroke-width:.1"/></g></g><g inkscape:label="TWY-STD520" id="g775"/><g inkscape:label="TWY-STD525" id="g782"><path inkscape:label="TWY-STD525" id="polyline38692" d="m600.34 633.27 4.64-3.3" data-class="centerline-twy" data-dxf-pts="1836.33,2154.53 1836.33,2211.73" data-handle="712AE" data-layer="항공기동선" style="fill:none;stroke:#e6d24c;stroke-width:.1"/><g inkscape:label="TWY-LEAD-R26-STD525" id="g726"><path inkscape:label="TWY-LEAD-R26-STD525-01" id="path38740" d="M595.55 636.3a3 3 0 0 0 1.98.23" data-class="centerline-twy" data-dxf-arc="1819.01,2123.99,30.00,298.52,337.64" data-handle="712F2" data-layer="항공기동선" style="fill:none;stroke:#e6d24c;stroke-width:.1;display:inline"/><path inkscape:label="TWY-LEAD-R26-STD525-03" id="path38693" d="M600.34 633.27a3.63 3.63 0 0 0-4.47 2.66" data-class="centerline-twy" data-dxf-bulges="0.4210 0.4210" data-dxf-pts="1836.33,2154.53 1832.14,2102.48" data-handle="712AF" data-layer="항공기동선" style="fill:none;stroke:#e6d24c;stroke-width:.1"/><path inkscape:label="TWY-LEAD-R26-STD525-02" id="path38729" d="M597.53 636.53a3.6 3.6 0 0 0 2.81-3.26" data-class="centerline-twy" data-dxf-bulges="0.3279 0.0000" data-dxf-pts="1846.75,2112.58 1836.33,2154.53" data-handle="712000" data-layer="항공기동선" style="fill:none;stroke:#e6d24c;stroke-width:.1"/></g></g><g inkscape:label="TWY-STD524" id="g781"><path inkscape:label="TWY-STD524" id="polyline38729" d="m609.15 635.86-4.64 3.3" style="baseline-shift:baseline;display:inline;overflow:visible;opacity:1;fill:none;stroke:#e6d24c;stroke-width:.1;stroke-dasharray:none;stroke-opacity:1;stop-color:#000;stop-opacity:1"/><g inkscape:label="TWY-LEAD-R26-STD524" id="g725" style="display:inline"><path inkscape:label="TWY-LEAD-R26-STD524-05" id="path38719" d="M604.51 639.16a3.63 3.63 0 0 0-4.46 2.67" data-class="centerline-twy" data-dxf-bulges="0.4210 0.4210" data-dxf-pts="1908.83,2154.53 1904.64,2102.48" data-handle="712D4" data-layer="항공기동선" style="fill:none;stroke:#e6d24c;stroke-width:.1"/><path inkscape:label="TWY-LEAD-R26-STD524-04" id="path38720" d="M600.53 642.51a3.63 3.63 0 0 0 3.98-3.35" data-class="centerline-twy" data-dxf-bulges="0.4210 0.0000" data-dxf-pts="1913.01,2102.48 1908.83,2154.53" data-handle="712D5" data-layer="항공기동선" style="fill:none;stroke:#e6d24c;stroke-width:.1"/><path inkscape:label="TWY-LEAD-R26-STD524-03" id="path422" d="m604.51 639.16-3.86 2.75" style="baseline-shift:baseline;display:inline;overflow:visible;opacity:1;fill:none;stroke:#e6d24c;stroke-width:.1;stroke-dasharray:none;stroke-opacity:1;stop-color:#000;stop-opacity:1"/><path inkscape:label="TWY-LEAD-R26-STD524-02" id="polyline38739" d="m597.82 643.15 2.06-.82" data-class="centerline-twy" data-dxf-pts="1902.49,2076.56 1907.78,2098.21" data-handle="712F0" data-layer="항공기동선" style="fill:none;stroke:#e6d24c;stroke-width:.1"/><path inkscape:label="TWY-LEAD-R26-STD524-01" id="path38739" d="M599.88 642.33a4 4 0 0 0 .77-.42" data-class="centerline-twy" data-dxf-arc="1872.33,2106.88,36.50,346.25,0.00" data-handle="712F1" data-layer="항공기동선" style="fill:none;stroke:#e6d24c;stroke-width:.1"/></g></g></g><g inkscape:label="TWY-STD551-558" id="g790" style="display:inline"/></g></g><g xmlns:inkscape="http://www.inkscape.org/namespaces/inkscape" inkscape:label="STOP" id="g1004"/><g xmlns:inkscape="http://www.inkscape.org/namespaces/inkscape" inkscape:label="APRON3-TN" id="g436" style="display:inline;stroke:#5b5e67" transform="translate(.326 -.24)"/><g xmlns:inkscape="http://www.inkscape.org/namespaces/inkscape" inkscape:label="STD520-558" id="g696" style="display:inline;stroke:#5b5e67"><rect inkscape:label="STD533" id="rect340-3-9-2-7-2-9-2-0-9-4-2-8-5-5-2-3-7-1" width="4.1" height="5.731" x="877.255" y="-110.964" ry=".658" style="display:inline;fill:none;stroke:#5b5e67;stroke-width:.1;stroke-linecap:round;stroke-linejoin:round;stroke-miterlimit:5;stroke-dasharray:none;stroke-dashoffset:0;paint-order:stroke fill markers" transform="rotate(54.553)"/><rect inkscape:label="STD523" id="rect340-3-9-2-7-2-9-2-0-9-4-2-8-5-5-2-3-0-4" width="4.1" height="5.731" x="876.454" y="-127.836" ry=".658" style="display:inline;fill:none;stroke:#5b5e67;stroke-width:.1;stroke-linecap:round;stroke-linejoin:round;stroke-miterlimit:5;stroke-dasharray:none;stroke-dashoffset:0;paint-order:stroke fill markers" transform="rotate(54.553)"/><rect inkscape:label="STD524" id="rect340-3-9-2-7-2-9-2-0-9-4-2-8-5-5-2-3-0-4-5" width="4.1" height="5.731" x="869.231" y="-127.922" ry=".658" style="display:inline;fill:none;stroke:#5b5e67;stroke-width:.1;stroke-linecap:round;stroke-linejoin:round;stroke-miterlimit:5;stroke-dasharray:none;stroke-dashoffset:0;paint-order:stroke fill markers" transform="rotate(54.553)"/><rect inkscape:label="STD525" id="rect340-3-9-2-7-2-9-2-0-9-4-2-8-5-5-2-3-0-4-5-1" width="4.1" height="5.731" x="862.012" y="-127.965" ry=".658" style="display:inline;fill:none;stroke:#5b5e67;stroke-width:.1;stroke-linecap:round;stroke-linejoin:round;stroke-miterlimit:5;stroke-dasharray:none;stroke-dashoffset:0;paint-order:stroke fill markers" transform="rotate(54.553)"/><g inkscape:label="STD521-LR" id="g69" style="stroke:#5b5e67"><rect inkscape:label="STD522R" id="rect340-3-9-2-7-2-9-2-0-9-4-2-8-5-5-2-3-0" width="4.1" height="5.731" x="884.259" y="-127.984" ry=".658" style="display:inline;fill:none;stroke:#5b5e67;stroke-width:.1;stroke-linecap:round;stroke-linejoin:round;stroke-miterlimit:5;stroke-dasharray:none;stroke-dashoffset:0;paint-order:stroke fill markers" transform="rotate(54.553)"/><rect inkscape:label="STD521" id="rect340-7-9-9-4-75-5-9-9-4" width="2.879" height="4.025" x="886.494" y="-128.221" ry=".462" style="display:inline;fill:none;stroke:#5b5e67;stroke-width:.1;stroke-linecap:round;stroke-linejoin:round;stroke-miterlimit:5;stroke-dasharray:none;stroke-dashoffset:0;paint-order:stroke fill markers" transform="rotate(54.736)"/><rect inkscape:label="STD522" id="rect340-7-9-9-4-75-9-4-1-7-9" width="2.879" height="4.025" x="882.461" y="-128.119" ry=".462" style="display:inline;fill:none;stroke:#5b5e67;stroke-width:.1;stroke-linecap:round;stroke-linejoin:round;stroke-miterlimit:5;stroke-dasharray:none;stroke-dashoffset:0;paint-order:stroke fill markers" transform="rotate(54.736)"/></g></g><g xmlns:inkscape="http://www.inkscape.org/namespaces/inkscape" inkscape:label="S1-S7" id="g1052"/><g xmlns:inkscape="http://www.inkscape.org/namespaces/inkscape" id="layer-stand-labels" inkscape:label="STAND-LABELS" inkscape:groupmode="layer" style="font-family:Arial,Helvetica,sans-serif;font-weight:700;text-anchor:middle"><text x="612.66" y="655.03" style="fill:none;stroke:#0a0e1a;stroke-width:.8;stroke-linejoin:round;font-size:2.1px" id="lbl-521-h">521</text><text x="612.66" y="655.03" style="fill:#ffffff;stroke:none;font-size:2.1px" id="lbl-521">521</text><text x="610.25" y="651.79" style="fill:none;stroke:#0a0e1a;stroke-width:.8;stroke-linejoin:round;font-size:2.1px" id="lbl-522-h">522</text><text x="610.25" y="651.79" style="fill:#ffffff;stroke:none;font-size:2.1px" id="lbl-522">522</text><text x="607.58" y="646.60" style="fill:none;stroke:#0a0e1a;stroke-width:.8;stroke-linejoin:round;font-size:2.1px" id="lbl-523-h">523</text><text x="607.58" y="646.60" style="fill:#ffffff;stroke:none;font-size:2.1px" id="lbl-523">523</text><text x="603.46" y="640.66" style="fill:none;stroke:#0a0e1a;stroke-width:.8;stroke-linejoin:round;font-size:2.1px" id="lbl-524-h">524</text><text x="603.46" y="640.66" style="fill:#ffffff;stroke:none;font-size:2.1px" id="lbl-524">524</text><text x="599.31" y="634.76" style="fill:none;stroke:#0a0e1a;stroke-width:.8;stroke-linejoin:round;font-size:2.1px" id="lbl-525-h">525</text><text x="599.31" y="634.76" style="fill:#ffffff;stroke:none;font-size:2.1px" id="lbl-525">525</text><text x="595.12" y="628.86" style="fill:none;stroke:#0a0e1a;stroke-width:.8;stroke-linejoin:round;font-size:2.1px" id="lbl-526-h">526</text><text x="595.12" y="628.86" style="fill:#ffffff;stroke:none;font-size:2.1px" id="lbl-526">526</text><text x="601.73" y="651.74" style="fill:none;stroke:#0a0e1a;stroke-width:.8;stroke-linejoin:round;font-size:2.1px" id="lbl-533-h">533</text><text x="601.73" y="651.74" style="fill:#ffffff;stroke:none;font-size:2.1px" id="lbl-533">533</text></g><g xmlns:inkscape="http://www.inkscape.org/namespaces/inkscape" id="layer-points" inkscape:label="POINT-LABELS" inkscape:groupmode="layer"/></g></g><path d="M608.06 643.58L608.01 643.53L607.95 643.48L607.90 643.43L607.84 643.39L607.79 643.34L607.73 643.29L607.68 643.24L607.63 643.20L607.57 643.15L607.52 643.10L607.46 643.05L607.41 643.01L607.35 642.96L607.30 642.91L607.24 642.86L607.19 642.81L607.13 642.77L607.08 642.72L607.03 642.67L606.97 642.62L606.92 642.58L606.86 642.53L606.81 642.48L606.75 642.43L606.70 642.39L606.64 642.34L606.59 642.29L606.53 642.24L606.48 642.19L606.42 642.15L606.37 642.10L606.32 642.05L606.26 642.00L606.21 641.96L606.15 641.91L606.10 641.86L606.04 641.81L605.99 641.77L605.93 641.72L605.88 641.67L605.82 641.62L605.77 641.57L605.72 641.53L605.66 641.48L605.61 641.43L605.55 641.38L605.50 641.34L605.44 641.29L605.28 641.15L605.13 641.02L604.97 640.90L604.81 640.78L604.65 640.66L604.50 640.56L604.34 640.46L604.18 640.36L604.03 640.27L603.87 640.19L603.72 640.11L603.56 640.04L603.41 639.98L603.25 639.92L603.09 639.87L602.94 639.83L602.78 639.79L602.62 639.76L602.46 639.73L602.31 639.72L602.15 639.70L601.99 639.70L601.83 639.70L601.66 639.72L601.50 639.73L601.34 639.76L601.17 639.79L601.01 639.83L600.84 639.88L600.67 639.93L600.51 639.99L600.33 640.06L600.16 640.14L599.99 640.23L599.81 640.32L599.64 640.42L599.46 640.53L599.28 640.64L599.10 640.77L598.91 640.90L598.73 641.04L598.54 641.19L598.35 641.35L598.16 641.52L597.96 641.69L597.77 641.87L597.57 642.06L597.37 642.26L597.44 642.18L597.51 642.09L597.59 642.01L597.66 641.92L597.74 641.83L597.81 641.75L597.88 641.66L597.96 641.58L598.03 641.49L598.11 641.40L598.18 641.32L598.26 641.23L598.33 641.15L598.40 641.06L598.48 640.97L598.55 640.89L598.63 640.80L598.70 640.72L598.77 640.63L598.85 640.54L598.92 640.46L599.00 640.37L599.07 640.29L599.15 640.20L599.22 640.12L599.29 640.03L599.37 639.94L599.44 639.86L599.52 639.77L599.59 639.69L599.66 639.60L599.74 639.51L599.81 639.43L599.89 639.34L599.96 639.26L600.03 639.17L600.11 639.08L600.18 639.00L600.26 638.91L600.33 638.83L600.41 638.74L600.48 638.65L600.55 638.57L600.63 638.48L600.70 638.40L600.78 638.31L600.85 638.22L600.92 638.14" fill="none" stroke="#e01b0f" stroke-width="0.55" opacity=".20" stroke-linecap="round"/><path d="M608.06 643.58L608.01 643.53L607.95 643.48L607.90 643.43L607.84 643.39L607.79 643.34L607.73 643.29L607.68 643.24L607.63 643.20L607.57 643.15L607.52 643.10L607.46 643.05L607.41 643.01L607.35 642.96L607.30 642.91L607.24 642.86L607.19 642.81L607.13 642.77L607.08 642.72L607.03 642.67L606.97 642.62L606.92 642.58L606.86 642.53L606.81 642.48L606.75 642.43L606.70 642.39L606.64 642.34L606.59 642.29L606.53 642.24L606.48 642.19L606.42 642.15L606.37 642.10L606.32 642.05L606.26 642.00L606.21 641.96L606.15 641.91L606.10 641.86L606.04 641.81L605.99 641.77L605.93 641.72L605.88 641.67L605.82 641.62L605.77 641.57L605.72 641.53L605.66 641.48L605.61 641.43L605.55 641.38L605.50 641.34L605.44 641.29L605.28 641.15L605.13 641.02L604.97 640.90L604.81 640.78L604.65 640.66L604.50 640.56L604.34 640.46L604.18 640.36L604.03 640.27L603.87 640.19L603.72 640.11L603.56 640.04L603.41 639.98L603.25 639.92L603.09 639.87L602.94 639.83L602.78 639.79L602.62 639.76L602.46 639.73L602.31 639.72L602.15 639.70L601.99 639.70L601.83 639.70L601.66 639.72L601.50 639.73L601.34 639.76L601.17 639.79L601.01 639.83L600.84 639.88L600.67 639.93L600.51 639.99L600.33 640.06L600.16 640.14L599.99 640.23L599.81 640.32L599.64 640.42L599.46 640.53L599.28 640.64L599.10 640.77L598.91 640.90L598.73 641.04L598.54 641.19L598.35 641.35L598.16 641.52L597.96 641.69L597.77 641.87L597.57 642.06L597.37 642.26L597.44 642.18L597.51 642.09L597.59 642.01L597.66 641.92L597.74 641.83L597.81 641.75L597.88 641.66L597.96 641.58L598.03 641.49L598.11 641.40L598.18 641.32L598.26 641.23L598.33 641.15L598.40 641.06L598.48 640.97L598.55 640.89L598.63 640.80L598.70 640.72L598.77 640.63L598.85 640.54L598.92 640.46L599.00 640.37L599.07 640.29L599.15 640.20L599.22 640.12L599.29 640.03L599.37 639.94L599.44 639.86L599.52 639.77L599.59 639.69L599.66 639.60L599.74 639.51L599.81 639.43L599.89 639.34L599.96 639.26L600.03 639.17L600.11 639.08L600.18 639.00L600.26 638.91L600.33 638.83L600.41 638.74L600.48 638.65L600.55 638.57L600.63 638.48L600.70 638.40L600.78 638.31L600.85 638.22L600.92 638.14" fill="none" stroke="#e01b0f" stroke-width="0.28" stroke-linecap="round" stroke-dasharray="0.012 0.34" opacity="1" filter="url(#gl)"/></svg>