<svg xmlns="http://www.w3.org/2000/svg" xmlns:xlink="http://www.w3.org/1999/xlink" xmlns:inkscape="http://www.inkscape.org/namespaces/inkscape" xmlns:sodipodi="http://sodipodi.sourceforge.net/DTD/sodipodi-0.0.dtd" viewBox="550.32 633.65 34.61 25.59"><defs><filter id="gl" x="-30%" y="-30%" width="160%" height="160%"><feGaussianBlur stdDeviation="0.10" result="b"/><feMerge><feMergeNode in="b"/><feMergeNode in="b"/><feMergeNode in="SourceGraphic"/></feMerge></filter></defs><rect x="550.32" y="633.65" width="34.61" height="25.59" fill="#0a0e1a"/><g opacity="0.45" transform="rotate(75.84 570.423 643.320)"><g xmlns="http://www.w3.org/2000/svg" id="bgG"><defs id="defs40143"><clipPath id="clipPath24" clipPathUnits="userSpaceOnUse"/></defs><path id="rect1" fill="#0a0e1a" d="M0 0h2000v1380H0Z" style="display:inline;fill:#0a0e1a"/><g xmlns:inkscape="http://www.inkscape.org/namespaces/inkscape" inkscape:label="RUNWAY" id="layer-runways" style="display:inline"/><g xmlns:inkscape="http://www.inkscape.org/namespaces/inkscape" inkscape:label="GREEN-AREAS" id="layer-green" style="display:inline"><path inkscape:label="GREEN-54" id="polygon37392" d="m615.87 673.59-5.62-7.97 16.52-11.76-1.44-2.16-30.37-42.92-5.49-3.82-39.12 27.81-8.04.07.71 1 5.18-.03.75 1.06 40.52-28.82 4.85 3.38 30.28 42.79 1.34 2.02-16.35 11.63 5.74 8.11z" data-class="green-zone" data-dxf-pts="1495.48,1681.16 1507.76,1681.16 1537.66,1723.86 1550.68,1723.86 1550.68,2223.33 1606.50,2243.49 2132.35,2243.49 2156.68,2242.86 2156.68,2041.24 2256.33,2041.24 2256.33,2047.96 2158.49,2048.05 2158.35,2251.82 2132.35,2252.49 1604.92,2252.49 1541.68,2229.65 1541.68,1747.45" data-handle="7BD12" data-layer="기타지역" style="fill:#13181e;stroke:#1a1f26;stroke-width:.1;display:inline"/></g><g xmlns:inkscape="http://www.inkscape.org/namespaces/inkscape" inkscape:label="SCHM" id="layer-schm" style="display:inline"><path id="polygon35377" d="m556.56 655.24-6.24-8.82 8.34-5.93 6.24 8.82z" data-class="schm" data-dxf-pts="1653.05,1668.06 1653.05,1770.86 1761.45,1770.86 1761.45,1668.06" data-handle="7AE8C" data-layer="SCHM" style="fill:none;stroke:#5a5f68;stroke-width:.1;stroke-opacity:.6"/><path id="line36922" d="m566.91 622.1-17.96 12.77" data-class="schm" data-dxf-p="1550.680,1945.236 1550.680,1723.857" data-handle="7BC55" data-layer="SCHM" data-wgs="37.4780334,126.4199782 37.4768799,126.4179376" style="fill:none;stroke:#5a5f68;stroke-width:.1;stroke-opacity:.6"/><path id="path36927" d="m602.45 667.15-31.32-44.26a2 2 0 0 1 .47-2.78l16.65-11.85a2 2 0 0 1 2.29-.01l2.64 1.85.49.48 29.57 41.79a2 2 0 0 1-.47 2.78l-17.55 12.48a2 2 0 0 1-2.77-.48z" data-class="schm" data-dxf-bulges="0.0000 -0.4142 0.0000 -0.3160 0.0000 0.0000 0.0000 -0.4142 0.0000 -0.4142" data-dxf-pts="2125.68,1975.24 1581.68,1975.24 1561.68,1995.24 1561.68,2200.51 1574.89,2219.32 1605.31,2230.30 1612.10,2231.49 2125.68,2231.49 2145.68,2211.49 2145.68,1995.24" data-handle="7BC73" data-layer="SCHM" style="fill:none;stroke:#5a5f68;stroke-width:.1;stroke-opacity:.6"/><path id="path36928" d="m612.86 683.59-42.54-60.13a2 2 0 0 0-2.77-.47l-22.94 16.31" data-class="schm" data-dxf-bulges="0.0000 0.4142 0.0000 0.0000" data-dxf-pts="2320.58,1965.24 1581.68,1965.24 1561.68,1945.24 1561.68,1662.50" data-handle="7BC74" data-layer="SCHM" style="fill:none;stroke:#5a5f68;stroke-width:.1;stroke-opacity:.6"/><path id="path37090" d="m541.5 634.9 46.91 66.26a2 2 0 0 0 2.77.47" data-class="schm" data-dxf-bulges="0.0000 0.4142 0.0000" data-dxf-pts="1507.60,1662.49 2322.03,1662.74 2342.03,1682.74" data-handle="7BDD9" data-layer="SCHM" style="fill:none;stroke:#5a5f68;stroke-width:.1;stroke-opacity:.6"/><path id="path37151" d="m543.98 638.41 43.64-31.04a3.1 3.1 0 0 1 3.54-.02l2.65 1.84a3 3 0 0 1 .75.76l29.57 41.79a3.1 3.1 0 0 1-.73 4.31l-17.46 12.41a2 2 0 0 0-.47 2.78l8.52 12.05 6.24-4.44.24-1.39-3.36-4.75-1.78 1.27" data-class="schm" data-dxf-bulges="0.0000 -0.3160 0.0000 -0.0869 0.0000 -0.4142 0.0000 0.4142 0.0000 0.0000 0.0000 0.0000 0.0000 0.0000" data-dxf-pts="1550.68,1662.50 1550.68,2200.51 1571.15,2229.66 1601.57,2240.65 1612.10,2242.49 2125.68,2242.49 2156.68,2211.49 2156.68,1996.24 2176.68,1976.24 2324.68,1976.24 2324.68,2053.24 2314.68,2063.24 2256.33,2063.24 2256.33,2041.24" data-handle="7BE42" data-layer="SCHM" style="fill:none;stroke:#5a5f68;stroke-width:.1;stroke-opacity:.6;display:inline"/><path id="polyline37153" d="m544.6 640.87 44.05 62.37" data-class="schm" data-dxf-pts="1574.43,1653.35 2340.50,1652.68" data-handle="94637" data-layer="SCHM" style="fill:none;stroke:#5a5f68;stroke-width:.1;stroke-opacity:.6"/></g><g xmlns:inkscape="http://www.inkscape.org/namespaces/inkscape" inkscape:label="TWY" id="layer-centerlines" style="display:inline"><g inkscape:label="TWY-JCT-M-M19" id="g522" style="display:inline"/><path inkscape:label="TWY-M19" id="polyline38710" d="m591.49 636.63-38.06 27.07" style="baseline-shift:baseline;display:inline;overflow:visible;opacity:1;fill:none;stroke:#e6d24c;stroke-width:.1;stroke-dasharray:none;stroke-opacity:1;stop-color:#000;stop-opacity:1"/><g inkscape:label="TWY-JCT-M-M19" id="g639" style="display:inline"><path inkscape:label="TWY-JCT-M-M19-02" id="path38495" d="M550.49 659.54a5.07 5.07 0 0 0 7.08 1.22" data-class="centerline-twy" data-dxf-bulges="0.4148 0.0000" data-dxf-pts="1761.33,1593.23 1812.43,1644.23" data-handle="711BE" data-layer="항공기동선" style="fill:none;stroke:#e6d24c;stroke-width:.1"/><path inkscape:label="TWY-JCT-M-M19-01" id="path38713" d="M557.57 660.76a5.1 5.1 0 0 0-1.2 7.1" data-class="centerline-twy" data-dxf-bulges="0.4148 0.0000" data-dxf-pts="1812.43,1644.23 1863.53,1593.23" data-handle="712CC" data-layer="항공기동선" style="fill:none;stroke:#e6d24c;stroke-width:.1"/></g><g inkscape:label="TWY-JCT-R4-M19" id="g702" style="display:inline"><path inkscape:label="TWY-JCT-R4-M19-04" id="path38714" d="M567.87 653.43a5.1 5.1 0 0 0 1.2-7.09" data-class="centerline-twy" data-dxf-bulges="0.4142 0.0000" data-dxf-pts="1812.43,1771.23 1761.43,1822.23" data-handle="712CD" data-layer="항공기동선" style="fill:none;stroke:#e6d24c;stroke-width:.1"/><path inkscape:label="TWY-JCT-R4-M19-03" id="path38715" d="M574.94 654.64a5.07 5.07 0 0 0-7.07-1.21" data-class="centerline-twy" data-dxf-bulges="0.4142 0.0000" data-dxf-pts="1863.43,1822.23 1812.43,1771.23" data-handle="712CE" data-layer="항공기동선" style="fill:none;stroke:#e6d24c;stroke-width:.1"/><path inkscape:label="TWY-JCT-R4-M19-02" id="path38716" d="M574.31 653.75a4 4 0 0 1 .94-5.57" data-class="centerline-twy" data-dxf-bulges="-0.4142 0.0000" data-dxf-pts="1852.43,1822.23 1812.43,1862.23" data-handle="712CF" data-layer="항공기동선" style="fill:none;stroke:#e6d24c;stroke-width:.1"/><path inkscape:label="TWY-JCT-R4-M19-01" id="path38717" d="M575.25 648.18a4 4 0 0 1-5.55-.94" data-class="centerline-twy" data-dxf-bulges="-0.4142 0.0000" data-dxf-pts="1812.43,1862.23 1772.43,1822.23" data-handle="712D0" data-layer="항공기동선" style="fill:none;stroke:#e6d24c;stroke-width:.1"/></g><path inkscape:label="TWY-R26" id="polyline38718" d="m580.99 614.89 32.12 45.4" data-class="centerline-twy" data-dxf-pts="1573.64,2102.48 2131.60,2102.48" data-handle="712D3" data-layer="항공기동선" style="fill:none;stroke:#e6d24c;stroke-width:.1;display:inline"/><g inkscape:label="TWY-JCT-R4-M18" id="g701" style="display:inline"><path inkscape:label="TWY-JCT-R4-M18-04" id="path38730" d="M572.91 660.55a5.1 5.1 0 0 0 1.2-7.09" data-class="centerline-twy" data-dxf-bulges="0.4142 0.0000" data-dxf-pts="1899.93,1771.23 1848.93,1822.23" data-handle="71200000" data-layer="항공기동선" style="fill:none;stroke:#e6d24c;stroke-width:.1"/><path inkscape:label="TWY-JCT-R4-M18-03" id="path38731" d="M579.98 661.76a5.07 5.07 0 0 0-7.07-1.21" data-class="centerline-twy" data-dxf-bulges="0.4142 0.0000" data-dxf-pts="1950.93,1822.23 1899.93,1771.23" data-handle="712000000" data-layer="항공기동선" style="fill:none;stroke:#e6d24c;stroke-width:.1;display:inline"/><path inkscape:label="TWY-JCT-R4-M18-02" id="path38736" d="M579.35 660.87a4 4 0 0 1 .94-5.57" data-class="centerline-twy" data-dxf-bulges="-0.4142 0.0000" data-dxf-pts="1939.93,1822.23 1899.93,1862.23" data-handle="712EC" data-layer="항공기동선" style="fill:none;stroke:#e6d24c;stroke-width:.1"/><path inkscape:label="TWY-JCT-R4-M18-01" id="path38737" d="M580.29 655.3a4 4 0 0 1-5.55-.94" data-class="centerline-twy" data-dxf-bulges="-0.4142 0.0000" data-dxf-pts="1899.93,1862.23 1859.93,1822.23" data-handle="712ED" data-layer="항공기동선" style="fill:none;stroke:#e6d24c;stroke-width:.1"/></g><path inkscape:label="TWY-M18" id="polyline38737" d="m596.53 643.75-33.93 24.13" data-class="centerline-twy" data-dxf-pts="1899.93,2062.48 1899.93,1644.23" data-handle="712EE" data-layer="항공기동선" style="fill:none;stroke:#e6d24c;stroke-width:.1"/><path inkscape:label="TWY-M" id="line38837" d="m549.25 657.8 229.81 324.93Z" style="baseline-shift:baseline;display:inline;overflow:visible;fill:none;stroke:#e6d24c;stroke-width:.1;stroke-dasharray:none;stroke-opacity:1;stop-color:#000"/><g inkscape:label="TWY-R4" id="g316" style="display:inline"><path inkscape:label="TWY-R4-18" id="polyline38656" d="m603.35 694.8-45.09-63.74" style="baseline-shift:baseline;display:inline;overflow:visible;opacity:1;fill:none;stroke:#e6d24c;stroke-width:.1;stroke-dasharray:none;stroke-opacity:1;stop-color:#000;stop-opacity:1"/></g><g inkscape:label="TWY-STD520-558" id="g317"><g inkscape:label="TWY-STD541-547" id="g791" style="display:inline"><g inkscape:label="TWY-STD546" id="g751"><path inkscape:label="TWY-STD546" id="polyline38659" d="m566.53 633.78 5.83-4.15" data-class="centerline-twy" data-dxf-pts="1643.93,1874.28 1643.93,1946.23" data-handle="71283" data-layer="항공기동선" style="fill:none;stroke:#e6d24c;stroke-width:.1"/><g inkscape:label="TWY-LEAD-R4-STD546" id="g715" style="display:inline"><path inkscape:label="TWY-LEAD-R4-STD546-02" id="path38687" d="M566.53 633.78a3.63 3.63 0 0 1-3.99 3.34" data-class="centerline-twy" data-dxf-bulges="-0.4210 -0.4210" data-dxf-pts="1643.93,1874.28 1648.12,1822.23" data-handle="712A6" data-layer="항공기동선" style="fill:none;stroke:#e6d24c;stroke-width:.1"/><path inkscape:label="TWY-LEAD-R4-STD546-01" id="path38708" d="M566.53 633.78a3.63 3.63 0 0 0-4.47 2.66" data-class="centerline-twy" data-dxf-bulges="0.4210 0.4210" data-dxf-pts="1643.93,1874.28 1639.74,1822.23" data-handle="712C5" data-layer="항공기동선" style="fill:none;stroke:#e6d24c;stroke-width:.1"/></g></g><g inkscape:label="TWY-STD545" id="g752"><path inkscape:label="TWY-STD545" id="polyline38708" d="m570.7 639.68 5.84-4.15" data-class="centerline-twy" data-dxf-pts="1716.43,1874.28 1716.43,1946.23" data-handle="712C6" data-layer="항공기동선" style="fill:none;stroke:#e6d24c;stroke-width:.1"/><g inkscape:label="TWY-LEAD-R4-STD545" id="g714"><path inkscape:label="TWY-LEAD-R4-STD545-02" id="path38709" d="M570.7 639.68a3.63 3.63 0 0 1-3.98 3.34" data-class="centerline-twy" data-dxf-bulges="-0.4210 -0.4210" data-dxf-pts="1716.43,1874.28 1720.62,1822.23" data-handle="712C7" data-layer="항공기동선" style="fill:none;stroke:#e6d24c;stroke-width:.1"/><path inkscape:label="TWY-LEAD-R4-STD545-01" id="path38710" d="M570.7 639.68a3.63 3.63 0 0 0-4.46 2.66" data-class="centerline-twy" data-dxf-bulges="0.4210 0.4210" data-dxf-pts="1716.43,1874.28 1712.24,1822.23" data-handle="712C8" data-layer="항공기동선" style="fill:none;stroke:#e6d24c;stroke-width:.1"/></g></g><g inkscape:label="TWY-STD547" id="g750"><g inkscape:label="TWY-LEAD-R4-STD547" id="g703" style="display:inline"><path inkscape:label="TWY-LEAD-R4-STD547-01" id="path335" d="m563.19 629.05-4.23 3.01" style="baseline-shift:baseline;display:inline;overflow:visible;opacity:1;fill:none;stroke:#e6d24c;stroke-width:.1;stroke-dasharray:none;stroke-opacity:1;stop-color:#000;stop-opacity:1"/><path inkscape:label="TWY-LEAD-R4-STD547-02" id="path38718" d="M563.19 629.06a3.63 3.63 0 0 0-4.47 2.66" data-class="centerline-twy" data-dxf-bulges="0.4210 0.0000" data-dxf-pts="1585.93,1874.28 1581.74,1822.23" data-handle="712D2" data-layer="항공기동선" style="fill:none;stroke:#e6d24c;stroke-width:.1"/></g></g><g inkscape:label="TWY-STD544-LR" id="g759"><g inkscape:label="TWY-STD544R" id="g755"/><g inkscape:label="TWY-STD544L" id="g753"><path inkscape:label="TWY-LEAD-R4-STD544L" id="path711" d="m586.42 661.97-4.19 2.98" style="baseline-shift:baseline;display:inline;overflow:visible;opacity:1;fill:none;stroke:#e6d24c;stroke-width:.1;stroke-dasharray:none;stroke-opacity:1;stop-color:#000;stop-opacity:1"/></g><g inkscape:label="TWY-STD544" id="g754"/></g></g><g inkscape:label="TWY-STD531-536" id="g792" style="display:inline"><g inkscape:label="TWY-STD534" id="g772"><path inkscape:label="TWY-STD534" id="polyline38695" d="m580.27 632.87 4.77-3.39" data-class="centerline-twy" data-dxf-pts="1716.43,1992.23 1716.43,2051.02" data-handle="712B2" data-layer="항공기동선" style="fill:none;stroke:#e6d24c;stroke-width:.1"/></g></g><g inkscape:label="TWY-STD520-530" id="g793" style="display:inline"/><g inkscape:label="TWY-STD551-558" id="g790" style="display:inline"><g inkscape:label="TWY-STD554" id="g744"><g inkscape:label="TWY-LEAD-R4-PAD554" id="g743"><path inkscape:label="TWY-LEAD-R4-PAD554-01" id="path38679" d="M579.35 667.77a4 4 0 0 0 .95-5.56" data-class="centerline-twy" data-dxf-bulges="0.4142 0.0000" data-dxf-pts="1996.43,1782.23 1956.43,1822.23" data-handle="7129A" data-layer="항공기동선" style="fill:none;stroke:#e6d24c;stroke-width:.1"/></g></g><g inkscape:label="TWY-STD557-LR" id="g748"><g inkscape:label="TWY-STD557" id="g746"><path inkscape:label="TWY-STD557" id="polyline38657" d="m561.81 644.87-8.37 5.96" style="baseline-shift:baseline;display:inline;overflow:visible;opacity:1;fill:none;stroke:#e6d24c;stroke-width:.1;stroke-dasharray:none;stroke-opacity:1;stop-color:#000;stop-opacity:1"/><path inkscape:label="TWY-LEAD-R4-PAD557" id="path38681" d="M568.88 646.08a5.07 5.07 0 0 0-7.07-1.21" data-class="centerline-twy" data-dxf-bulges="0.4142 0.0000" data-dxf-pts="1758.23,1822.23 1707.23,1771.23" data-handle="7129C" data-layer="항공기동선" style="fill:none;stroke:#e6d24c;stroke-width:.1;display:inline"/></g><g inkscape:label="TWY-STD557L" id="g745"><path inkscape:label="TWY-STD557L" id="path630" d="m563.3 647.04-8.35 5.93" style="baseline-shift:baseline;display:inline;overflow:visible;opacity:1;fill:none;stroke:#e6d24c;stroke-width:.1;stroke-dasharray:none;stroke-opacity:1;stop-color:#000;stop-opacity:1"/><path inkscape:label="TWY-LEAD-R4-PAD557L" id="polyline38682" d="m567.46 644.07-4.17 2.97" style="baseline-shift:baseline;display:inline;overflow:visible;opacity:1;fill:none;stroke:#e6d24c;stroke-width:.1;stroke-dasharray:none;stroke-opacity:1;stop-color:#000;stop-opacity:1"/></g><g inkscape:label="TWY-STD557R" id="g747"><path inkscape:label="TWY-STD557R" id="path633" d="m560.24 642.77-8.3 5.9" style="baseline-shift:baseline;display:inline;overflow:visible;opacity:1;fill:none;stroke:#e6d24c;stroke-width:.1;stroke-dasharray:none;stroke-opacity:1;stop-color:#000;stop-opacity:1"/><path inkscape:label="TWY-LEAD-R4-PAD557R" id="polyline39231" d="m564.43 639.79-4.19 2.98" style="baseline-shift:baseline;display:inline;overflow:visible;opacity:1;fill:none;stroke:#e6d24c;stroke-width:.1;stroke-dasharray:none;stroke-opacity:1;stop-color:#000;stop-opacity:1"/></g></g><g inkscape:label="TWY-STD558" id="g749"><path inkscape:label="TWY-LEAD-R4-PAD558" id="path38682" d="M562.7 637.34a4 4 0 0 0-5.55-.95" data-class="centerline-twy" data-dxf-bulges="0.4142 0.0000" data-dxf-pts="1650.83,1822.23 1610.83,1782.23" data-handle="7129F" data-layer="항공기동선" style="fill:none;stroke:#e6d24c;stroke-width:.1"/><path inkscape:label="TWY-STD558" id="polyline39232" d="m557.15 636.4-9.7 6.9" style="baseline-shift:baseline;display:inline;overflow:visible;opacity:1;fill:none;stroke:#e6d24c;stroke-width:.1;stroke-dasharray:none;stroke-opacity:1;stop-color:#000;stop-opacity:1"/></g></g></g></g><g xmlns:inkscape="http://www.inkscape.org/namespaces/inkscape" inkscape:label="STOP" id="g1004"/><g xmlns:inkscape="http://www.inkscape.org/namespaces/inkscape" inkscape:label="STD520-558" id="g696" style="display:inline;stroke:#5b5e67"><rect inkscape:label="STD545" id="rect340-3-9-2-7-2-9-2-0-9-4-2-8-5-5-2-3-3" width="4.1" height="5.731" x="850.046" y="-101.805" ry=".658" style="display:inline;fill:none;stroke:#5b5e67;stroke-width:.1;stroke-linecap:round;stroke-linejoin:round;stroke-miterlimit:5;stroke-dasharray:none;stroke-dashoffset:0;paint-order:stroke fill markers" transform="rotate(54.553)"/><rect inkscape:label="STD534" id="rect340-3-9-2-7-2-9-2-0-9-4-2-8-5-5-2-3-3-8" width="4.1" height="5.731" x="850.051" y="-110.984" ry=".658" style="display:inline;fill:none;stroke:#5b5e67;stroke-width:.1;stroke-linecap:round;stroke-linejoin:round;stroke-miterlimit:5;stroke-dasharray:none;stroke-dashoffset:0;paint-order:stroke fill markers" transform="rotate(54.553)"/><rect inkscape:label="STD546" id="rect340-3-9-2-7-2-9-2-0-9-4-2-8-5-5-2-3-3-5" width="4.1" height="5.731" x="842.819" y="-101.797" ry=".658" style="display:inline;fill:none;stroke:#5b5e67;stroke-width:.1;stroke-linecap:round;stroke-linejoin:round;stroke-miterlimit:5;stroke-dasharray:none;stroke-dashoffset:0;paint-order:stroke fill markers" transform="rotate(54.553)"/><g inkscape:label="STD557-LR" id="g690" style="stroke:#5b5e67"><rect inkscape:label="STD557" id="rect340-3-9-2-7-2-9-2-0-9-4-2-8-9-6-8-3" width="4.1" height="5.731" x="849.116" y="-81.509" ry=".658" style="display:inline;fill:none;stroke:#5b5e67;stroke-width:.1;stroke-linecap:round;stroke-linejoin:round;stroke-miterlimit:5;stroke-dasharray:none;stroke-dashoffset:0;paint-order:stroke fill markers" transform="rotate(54.553)"/><rect inkscape:label="STD557L" id="rect340-7-9-9-41-6" width="2.879" height="4.025" x="852.086" y="-83.359" ry=".462" style="display:inline;fill:none;stroke:#5b5e67;stroke-width:.1;stroke-linecap:round;stroke-linejoin:round;stroke-miterlimit:5;stroke-dasharray:none;stroke-dashoffset:0;paint-order:stroke fill markers" transform="rotate(54.736)"/><rect inkscape:label="STD557R" id="rect340-7-9-9-4-7-0" width="2.879" height="4.025" x="846.842" y="-83.394" ry=".462" style="display:inline;fill:none;stroke:#5b5e67;stroke-width:.1;stroke-linecap:round;stroke-linejoin:round;stroke-miterlimit:5;stroke-dasharray:none;stroke-dashoffset:0;paint-order:stroke fill markers" transform="rotate(54.736)"/></g></g><g xmlns:inkscape="http://www.inkscape.org/namespaces/inkscape" inkscape:label="S1-S7" id="g1052"/><g xmlns:inkscape="http://www.inkscape.org/namespaces/inkscape" id="layer-stand-labels" inkscape:label="STAND-LABELS" inkscape:groupmode="layer" style="font-family:Arial,Helvetica,sans-serif;font-weight:700;text-anchor:middle"><text x="579.49" y="632.60" style="fill:none;stroke:#0a0e1a;stroke-width:.8;stroke-linejoin:round;font-size:2.1px" id="lbl-534-h">534</text><text x="579.49" y="632.60" style="fill:#ffffff;stroke:none;font-size:2.1px" id="lbl-534">534</text><text x="578.12" y="636.00" style="fill:none;stroke:#0a0e1a;stroke-width:.8;stroke-linejoin:round;font-size:2.1px" id="lbl-545-h">545</text><text x="578.12" y="636.00" style="fill:#ffffff;stroke:none;font-size:2.1px" id="lbl-545">545</text><text x="573.08" y="630.25" style="fill:none;stroke:#0a0e1a;stroke-width:.8;stroke-linejoin:round;font-size:2.1px" id="lbl-546-h">546</text><text x="573.08" y="630.25" style="fill:#ffffff;stroke:none;font-size:2.1px" id="lbl-546">546</text><text x="557.83" y="653.71" style="fill:none;stroke:#0a0e1a;stroke-width:.8;stroke-linejoin:round;font-size:2.1px" id="lbl-557L-h">557L</text><text x="557.83" y="653.71" style="fill:#ffffff;stroke:none;font-size:2.1px" id="lbl-557L">557L</text></g><path d="M578.41 652.52L582.30 658.32" style="opacity:1;fill:none;fill-opacity:1;stroke:#ff1a00;stroke-width:.15;stroke-miterlimit:4;stroke-dasharray:.3,.15;stroke-dashoffset:.0600001;stroke-opacity:1"/><path d="M574.69 662.82L571.01 657.68" style="opacity:1;fill:none;fill-opacity:1;stroke:#ff1a00;stroke-width:.15;stroke-miterlimit:4;stroke-dasharray:.3,.15;stroke-dashoffset:.0600001;stroke-opacity:1"/><g id="pt-43" transform="translate(572.56,648.37)"><circle r="0.84" fill="#e01b0f" stroke="#ffffff" stroke-width=".08"/><text y="0.15" text-anchor="middle" font-family="Arial,Helvetica,sans-serif" font-weight="700" font-size="0.4px" letter-spacing=".03" fill="#ffffff">43</text></g><path d="M575.85 652.68L575.37 652.74" style="opacity:1;fill:none;fill-opacity:1;stroke:#ff1a00;stroke-width:.15;stroke-miterlimit:4;stroke-dasharray:.3,.15;stroke-dashoffset:.0600001;stroke-opacity:1"/></g></g><path d="M576.85 645.21L576.79 645.16L576.73 645.11L576.68 645.06L576.62 645.01L576.56 644.96L576.50 644.91L576.44 644.86L576.39 644.80L576.33 644.75L576.27 644.70L576.21 644.65L576.16 644.60L576.10 644.55L576.04 644.50L575.98 644.45L575.92 644.40L575.87 644.35L575.81 644.30L575.75 644.24L575.69 644.19L575.63 644.14L575.58 644.09L575.52 644.04L575.46 643.99L575.40 643.94L575.34 643.89L575.29 643.84L575.23 643.79L575.17 643.74L575.11 643.68L575.05 643.63L575.00 643.58L574.94 643.53L574.88 643.48L574.82 643.43L574.76 643.38L574.71 643.33L574.65 643.28L574.59 643.23L574.53 643.18L574.47 643.12L574.42 643.07L574.36 643.02L574.30 642.97L574.24 642.92L574.18 642.87L574.13 642.82L574.07 642.77L573.89 642.62L573.71 642.47L573.53 642.34L573.34 642.22L573.16 642.11L572.98 642.01L572.79 641.92L572.61 641.83L572.43 641.76L572.24 641.69L572.06 641.64L571.88 641.59L571.69 641.55L571.51 641.51L571.33 641.49L571.15 641.47L570.97 641.46L570.80 641.45L570.62 641.45L570.44 641.46L570.27 641.48L570.10 641.50L569.93 641.52L569.76 641.55L569.60 641.59L569.44 641.63L569.27 641.67L569.12 641.72L568.96 641.78L568.81 641.83L568.66 641.89L568.51 641.96L568.37 642.02L568.23 642.09L568.09 642.16L567.96 642.24L567.83 642.32L567.71 642.39L567.59 642.47L567.47 642.56L567.36 642.64L567.25 642.72L567.14 642.81L567.04 642.89L566.95 642.97L566.86 643.06L566.78 643.14L566.70 643.23L566.49 643.44L566.28 643.63L566.08 643.80L565.87 643.96L565.66 644.10L565.44 644.22L565.23 644.32L565.02 644.41L564.81 644.49L564.60 644.55L564.39 644.60L564.18 644.63L563.97 644.65L563.76 644.66L563.56 644.66L563.35 644.65L563.15 644.63L562.95 644.60L562.76 644.56L562.56 644.51L562.37 644.46L562.18 644.40L562.00 644.34L561.82 644.26L561.65 644.19L561.47 644.11L561.31 644.03L561.14 643.94L560.99 643.85L560.84 643.76L560.69 643.67L560.55 643.58L560.42 643.49L560.29 643.40L560.17 643.32L560.05 643.23L559.95 643.15L559.85 643.07L559.75 643.00L559.67 642.93L559.59 642.87L559.53 642.81L559.47 642.76L559.42 642.72L559.37 642.68L559.34 642.66L559.32 642.64L559.31 642.64" fill="none" stroke="#e07a10" stroke-width="0.55" opacity=".20" stroke-linecap="round"/><path d="M576.85 645.21L576.79 645.16L576.73 645.11L576.68 645.06L576.62 645.01L576.56 644.96L576.50 644.91L576.44 644.86L576.39 644.80L576.33 644.75L576.27 644.70L576.21 644.65L576.16 644.60L576.10 644.55L576.04 644.50L575.98 644.45L575.92 644.40L575.87 644.35L575.81 644.30L575.75 644.24L575.69 644.19L575.63 644.14L575.58 644.09L575.52 644.04L575.46 643.99L575.40 643.94L575.34 643.89L575.29 643.84L575.23 643.79L575.17 643.74L575.11 643.68L575.05 643.63L575.00 643.58L574.94 643.53L574.88 643.48L574.82 643.43L574.76 643.38L574.71 643.33L574.65 643.28L574.59 643.23L574.53 643.18L574.47 643.12L574.42 643.07L574.36 643.02L574.30 642.97L574.24 642.92L574.18 642.87L574.13 642.82L574.07 642.77L573.89 642.62L573.71 642.47L573.53 642.34L573.34 642.22L573.16 642.11L572.98 642.01L572.79 641.92L572.61 641.83L572.43 641.76L572.24 641.69L572.06 641.64L571.88 641.59L571.69 641.55L571.51 641.51L571.33 641.49L571.15 641.47L570.97 641.46L570.80 641.45L570.62 641.45L570.44 641.46L570.27 641.48L570.10 641.50L569.93 641.52L569.76 641.55L569.60 641.59L569.44 641.63L569.27 641.67L569.12 641.72L568.96 641.78L568.81 641.83L568.66 641.89L568.51 641.96L568.37 642.02L568.23 642.09L568.09 642.16L567.96 642.24L567.83 642.32L567.71 642.39L567.59 642.47L567.47 642.56L567.36 642.64L567.25 642.72L567.14 642.81L567.04 642.89L566.95 642.97L566.86 643.06L566.78 643.14L566.70 643.23L566.49 643.44L566.28 643.63L566.08 643.80L565.87 643.96L565.66 644.10L565.44 644.22L565.23 644.32L565.02 644.41L564.81 644.49L564.60 644.55L564.39 644.60L564.18 644.63L563.97 644.65L563.76 644.66L563.56 644.66L563.35 644.65L563.15 644.63L562.95 644.60L562.76 644.56L562.56 644.51L562.37 644.46L562.18 644.40L562.00 644.34L561.82 644.26L561.65 644.19L561.47 644.11L561.31 644.03L561.14 643.94L560.99 643.85L560.84 643.76L560.69 643.67L560.55 643.58L560.42 643.49L560.29 643.40L560.17 643.32L560.05 643.23L559.95 643.15L559.85 643.07L559.75 643.00L559.67 642.93L559.59 642.87L559.53 642.81L559.47 642.76L559.42 642.72L559.37 642.68L559.34 642.66L559.32 642.64L559.31 642.64" fill="none" stroke="#e07a10" stroke-width="0.28" stroke-linecap="round" stroke-dasharray="0.012 0.34" opacity="1" filter="url(#gl)"/></svg>